<svg width="37" height="36" viewBox="0 0 37 36" fill="none" xmlns="http://www.w3.org/2000/svg">
<path d="M37 11.5204C37 10.7566 36.7001 10.024 36.1664 9.4839C35.6326 8.94377 34.9087 8.64033 34.1538 8.64033H28.4615V2.88011C28.4615 2.11626 28.1617 1.38369 27.6279 0.843565C27.0942 0.303439 26.3702 0 25.6154 0H2.84616C2.09131 0 1.36738 0.303439 0.833624 0.843565C0.299867 1.38369 5.57201e-06 2.11626 5.57201e-06 2.88011V25.921C-0.000753106 26.1937 0.0759787 26.4608 0.221057 26.6906C0.366135 26.9204 0.573443 27.1031 0.818275 27.217C1.05806 27.3356 1.32657 27.3818 1.5916 27.3498C1.85663 27.3179 2.10693 27.2093 2.31251 27.037L8.53846 21.9428V27.361C8.53846 28.1249 8.83833 28.8575 9.37208 29.3976C9.90584 29.9377 10.6298 30.2412 11.3846 30.2412H28.0346L34.6875 35.6774C34.8931 35.8496 35.1434 35.9582 35.4084 35.9902C35.6734 36.0221 35.9419 35.976 36.1817 35.8574C36.4266 35.7435 36.6339 35.5607 36.7789 35.3309C36.924 35.1012 37.0008 34.834 37 34.5613V11.5204ZM29.4221 27.6851C29.173 27.4737 28.8578 27.3588 28.5327 27.361H11.3846V21.6008H25.6154C26.3702 21.6008 27.0942 21.2974 27.6279 20.7573C28.1617 20.2171 28.4615 19.4846 28.4615 18.7207V11.5204H34.1538V31.5372L29.4221 27.6851Z" fill="#8098F9"/>
<path d="M12.5 13.1591V12.8864C12.5 12.2614 12.5492 11.7633 12.6477 11.392C12.7462 11.0208 12.892 10.7235 13.0852 10.5C13.2784 10.2727 13.5152 10.0682 13.7955 9.88636C14.0379 9.72727 14.2538 9.57386 14.4432 9.42614C14.6364 9.27841 14.7879 9.12121 14.8977 8.95455C15.0114 8.78788 15.0682 8.59849 15.0682 8.38636C15.0682 8.19697 15.0227 8.0303 14.9318 7.88636C14.8409 7.74242 14.7178 7.63068 14.5625 7.55114C14.4072 7.47159 14.2348 7.43182 14.0455 7.43182C13.8409 7.43182 13.6515 7.47917 13.4773 7.57386C13.3068 7.66856 13.1686 7.79924 13.0625 7.96591C12.9602 8.13258 12.9091 8.32576 12.9091 8.54545H10C10.0076 7.71212 10.197 7.03599 10.5682 6.51705C10.9394 5.99432 11.4318 5.61174 12.0455 5.36932C12.6591 5.12311 13.3333 5 14.0682 5C14.8788 5 15.6023 5.11932 16.2386 5.35795C16.875 5.5928 17.3769 5.94886 17.7443 6.42614C18.1117 6.89962 18.2955 7.49242 18.2955 8.20455C18.2955 8.66288 18.2159 9.06629 18.0568 9.41477C17.9015 9.75947 17.6837 10.0644 17.4034 10.3295C17.1269 10.5909 16.803 10.8295 16.4318 11.0455C16.1591 11.2045 15.9299 11.3693 15.7443 11.5398C15.5587 11.7064 15.4186 11.8977 15.3239 12.1136C15.2292 12.3258 15.1818 12.5833 15.1818 12.8864V13.1591H12.5ZM13.8864 16.9773C13.447 16.9773 13.0701 16.8239 12.7557 16.517C12.4451 16.2064 12.2917 15.8295 12.2955 15.3864C12.2917 14.9545 12.4451 14.5852 12.7557 14.2784C13.0701 13.9716 13.447 13.8182 13.8864 13.8182C14.303 13.8182 14.6705 13.9716 14.9886 14.2784C15.3106 14.5852 15.4735 14.9545 15.4773 15.3864C15.4735 15.6818 15.3958 15.9508 15.2443 16.1932C15.0966 16.4318 14.9034 16.6231 14.6648 16.767C14.4261 16.9072 14.1667 16.9773 13.8864 16.9773Z" fill="white"/>
</svg>
