<svg width="137" height="57" viewBox="0 0 137 57" fill="none" xmlns="http://www.w3.org/2000/svg">
<path d="M3.35843 0.287333C3.18309 0.362824 3.05227 0.521262 2.92203 0.679419C2.1987 1.55925 2.36716 2.96869 2.26328 4.11617C2.04314 6.54651 1.55687 8.68192 0.935509 11.029C0.689313 11.9597 0.349631 13.1908 1.07142 13.8364C1.57298 14.2847 2.08614 14.1559 2.56504 13.6979C3.04394 13.2398 3.23459 12.4487 3.4284 11.8087C3.91103 10.2152 4.41632 7.8133 4.80053 6.0921C4.81526 6.02649 4.90495 6.02101 4.92986 6.08423C5.21473 6.82252 5.83953 8.20152 6.16439 8.77717C13.3551 21.5123 22.9941 34.1877 37.9113 41.0752C44.3581 44.052 50.7815 46.084 57.7623 46.6931C58.367 46.7457 59.2081 47.1544 59.6246 47.6074C72.5897 61.7046 94.4955 57.037 108.81 46.2386C119.765 37.9755 130.622 25.9581 134.313 12.8047C134.628 11.6812 137.512 0.921524 135.599 1.17946C135.445 1.20001 135.25 1.20157 135.15 1.36796C134.509 2.42556 133.917 6.07258 133.395 8.41673C132.577 12.0948 131.49 15.7085 129.831 19.0818C127.406 24.0135 124.222 28.4989 120.643 32.6235C113.802 40.4323 105.845 47.9072 96.0619 51.5705C87.1665 54.9016 76.2803 56.0358 66.6126 50.9548C65.2847 50.2565 62.9622 48.474 61.9258 46.8574C61.8048 46.6683 61.8958 46.4202 62.1066 46.3575C62.8148 46.148 63.5705 46.1222 64.2997 46.0166C68.5233 45.4054 72.3918 43.8225 75.9966 41.5701C76.1245 41.4898 76.2521 41.4089 76.3791 41.3283C76.5059 41.2472 76.6324 41.1654 76.7582 41.0839C76.9152 40.9823 77.0706 40.8791 77.2264 40.7766C77.363 40.6862 77.4999 40.595 77.636 40.5035C77.9142 40.3167 78.1909 40.127 78.4668 39.9355C79.647 39.1134 80.7936 38.2426 81.9076 37.3313C88.1823 32.1991 94.2743 24.3298 94.4194 15.7039C94.4869 11.6766 92.5652 7.22343 88.5973 6.05209C75.6942 2.24416 64.5454 12.7351 60.1114 22.598C58.737 25.6544 57.8182 29.5337 57.5583 32.9028C57.3547 35.5474 57.4937 38.2195 57.9154 40.8336C58.0881 41.9033 58.8164 43.8709 57.7264 44.3562C56.5306 44.8891 54.3798 44.3558 53.1193 44.0714C38.6813 40.8116 25.5654 32.5356 16.4391 20.6328C16.2463 20.3812 16.0552 20.1288 15.8662 19.8748C13.1189 16.1909 10.9055 12.1151 8.66541 8.05233C8.08816 7.00478 7.43926 5.64696 6.99548 4.93088C6.95352 4.86351 6.98712 4.77778 7.06525 4.77353C9.08789 4.65994 11.7682 5.23988 13.697 5.7229C14.4108 5.90168 15.1633 6.05664 15.8676 5.86285C16.5714 5.66934 17.2516 5.0107 17.1246 4.2777C17.0051 3.58646 15.6084 3.58229 14.6765 3.31553C12.0036 2.54999 9.48484 1.50432 6.81166 0.738193C5.62026 0.398404 4.49532 -0.201645 3.35843 0.287333ZM75.8691 9.07839C77.3824 8.44131 78.9401 7.96686 80.4971 7.68869C84.7968 6.92153 90.6459 7.69335 92.1324 12.6667C93.4759 17.1619 91.2288 22.4204 88.9858 26.1705C86.076 31.0339 81.9183 35.0463 77.351 38.2997C75.6555 39.5075 73.8906 40.624 72.0321 41.5622C70.1719 42.5012 68.2509 43.1671 66.2507 43.7229C65.2388 44.0044 64.214 44.2476 63.1719 44.3931C62.3154 44.5123 61.1623 44.792 60.5867 43.9074C59.6937 42.5349 59.2882 39.4371 59.2119 37.4261C58.7651 25.662 64.9495 13.6751 75.8691 9.07839Z" fill="#EC4A0A"/>
</svg>
