<svg id="Group_7452" data-name="Group 7452" xmlns="http://www.w3.org/2000/svg" xmlns:xlink="http://www.w3.org/1999/xlink" width="23.5" height="26.749" viewBox="0 0 23.5 26.749">
  <defs>
    <clipPath id="clip-path">
      <rect id="Rectangle_3137" data-name="Rectangle 3137" width="23.5" height="26.749"/>
    </clipPath>
  </defs>
  <g id="Group_7451" data-name="Group 7451" clip-path="url(#clip-path)">
    <path id="Path_16263" data-name="Path 16263" d="M22.741,15.6,4.374,26.7C2.731,27.7.5,26.656.5,24.895V2.695C.5.934,2.731-.108,4.374.886l18.367,11.1a2.056,2.056,0,0,1,0,3.618" transform="translate(-0.411 -0.42)"/>
    <path id="Path_16264" data-name="Path 16264" d="M22.741,15.6,4.374,26.7C2.731,27.7.5,26.656.5,24.895V2.695C.5.934,2.731-.108,4.374.886l18.367,11.1A2.056,2.056,0,0,1,22.741,15.6Z" transform="translate(-0.411 -0.42)"/>
  </g>
</svg>
