<svg width="366" height="206" viewBox="0 0 366 206" fill="none" xmlns="http://www.w3.org/2000/svg">
<path d="M107.832 81.8963C111.262 81.5147 187.129 83.2477 187.129 83.2477C222.578 78.1019 276.378 61.793 279.491 61.1704C285.208 60.0277 303.629 81.5508 313.35 86.6967C323.07 91.8426 356.233 90.3183 348.8 102.326C341.366 114.334 309.536 133.964 294.67 141.398C294.67 141.398 251.07 155.751 238.491 158.039C225.912 160.326 229.028 169.302 220.018 173.808C204.907 181.363 190.53 183.552 142.674 187.625C115.8 189.912 53.1649 188.227 61.5756 173.209C69.9863 158.19 27.4431 168.222 34.5422 143.772C39.9481 125.149 62.0501 119.337 75.3922 111.333C75.3922 111.333 104.402 82.2778 107.832 81.8963Z" fill="#EEF4FF"/>
<path d="M236.689 160.294C236.689 160.294 254.911 154.333 273.033 153.384C292.91 152.344 268.227 161.795 248.403 169.004C233.789 174.319 223.377 183.246 226.325 173.81C228.578 166.601 236.689 160.294 236.689 160.294Z" fill="#EEF4FF"/>
<path d="M269.428 80.3951C278.959 80.3951 310.299 85.1728 310.299 85.1728L277.839 93.0102L249.5 89.3658C249.5 89.3677 259.898 80.3951 269.428 80.3951Z" fill="#6172F3"/>
<path d="M284.665 100.518L316.113 92.2265C316.113 92.2265 323.182 90.5276 325.23 90.5751C327.962 90.6377 336.602 91.2736 343.274 93.6558C344.01 93.9177 310.683 101.947 310.683 101.947L284.665 100.518Z" fill="#6172F3"/>
<path d="M247.784 123.675C248.642 123.675 294.957 135.396 290.669 137.97C286.381 140.544 281.235 146.546 264.937 145.403C248.642 144.26 222.216 134.578 226.914 131.395C243.783 119.958 248.761 122.842 247.784 123.675Z" fill="#6172F3"/>
<path d="M81.5648 167.976C81.5648 167.976 88.6031 160.617 94.0907 158.265C96.8942 157.063 116.085 143.734 123.804 142.59C128.553 141.886 166.589 138.67 178.12 139.566C185.329 140.126 173.8 141.977 172.938 145.424C170.461 155.336 156.268 159.842 156.268 159.842L133.048 163.318L124.472 157.917L113.917 167.951L85.5319 171.556L81.5648 167.976Z" fill="#6172F3"/>
<path d="M154.583 166.368C154.583 166.368 166.78 164.081 166.209 161.222C165.638 158.363 156.678 155.313 144.099 159.316C131.522 163.318 154.583 166.368 154.583 166.368Z" fill="#6172F3"/>
<path d="M80.9308 176.963C80.9308 176.963 97.9629 172.918 96.7918 169.754C95.6206 166.59 66.4821 176.815 80.9308 176.963Z" fill="#6172F3"/>
<path d="M137.141 102.024C134.969 105.192 127.606 105.987 118.634 104.945C109.661 103.905 105.806 103.835 107.978 100.667C108.509 99.8925 112.742 97.89 112.742 97.89C112.742 97.89 118.262 95.857 121.57 94.9383C128.721 92.9548 136.83 91.5198 141.068 92.2088C154.124 93.5546 139.314 98.8561 137.141 102.024Z" fill="#EC5E4D"/>
<path opacity="0.5" d="M137.141 102.024C139.313 98.8562 154.124 93.5547 141.066 92.2108C136.828 91.5218 128.719 92.9549 121.569 94.9403C121.571 94.9384 134.97 105.192 137.141 102.024Z" fill="#913636"/>
<path d="M215.985 42.221C213.09 41.6041 205.374 35.4902 205.374 35.4902C205.374 35.4902 204.661 31.9197 206.726 31.2098C208.791 30.4999 225.54 27.721 243.41 28.5183C261.279 29.3155 271.381 29.8584 278.375 30.8492C283.855 31.6255 291.528 34.7783 296.184 38.474C300.307 42.0065 298.796 43.8173 296.239 44.1913C293.682 44.5652 250.958 49.6845 215.985 42.221Z" fill="#F7D04C"/>
<path d="M215.986 42.2207L206.476 36.885C206.476 36.885 203.902 34.8692 205.968 34.1612C208.033 33.4513 226.321 30.1011 244.191 30.8964C262.06 31.6936 272.733 32.5611 279.156 33.2273C284.661 33.7987 292.309 37.1565 296.965 40.8522C301.621 44.5479 294.647 44.2954 292.09 44.6693C290.365 44.9218 271.423 46.7915 249.076 45.9031C238.322 45.478 226.777 44.4131 215.986 42.2207Z" fill="#EC5E4D"/>
<path opacity="0.5" d="M215.986 42.2209C215.986 42.2209 246.505 44.9467 264.429 43.0333C278.629 41.5186 283.061 33.8083 285.348 34.6397C289.443 36.1279 293.977 38.4835 296.965 40.8543C301.621 44.5499 294.647 44.2975 292.091 44.6714C289.534 45.0454 248.966 49.1568 215.986 42.2209Z" fill="#913636"/>
<path d="M268.527 46.0533L261.515 40.953C261.054 40.6455 260.965 40.2981 261.519 40.245L276.753 39.2864C277.357 39.2143 277.915 39.6129 278.023 39.6831L286.599 45.1327" stroke="#913636" stroke-width="0.189815" stroke-miterlimit="10"/>
<path d="M222.233 43.187L217.795 40.1975C217.423 40.0209 217.764 39.9545 218.176 40.002L231.312 40.7802C231.446 40.7954 231.575 40.8466 231.684 40.9283L235.886 44.8517" stroke="#913636" stroke-width="0.189815" stroke-miterlimit="10"/>
<path d="M174.595 115.097L186.411 122.148C186.411 122.148 231.581 94.7029 237.872 92.4157C237.872 92.4157 237.936 90.5327 244.177 89.745C255.986 88.7295 254.858 72.2839 256.735 61.5461C257.398 57.7612 258.916 42.5399 258.598 42.223C258.089 41.7143 253.07 37.3941 253.07 37.3941C246.013 37.3466 247.598 37.7414 247.598 37.7414C247.598 37.7414 247.209 53.9136 243.779 56.7742C240.349 59.6328 228.356 59.4411 220.542 58.4882C211.301 57.3607 184.027 56.33 179.929 58.9988C179.929 58.9988 196.319 59.889 198.225 78.0581C200.131 96.2272 184.634 115.795 174.595 115.097Z" fill="#913636"/>
<path d="M231.131 60.1207C230.549 59.9025 230.437 58.8452 231.05 58.8623C234.03 58.9439 236.473 56.9375 238.491 55.0147C241.087 52.5395 239.436 41.7315 239.442 38.609C239.442 38.2465 239.677 37.9409 239.992 37.8934L252.446 37.2556C253.021 37.1702 253.156 37.8023 253.008 38.4439C252.03 42.7337 249.749 55.5899 248.771 57.6418C247.773 59.7354 246.598 60.2517 245.349 60.749C244.1 61.2463 239.984 62.6301 239.168 62.7687C238.354 62.9091 237.705 62.7649 237.09 62.4896C236.479 62.2125 231.131 60.1207 231.131 60.1207Z" fill="#EC5E4D"/>
<path d="M191.225 57.4841C208.375 57.0646 217.841 69.9094 215.755 89.0674C214.73 98.4803 209.362 106.98 202.01 113.172" stroke="#F7D04C" stroke-width="0.189815" stroke-miterlimit="10"/>
<path d="M213.665 57.8238C228.776 57.4537 237.116 69.057 235.277 85.9392C234.901 89.3919 233.861 92.7061 232.308 95.7924" stroke="#F7D04C" stroke-width="0.189815" stroke-miterlimit="10"/>
<path d="M215.986 85.0471L235.459 80.9813" stroke="#F7D04C" stroke-width="0.189815" stroke-miterlimit="10"/>
<path d="M218.004 83.2666C218.346 83.2666 218.623 82.9896 218.623 82.6479C218.623 82.3061 218.346 82.0291 218.004 82.0291C217.662 82.0291 217.385 82.3061 217.385 82.6479C217.385 82.9896 217.662 83.2666 218.004 83.2666Z" fill="#EB5E4D"/>
<path d="M217.67 87.699C218.012 87.699 218.289 87.4219 218.289 87.0802C218.289 86.7384 218.012 86.4614 217.67 86.4614C217.328 86.4614 217.051 86.7384 217.051 87.0802C217.051 87.4219 217.328 87.699 217.67 87.699Z" fill="#EB5E4D"/>
<path d="M234.062 83.7905C234.404 83.7905 234.681 83.5135 234.681 83.1717C234.681 82.83 234.404 82.5529 234.062 82.5529C233.72 82.5529 233.443 82.83 233.443 83.1717C233.443 83.5135 233.72 83.7905 234.062 83.7905Z" fill="#EB5E4D"/>
<path d="M234.157 80.2656C234.499 80.2656 234.776 79.9886 234.776 79.6468C234.776 79.3051 234.499 79.028 234.157 79.028C233.815 79.028 233.538 79.3051 233.538 79.6468C233.538 79.9886 233.815 80.2656 234.157 80.2656Z" fill="#EB5E4D"/>
<path d="M203.489 61.0372C203.314 61.2232 202.912 61.2422 202.597 61.1017C202.299 60.9689 202.147 60.7278 202.253 60.5399C202.369 60.3349 202.75 60.2552 203.119 60.3861C203.513 60.5266 203.682 60.8322 203.489 61.0372Z" fill="#EB5E4D"/>
<path d="M209.398 65.5417C209.208 65.722 208.847 65.7163 208.583 65.5625C208.333 65.4183 208.205 65.162 208.297 64.9608C208.403 64.7255 208.771 64.6268 209.124 64.79C209.508 64.9684 209.623 65.3291 209.398 65.5417Z" fill="#EB5E4D"/>
<path d="M213.147 72.8326C212.947 72.9997 212.621 72.9598 212.397 72.7852C212.188 72.6238 212.084 72.36 212.16 72.1493C212.254 71.8874 212.602 71.7716 212.943 71.969C213.327 72.1911 213.403 72.6162 213.147 72.8326Z" fill="#EB5E4D"/>
<path d="M214.72 81.8542C214.49 82.0213 214.172 81.9814 213.978 81.8068C213.8 81.6454 213.741 81.3816 213.855 81.1709C213.997 80.909 214.365 80.7932 214.671 80.9906C215.016 81.2108 215.016 81.6379 214.72 81.8542Z" fill="#EB5E4D"/>
<path d="M214.593 89.7317C214.363 89.8988 214.044 89.8589 213.851 89.6843C213.672 89.5229 213.613 89.2591 213.727 89.0484C213.87 88.7865 214.238 88.6707 214.543 88.8681C214.889 89.0902 214.889 89.5154 214.593 89.7317Z" fill="#EB5E4D"/>
<path d="M211.988 98.6266C211.759 98.7936 211.44 98.7538 211.246 98.5791C211.068 98.4178 211.009 98.1539 211.123 97.9432C211.265 97.6813 211.633 97.5655 211.939 97.7629C212.284 97.985 212.284 98.4102 211.988 98.6266Z" fill="#EB5E4D"/>
<path d="M196.451 58.5412C196.472 58.3474 196.164 58.1544 195.763 58.1102C195.362 58.0661 195.019 58.1873 194.998 58.3812C194.977 58.575 195.285 58.7679 195.686 58.8121C196.087 58.8563 196.429 58.735 196.451 58.5412Z" fill="#EB5E4D"/>
<path d="M229.153 61.6429C228.984 61.8233 228.595 61.8422 228.288 61.7056C227.997 61.5784 227.851 61.343 227.954 61.1608C228.066 60.9615 228.436 60.8856 228.795 61.0127C229.178 61.1475 229.341 61.4436 229.153 61.6429Z" fill="#EB5E4D"/>
<path d="M233.263 66.4414C233.079 66.616 232.729 66.6103 232.473 66.4604C232.23 66.3199 232.107 66.0732 232.196 65.8758C232.299 65.6461 232.655 65.5512 232.999 65.7106C233.369 65.8834 233.483 66.2326 233.263 66.4414Z" fill="#EB5E4D"/>
<path d="M236.184 72.3655C235.991 72.5268 235.674 72.4889 235.457 72.3199C235.256 72.1643 235.154 71.9061 235.228 71.703C235.321 71.4506 235.657 71.3367 235.989 71.5284C236.359 71.7429 236.433 72.1567 236.184 72.3655Z" fill="#EB5E4D"/>
<path d="M237.236 79.3848C237.014 79.5462 236.704 79.5082 236.516 79.3393C236.342 79.1836 236.285 78.9255 236.397 78.7224C236.533 78.4699 236.892 78.356 237.188 78.5478C237.522 78.7623 237.522 79.176 237.236 79.3848Z" fill="#EB5E4D"/>
<path d="M237.346 83.3559C237.124 83.5172 236.814 83.4792 236.627 83.3103C236.452 83.1546 236.397 82.8965 236.507 82.6934C236.644 82.4409 237.002 82.3271 237.298 82.5188C237.633 82.7333 237.633 83.1471 237.346 83.3559Z" fill="#EB5E4D"/>
<path d="M236.615 90.5025C236.393 90.6639 236.084 90.6259 235.896 90.457C235.721 90.3013 235.666 90.0432 235.776 89.8401C235.913 89.5876 236.271 89.4737 236.568 89.6654C236.902 89.8799 236.902 90.2937 236.615 90.5025Z" fill="#EB5E4D"/>
<path d="M198.54 59.4789C198.54 59.4789 198.215 57.2714 197.79 56.0888C197.34 54.8342 196.708 54.5931 193.641 54.2609C189.429 53.8054 190.367 54.931 190.367 54.931L191.304 57.8351L198.54 59.4789Z" fill="#1D2436"/>
<path d="M190.743 57.8863L191.305 57.8351L190.405 54.4848C190.405 54.4848 189.843 54.128 189.843 54.9062C189.843 55.6845 190.743 57.8863 190.743 57.8863Z" fill="#913636"/>
<path d="M190.369 56.9336C190.369 56.9336 190.093 55.977 189.993 55.4853C189.892 54.9937 189.701 54.5154 190.192 54.4926C191.538 54.4319 194.558 54.4243 196.215 54.8305C197.453 55.1342 198.24 59.4126 198.24 59.4126C198.24 59.4126 202.614 60.1908 207.853 59.8188C213.38 59.4278 222.871 58.7672 222.871 58.7672C222.871 58.7672 213.086 54.168 205.438 53.684C197.79 53.1981 191.141 53.4315 190.492 53.4467C189.843 53.4619 188.843 53.8814 189.042 54.9633C189.241 56.0453 189.841 57.5126 189.841 57.5126L190.741 57.8865L190.369 56.9336Z" fill="#F6874E"/>
<path d="M239.928 73.774L239.423 77.2058L241.869 81.0743L254.004 79.9126L246.949 76.7408L250.098 72.9198L243.997 72.1833L244.614 68.78L239.928 73.774Z" fill="#F6874E"/>
<path d="M239.952 74.3698L239.483 77.589L241.759 81.2164L253.042 80.1268L246.482 77.1524L249.409 73.5687L243.737 72.8759L244.31 69.6851L239.952 74.3698Z" fill="#1D2436"/>
<path opacity="0.5" d="M174.595 115.097L186.411 122.148C186.411 122.148 231.581 94.7031 237.872 92.4158C237.872 92.4158 237.348 93.4048 243.295 91.3585C255.629 87.1143 254.408 77.6919 257.138 57.7253C258.142 50.3737 258.916 42.542 258.599 42.2231C258.499 42.1225 253.072 37.3942 253.072 37.3942L256.472 46.0972C256.472 46.0972 253.681 65.9006 252.184 68.3967C249.61 72.6846 238.118 74.7706 227.582 76.9763C204.202 81.8678 198.231 78.0563 198.231 78.0563C200.136 96.2292 184.634 115.795 174.595 115.097Z" fill="#913636"/>
<path d="M285.904 119.1C285.269 115.416 280.694 114.653 275.231 114.144C273.743 114.006 267.354 113.115 259.154 111.94L253.122 110.714L250.453 111.984L247.416 110.243C235.66 108.533 223.195 106.696 216.474 105.703C216.474 105.703 216.848 101.96 214.883 101.734C214.883 101.734 207.072 105.758 200.325 109.38C192.535 113.559 184.697 115.978 182.042 120.006C180.979 121.619 182.138 123.76 184.071 123.775C185.963 123.79 187.584 123.532 189.086 123.081C192.87 124.726 223.389 137.898 234.823 139.684C243.065 140.971 245.313 143.097 250.595 142.066C254.705 141.265 261.359 138.298 269.512 133.203C284.76 123.675 286.692 123.669 285.904 119.1Z" fill="#EC5E4D"/>
<path opacity="0.5" d="M283.044 116.718C282.727 114.816 280.694 114.652 275.229 114.144C273.741 114.005 267.352 113.115 259.152 111.94L253.12 110.714L250.451 111.984L247.414 110.243C235.658 108.533 223.193 106.695 216.472 105.703C216.472 105.703 216.846 101.959 214.881 101.734C214.881 101.734 207.07 105.758 200.323 109.379L208.898 115.67L263.282 120.371L267.857 125.582C279.842 119.46 283.52 119.576 283.044 116.718Z" fill="#913636"/>
<path d="M191.117 121.009C197.694 122.666 223.75 129.179 234.696 131.17C247.275 133.457 250.96 133.712 251.595 135.745C252.674 139.195 252.231 141.843 249.976 142.257C246.224 142.944 238.889 140.701 231.266 139.176C223.643 137.652 194.036 125.58 194.036 125.58C191.811 124.942 189.207 123.957 189.207 121.643C189.209 121.643 189.516 120.607 191.117 121.009Z" fill="#F6874E"/>
<path d="M228.725 130.155L237.874 128.249L239.78 125.199L245.878 126.341L261.889 123.291L266.845 124.815L263.668 132.438L261.126 137.013L256.17 135.87L246.133 138.666C246.133 138.668 230.162 131.797 228.725 130.155Z" fill="#F6874E"/>
<path d="M231.367 131.679L239.498 129.984L241.193 127.273L246.615 128.291L260.845 125.58L265.251 126.935L263.032 132.188L260.999 136.253L255.788 135.111L246.258 137.271C246.26 137.269 232.644 133.139 231.367 131.679Z" fill="#1D2436"/>
<path d="M210.301 119.608C210.937 119.354 205.188 124.532 205.188 124.532C205.188 124.532 205.727 128.63 204.711 128.376C203.696 128.122 201.408 124.946 201.408 123.42C201.406 121.896 209.665 119.861 210.301 119.608Z" fill="#F6874E"/>
<path d="M209.578 120.324C210.109 120.111 205.299 124.443 205.299 124.443C205.299 124.443 205.751 127.871 204.901 127.658C204.05 127.445 202.137 124.788 202.137 123.513C202.137 122.237 209.046 120.536 209.578 120.324Z" fill="#1D2436"/>
<path opacity="0.5" d="M214.906 117.384C214.906 117.384 234.347 121.672 237.205 121.387C240.064 121.102 243.209 119.671 243.209 119.671L214.906 117.384Z" fill="#913636"/>
<path opacity="0.63" d="M200.228 88.8244C196.035 107.481 176.4 123.094 156.717 123.139C137.268 123.183 125.9 107.092 131.221 89.6994C136.49 72.4775 155.056 57.7023 173.519 57.2885C192.193 56.8672 204.29 70.7578 200.228 88.8244Z" fill="#F6BE4A"/>
<path opacity="0.63" d="M200.228 88.8244C196.035 107.481 176.4 123.094 156.716 123.139C137.268 123.183 125.947 107.284 131.22 89.6994C136.395 72.4491 155.055 57.7023 173.519 57.2885C192.193 56.8672 204.29 70.7578 200.228 88.8244Z" fill="#F6BE4A"/>
<path d="M180.449 90.0185C177.176 105.116 163.316 117.652 149.492 118.018C135.668 118.384 127.115 106.443 130.387 91.3453C133.66 76.2474 147.683 63.1768 161.507 62.8104C175.331 62.4441 183.721 74.9225 180.449 90.0185Z" fill="#F6874E"/>
<path d="M180.058 90.8328C176.966 105.099 163.869 116.944 150.806 117.291C137.742 117.637 129.66 106.352 132.754 92.0875C135.846 77.821 148.7 64.6821 161.764 64.3366C174.825 63.9892 183.15 76.5683 180.058 90.8328Z" fill="#1D2436"/>
<path d="M173.739 69.1408L180.772 68.0209L180.696 77.432L187.556 80.5051L189.01 90.0945L177.932 97.3245C177.932 97.3245 170.395 76.3823 173.739 69.1408Z" fill="#F6874E"/>
<path d="M173.722 68.5369L175.294 69.6094L180.741 68.592L180.694 77.9309L187.032 80.8844L188.508 90.415L174.498 99.4692C174.498 99.4692 172.237 86.0189 172.475 76.3326C172.554 73.102 172.911 70.2908 173.722 68.5369Z" fill="#1D2436"/>
<path d="M164.907 99.1846L169.749 92.2848C170.28 91.5274 171.171 91.106 172.093 91.1744C173.428 91.2731 175.538 91.4667 177.953 91.8254C180.335 92.1804 181.018 95.2934 179.008 96.6183C178.361 97.0454 177.328 103.279 177.328 103.279C177.328 103.279 171.064 109.059 170.404 108.806L166.122 103.148C164.521 102.539 163.924 100.585 164.907 99.1846Z" fill="#29ACE4"/>
<path d="M154.87 66.4947C154.87 66.4947 158.818 83.5762 174.597 85.3642C184.128 86.4443 185.779 82.2513 185.779 82.2513" stroke="#48598B" stroke-width="0.37963" stroke-miterlimit="10" stroke-linecap="round" stroke-linejoin="round"/>
<path d="M152.328 66.9408C152.328 66.9408 151.343 81.4901 161.762 83.5231C170.176 85.165 178.406 71.7071 178.534 69.2926" stroke="#48598B" stroke-width="0.37963" stroke-miterlimit="10" stroke-linecap="round" stroke-linejoin="round"/>
<path d="M292.764 92.0341L296.449 78.7357C296.449 78.7357 295.122 72.6275 297.72 71.0691C305.343 66.4945 311.444 73.3563 311.444 73.3563C311.444 73.3563 315.307 80.2163 314.747 80.854C314.747 80.854 300.934 101.54 300.514 101.606C299.432 101.775 296.149 101.72 292.759 101.603C288.279 101.449 283.615 101.185 283.615 101.185L292.764 92.0341Z" fill="#F6874E"/>
<path d="M311.385 73.4288C312.271 73.0985 316.4 78.9486 315.255 81.1087C314.111 83.2688 303.204 101.246 302.804 101.313C302.802 101.313 300.805 101.719 298.565 101.671C297.21 101.643 301.078 99.1677 303.567 94.4527C305.653 90.4969 310.683 80.9834 310.683 80.9834C310.683 80.9834 310.911 73.9963 311.385 73.4288Z" fill="#EC5E4D"/>
<path d="M114.559 117.384C114.559 117.384 130.569 102.518 141.433 101.373C152.296 100.228 157.84 100.663 160.746 100.42C166.845 99.9115 169.895 108.679 173.071 110.33C173.071 110.33 178.027 108.615 181.457 112.618C184.887 116.621 188.7 120.432 188.7 120.432L196.991 125.483C196.991 125.483 199.637 131.907 195.372 132.059C184.308 132.453 157.138 129.092 144.483 126.341C126.948 122.53 109.221 124.056 114.559 117.384Z" fill="#EEF4FF"/>
<path d="M221.671 102.622C219.122 101.682 226.056 93.5185 229.791 90.4625C233.527 87.4065 242.186 85.4533 246.685 86.0474C251.184 86.6415 258.315 97.5919 258.315 97.5919C258.315 97.5919 240.742 102.176 239.214 102.685C237.686 103.197 224.22 103.563 221.671 102.622Z" fill="#EEF4FF"/>
<path d="M172.118 167.797L178.408 163.794L179.551 159.219L184.697 158.076L189.556 158.648L191.843 162.651L191.748 167.48L183.552 169.226C183.554 169.226 175.263 171.227 172.118 167.797Z" fill="#6172F3"/>
<path d="M205.097 135.9L199.873 136.927C199.873 136.927 199.038 138.712 196.961 139.516C194.885 140.321 198.269 141.84 198.269 141.84L208.528 140.458L210.939 138.283L205.097 135.9Z" fill="#6172F3"/>
<path d="M138.563 126.542C138.563 126.542 135.133 126.924 133.607 125.4C132.082 123.875 137.418 117.014 141.23 116.251C145.041 115.487 145.041 119.301 147.328 121.968C149.618 124.637 144.663 127.305 138.563 126.542Z" fill="#6172F3"/>
<path d="M137.338 125.341C142.97 123.361 143.68 117.462 140.85 117.585C139.212 117.655 135.385 122.404 134.559 124.255C133.736 126.106 137.338 125.341 137.338 125.341Z" fill="#1D2436"/>
<path d="M157.441 161.666C157.606 165.81 148.256 171.02 142.765 170.369C137.524 169.748 135.206 163.251 136.725 158.246C137.98 154.115 141.425 151.395 144.988 150.355C146.512 149.911 149.118 149.719 151.468 150.355C155.186 151.361 157.696 155.949 157.441 161.666Z" fill="#C93F37"/>
<path d="M152.711 158.339C152.753 163.426 143.79 164.847 141.178 164.589C138.566 164.331 136.427 160.926 137.951 156.615C138.553 154.914 139.527 153.908 140.747 153.345C142.082 152.73 143.16 154.421 144.923 154.541C146.628 154.656 148.905 153.221 150.244 154C151.698 154.844 152.694 156.201 152.711 158.339Z" fill="#102441"/>
<path d="M151.925 157.705C152.087 162.532 144.543 165.102 141.178 164.589C137.814 164.077 136.738 160.932 138.128 157.029C138.843 155.019 139.747 153.911 141.265 153.575C142.184 153.371 143.393 154.827 144.608 154.869C146.495 154.936 148.404 153.468 149.946 154.298C151.234 154.991 151.866 155.957 151.925 157.705Z" fill="#FEED7F"/>
<path d="M137.775 161.529L150.961 161.284C150.961 161.284 151.724 155.44 149.818 154.677C147.913 153.916 137.317 160.184 137.775 161.529Z" fill="#EC5E4D"/>
<path d="M136.477 159.062C136.477 159.062 138.265 160.65 140.17 160.65C142.076 160.65 142.524 158.173 143.875 158.173C144.644 158.173 144.918 160.332 145.876 160.842C147.433 161.668 151.151 160.556 152.104 160.079C153.057 159.603 154.9 163.891 152.802 165.988C150.705 168.085 144.099 171.897 140.096 169.799C136.095 167.702 135.524 163.063 136.477 159.062Z" fill="#C93F37"/>
<path d="M137.494 159.312C137.494 159.312 138.511 160.865 140.305 160.865C142.099 160.865 142.877 158.536 143.595 158.443C144.312 158.35 144.574 160.554 145.478 161.053C146.943 161.86 151.307 160.774 152.205 160.307C153.102 159.842 153.939 164.899 152.863 166.085C152.081 166.947 150.648 168.813 148.534 169.505C145.779 170.407 142.154 170.918 140.1 169.8C136.332 167.748 136.598 163.226 137.494 159.312Z" fill="#102441"/>
<path d="M137.906 169.798C137.906 169.798 139.525 167.892 141.528 168.75C143.53 169.608 147.055 167.32 149.437 165.699C151.819 164.08 157.109 165.889 156.06 167.7C155.012 169.513 142.099 177.231 137.906 169.798Z" fill="#EEF4FF"/>
<path d="M140.053 168.359C140.504 169.553 139.384 170.344 137.904 170.432C136.626 170.508 135.011 170.065 133.924 169.298C132.481 168.281 132.037 166.749 133.77 166.094C136.055 165.231 139.377 166.569 140.053 168.359Z" fill="#EEF4FF"/>
<path d="M282.727 101.438C282.727 101.438 285.777 99.6591 287.937 100.041C290.097 100.422 291.115 100.677 291.115 100.677C291.115 100.677 297.849 97.3737 300.137 100.295C302.422 103.216 278.025 106.902 282.727 101.438Z" fill="#EEF4FF"/>
<path d="M291.876 98.6416C291.876 98.6416 289.589 99.1504 290.352 99.4047C291.115 99.6591 292.766 99.1503 292.766 99.1503C292.766 99.1503 293.019 98.3892 291.876 98.6416Z" fill="#EEF4FF"/>
<path d="M299.913 78.3126C299.913 78.3126 296.959 82.5056 298.102 82.7599C299.245 83.0143 300.389 80.8542 300.389 80.8542C300.389 80.8542 301.786 82.3784 303.692 80.0911C305.598 77.8039 306.154 77.4413 306.742 76.4068C307.822 74.5011 305.535 74.279 304.772 75.5489C304.009 76.8187 304.772 74.3739 303.248 74.8826C301.724 75.3894 300.421 76.6612 299.913 78.3126Z" fill="#EEF4FF"/>
<path d="M192.035 119.385C192.035 119.385 193.751 117.955 195.18 119.385C196.61 120.816 187.176 121.959 192.035 119.385Z" fill="#EEF4FF"/>
<path d="M233.045 122.657C233.045 122.657 224.627 119.958 219.194 122.53C216.757 123.684 217.765 125.675 217.765 125.675C217.765 125.675 213.477 128.249 215.191 129.392C216.907 130.534 218.336 130.534 220.337 129.105C222.337 127.676 224.625 129.073 228.341 127.359C232.058 125.645 242.481 123.515 233.045 122.657Z" fill="#EEF4FF"/>
<path d="M220.53 137.778C220.53 137.778 229.869 134.537 231.393 135.872C232.918 137.206 231.583 138.541 231.583 138.541C231.583 138.541 236.158 137.588 238.827 138.159C241.495 138.73 243.783 141.399 244.354 142.923C244.925 144.448 238.063 142.16 238.063 142.16C238.063 142.16 224.342 141.209 220.53 137.778Z" fill="#EEF4FF"/>
<path d="M117.88 95.0145C120.502 94.6539 123.651 95.6067 122.054 96.7001C120.458 97.7934 116.631 98.9703 116.631 98.9703C116.631 98.9703 119.095 101.202 115.817 102.693C114.963 103.082 116.014 104.602 114.891 105.498C111.707 108.036 105.518 110.879 101.167 110.038C95.2828 108.899 96.3382 105.798 99.0184 100.367C101.699 94.9386 115.259 95.3752 117.88 95.0145Z" fill="#EEF4FF"/>
<path d="M89.3434 159.134C89.3434 159.134 81.5629 159.354 80.8587 160.408C79.8736 161.881 80.1108 164.329 83.0055 165.216C85.9002 166.104 90.0325 163.902 90.0325 163.902C90.0325 163.902 94.4267 158.422 89.3434 159.134Z" fill="#EC5E4D"/>
<path d="M90.1671 159.774C90.1671 159.774 82.3866 159.994 81.6823 161.047C80.6972 162.52 80.9345 164.969 83.8292 165.855C86.7238 166.744 90.8561 164.542 90.8561 164.542C90.8561 164.542 95.2484 159.062 90.1671 159.774Z" fill="#13161F"/>
<path d="M102.122 145.665C102.122 145.665 89.9622 142.005 87.7546 142.4C85.549 142.795 83.1402 145.448 84.9947 148.324C86.8492 151.2 87.5743 151.428 93.3864 152.527L97.0233 153.882C97.0233 153.882 104.206 155.691 106.172 155.121C108.572 154.425 106.254 145.995 102.122 145.665Z" fill="#273150"/>
<path d="M99.8819 145.021C99.8819 145.021 90.3589 141.92 88.7321 142.21C87.1054 142.501 86.5721 144.084 87.5003 146.405C88.436 148.747 90.1671 148.119 94.4494 148.928C95.3111 148.926 98.0236 148.451 99.0239 147.404C100.026 146.356 100.645 145.306 99.8819 145.021Z" fill="#48598B"/>
<path d="M92.0464 148.839C92.0464 148.839 95.7079 147.945 96.9285 147.499C96.9285 147.499 97.9098 149.535 95.1822 150.23C93.3315 150.703 92.0464 148.839 92.0464 148.839Z" fill="#273150"/>
<path d="M121.737 147.181C122.977 149.829 121.991 156.837 119.514 156.837C117.037 156.837 105.74 155.41 104.458 155.218C102.553 154.931 102.114 150.668 102.114 146.969C102.114 143.269 104.939 146.42 111.445 146.42C117.954 146.418 120.169 143.829 121.737 147.181Z" fill="#273150"/>
<path d="M80.8547 169.957C80.8547 169.957 78.8503 171.348 78.1233 171.848C76.4548 172.99 75.836 172.943 75.7411 174.754C75.6652 176.213 78.5675 177.758 81.9993 176.31C85.4293 174.862 88.0981 172.878 88.0981 172.878C88.0981 172.878 88.0791 170.534 87.3673 170.084C85.7652 169.071 83.8234 167.349 80.8547 169.957Z" fill="#EC5E4D"/>
<path d="M80.8872 168.993C80.8872 168.993 78.8657 170.36 78.133 170.849C76.4512 171.973 75.8324 171.916 75.7147 173.727C75.6198 175.185 78.2222 176.479 81.6711 175.073C85.1201 173.666 87.8116 171.717 87.8116 171.717C87.8116 171.717 88.1039 169.661 87.3978 169.202C85.8091 168.167 83.8882 166.421 80.8872 168.993Z" fill="#13161F"/>
<path d="M80.4412 170.178L78.2982 168.166L80.6955 155.185L81.3314 151.913C81.3314 151.913 82.6981 145.465 82.9505 144.861C83.2049 144.257 85.3669 142.363 88.4457 142.257C91.5511 142.148 92.2572 148.61 91.1145 153.947C90.3154 157.673 89.3986 163.89 89.3986 163.89L88.3185 169.163L85.3954 170.941L80.4412 170.178Z" fill="#273150"/>
<path d="M81.5646 167.976L79.0913 166.964L78.9186 164.889L80.9192 153.929L81.5152 150.784C81.5152 150.784 82.7547 145.348 82.9692 144.82C83.3508 143.875 85.788 142.269 88.4644 142.176C89.7741 142.081 90.894 143.543 91.2129 145.304C91.5944 147.424 90.6681 150.118 90.1101 152.73C89.4153 155.97 87.1167 159.981 87.1167 159.981L86.5453 163.411L84.8294 165.411L81.5646 167.976Z" fill="#48598B"/>
<path d="M90.672 152.295C90.672 152.295 88.3069 155.786 87.2933 156.41C87.2933 156.41 88.7796 156.279 89.554 155.611C90.3304 154.941 90.672 152.295 90.672 152.295Z" fill="#273150"/>
<path d="M86.8303 163.919L84.6018 166.531C84.5999 166.529 86.7866 166.123 86.8303 163.919Z" fill="#48598B"/>
<path d="M109.031 156.552C108.574 157.469 105.854 161.412 105.092 162.811C101.905 168.655 108.177 172.169 112.954 167.765C117.73 163.363 120.071 157.786 120.629 156.173C121.185 154.559 118.958 153.151 117.132 152.551C115.209 151.917 110.682 153.248 109.031 156.552Z" fill="#273150"/>
<path d="M110.591 154.65C109.94 155.267 107.812 158.805 107.106 160.001C107.045 160.013 111.889 157.219 111.889 157.219C111.889 157.219 119.977 154.151 120.592 152.771L115.384 152.128C115.386 152.13 111.605 153.692 110.591 154.65Z" fill="#48598B"/>
<path d="M107.106 160.001C107.106 160.001 113.7 158.268 115.224 157.313C116.749 156.359 117.702 155.598 117.702 155.598L108.458 158.933L107.106 160.001Z" fill="#48598B"/>
<path d="M92.3749 159.622L96.1882 160.402C96.1882 160.402 104.842 160.82 106.055 160.856C107.412 160.897 112.061 162.116 111.901 167.197C111.821 169.758 108.409 170.288 108.409 170.288L97.8036 168.384L90.0325 166.269C90.0325 166.269 89.6282 162.699 90.0477 162.162C90.4672 161.624 92.3749 159.622 92.3749 159.622Z" fill="#273150"/>
<path d="M106.987 166.588L108.877 168.558C108.877 168.558 107.843 169.122 107.285 168.874C106.728 168.625 105.658 167.919 105.441 167.087L106.391 167.332L106.987 166.588Z" fill="#102441"/>
<path d="M108.46 160.459L113.416 160.077C113.414 160.077 110.365 162.746 108.46 160.459Z" fill="#48598B"/>
<path d="M97.0992 124.739C96.4025 125.364 93.1472 129.139 91.5717 131.493C89.7628 134.196 88.1646 135.671 87.0826 137.207C84.8485 140.38 88.8688 142.835 90.6151 141.401C92.3614 139.968 94.5727 137.193 95.666 136.147C98.3405 133.589 99.1681 132.224 100.252 131.132C101.901 129.473 101.228 121.04 97.0992 124.739Z" fill="#F6874E"/>
<path d="M98.0712 129.963C97.553 130.428 93.6903 135.367 93.9541 134.995C92.8342 136.578 93.808 138.182 93.808 138.182C93.808 138.182 95.6359 136.153 96.0003 135.804C97.9934 133.898 99.2671 132.205 100.074 131.393C101.302 130.155 101.148 127.207 98.0712 129.963Z" fill="#CE6D3E"/>
<path d="M118.181 124.563C117.106 122.642 110.7 121.908 106.285 122.456C104.417 122.688 102.777 122.8 101.408 123.026C99.5407 123.333 98.5499 123.865 98.5499 123.865C98.4986 123.954 98.1759 124.463 98.2633 125.057C98.734 128.248 100.264 132.442 100.264 132.442L102.933 141.781C102.933 141.781 101.367 146.297 101.79 147.054C102.05 147.519 103.747 151.464 106.492 152.265C109.542 153.155 121.994 147.945 121.994 147.945C121.994 147.945 122.588 140.817 122.375 138.923C122.089 136.393 120.181 128.137 118.181 124.563Z" fill="#FDEB7E"/>
<path d="M112.271 147.88C110.555 149.022 106.554 149.596 106.554 149.596C106.554 149.596 101.367 146.297 101.79 147.054C102.05 147.519 103.747 151.463 106.492 152.264C109.542 153.155 121.994 147.944 121.994 147.944C121.994 147.944 122.588 140.817 122.375 138.922C122.091 136.394 121.149 127.754 117.801 123.991C116.337 122.348 110.702 121.907 106.287 122.456C104.419 122.687 102.779 122.799 101.41 123.025C99.5424 123.333 98.5516 123.864 98.5516 123.864C98.5516 123.864 98.0676 124.665 98.265 125.628C98.5991 127.247 100.774 134.26 100.774 134.26L101.539 132.761L110.559 133.966C110.559 133.966 112.541 136.715 113.141 136.963L112.29 135.01L116.85 140.634C116.85 140.634 116.001 142.443 114.953 144.275C114.714 144.695 110.952 147.449 110.952 147.449L112.271 147.88Z" fill="#F6BE4A"/>
<path d="M110.926 122.314C111.174 122.333 111.355 122.553 111.326 122.8C111.153 124.274 110.286 128.934 106.173 129.2C102.101 129.464 101.775 122.969 101.775 122.969C101.775 122.969 104.455 122.49 107.507 122.308C109.122 122.211 110.32 122.268 110.926 122.314Z" fill="#CE6D3E"/>
<path d="M106.173 129.202C102.101 129.466 101.779 122.968 101.779 122.968L102.686 122.822L106.173 129.202Z" fill="#F6874E"/>
<path d="M118.901 134.075C120.701 133.346 121.21 130.408 120.038 127.514C118.866 124.62 116.456 122.864 114.656 123.594C112.855 124.323 112.346 127.26 113.518 130.155C114.691 133.049 117.101 134.804 118.901 134.075Z" fill="#CE6D3E"/>
<path d="M103.676 122.37C103.676 122.37 103.481 122.82 103.502 123.371C103.58 125.584 104.048 131.085 106.11 132.026C106.877 132.378 108.858 127.826 109.084 124.346C109.134 123.583 109.259 122.295 108.558 121.818" stroke="#913636" stroke-width="0.189815" stroke-miterlimit="10"/>
<path d="M106.3 133.744C106.545 133.744 106.744 133.289 106.744 132.727C106.744 132.165 106.545 131.71 106.3 131.71C106.055 131.71 105.856 132.165 105.856 132.727C105.856 133.289 106.055 133.744 106.3 133.744Z" fill="#29ACE4"/>
<path d="M114.511 114.526C112.715 119.355 105.704 122.785 105.704 122.785C104.327 122.095 98.1869 116.969 98.3577 112.493C98.3577 107.932 98.2476 105.504 105.664 105.504C113.08 105.504 116.1 110.249 114.511 114.526Z" fill="#1D2436"/>
<path d="M113.896 113.388C112.372 117.488 106.507 115.019 106.507 115.019C105.337 114.434 101.266 112.684 100.884 110.16C100.558 108.001 100.066 105.538 106.364 105.538C112.129 105.536 115.246 109.757 113.896 113.388Z" fill="#3D4C6D"/>
<path d="M112.653 115.543C112.653 115.543 113.416 114.273 113.224 112.684C113.224 112.682 115.003 113.508 112.653 115.543Z" fill="#1D2436"/>
<path d="M102.538 118.295C102.538 118.295 103.747 123.187 103.885 123.675C104.347 125.311 108.896 125.239 108.904 123.675C108.906 123.122 108.409 117.189 108.409 117.189L102.538 118.295Z" fill="#CE6D3E"/>
<path d="M118.814 124.882C116.783 123.213 113.877 123.553 113.794 127.148C113.767 128.293 115.365 130.831 116.906 133.993C119.763 139.854 119.532 139.534 119.228 138.97C119.902 140.217 121.234 140.965 123.157 140.422C124.755 139.97 125.002 140.348 124.406 137.271C124.108 135.732 123.218 133.756 122.231 131.584C121.242 129.413 120.595 126.341 118.814 124.882Z" fill="#CE6D3E"/>
<path d="M118.497 129.963C117.671 129.265 115.003 126.533 115.194 128.693C115.272 129.566 115.377 129.785 116.479 132.539C117.888 136.058 118.932 138.752 119.42 139.851C119.906 140.95 121.16 141.445 123.157 140.422C123.947 140.018 120.912 132.569 120.912 132.569C120.912 132.569 119.323 130.662 118.497 129.963Z" fill="#F6874E"/>
<path d="M125.01 139.429C124.334 137.129 120.179 137.702 120.221 140.756C120.263 143.81 121.31 145.64 122.183 148.404C123.241 151.746 124.661 155.218 124.661 155.218C124.661 155.218 125.294 157.038 126.948 156.505C128.635 155.96 128.588 155.514 128.428 152.855C128.269 150.194 125.794 142.096 125.01 139.429Z" fill="#F6874E"/>
<path d="M125.01 139.429C124.651 138.338 123.827 138.032 122.969 138.015C123.637 139.835 123.518 141.971 123.803 142.59C125.188 146.83 125.803 153.47 126.122 155.059C126.375 156.319 127.946 156.154 128.438 154.586C128.567 154.176 128.463 153.405 128.43 152.855C128.269 150.194 125.875 142.071 125.01 139.429Z" fill="#CE6D3E"/>
<path d="M124.97 155.163C124.97 155.163 122.66 158.38 122.43 159.299C122.2 160.218 121.373 162.378 121.373 162.378C121.373 162.378 121.373 163.481 123.096 162.852C124.133 162.475 124.497 160.54 124.497 160.54L125.83 159.622L128.643 161.341L130.547 163.395C130.547 163.395 130.949 163.815 131.238 163.843C131.714 163.891 132.111 163.483 132.111 163.483L130.169 160.461L131.972 162.224L132.701 163.15C132.701 163.15 133.24 163.509 133.477 163.462C133.715 163.414 134.468 162.852 134.468 162.852L133.775 161.845C133.775 161.845 134.324 161.541 134.33 161.214C134.335 160.888 133.36 159.829 133.36 159.829L133.498 158.568C133.498 158.568 128.385 153.724 128.037 153.739C126.494 153.812 125.279 154.622 124.97 155.163Z" fill="#CE6D3E"/>
<path d="M124.898 154.647C124.898 154.647 122.658 158.38 122.428 159.301C122.199 160.219 121.371 162.38 121.371 162.38C121.371 162.38 121.029 163.186 122.753 162.558C123.789 162.18 123.896 160.605 123.896 160.605L125.467 158.175L127.198 158.619L128.66 158.557C127.931 156.97 126.703 154.316 126.278 154.316C125.613 154.312 125.351 154.271 124.898 154.647Z" fill="#F6874E"/>
<path d="M93.2121 148.322C93.2121 148.322 87.0545 141.715 86.6123 140.921C86.1719 140.132 86.2137 139.346 86.3769 138.765C86.5401 138.184 87.1836 137.172 89.0856 136.882C91.6557 136.489 92.1473 137.793 92.8572 138.706C93.5671 139.619 95.6399 143.345 96.4067 144.928C97.1869 146.54 97.743 147.088 96.6706 148.4C95.5108 149.822 93.2121 148.322 93.2121 148.322Z" fill="#F6874E"/>
<path d="M93.212 148.322C93.212 148.322 87.0544 141.715 86.6121 140.921C86.1718 140.132 86.2135 139.346 86.3768 138.765C86.54 138.184 89.6188 139.982 90.3287 140.895C91.0386 141.808 93.1114 145.534 93.8783 147.117C94.6584 148.728 97.7429 147.088 96.6723 148.4C95.5107 149.822 93.212 148.322 93.212 148.322Z" fill="#CE6D3E"/>
<path d="M93.8955 152.722C92.9863 152.92 92.823 153.709 92.9919 153.903C93.3317 154.296 94.2447 155.104 94.2447 155.104C94.2447 155.104 95.1881 155.302 95.414 154.632C95.5848 153.764 94.4232 152.608 93.8955 152.722Z" fill="#AF5531"/>
<path d="M93.5367 148.404L93.1039 151.931L94.3263 153.821L94.3187 155.207L95.7442 154.829L96.7768 154.954L98.4453 154.451L100.055 153.802C100.055 153.802 100.833 151.908 100.605 151.05C100.378 150.192 97.5816 147.045 96.9382 146.591C96.2909 146.136 94.1023 147.269 93.5367 148.404Z" fill="#F6874E"/>
<path d="M93.5367 148.404L93.1039 151.931L94.3263 153.821L94.3187 155.207L95.7442 154.829L96.7768 154.954L98.4453 154.451L100.055 153.802C100.055 153.802 100.833 151.908 100.605 151.05C100.378 150.192 95.4367 151.566 95.4367 151.566C95.4367 151.566 94.9945 148.413 94.2732 147.572C94.0815 147.618 93.6411 148.167 93.5367 148.404Z" fill="#CE6D3E"/>
<path d="M104.527 107.479C104.527 107.479 100.493 106.954 99.7985 107.523C99.1037 108.093 97.7124 117.021 98.5001 119.396C99.2879 121.773 106.615 121.632 108.657 120.341C109.134 120.041 110.309 118.388 110.91 116.211C111.539 113.933 110.064 112.242 110.003 111.337C109.9 109.797 104.527 107.479 104.527 107.479Z" fill="#CE6D3E"/>
<path d="M109.716 117.001C109.413 118.529 106.782 121.173 103.701 120.869C100.62 120.566 98.5002 119.398 98.5572 115.9C98.616 112.29 103.266 109.27 106.347 109.575C109.43 109.879 110.071 113.408 109.716 117.001Z" fill="#F6874E"/>
<path d="M105.736 111.492C105.677 112.086 105.371 112.318 105.075 112.29C104.779 112.261 104.603 111.98 104.662 111.386C104.72 110.792 105.009 110.334 105.305 110.365C105.601 110.395 105.793 110.9 105.736 111.492Z" fill="#34273A"/>
<path d="M100.971 111.726C100.913 112.32 100.607 112.552 100.311 112.523C100.015 112.495 99.8382 112.214 99.8971 111.62C99.9559 111.026 100.244 110.568 100.541 110.599C100.837 110.627 101.03 111.132 100.971 111.726Z" fill="#34273A"/>
<path d="M105.092 108.894C105.092 108.894 105.952 109.558 106.094 109.558" stroke="#34273A" stroke-width="0.189815" stroke-miterlimit="10" stroke-linecap="round" stroke-linejoin="round"/>
<path d="M111.883 115.452C112.432 114.2 112.293 112.929 111.573 112.612C110.852 112.296 109.822 113.054 109.272 114.305C108.723 115.557 108.861 116.828 109.582 117.145C110.303 117.461 111.333 116.703 111.883 115.452Z" fill="#F6874E"/>
<path d="M107.968 106.734C107.968 106.734 99.5155 110.879 97.2206 110.845C94.9258 110.811 98.1242 105.572 101.841 104.788C105.555 104.006 107.968 106.734 107.968 106.734Z" fill="#1D2436"/>
<path d="M108.395 106.775C108.395 106.775 108.279 107.273 106.744 107.601C104.092 108.17 99.2366 108.706 98.0711 108.689C96.2299 108.66 98.8968 105.486 101.85 104.742C105.013 103.945 108.395 106.775 108.395 106.775Z" fill="#3D4C6D"/>
<path d="M103.646 106.95C103.646 106.95 101.025 108.808 99.0239 108.903C99.0239 108.903 103.743 108.761 103.646 106.95Z" fill="#1D2436"/>
<path d="M109.451 109.178C109.451 109.178 108.613 112.479 108.894 113.529L109.629 115.133L110.608 110.378L109.451 109.178Z" fill="#3D4C6D"/>
</svg>
