<svg width="90" height="59" viewBox="0 0 90 59" fill="none" xmlns="http://www.w3.org/2000/svg">
<path d="M83.7144 57.4732C84.7022 57.4732 85.5029 56.6724 85.5029 55.6847C85.5029 54.6969 84.7022 53.8962 83.7144 53.8962C82.7266 53.8962 81.9259 54.6969 81.9259 55.6847C81.9259 56.6724 82.7266 57.4732 83.7144 57.4732Z" fill="#E0EAFF"/>
<path d="M18.8469 58.5733C19.8157 58.5733 20.601 57.788 20.601 56.8192C20.601 55.8505 19.8157 55.0651 18.8469 55.0651C17.8781 55.0651 17.0928 55.8505 17.0928 56.8192C17.0928 57.788 17.8781 58.5733 18.8469 58.5733Z" fill="#E0EAFF"/>
<path d="M2.71618 41.9611C4.21682 41.9611 5.43333 40.7446 5.43333 39.2439C5.43333 37.7433 4.21682 36.5268 2.71618 36.5268C1.21554 36.5268 -0.000976562 37.7433 -0.000976562 39.2439C-0.000976562 40.7446 1.21554 41.9611 2.71618 41.9611Z" fill="#E0EAFF"/>
<path d="M25.3127 27.2406C26.3575 27.2406 27.2044 26.3936 27.2044 25.3489C27.2044 24.3041 26.3575 23.4572 25.3127 23.4572C24.268 23.4572 23.421 24.3041 23.421 25.3489C23.421 26.3936 24.268 27.2406 25.3127 27.2406Z" fill="#E0EAFF"/>
<path d="M49.286 23.4575C50.2358 23.4575 51.0057 22.6876 51.0057 21.7378C51.0057 20.788 50.2358 20.0181 49.286 20.0181C48.3362 20.0181 47.5663 20.788 47.5663 21.7378C47.5663 22.6876 48.3362 23.4575 49.286 23.4575Z" fill="#E0EAFF"/>
<path d="M68.1904 43.4398C69.1402 43.4398 69.9101 42.6699 69.9101 41.7201C69.9101 40.7703 69.1402 40.0004 68.1904 40.0004C67.2406 40.0004 66.4707 40.7703 66.4707 41.7201C66.4707 42.6699 67.2406 43.4398 68.1904 43.4398Z" fill="#E0EAFF"/>
<path d="M68.1904 16.3809C69.1402 16.3809 69.9101 15.611 69.9101 14.6612C69.9101 13.7115 69.1402 12.9415 68.1904 12.9415C67.2406 12.9415 66.4707 13.7115 66.4707 14.6612C66.4707 15.611 67.2406 16.3809 68.1904 16.3809Z" fill="#E0EAFF"/>
<path d="M57.1293 5.64068C58.6869 5.64068 59.9496 4.37797 59.9496 2.82034C59.9496 1.26271 58.6869 0 57.1293 0C55.5717 0 54.309 1.26271 54.309 2.82034C54.309 4.37797 55.5717 5.64068 57.1293 5.64068Z" fill="#E0EAFF"/>
<path d="M86.1906 24.1109C85.1932 23.1134 84.4709 21.772 83.955 20.637C83.611 19.8804 82.5792 19.8804 82.2352 20.637C81.7193 21.772 80.997 23.1134 79.9996 24.1109C78.8302 25.3147 77.5576 26.2089 76.629 26.828C76.0443 27.2063 76.0443 28.0318 76.629 28.4101C77.5576 28.9949 78.8302 29.9235 79.9996 31.1273C80.997 32.1247 81.7193 33.4661 82.2352 34.6011C82.5792 35.3578 83.611 35.3578 83.955 34.6011C84.4709 33.4661 85.1932 32.1247 86.1906 31.1273C87.36 29.9235 88.6326 29.0292 89.5612 28.4101C90.1459 28.0318 90.1459 27.2063 89.5612 26.828C88.6326 26.2089 87.3944 25.3147 86.1906 24.1109Z" fill="#FB6514"/>
<path d="M85.9506 23.8359C85.0907 22.9416 84.3685 21.5659 83.9213 20.5684C83.6118 19.9149 82.58 19.9149 82.2704 20.5684C81.8233 21.5659 81.0666 23.0104 80.1723 23.9047C79.1405 24.9709 78.2807 25.7276 77.4552 26.2435C76.9393 26.5874 76.8361 27.1034 77.352 27.4473C78.1775 27.9632 79.2781 28.7887 80.3443 29.8549C81.2042 30.7492 81.8577 31.9186 82.3392 32.916C82.6487 33.5695 83.5774 33.5695 83.8525 32.916C84.2997 31.9186 84.9532 30.7148 85.8474 29.8549C86.8792 28.7887 88.0143 27.9976 88.8397 27.4473C89.3556 27.1034 89.2525 26.5874 88.7365 26.2435C87.9111 25.7276 86.9824 24.9021 85.9506 23.8359Z" fill="#EC4A0A"/>
<path d="M50.5894 40.5121C49.592 39.5147 48.8697 38.1733 48.3538 37.0383C48.0098 36.2816 46.978 36.2816 46.634 37.0383C46.1181 38.1733 45.3958 39.5147 44.3984 40.5121C43.229 41.7159 41.9564 42.6102 41.0278 43.2293C40.4431 43.6076 40.4431 44.4331 41.0278 44.8114C41.9564 45.3961 43.229 46.3248 44.3984 47.5286C45.3958 48.526 46.1181 49.8674 46.634 51.0024C46.978 51.7591 48.0098 51.7591 48.3538 51.0024C48.8697 49.8674 49.592 48.526 50.5894 47.5286C51.7588 46.3248 53.0314 45.4305 53.96 44.8114C54.5447 44.4331 54.5447 43.6076 53.96 43.2293C53.0314 42.6102 51.7932 41.7159 50.5894 40.5121Z" fill="#FB6514"/>
<path d="M50.3494 40.2372C49.4895 39.3429 48.7673 37.9671 48.3201 36.9697C48.0106 36.3162 46.9788 36.3162 46.6692 36.9697C46.2221 37.9671 45.4654 39.4117 44.5711 40.306C43.5393 41.3722 42.6795 42.1289 41.854 42.6448C41.3381 42.9887 41.2349 43.5046 41.7508 43.8486C42.5763 44.3645 43.6769 45.19 44.7431 46.2562C45.603 47.1504 46.2565 48.3198 46.738 49.3173C47.0475 49.9708 47.9762 49.9708 48.2514 49.3173C48.6985 48.3198 49.352 47.116 50.2462 46.2562C51.2781 45.19 52.4131 44.3989 53.2385 43.8486C53.7544 43.5046 53.6513 42.9887 53.1353 42.6448C52.3099 42.1289 51.3812 41.3034 50.3494 40.2372Z" fill="#EC4A0A"/>
<path d="M19.7764 8.01382C19.0885 7.32594 18.6069 6.43168 18.263 5.64061C18.0222 5.1247 17.3344 5.1247 17.0936 5.64061C16.7497 6.43168 16.2337 7.32594 15.5802 8.01382C14.7892 8.83929 13.9293 9.45839 13.2758 9.87112C12.8975 10.1119 12.8975 10.6966 13.2758 10.9373C13.8949 11.3501 14.7548 11.9692 15.5802 12.7946C16.2681 13.4825 16.7497 14.3768 17.0936 15.1679C17.3344 15.6838 18.0222 15.6838 18.263 15.1679C18.6069 14.3768 19.1229 13.4825 19.7764 12.7946C20.5674 11.9692 21.4273 11.3501 22.0808 10.9373C22.4591 10.6966 22.4591 10.1119 22.0808 9.87112C21.4273 9.45839 20.5674 8.83929 19.7764 8.01382Z" fill="#FB6514"/>
<path d="M19.6039 7.84223C19.0192 7.22314 18.5377 6.29449 18.2282 5.6066C18.0218 5.15947 17.2995 5.15947 17.0931 5.6066C16.7836 6.29449 16.2677 7.29193 15.683 7.87663C14.9607 8.59891 14.376 9.11483 13.8257 9.45877C13.4817 9.66514 13.4129 10.0435 13.7569 10.2842C14.3072 10.6282 15.0639 11.1785 15.7862 11.9008C16.3709 12.5199 16.818 13.3109 17.1275 13.9988C17.3339 14.446 17.953 14.446 18.1594 13.9988C18.4689 13.3109 18.916 12.5199 19.5008 11.9008C20.223 11.1785 20.9797 10.6282 21.53 10.2842C21.874 10.0779 21.8052 9.69953 21.4612 9.45877C20.9109 9.11483 20.2918 8.56452 19.6039 7.84223Z" fill="#EC4A0A"/>
</svg>
