<svg xmlns="http://www.w3.org/2000/svg" width="258.233" height="233.148" viewBox="0 0 258.233 233.148">
  <g id="CL_M_01_Matematica" data-name="CL_M_01 Matematica" transform="translate(-11.383 -21.713)">
    <g id="Group_2679" data-name="Group 2679" transform="translate(11.383 21.713)">
      <g id="Group_2623" data-name="Group 2623">
        <path id="Path_7223" data-name="Path 7223" d="M263.633,234.172H5.4L134.411,10.3ZM12.567,229.956H256.255L134.411,18.732Z" transform="translate(-5.4 -10.3)" fill="#3e567b"/>
      </g>
      <g id="Group_2678" data-name="Group 2678" transform="translate(41.317 31.62)">
        <g id="Group_2630" data-name="Group 2630" transform="translate(90.013 44.69)">
          <g id="Group_2626" data-name="Group 2626" transform="translate(55.863 132.595)">
            <g id="Group_2624" data-name="Group 2624" transform="translate(6.535)">
              <path id="Path_7224" data-name="Path 7224" d="M102.148,109.4,97.3,111.3l8.221,22.134Z" transform="translate(-97.3 -109.4)" fill="#1e4c7e"/>
            </g>
            <g id="Group_2625" data-name="Group 2625" transform="translate(0 1.897)">
              <path id="Path_7225" data-name="Path 7225" d="M100.735,110.3,94.2,113.04l14.756,19.6v-.211Z" transform="translate(-94.2 -110.3)" fill="#143441"/>
            </g>
          </g>
          <g id="Group_2629" data-name="Group 2629" transform="translate(0)">
            <g id="Group_2627" data-name="Group 2627" transform="translate(10.329)">
              <path id="Path_7226" data-name="Path 7226" d="M81.875,46.5,72.6,50.084l52.911,133.227,8.643-3.373Z" transform="translate(-72.6 -46.5)" fill="#30b1ad"/>
            </g>
            <g id="Group_2628" data-name="Group 2628" transform="translate(0 3.584)">
              <path id="Path_7227" data-name="Path 7227" d="M78.029,48.2,67.7,52.416l52.279,133.227,10.962-4.216Z" transform="translate(-67.7 -48.2)" fill="#1f8b95"/>
            </g>
          </g>
        </g>
        <g id="Group_2663" data-name="Group 2663" transform="translate(0 94.861)">
          <g id="Group_2631" data-name="Group 2631">
            <path id="Path_7228" data-name="Path 7228" d="M25,102.553,26.054,75.57V73.04L48.4,72.619,80.441,72.2,144.1,71.143l32.042-.422L200.6,70.3v31.2l-14.545.211h-25.3l-95.915.632-25.3.211Z" transform="translate(-25 -70.3)" fill="#c2f9bb"/>
          </g>
          <g id="Group_2635" data-name="Group 2635" transform="translate(14.545 31.199)">
            <g id="Group_2633" data-name="Group 2633">
              <g id="Group_2632" data-name="Group 2632">
                <path id="Path_7229" data-name="Path 7229" d="M31.9,86.154h3.162l18.972-.211H57.2a48.064,48.064,0,0,0,96.126-.422v-.211h3.162l18.972-.211h3.162v1.476a72.42,72.42,0,0,1-2.108,16.864,6.237,6.237,0,0,0-.422,2.108,69.43,69.43,0,0,1-6.535,15.81,11.767,11.767,0,0,1-1.054,1.686,81.627,81.627,0,0,1-10.329,13.491l-1.476,1.476A63.727,63.727,0,0,1,143.2,148.341c-.632.422-1.265.632-1.9,1.054a69.428,69.428,0,0,1-15.81,6.535,6.237,6.237,0,0,1-2.108.422,75.6,75.6,0,0,1-16.864,2.319h-2.108a62.667,62.667,0,0,1-16.864-2.319,6.237,6.237,0,0,0-2.108-.422,69.428,69.428,0,0,1-15.81-6.535c-.632-.422-1.265-.632-1.9-1.054a81.625,81.625,0,0,1-13.491-10.329l-1.476-1.476A71.565,71.565,0,0,1,42.44,123.044a11.767,11.767,0,0,0-1.054-1.686,69.429,69.429,0,0,1-6.535-15.81,6.237,6.237,0,0,1-.422-2.108,64.882,64.882,0,0,1-2.108-16.864C31.9,86.365,31.9,86.365,31.9,86.154Z" transform="translate(-31.9 -85.1)" fill="#c2f9bb"/>
              </g>
            </g>
            <g id="Group_2634" data-name="Group 2634" transform="translate(21.923 0.211)">
              <path id="Path_7230" data-name="Path 7230" d="M42.3,85.832h3.162a48.064,48.064,0,0,0,96.126-.422V85.2h3.162v.211a51.226,51.226,0,0,1-102.45.422Z" transform="translate(-42.3 -85.2)" fill="#8bb386"/>
            </g>
          </g>
          <g id="Group_2637" data-name="Group 2637" transform="translate(86.64 101.818)">
            <g id="Group_2636" data-name="Group 2636">
              <path id="Path_7231" data-name="Path 7231" d="M66.1,121.762V118.6h2.108v3.162H66.1Z" transform="translate(-66.1 -118.6)" fill="#8bb386"/>
            </g>
          </g>
          <g id="Group_2639" data-name="Group 2639" transform="translate(104.98 99.077)">
            <g id="Group_2638" data-name="Group 2638">
              <path id="Path_7232" data-name="Path 7232" d="M74.8,117.932l2.108-.632.843,3.162a6.237,6.237,0,0,1-2.108.422Z" transform="translate(-74.8 -117.3)" fill="#8bb386"/>
            </g>
          </g>
          <g id="Group_2641" data-name="Group 2641" transform="translate(122.055 91.91)">
            <g id="Group_2640" data-name="Group 2640">
              <path id="Path_7233" data-name="Path 7233" d="M82.9,114.954l1.9-1.054,1.686,2.74c-.632.422-1.265.632-1.9,1.054Z" transform="translate(-82.9 -113.9)" fill="#8bb386"/>
            </g>
          </g>
          <g id="Group_2643" data-name="Group 2643" transform="translate(136.6 80.527)">
            <g id="Group_2642" data-name="Group 2642">
              <path id="Path_7234" data-name="Path 7234" d="M89.8,109.976l1.476-1.476,2.319,2.319-1.476,1.476Z" transform="translate(-89.8 -108.5)" fill="#8bb386"/>
            </g>
          </g>
          <g id="Group_2645" data-name="Group 2645" transform="translate(147.983 65.981)">
            <g id="Group_2644" data-name="Group 2644">
              <path id="Path_7235" data-name="Path 7235" d="M95.2,103.286l1.054-1.686,2.74,1.476a11.77,11.77,0,0,1-1.054,1.686Z" transform="translate(-95.2 -101.6)" fill="#8bb386"/>
            </g>
          </g>
          <g id="Group_2647" data-name="Group 2647" transform="translate(155.362 48.906)">
            <g id="Group_2646" data-name="Group 2646">
              <path id="Path_7236" data-name="Path 7236" d="M98.7,95.4l.632-1.9,2.951.843a6.237,6.237,0,0,0-.422,2.108Z" transform="translate(-98.7 -93.5)" fill="#8bb386"/>
            </g>
          </g>
          <g id="Group_2652" data-name="Group 2652" transform="translate(14.545 31.41)">
            <g id="Group_2649" data-name="Group 2649" transform="translate(143.346)">
              <g id="Group_2648" data-name="Group 2648">
                <path id="Path_7237" data-name="Path 7237" d="M99.9,86.465V85.2h3.162v1.476H99.9Z" transform="translate(-99.9 -85.2)" fill="#8bb386"/>
              </g>
            </g>
            <g id="Group_2651" data-name="Group 2651" transform="translate(0 0.843)">
              <g id="Group_2650" data-name="Group 2650">
                <path id="Path_7238" data-name="Path 7238" d="M31.9,85.6h3.162v.632H31.9C31.9,85.811,31.9,85.811,31.9,85.6Z" transform="translate(-31.9 -85.6)" fill="#8bb386"/>
              </g>
            </g>
          </g>
          <g id="Group_2654" data-name="Group 2654" transform="translate(16.653 48.906)">
            <g id="Group_2653" data-name="Group 2653">
              <path id="Path_7239" data-name="Path 7239" d="M32.9,94.343l2.951-.843.632,1.9-2.951.843Z" transform="translate(-32.9 -93.5)" fill="#8bb386"/>
            </g>
          </g>
          <g id="Group_2656" data-name="Group 2656" transform="translate(23.821 65.981)">
            <g id="Group_2655" data-name="Group 2655">
              <path id="Path_7240" data-name="Path 7240" d="M36.3,103.076l2.74-1.476,1.054,1.686-2.74,1.476A4.59,4.59,0,0,1,36.3,103.076Z" transform="translate(-36.3 -101.6)" fill="#e3482c"/>
            </g>
          </g>
          <g id="Group_2658" data-name="Group 2658" transform="translate(35.204 80.527)">
            <g id="Group_2657" data-name="Group 2657">
              <path id="Path_7241" data-name="Path 7241" d="M41.7,110.819l2.319-2.319,1.476,1.476-2.319,2.319Z" transform="translate(-41.7 -108.5)" fill="#8bb386"/>
            </g>
          </g>
          <g id="Group_2660" data-name="Group 2660" transform="translate(50.171 91.91)">
            <g id="Group_2659" data-name="Group 2659">
              <path id="Path_7242" data-name="Path 7242" d="M48.8,116.64l1.686-2.74,1.9,1.054-1.686,2.74A8.545,8.545,0,0,1,48.8,116.64Z" transform="translate(-48.8 -113.9)" fill="#8bb386"/>
            </g>
          </g>
          <g id="Group_2662" data-name="Group 2662" transform="translate(67.668 99.077)">
            <g id="Group_2661" data-name="Group 2661">
              <path id="Path_7243" data-name="Path 7243" d="M57.1,120.462l.843-3.162,2.108.632-.843,3.162C58.576,120.884,57.943,120.673,57.1,120.462Z" transform="translate(-57.1 -117.3)" fill="#8bb386"/>
            </g>
          </g>
        </g>
        <g id="Group_2677" data-name="Group 2677" transform="translate(13.667)">
          <g id="Group_2666" data-name="Group 2666" transform="translate(0.878 177.074)">
            <g id="Group_2664" data-name="Group 2664">
              <path id="Path_7244" data-name="Path 7244" d="M35.273,109.3,31.9,133.753l8.854-22.134Z" transform="translate(-31.9 -109.3)" fill="#143441"/>
            </g>
            <g id="Group_2665" data-name="Group 2665" transform="translate(0 2.319)">
              <path id="Path_7245" data-name="Path 7245" d="M31.9,132.534h0l14.756-19.815-5.9-2.319Z" transform="translate(-31.9 -110.4)" fill="#0f2437"/>
            </g>
          </g>
          <g id="Group_2670" data-name="Group 2670" transform="translate(0 44.853)">
            <g id="Group_2669" data-name="Group 2669">
              <g id="Group_2667" data-name="Group 2667">
                <rect id="Rectangle_1027" data-name="Rectangle 1027" width="143.135" height="9.486" transform="matrix(0.365, -0.931, 0.931, 0.365, 0, 133.259)" fill="#30b1ad"/>
              </g>
              <g id="Group_2668" data-name="Group 2668" transform="translate(9.009 3.416)">
                <rect id="Rectangle_1028" data-name="Rectangle 1028" width="143.135" height="11.383" transform="matrix(0.365, -0.931, 0.931, 0.365, 0, 133.259)" fill="#1f8b95"/>
              </g>
            </g>
          </g>
          <g id="Group_2673" data-name="Group 2673" transform="translate(67.07)">
            <g id="Group_2671" data-name="Group 2671">
              <path id="Path_7246" data-name="Path 7246" d="M63.3,32.467V70.623a7.018,7.018,0,0,0,6.956,6.956V25.3A7.065,7.065,0,0,0,63.3,32.467Z" transform="translate(-63.3 -25.3)" fill="#fff79c"/>
            </g>
            <g id="Group_2672" data-name="Group 2672" transform="translate(6.956)">
              <path id="Path_7247" data-name="Path 7247" d="M66.6,25.3V77.579a7.018,7.018,0,0,0,6.957-6.956V32.467A6.809,6.809,0,0,0,66.6,25.3Z" transform="translate(-66.6 -25.3)" fill="#fed883"/>
            </g>
          </g>
          <g id="Group_2676" data-name="Group 2676" transform="translate(48.894 30.988)">
            <g id="Group_2674" data-name="Group 2674">
              <path id="Path_7248" data-name="Path 7248" d="M68.849,40c-11.594,0-17.286,7.378-12.437,16.443L71.168,83.636c2.319,4.427,5.692,6.746,8.854,6.746V40Z" transform="translate(-54.677 -40)" fill="#dc1c4b"/>
            </g>
            <g id="Group_2675" data-name="Group 2675" transform="translate(25.344)">
              <path id="Path_7249" data-name="Path 7249" d="M77.662,40H66.7V90.382c3.162,0,6.324-2.319,8.854-6.746L90.31,56.443C94.948,47.378,89.256,40,77.662,40Z" transform="translate(-66.7 -40)" fill="#b31e48"/>
            </g>
          </g>
        </g>
      </g>
    </g>
  </g>
</svg>
