<svg xmlns="http://www.w3.org/2000/svg" width="128" height="80" viewBox="0 0 128 80"><defs><style>.a,.d{fill:#fff;}.a{opacity:0;}.b{fill:#93bedf;}.c{fill:#ec9a29;}.e{fill:#112437;}</style></defs><g transform="translate(-16 -16)"><path class="a" d="M0,0H128V80H0Z" transform="translate(16 16)"/><g transform="translate(30.527 10.351)"><path class="b" d="M50.363,108.206c-4.026.223-7.964-1.172-11.971-1.65a26.61,26.61,0,0,0-10.455.835,8.777,8.777,0,0,0-3.4,1.625,4.45,4.45,0,0,0-1.625,3.51,24.844,24.844,0,0,0,15.08,2.9c2.612-.338,5.173-1.1,7.8-1.242a28.184,28.184,0,0,1,5.664.4q3.966.593,7.881,1.535c4.313,1.045,8.862,2.4,13.041.847,2.026-.752,4.071-2.771,3.58-5.059-.37-1.707-1.956-2.682-3.389-3.459a10.62,10.62,0,0,0-3.084-1.268,22.092,22.092,0,0,0-3.5-.045c-3.861-.089-7.881-2.517-11.385-.739Z" transform="translate(0 -35.176)"/><g transform="translate(27.957 8.813)"><path class="c" d="M76.077,19.381a2.161,2.161,0,0,0-1.268-3.8c-2.383-.4-4.67,1.408-6.1,3.115a20.154,20.154,0,0,0-2.332,3.619,8.471,8.471,0,0,1-2.294,3.2A24.458,24.458,0,0,0,61.6,24.1a22.357,22.357,0,0,0-2.74-1.109c.733-.726,1.465-1.446,2.2-2.173.491-.484,1.663-1.363,1.058-2.2-.631-.873-2.912-.465-3.733-.363A12.1,12.1,0,0,0,54.6,19.406a1.16,1.16,0,0,0-.376-.624c-.866-.752-1.9-.115-2.848.44.65-.822,1.268-1.79.994-2.548a.37.37,0,0,0-.338-.255c-1.707-.115-3.772,1.166-5.078,2.153a12.343,12.343,0,0,0-2.918,3.147q-2.294.258-4.81.784c-.2.045-.395.089-.592.134-.522-4.4,0-10.238,4.734-10.544.866-.057,2.013-.032,2.415-.994a1.721,1.721,0,0,0-1.217-2.173c-2.733-.822-5.256,3.052-6.078,5.084a20.74,20.74,0,0,0-1.217,6.027,10.384,10.384,0,0,0,.032,2.918A13.474,13.474,0,0,0,32.4,25.063l.045,4.3a19.633,19.633,0,0,0-1.535,9.423c.057.669.006,2.1.917,2.255a.829.829,0,0,0,.733-.242l.025,2.5c-.42,1.586-.828,3.173-1.172,4.765-.229,1.07-.427,2.822,1.115,2.994a.941.941,0,0,0,.134.006l.019,2.153a11.985,11.985,0,0,0-.8,2.128,12.956,12.956,0,0,0,.382,7.085.355.355,0,0,0,.5.2L32.888,75.2H47.242l-.07-13.385.6.083a5.693,5.693,0,0,0,.427,2.453c.376,1.8,1.166,4.918,2.79,5.664a1.052,1.052,0,0,0,1.465-.389l.223.261a13.111,13.111,0,0,0,.733,1.848c.376.765,1.032,2.351,1.975,2.625.694.2,1.1-.191,1.319-.784.478.357.975.7,1.478,1.026.166.287.331.58.5.866a4.239,4.239,0,0,0,1.65,1.854,1.8,1.8,0,0,0,2.153-.484,19.164,19.164,0,0,0,7.225,1.484,13.4,13.4,0,0,0,2.357-.21V63.627a13.5,13.5,0,0,1-5.1-1.459,7.948,7.948,0,0,1-3.638-3.606,20.208,20.208,0,0,0,2.332-1.771,16.847,16.847,0,0,0,2.338.886.347.347,0,0,0,.427-.242,2.473,2.473,0,0,0,.14-1.293c-.115-.491-.21-.988-.3-1.484.561-.815,1.1-.975,1.631-.478.58.1.9.287,1.4-.178a2.594,2.594,0,0,0,.484-1.969c-.051-1.382-.248-2.784-.408-4.167.019-.057.038-.108.051-.159.076.032.153.064.229.1a.349.349,0,0,0,.51-.21,8.452,8.452,0,0,0,.089-4.4c.032-.4.057-.815.064-1.223a9.691,9.691,0,0,1,1.586,1.2.352.352,0,0,0,.592-.248c-.1-2.65-.669-6.613-3.185-8.136a18.218,18.218,0,0,0-1.65-3.58,16.815,16.815,0,0,0-3.466-4.1,29.828,29.828,0,0,1,4.358-8.932C71.974,19.705,74.249,21.107,76.077,19.381Z" transform="translate(-30.832 -8.813)"/><g transform="translate(8.486 19.758)"><path class="d" d="M48.489,60.349c6.753,5.218,17.66,1.516,19.381-6.983.663-3.262-.924-8.69-4.8-11.544a11.486,11.486,0,0,0-11.436-.892c-3.784,1.682-6.944,5.25-7.416,9.461A11.289,11.289,0,0,0,48.489,60.349Z" transform="translate(-44.151 -39.826)"/><circle class="b" cx="5.626" cy="5.626" r="5.626" transform="translate(5.79 5.826)"/><circle class="e" cx="3.835" cy="3.835" r="3.835" transform="translate(7.581 7.616)"/><circle class="d" cx="2.115" cy="2.115" r="2.115" transform="translate(5.166 7.603)"/><circle class="d" cx="1.045" cy="1.045" r="1.045" transform="translate(10.371 10.406)"/></g><path class="d" d="M87.4,58.839c-.2-.4-.8-.051-.6.35a6.006,6.006,0,0,1,.6,3.275,1.407,1.407,0,0,1-.975-.675c-.255-.363-.841-.032-.6.35a2.084,2.084,0,0,1,.465.943c-.121.306-.242.612-.37.911a.479.479,0,0,1-.65-.389c.038-.446-.656-.446-.694,0-.076.886.968,1.325,1.7,1a1.281,1.281,0,0,0,.675-1.548,2.264,2.264,0,0,0,.765.134.362.362,0,0,0,.338-.255A6.794,6.794,0,0,0,87.4,58.839Z" transform="translate(-50.335 -26.903)"/><path class="d" d="M43.286,79.891c-.1.2-.331.784-.529.86-.408-.108-.809-.21-1.217-.319v-.274c-.083-.331.1-.752.045-1.1a.918.918,0,0,0-.707-.854c-.28-.089-.465.185-.427.427-1.089.319-1.625.064-1.605-.771a4.607,4.607,0,0,1,.006-.726,5.552,5.552,0,0,1,.656-2.1c.21-.4-.395-.752-.6-.35-.688,1.312-1.4,3.727-.032,4.893a1.382,1.382,0,0,0,2.032-.229c.07.694-.1,1.937.573,2.3,1.1.6,1.969-.573,2.4-1.408C44.1,79.847,43.5,79.5,43.286,79.891Z" transform="translate(-33.469 -32.652)"/><path class="d" d="M67.074,85.979a1.287,1.287,0,0,1-2.517.389c-.217-.408-.771-.051-.6.35q.019,1.042-.9,1.089a1.234,1.234,0,0,1-.994-.9,2.962,2.962,0,0,1-.1-1.529c.064-.44-.605-.631-.669-.185-.172,1.185.045,3.026,1.516,3.281a1.692,1.692,0,0,0,1.771-.917,2,2,0,0,0,3.192-1.586C67.793,85.526,67.093,85.533,67.074,85.979Z" transform="translate(-41.871 -36.44)"/><path class="d" d="M82.849,97.977c-.268-.35-.873-.006-.6.35a5.2,5.2,0,0,1,.72,1.2,1.749,1.749,0,0,1,.191.707c.083.261-.025.465-.325.605-.357.663-.752.535-1.179-.389-.045-.44-.739-.446-.694,0,.1,1.051-1.191,1.191-1.879.784a5.561,5.561,0,0,1-1.236-1.147c-.3-.338-.79.159-.491.491.72.815,1.65,1.784,2.848,1.586a1.81,1.81,0,0,0,1.21-.752,1.378,1.378,0,0,0,1.988.153C84.48,100.608,83.543,98.875,82.849,97.977Z" transform="translate(-47.682 -41.118)"/><path class="d" d="M67.61,97.721a1.2,1.2,0,0,1-2.338.07.348.348,0,0,0-.682.1c-.064,1.115-1.491.529-1.854.038a3.59,3.59,0,0,1-.465-1.236.347.347,0,0,0-.669.185c.255,1.013.758,2.262,1.956,2.4A1.556,1.556,0,0,0,65,98.683a1.876,1.876,0,0,0,3.287-.777A.35.35,0,0,0,67.61,97.721Z" transform="translate(-41.994 -40.614)"/><path class="d" d="M43.534,97.912A1.432,1.432,0,0,1,42.89,99.1a2.243,2.243,0,0,0-1.306-1.319,1.331,1.331,0,0,0-1.147.191,3.239,3.239,0,0,1-.032-2.644c.172-.408-.427-.765-.6-.35a4.008,4.008,0,0,0,.242,3.765.349.349,0,0,0,.6,0c.643-1.147,1.567.554,1.784,1.032a.362.362,0,0,0,.478.127,2.123,2.123,0,0,0,1.319-1.975A.347.347,0,0,0,43.534,97.912Z" transform="translate(-33.959 -40.015)"/></g></g></g></svg>