<?xml version="1.0" encoding="utf-8"?>
<!-- Generator: Adobe Illustrator 25.3.1, SVG Export Plug-In . SVG Version: 6.00 Build 0)  -->
<svg version="1.1" id="Layer_1" xmlns="http://www.w3.org/2000/svg" xmlns:xlink="http://www.w3.org/1999/xlink" width="128" height="80"
	 viewBox="0 0 133.3 133.3" style="enable-background:new 0 0 133.3 133.3;" xml:space="preserve">
<style type="text/css">
	.st0{fill:#008080;}
	.st1{fill:#FFFFFF;}
	.st2{fill:#005253;}
</style>
<g>
	<g>
		<g>
			<g>
				<rect x="22.6" y="84" class="st0" width="12.7" height="30.9"/>
			</g>
			<g>
				<rect x="72.9" y="75.1" class="st0" width="12.7" height="39.9"/>
			</g>
			<g>
				<rect x="98" y="46" class="st0" width="12.7" height="68.9"/>
			</g>
			<g>
				<rect x="47.7" y="60.5" class="st0" width="12.7" height="54.4"/>
			</g>
			<g>
				<polygon class="st1" points="30.3,56 26.2,51.1 54.3,27.5 78.1,42.7 104.4,16.4 108.9,20.9 78.9,50.9 54.8,35.4 				"/>
			</g>
			<g>
				<g>
					<path class="st2" d="M54.6,38.8c3.8,0,7.5-3.4,7.3-7.3c-0.2-3.9-3.2-7.3-7.3-7.3c-3.8,0-7.5,3.4-7.3,7.3
						C47.5,35.4,50.5,38.8,54.6,38.8L54.6,38.8z"/>
				</g>
			</g>
			<g>
				<g>
					<path class="st2" d="M28.3,60.8c3.8,0,7.5-3.4,7.3-7.3c-0.2-3.9-3.2-7.3-7.3-7.3c-3.8,0-7.5,3.4-7.3,7.3
						C21.1,57.5,24.2,60.8,28.3,60.8L28.3,60.8z"/>
				</g>
			</g>
			<g>
				<g>
					<path class="st2" d="M78.5,54.1c3.8,0,7.5-3.4,7.3-7.3c-0.2-3.9-3.2-7.3-7.3-7.3c-3.8,0-7.5,3.4-7.3,7.3
						C71.4,50.7,74.4,54.1,78.5,54.1L78.5,54.1z"/>
				</g>
			</g>
			<g>
				<g>
					<path class="st2" d="M106.6,26c3.8,0,7.5-3.4,7.3-7.3c-0.2-3.9-3.2-7.3-7.3-7.3c-3.8,0-7.5,3.4-7.3,7.3
						C99.5,22.6,102.5,26,106.6,26L106.6,26z"/>
				</g>
			</g>
		</g>
		<g>
			<path class="st2" d="M124.5,121.9H8.8c-1.6,0-2.8-1.3-2.8-2.8v-1.6c0-1.6,1.3-2.8,2.8-2.8h115.8c1.6,0,2.8,1.3,2.8,2.8v1.6
				C127.4,120.6,126.1,121.9,124.5,121.9z"/>
		</g>
	</g>
</g>
</svg>
