<?xml version="1.0" encoding="utf-8"?>
<!-- Generator: Adobe Illustrator 25.4.1, SVG Export Plug-In . SVG Version: 6.00 Build 0)  -->
<svg version="1.1" id="Layer_1" xmlns="http://www.w3.org/2000/svg" xmlns:xlink="http://www.w3.org/1999/xlink" width="128" height="80"
	 viewBox="0 0 133.3 133.3" style="enable-background:new 0 0 133.3 133.3;" xml:space="preserve">
<style type="text/css">
	.st1{fill:#492960;}
	.st2{opacity:0.66;fill:#612D82;}
	.st3{fill:#8FC23F;}
	.st4{fill:#DC1C4B;}
	.st5{fill:#87D1EE;}
	.st6{fill:#FFE2B1;}
	.st7{fill:#70B4C4;}
	.st8{fill:#E83A6C;}
	.st9{fill:#FFF3E1;}
	.st10{fill:#B5E069;}
	.st11{fill:#24771E;}
	.st12{fill:#1E531B;}
	.st13{fill:#755841;}
</style>
<g>
	<ellipse class="st2" cx="66.65" cy="111.79" rx="63.54" ry="7.79"/>
	<ellipse class="st3" cx="70.99" cy="112.23" rx="14.73" ry="2.32"/>
	<ellipse class="st4" cx="34.55" cy="112.92" rx="5.91" ry="1.07"/>
	<g>
		<path class="st5" d="M59.83,110.22l7.04-4.5c0.49-0.31,1.12-0.31,1.61,0l7.04,4.5c1.26,0.81,0.69,2.76-0.81,2.76H60.64
			C59.14,112.98,58.57,111.02,59.83,110.22z"/>
		<path class="st5" d="M98.5,111.17l10.55-6.75c0.32-0.21,0.74-0.21,1.06,0l10.55,6.75c0.83,0.53,0.45,1.81-0.53,1.81H99.03
			C98.05,112.98,97.68,111.7,98.5,111.17z"/>
		<path class="st5" d="M18.3,111.86l9.02-5.77c0.2-0.13,0.46-0.13,0.66,0l9.02,5.77c0.51,0.33,0.28,1.12-0.33,1.12H18.62
			C18.02,112.98,17.78,112.19,18.3,111.86z"/>
		<polygon class="st5" points="48.93,32.24 27.64,68.48 6.35,32.24 		"/>
		<polygon class="st4" points="40.46,39.36 27.64,61.19 14.82,39.36 		"/>
		<polygon class="st5" points="122.23,15.57 109.58,79.79 96.93,15.57 		"/>
		<polygon class="st6" points="116.22,27.25 109.58,60.95 102.94,27.25 		"/>
		<rect x="25.55" y="62.98" class="st5" width="4.17" height="44.89"/>
		<rect x="107.44" y="63.77" class="st5" width="4.29" height="43.96"/>
		<rect x="65.44" y="63.77" class="st5" width="4.29" height="43.96"/>
		<polygon class="st5" points="100.25,64.66 67.68,85.5 35.11,64.66 		"/>
		<polygon class="st3" points="83.09,72.5 67.68,82.35 52.27,72.5 		"/>
		<ellipse class="st7" cx="27.64" cy="32.24" rx="21.29" ry="1.87"/>
		<ellipse class="st7" cx="109.57" cy="15.64" rx="12.66" ry="1.92"/>
		<ellipse class="st7" cx="67.68" cy="64.66" rx="32.57" ry="1.68"/>
		<ellipse class="st8" cx="27.64" cy="39.36" rx="12.82" ry="1.93"/>
		<ellipse class="st9" cx="109.58" cy="27.25" rx="6.64" ry="1.98"/>
		<ellipse class="st10" cx="67.59" cy="72.5" rx="15.31" ry="1.73"/>
		<g>
			<circle class="st11" cx="60.89" cy="71.32" r="4.25"/>

				<ellipse transform="matrix(0.5653 -0.8249 0.8249 0.5653 -32.0711 78.7146)" class="st12" cx="58.65" cy="69.78" rx="2.29" ry="0.89"/>
			<path class="st13" d="M59.38,70.29c-0.07,0.1-0.14,0.2-0.21,0.29c-0.33-0.24-0.67-0.49-1-0.73c-0.14-0.1-0.28-0.21-0.42-0.31
				c-0.17-0.12-0.34-0.25-0.51-0.38c-1.07-0.8-2.12-1.62-3.14-2.49c1.18,0.64,2.32,1.33,3.45,2.03c0.19,0.11,0.37,0.23,0.54,0.34
				c0.15,0.09,0.29,0.18,0.44,0.28c0.35,0.22,0.7,0.44,1.05,0.67C59.52,70.08,59.45,70.19,59.38,70.29z"/>
			<path class="st13" d="M64.6,73.39c0.82,0.57,1.63,1.16,2.44,1.76c1.38,1.02,2.75,2.07,4.07,3.18c-1.51-0.83-2.99-1.73-4.44-2.65
				c-0.85-0.54-1.69-1.08-2.52-1.64c0.08-0.1,0.16-0.21,0.24-0.32S64.54,73.5,64.6,73.39z"/>
		</g>
		<circle class="st9" cx="107.05" cy="33.15" r="0.96"/>
		<circle class="st9" cx="108.51" cy="35.79" r="0.5"/>
		<circle class="st9" cx="109.69" cy="50.21" r="0.5"/>
		<circle class="st9" cx="110.69" cy="43.13" r="0.5"/>
		<circle class="st9" cx="112.22" cy="32.9" r="0.5"/>
		<circle class="st9" cx="110.19" cy="45.41" r="0.5"/>
		<circle class="st9" cx="107.44" cy="37.57" r="0.5"/>
	</g>
	<ellipse class="st3" cx="55.98" cy="114.48" rx="1.55" ry="0.49"/>
	<ellipse class="st3" cx="88.51" cy="111.08" rx="2.1" ry="0.58"/>
	<ellipse class="st3" cx="87.23" cy="112.6" rx="0.83" ry="0.38"/>
	<ellipse class="st6" cx="124.11" cy="111.66" rx="0.83" ry="0.38"/>
	<ellipse class="st4" cx="32.98" cy="116.21" rx="0.83" ry="0.38"/>
	<ellipse class="st4" cx="8.89" cy="114.46" rx="0.83" ry="0.38"/>
	<ellipse class="st4" cx="43.39" cy="112.04" rx="0.83" ry="0.38"/>
	<ellipse class="st6" cx="95.95" cy="111.08" rx="0.83" ry="0.38"/>
	<ellipse class="st3" cx="84.77" cy="110.3" rx="0.96" ry="0.39"/>
	<ellipse class="st4" cx="18.63" cy="115.59" rx="3.81" ry="0.63"/>
	<ellipse class="st4" cx="15.58" cy="117.6" rx="1.51" ry="0.43"/>
	<ellipse class="st4" cx="11.91" cy="113.07" rx="1.38" ry="0.47"/>
	<ellipse class="st4" cx="40.79" cy="114.48" rx="1.77" ry="0.49"/>
	<ellipse class="st6" cx="95.13" cy="113.48" rx="1.8" ry="0.51"/>
	<ellipse class="st6" cx="98.72" cy="114.96" rx="1.8" ry="0.51"/>
	<ellipse class="st6" cx="124.48" cy="114.02" rx="2.25" ry="0.53"/>
</g>
</svg>
