<?xml version="1.0" encoding="utf-8"?>
<!-- Generator: Adobe Illustrator 25.1.0, SVG Export Plug-In . SVG Version: 6.00 Build 0)  -->
<svg version="1.1" id="Layer_1" xmlns="http://www.w3.org/2000/svg" xmlns:xlink="http://www.w3.org/1999/xlink" width="128" height="80"
	 viewBox="0 0 133.27 133.27" style="enable-background:new 0 0 133.27 133.27;" xml:space="preserve">
<style type="text/css">
	.st0{fill:#432355;}
	.st1{fill:#331C42;}
	.st2{fill:#9A605C;}
	.st3{fill:#F8C09D;}
	.st4{fill:#DC1C4B;}
	.st5{fill:#EF937E;}
	.st6{fill:#342C3A;}
	.st7{fill:#195272;}
	.st8{fill:#FFFFFF;}
	.st9{fill:#FEBE40;}
</style>
<g>
	<ellipse class="st1" cx="64.52" cy="124.45" rx="38.04" ry="5.1"/>
	<g>
		<g>
			<path class="st2" d="M79.74,35.31c-0.07-1.14,1.05-2.31,1.94-3.24c0.9-0.95,1.65-1.93,1.52-3.08c-0.16-1.5-2.12-2.36-3.31-3.53
				c-1.98-1.94-0.48-4.13-0.96-6.22c-0.23-1.02-1.38-1.79-1.79-2.79c-0.5-1.2-0.24-2.54-0.14-3.76c0.1-1.3-0.27-2.37-1.06-3.57
				c-0.31-0.48-0.73-0.87-1.2-1.24c-2.46-1.94-6.14-3.15-10.02-2.97C62.69,5,60.44,5.46,58.26,6.62c-1.87,1-3.48,2.97-3.94,4.46
				c-0.43,1.4,0.24,2.67-0.71,4.03c-1.23,1.76-4.59,2.82-4.98,4.86c-0.45,2.3,4.97,2.14,4.36,4.63c-0.48,1.97-4.32,3.2-6.54,4.31
				c-1.62,0.81-4.7,2.2-4.3,3.7c0.6,2.26,5.29,2.03,5.88,4.21c0.24,0.87,0.26,1.64-0.92,2.2c-1.13,0.53-2.93,0.8-4.32,0.73
				c1.27,2.45,8.95,2.98,12.1,3.2c6.23,0.44,13.24,0.42,19.06-1.29c2.78-0.82,6.94-2.12,8.12-4.09
				C80.58,37.58,79.79,36.14,79.74,35.31z"/>
			<path class="st3" d="M54.5,30.22l-2.66-0.75c-0.54-0.14-1.02-0.49-1.33-0.95l-4.82-7.17c0,0,0.01-0.01,0-0.02
				c0-0.05,0-0.11,0.01-0.15c0-0.11,0.01-0.19,0.02-0.3c0.01-0.06,0.02-0.12,0.02-0.2c0.01-0.15,0.01-0.29,0.02-0.43
				c0.06-0.79,0.1-1.93,0.08-3.07c-0.01-0.43-0.03-0.85-0.06-1.27c-0.1-1.22-0.33-2.29-0.78-2.7c-0.01-0.03-0.02-0.03-0.04-0.05
				c0,0-0.03-0.03-0.1-0.04l0-0.01c-0.05-0.01-0.09-0.02-0.12-0.03c-0.28-0.02-0.68,0.27-0.4,2.31c0.02,0.08,0.03,0.17,0.03,0.26
				c-0.07-0.33-1.04-3.86-4.43-4.46c0,0-0.01,0.01-0.03,0.01c-0.12,0.04-0.79,0.31-0.17,0.76c0.03,0.04,0.08,0.08,0.13,0.11
				c0,0,0.01,0.01,0.03,0.02c0.2,0.12,0.38,0.27,0.53,0.45c0.04,0.04,0.07,0.06,0.11,0.1c0.75,0.67,1.89,1.9,2.38,3.35
				c-0.07-0.12-0.45-0.67-1-1.34c-0.05-0.05-0.09-0.11-0.13-0.17c-0.92-1.1-2.28-2.36-3.57-2.39c0,0-0.01,0-0.04,0.01
				c-0.04,0.01-0.13,0.05-0.2,0.1c-0.03,0.02-0.07,0.04-0.09,0.09c-0.1,0.11-0.12,0.26,0.1,0.49c0,0,0.77,0.2,3.83,3.74
				c-0.66-0.65-3.83-3.8-4.37-3.38c0,0-0.14,0.05-0.27,0.16c-0.14,0.1-0.26,0.28-0.14,0.54c0.01,0.01,0.01,0.01,0.01,0.01
				c0.04,0.08,0.09,0.14,0.16,0.22c0,0,1.7,1.18,3.37,2.8c-0.88-0.79-2.69-2.31-3.34-1.84c0,0-0.68,0.35,1.65,2.1
				c0.06,0.04,0.11,0.08,0.18,0.13c0.38,0.29,0.69,0.67,0.87,1.12c0.02,0.02,0.02,0.05,0.03,0.06c0.07,0.2,0.13,0.39,0.17,0.59
				c0.05,0.32,0.17,0.73,0.35,1.2c0.08,0.16,0.15,0.34,0.25,0.53c0.12,0.22,0.24,0.44,0.35,0.64c0.07,0.12,0.15,0.23,0.21,0.34
				c0.23,0.35,0.49,0.7,0.79,1.08c0.07,0.07,0.14,0.15,0.21,0.23c0.02,0.03,0.05,0.06,0.09,0.09c0,0,1.23,7.81,9.18,13.24
				c2.22,1.52,4.99,2.9,8.42,3.92l2.66-7.75L54.5,30.22z"/>
			<path class="st3" d="M93.87,15.17c-0.13-0.11-0.26-0.16-0.26-0.16c-0.53-0.43-3.75,2.68-4.41,3.33c3.1-3.5,3.88-3.69,3.88-3.69
				c0.22-0.22,0.2-0.38,0.11-0.48c-0.03-0.04-0.06-0.06-0.09-0.09c-0.07-0.06-0.16-0.09-0.2-0.11c-0.03-0.01-0.04-0.01-0.04-0.01
				c-1.29,0.01-2.66,1.26-3.6,2.35c-0.04,0.06-0.08,0.12-0.14,0.17c-0.56,0.66-0.94,1.21-1.02,1.33c0.51-1.44,1.66-2.66,2.42-3.32
				c0.04-0.04,0.06-0.06,0.11-0.1c0.16-0.17,0.34-0.32,0.54-0.44c0.02-0.01,0.03-0.02,0.03-0.02c0.05-0.03,0.11-0.06,0.13-0.11
				c0.63-0.44-0.04-0.72-0.16-0.76c-0.02,0-0.03-0.01-0.03-0.01c-3.4,0.56-4.41,4.08-4.49,4.41c0-0.09,0.02-0.18,0.03-0.26
				c0.31-2.03-0.09-2.32-0.37-2.31c-0.03,0.01-0.08,0.01-0.13,0.03l0,0.01c-0.07,0.01-0.1,0.04-0.1,0.04
				c-0.02,0.02-0.03,0.02-0.04,0.05c-0.46,0.4-0.7,1.47-0.82,2.69c-0.03,0.42-0.06,0.84-0.07,1.27c-0.03,1.14-0.01,2.28,0.04,3.07
				c0.01,0.14,0.01,0.29,0.02,0.44c0,0.07,0.01,0.14,0.02,0.2c0,0.11,0.01,0.19,0.01,0.3c0,0.04,0.01,0.1,0.01,0.15
				c0,0.01,0,0.02,0,0.02l-0.52,0.77l-0.17,0.26l0.04,0.02l-3.59,5.3c-0.3,0.47-0.78,0.82-1.32,0.96l-2.66,0.75l-8.16,2.29
				l2.66,7.75c3.42-1.03,6.18-2.41,8.41-3.92c6.51-4.45,8.09-10.49,8.57-12.39c0.03-0.03,0.06-0.06,0.09-0.09
				c0.07-0.08,0.14-0.16,0.21-0.23c0.31-0.38,0.57-0.73,0.81-1.07c0.06-0.11,0.14-0.22,0.22-0.34c0.12-0.2,0.24-0.41,0.36-0.63
				c0.1-0.18,0.18-0.36,0.26-0.52c0.19-0.46,0.31-0.87,0.37-1.19c0.04-0.19,0.1-0.38,0.17-0.58c0.02-0.01,0.02-0.05,0.03-0.06
				c0.19-0.44,0.49-0.82,0.88-1.11c0.07-0.05,0.13-0.09,0.18-0.13c2.35-1.72,1.68-2.08,1.68-2.08c-0.65-0.48-2.48,1.02-3.37,1.8
				c1.69-1.59,3.41-2.76,3.41-2.76c0.07-0.08,0.13-0.14,0.17-0.22c0,0,0,0,0.01-0.01C94.13,15.45,94.01,15.27,93.87,15.17z"/>
			<path class="st4" d="M57.34,56.65c0.07,0.47,0,3.06,0,3.06c5.2,1.25,10.97,1.23,17.09,0.43V36.97c0,0-0.2-4.28-1.61-4.6l-7.87,0
				l-0.32-0.07c-3.84-0.85-7.15-1.23-7.15-1.23C56.94,34.83,55.97,47.54,57.34,56.65z"/>
			<g>
				<path class="st5" d="M62.42,28.64v5.88c0,0.5,0.15,0.94,0.42,1.32c0.42,0.64,1.15,1.06,1.96,1.06c0.18,0,0.36-0.03,0.54-0.07
					c1.88-0.44,3.11-2.26,2.82-4.17l-0.25-1.61v-0.01l-0.38-2.5c-0.07-0.38-0.39-0.67-0.78-0.67H63.2
					C62.77,27.86,62.42,28.21,62.42,28.64z"/>
				<g>
					<g>
						<path class="st3" d="M56.59,25.34c1.2,1.92,3,2.02,4.61,1.94c2.15,2.15,5.13,3.29,7.77,3.22c1.2-0.03,2.33-0.29,3.29-0.82
							c4.12-2.29,5.79-6.99,3.93-11.47c-4.44-10.77-8.85-12.1-13-10.56c-0.22,0.08-0.44,0.17-0.67,0.27
							c-3.32,1.48-4.98,7.88-4.39,12.92c-0.55-0.12-1.06-0.1-1.46,0.07C55.35,21.5,55.64,23.82,56.59,25.34z"/>
						<g>
							<path class="st6" d="M66.12,21.9c0.23,0.5,0.78,0.73,1.23,0.53c0.45-0.21,0.64-0.78,0.41-1.28c-0.23-0.5-0.78-0.73-1.23-0.53
								C66.07,20.83,65.89,21.4,66.12,21.9z"/>
							<path class="st6" d="M72.18,19.14c0.23,0.5,0.78,0.73,1.23,0.53c0.45-0.21,0.64-0.78,0.41-1.28
								c-0.23-0.5-0.78-0.74-1.23-0.53C72.13,18.07,71.95,18.64,72.18,19.14z"/>
							<g>
								<path class="st6" d="M64.21,20.48c0.11-0.05,0.18-0.15,0.18-0.28c0.03-1.95,1.77-2.04,1.84-2.05
									c0.17-0.01,0.3-0.15,0.3-0.32c-0.01-0.17-0.15-0.3-0.32-0.29c-0.83,0.03-2.4,0.63-2.43,2.65c0,0.17,0.13,0.31,0.3,0.31
									C64.12,20.51,64.17,20.5,64.21,20.48z"/>
							</g>
							<g>
								<path class="st6" d="M70.11,16.13c0.09,0.03,0.2,0,0.27-0.08c1.09-1.23,2.24-0.33,2.29-0.3c0.11,0.09,0.27,0.07,0.36-0.04
									c0.09-0.11,0.07-0.27-0.04-0.36c-0.54-0.43-1.88-0.92-3,0.36c-0.09,0.11-0.08,0.27,0.02,0.36
									C70.05,16.1,70.08,16.12,70.11,16.13z"/>
							</g>
							<g>
								<path class="st6" d="M71.22,25.49c-0.07-0.07-0.17-0.1-0.27-0.06c-1.53,0.57-2.13-0.76-2.16-0.82
									c-0.06-0.13-0.21-0.19-0.34-0.13c-0.13,0.06-0.19,0.21-0.13,0.34c0.28,0.64,1.22,1.69,2.81,1.09
									c0.13-0.05,0.2-0.2,0.15-0.33C71.27,25.54,71.25,25.51,71.22,25.49z"/>
							</g>
							<g>
								<path class="st5" d="M70.44,22.98c0.02,0.21,0.22,0.37,0.43,0.34c0.4-0.05,0.72-0.14,0.98-0.25
									c0.72-0.33,0.95-0.86,1.01-1.13c0.16-0.62-0.08-1.3-0.59-1.66c-0.55-0.39-2.06-1.42-2.17-1.41
									c-0.21,0.03-0.37,0.21-0.35,0.43L70.44,22.98z"/>
							</g>
						</g>
					</g>
				</g>
				<path class="st2" d="M71.38,10.51c0.65,1.95-1.38,3.44-2.77,4.39c-0.08-0.92-0.34-1.72-1.06-2.4c-0.38,2.29-3.03,4.34-5.14,5.01
					c-0.27-0.65-0.43-1.47-0.97-1.93c0.07,1.05-0.08,2.51-0.27,3.84c-0.32,2.21,0.05,4.46,1.09,6.43l1.85,3.52
					c0,0-1.9-0.01-5.49-3.61c-1.41-1.41-2.13-1.76-3.64-4.99c-1.48-3.15-0.87-6.43,0.49-9.39c1.52-3.32,2.98-5.62,6.42-6.91
					c3.5-1.32,7.56,0.16,10.03,2.86c2.3,2.51,3.64,5.39,3.52,8.86C74.37,14.29,71.38,10.51,71.38,10.51z"/>
			</g>
			<path class="st3" d="M79.69,118.97h-5.1c0.51-14.56,0.82-23.72-3.85-36.52c-0.75-2.04-1.62-4.18-2.64-6.45l-2.27-0.06
				c-0.02,2.29-0.11,4.46-0.26,6.51c-1.26,17.55-6.97,26.84-15.79,36.93l-5.06-0.21c8.72-12.28,10.56-24.84,9.81-36.72
				c-0.08-1.3-0.19-2.58-0.33-3.86c-0.75-6.96-0.47-12.33,2.91-18.46l0.23-0.43h17.09c1.38,3.18,2.55,6.45,3.5,9.79
				c0.95,3.33,1.68,6.73,2.17,10.16c0.13,0.93,0.26,1.86,0.37,2.79C82.04,95.05,81.91,107.26,79.69,118.97z"/>
			<path class="st7" d="M80.47,82.45h-9.74c-0.75-2.04-1.62-4.18-2.64-6.45l-2.27-0.06c-0.02,2.29-0.11,4.46-0.26,6.51H54.53
				c-0.08-1.3-0.19-2.58-0.33-3.86c-0.75-6.96-0.47-12.33,2.91-18.46l0.23-0.43h17.09c1.38,3.18,2.55,6.45,3.5,9.79
				c0.95,3.33,1.68,6.73,2.17,10.16C80.23,80.59,80.36,81.52,80.47,82.45z"/>
			<path class="st8" d="M73.97,123.18c0.08,1.38,1.27,2.44,2.66,2.36l11.63-0.77c1.13-0.07,1.57-1.51,0.67-2.21
				c-0.57-0.45-2.73-1.01-4.59-1.46c-0.73-0.18-4.71-1.89-4.71-1.89c0-0.08,0.01-0.16,0.01-0.24h-5.06c0,0.09-0.01,0.19-0.01,0.28
				l-0.16,1.05L73.97,123.18z"/>
			<path class="st8" d="M43.92,123.35c0.02,1.38,1.16,2.49,2.56,2.47l11.65-0.23c1.14-0.02,1.63-1.44,0.77-2.18
				c-0.55-0.47-2.68-1.13-4.52-1.65c-0.72-0.21-4.62-2.14-4.62-2.14c0-0.08,0.02-0.16,0.02-0.24l-5.06-0.21
				c0,0.09-0.02,0.19-0.03,0.28l-0.21,1.04L43.92,123.35z"/>
			<path class="st4" d="M89.39,123.77c0.08-0.42-0.05-0.89-0.46-1.2c-0.57-0.45-2.73-1.01-4.59-1.46c-0.73-0.18-4.71-1.89-4.71-1.89
				c0-0.08,0.01-0.16,0.01-0.24h-5.06c0,0.09-0.01,0.19-0.01,0.28l-0.16,1.05l-0.45,2.87c0.01,0.2,0.05,0.4,0.11,0.58H89.39z"/>
			<path class="st4" d="M59.19,123.77c-0.07-0.13-0.16-0.25-0.29-0.35c-0.55-0.47-2.68-1.13-4.52-1.65
				c-0.72-0.21-4.62-2.14-4.62-2.14c0-0.08,0.02-0.16,0.02-0.24l-5.06-0.21c0,0.09-0.02,0.19-0.03,0.28l-0.21,1.04l-0.57,2.85
				c0,0.14,0.02,0.28,0.05,0.42H59.19z"/>
			<g>
				<path class="st9" d="M51.87,73c-13.94,0-34.68-2.41-34.68-9.05s20.74-9.05,34.68-9.05c2.07,0,3.24,0.04,5.25,0.13l0.25,2.67
					c-1.98-0.08-3.47-0.11-5.5-0.11c-21,0-31.98,4.13-31.98,6.35c0,2.22,10.98,6.35,31.98,6.35c21,0,31.98-4.13,31.98-6.35
					c0-0.62-1.7-2.61-9.47-4.3l0.05-2.71c7.69,1.67,12.12,4.08,12.12,7.01C86.55,70.59,65.81,73,51.87,73z"/>
			</g>
			<g>
				<path class="st8" d="M54.56,91.16c-0.57,9.22-3.22,18.7-9.84,28.01l5.06,0.21c7.24-8.28,12.38-16.02,14.69-28.22H54.56z"/>
				<path class="st8" d="M73.3,91.16c1.94,8.8,1.67,16.75,1.28,27.81h5.1c1.71-9,2.18-18.28,1.6-27.81H73.3z"/>
			</g>
			<g>
				<g>
					<path class="st4" d="M63.07,96.94c0.13-0.45,0.27-0.9,0.39-1.37h-9.34c-0.06,0.45-0.13,0.91-0.21,1.37H63.07z"/>
				</g>
				<g>
					<path class="st4" d="M53.68,98.25c-0.08,0.41-0.16,0.82-0.25,1.23h8.8c0.14-0.41,0.28-0.82,0.42-1.23H53.68z"/>
				</g>
				<g>
					<path class="st4" d="M81.5,96.94c-0.01-0.45-0.02-0.91-0.03-1.37h-7.37c0.07,0.46,0.13,0.91,0.18,1.37H81.5z"/>
				</g>
				<g>
					<path class="st4" d="M74.44,98.25c0.04,0.41,0.08,0.82,0.12,1.23h6.96c0-0.41,0-0.82,0-1.23H74.44z"/>
				</g>
			</g>
		</g>
	</g>
</g>
</svg>
