<svg xmlns="http://www.w3.org/2000/svg" width="128" height="80" viewBox="0 0 128 80"><defs><style>.a,.f{fill:#fff;}.a{opacity:0;}.b{fill:#c97436;}.c{fill:#b74615;}.d{fill:#ffc092;}.e{fill:#ef5817;}</style></defs><g transform="translate(-16 -16)"><path class="a" d="M0,0H128V80H0Z" transform="translate(16 16)"/><g transform="translate(62.98 22.244)"><g transform="translate(0 1.942)"><g transform="translate(3.403)"><path class="b" d="M54.247,24.194,52.3,21.765a14.358,14.358,0,0,0-1.968-2.133,4.293,4.293,0,0,0-1.791-.777c-1.2-.263-1.81-.843-1.81-1.744q0-1.4,2.324-2.074a27.675,27.675,0,0,1,7.182-.678,26.053,26.053,0,0,1,5.247.388c1.271.3,1.9.915,1.9,1.83a3.926,3.926,0,0,1-.757,1.718.921.921,0,0,0-.138.481,2.7,2.7,0,0,0,.724,1.4c.481.612.843.915,1.086.915.276,0,.678-.342,1.218-1.02a3.058,3.058,0,0,0,.8-1.527,2.329,2.329,0,0,0-.507-1.1,2.039,2.039,0,0,1-.434-1.007,1.6,1.6,0,0,1,.375-.987,2.208,2.208,0,0,1,.948-.711,10.281,10.281,0,0,1,3.482-.415,7.286,7.286,0,0,1,2.956.415,1.847,1.847,0,0,1,1.145,1.7,1.156,1.156,0,0,1-.323.9,7.938,7.938,0,0,1-1.626.915,3.326,3.326,0,0,0-1.08.77q-.365.425-2.548,3.357l-1.58,2.383a1.264,1.264,0,0,0-.276.527,1.738,1.738,0,0,0,.25.5l1.376,2.087A29.592,29.592,0,0,0,71.732,32.2a5.833,5.833,0,0,0,1.626.987,1.583,1.583,0,0,1,1.053,1.56c0,1.04-.639,1.751-1.922,2.146a28.166,28.166,0,0,1-7.037.586,27.582,27.582,0,0,1-5.477-.369q-2.064-.5-2.06-2.133a1.687,1.687,0,0,1,1.192-1.514,1.03,1.03,0,0,0,.665-1.007,4.071,4.071,0,0,0-.941-2.074c-.625-.876-1.113-1.31-1.468-1.3s-.908.566-1.626,1.652a5.258,5.258,0,0,0-1.08,2.455,1.922,1.922,0,0,0,.553,1.053,1.821,1.821,0,0,1,.481,1.238q0,1.995-4.7,1.995a9.758,9.758,0,0,1-3.693-.507A1.708,1.708,0,0,1,46.17,35.32a1.408,1.408,0,0,1,.355-1.066,2.69,2.69,0,0,1,1.317-.513,2.479,2.479,0,0,0,1.534-.823q.523-.642,3.252-4.95l1.652-2.725a1.261,1.261,0,0,0,.23-.527C54.55,24.629,54.451,24.451,54.247,24.194Z" transform="translate(-46.17 -14.32)"/></g><g transform="translate(3.015 41.117)"><path class="b" d="M68.3,87.918l-3.028,8.321a32.53,32.53,0,0,1-2.258,5.056,14.886,14.886,0,0,1-2.581,3.338,10.022,10.022,0,0,1-7.175,2.844,8.224,8.224,0,0,1-5.5-1.791,4.384,4.384,0,0,1-1.626-3.509,4.158,4.158,0,0,1,1.132-2.969A3.678,3.678,0,0,1,50.05,98a3.446,3.446,0,0,1,2.66,1.1,2.968,2.968,0,0,1,.639.9,14.332,14.332,0,0,1,.481,1.718,1.135,1.135,0,0,0,1.145,1.007,1.453,1.453,0,0,0,1.192-.619,2.425,2.425,0,0,0,.481-1.534,10.132,10.132,0,0,0-1.192-3.6L49.931,85.213a10.576,10.576,0,0,0-1.3-2.291A6.937,6.937,0,0,0,46.706,81.8a1.713,1.713,0,0,1-.79-.724,1.974,1.974,0,0,1-.336-1.04q0-2.044,4.055-2.771A35.271,35.271,0,0,1,55.8,76.78a11.816,11.816,0,0,1,3.825.5A2.369,2.369,0,0,1,61.5,79.551a2.535,2.535,0,0,1-.527,1.35,2.393,2.393,0,0,0-.507,1.3,2.965,2.965,0,0,0,.244,1.145,22.151,22.151,0,0,0,1.02,2.014c.579,1.073,1.093,1.606,1.534,1.606.474,0,.961-.467,1.468-1.409a5.714,5.714,0,0,0,.757-2.719,2.531,2.531,0,0,0-.573-1.718,2.986,2.986,0,0,1-.869-1.764c0-.777.52-1.4,1.56-1.87a10.328,10.328,0,0,1,4.174-.7q4.858,0,4.858,2.337a1.883,1.883,0,0,1-.494,1.363,4.7,4.7,0,0,1-1.8.974,3.539,3.539,0,0,0-1.744,1.376A28.106,28.106,0,0,0,68.3,87.918Z" transform="translate(-45.58 -76.78)"/></g><path class="c" d="M73.066,64.959H42.975A1.981,1.981,0,0,1,41,62.984V61.095a1.981,1.981,0,0,1,1.975-1.975H73.066a1.981,1.981,0,0,1,1.975,1.975v1.889A1.981,1.981,0,0,1,73.066,64.959Z" transform="translate(-41 -29.628)"/></g><g transform="translate(3.403)"><path class="d" d="M54.247,21.244,52.3,18.815a14.358,14.358,0,0,0-1.968-2.133,4.293,4.293,0,0,0-1.791-.777c-1.2-.263-1.81-.843-1.81-1.744q0-1.4,2.324-2.074a27.675,27.675,0,0,1,7.182-.678,26.053,26.053,0,0,1,5.247.388c1.271.3,1.9.915,1.9,1.83a3.926,3.926,0,0,1-.757,1.718.921.921,0,0,0-.138.481,2.7,2.7,0,0,0,.724,1.4c.481.612.843.915,1.086.915.276,0,.678-.342,1.218-1.02a3.058,3.058,0,0,0,.8-1.527,2.329,2.329,0,0,0-.507-1.1,2.039,2.039,0,0,1-.434-1.007,1.6,1.6,0,0,1,.375-.987,2.208,2.208,0,0,1,.948-.711,10.281,10.281,0,0,1,3.482-.415,7.286,7.286,0,0,1,2.956.415,1.847,1.847,0,0,1,1.145,1.7,1.156,1.156,0,0,1-.323.9,7.938,7.938,0,0,1-1.626.915,3.326,3.326,0,0,0-1.08.77q-.365.425-2.548,3.357L67.13,21.8a1.264,1.264,0,0,0-.276.527,1.738,1.738,0,0,0,.25.5l1.376,2.087a29.592,29.592,0,0,0,3.252,4.332,5.832,5.832,0,0,0,1.626.987,1.583,1.583,0,0,1,1.053,1.56c0,1.04-.639,1.751-1.922,2.146a28.166,28.166,0,0,1-7.037.586,27.581,27.581,0,0,1-5.477-.369q-2.064-.5-2.06-2.133a1.687,1.687,0,0,1,1.192-1.514,1.03,1.03,0,0,0,.665-1.007,4.071,4.071,0,0,0-.941-2.074c-.625-.876-1.113-1.31-1.468-1.3s-.908.566-1.626,1.652a5.258,5.258,0,0,0-1.08,2.455,1.922,1.922,0,0,0,.553,1.053,1.821,1.821,0,0,1,.481,1.238q0,1.995-4.7,1.995a9.758,9.758,0,0,1-3.693-.507A1.708,1.708,0,0,1,46.17,32.37a1.408,1.408,0,0,1,.355-1.066,2.69,2.69,0,0,1,1.317-.513,2.479,2.479,0,0,0,1.534-.823q.523-.642,3.252-4.95l1.652-2.725a1.261,1.261,0,0,0,.23-.527C54.55,21.679,54.451,21.5,54.247,21.244Z" transform="translate(-46.17 -11.37)"/></g><g transform="translate(3.015 41.111)"><g transform="translate(0 0)"><path class="d" d="M68.3,84.958l-3.028,8.321a32.53,32.53,0,0,1-2.258,5.056,14.886,14.886,0,0,1-2.581,3.338,10.022,10.022,0,0,1-7.175,2.844,8.224,8.224,0,0,1-5.5-1.791,4.384,4.384,0,0,1-1.626-3.509,4.158,4.158,0,0,1,1.132-2.969,3.678,3.678,0,0,1,2.785-1.2,3.446,3.446,0,0,1,2.66,1.1,2.968,2.968,0,0,1,.639.9,14.331,14.331,0,0,1,.481,1.718,1.135,1.135,0,0,0,1.145,1.007,1.453,1.453,0,0,0,1.192-.619,2.425,2.425,0,0,0,.481-1.534,10.132,10.132,0,0,0-1.192-3.6L49.931,82.253a10.576,10.576,0,0,0-1.3-2.291,6.937,6.937,0,0,0-1.922-1.126,1.713,1.713,0,0,1-.79-.724,1.974,1.974,0,0,1-.336-1.04q0-2.044,4.055-2.771A35.271,35.271,0,0,1,55.8,73.82a11.816,11.816,0,0,1,3.825.5A2.369,2.369,0,0,1,61.5,76.591a2.535,2.535,0,0,1-.527,1.35,2.393,2.393,0,0,0-.507,1.3,2.965,2.965,0,0,0,.244,1.145,22.153,22.153,0,0,0,1.02,2.014c.579,1.073,1.093,1.606,1.534,1.606.474,0,.961-.467,1.468-1.409a5.714,5.714,0,0,0,.757-2.719,2.531,2.531,0,0,0-.573-1.718,2.986,2.986,0,0,1-.869-1.764c0-.777.52-1.4,1.56-1.87a10.329,10.329,0,0,1,4.174-.7q4.858,0,4.858,2.337a1.883,1.883,0,0,1-.494,1.363,4.7,4.7,0,0,1-1.8.974,3.539,3.539,0,0,0-1.744,1.376A28.328,28.328,0,0,0,68.3,84.958Z" transform="translate(-45.58 -73.82)"/></g></g><path class="e" d="M73.066,62.009H42.975A1.981,1.981,0,0,1,41,60.034V58.145a1.981,1.981,0,0,1,1.975-1.975H73.066a1.981,1.981,0,0,1,1.975,1.975v1.889A1.981,1.981,0,0,1,73.066,62.009Z" transform="translate(-41 -26.678)"/><g transform="translate(7.031 0.013)"><g transform="translate(0.724)"><path class="f" d="M65.53,11.815c1.271.3,1.9.915,1.9,1.83a3.926,3.926,0,0,1-.757,1.718.921.921,0,0,0-.138.481,2.7,2.7,0,0,0,.724,1.4c.481.612.843.915,1.086.915a.881.881,0,0,0,.5-.25,4.639,4.639,0,0,1-.612-.671,2.749,2.749,0,0,1-.724-1.4.921.921,0,0,1,.138-.481,4.043,4.043,0,0,0,.757-1.718c0-.915-.632-1.527-1.9-1.83a26.053,26.053,0,0,0-5.247-.388c-.151,0-.283,0-.428.007A24.108,24.108,0,0,1,65.53,11.815Z" transform="translate(-55.531 -11.4)"/><path class="f" d="M58.678,33.81c-.369.013-.908.566-1.626,1.652a5.258,5.258,0,0,0-1.08,2.455,1.922,1.922,0,0,0,.553,1.053,1.821,1.821,0,0,1,.481,1.238c0,1.257-1.422,1.916-4.226,1.981.171.007.323.013.5.013q4.7,0,4.7-1.995a1.821,1.821,0,0,0-.481-1.238,1.922,1.922,0,0,1-.553-1.053,5.258,5.258,0,0,1,1.08-2.455A6.323,6.323,0,0,1,59.2,34.047.9.9,0,0,0,58.678,33.81Z" transform="translate(-52.78 -19.051)"/><path class="f" d="M83.129,30.257a5.832,5.832,0,0,1-1.626-.987,28.649,28.649,0,0,1-3.252-4.332l-1.376-2.087a1.632,1.632,0,0,1-.25-.5,1.264,1.264,0,0,1,.276-.527l1.58-2.383q2.172-2.933,2.548-3.357a3.326,3.326,0,0,1,1.08-.77,8.069,8.069,0,0,0,1.626-.915,1.17,1.17,0,0,0,.323-.9,1.861,1.861,0,0,0-1.145-1.7,7.286,7.286,0,0,0-2.956-.415c-.184,0-.349.007-.52.013a6.425,6.425,0,0,1,2.5.4,1.847,1.847,0,0,1,1.145,1.7,1.156,1.156,0,0,1-.323.9,7.939,7.939,0,0,1-1.626.915,3.326,3.326,0,0,0-1.08.77q-.365.425-2.548,3.357l-1.58,2.383a1.264,1.264,0,0,0-.276.527,1.738,1.738,0,0,0,.25.5l1.376,2.087a29.591,29.591,0,0,0,3.252,4.332,5.832,5.832,0,0,0,1.626.987,1.583,1.583,0,0,1,1.053,1.56c0,1.04-.639,1.751-1.922,2.146a26.412,26.412,0,0,1-6.6.579c.178,0,.349.007.533.007a28.167,28.167,0,0,0,7.037-.586q1.926-.583,1.922-2.146A1.583,1.583,0,0,0,83.129,30.257Z" transform="translate(-60.267 -11.39)"/></g><g transform="translate(0 41.104)"><path class="f" d="M56.1,110.78a1.447,1.447,0,0,0,.507-.1,1.219,1.219,0,0,1-.678-.908,14.332,14.332,0,0,0-.481-1.718,3.091,3.091,0,0,0-.639-.9,3.446,3.446,0,0,0-2.66-1.1,3.625,3.625,0,0,0-.467.046,3.347,3.347,0,0,1,2.153,1.053,2.968,2.968,0,0,1,.639.9,14.334,14.334,0,0,1,.481,1.718A1.135,1.135,0,0,0,56.1,110.78Z" transform="translate(-51.68 -84.843)"/><path class="f" d="M63.673,74.33A2.369,2.369,0,0,1,65.556,76.6a2.535,2.535,0,0,1-.527,1.35,2.393,2.393,0,0,0-.507,1.3,2.964,2.964,0,0,0,.244,1.145,22.149,22.149,0,0,0,1.02,2.014c.579,1.073,1.093,1.606,1.534,1.606a.929.929,0,0,0,.507-.2,4.2,4.2,0,0,1-1.073-1.409,22.159,22.159,0,0,1-1.02-2.014,3.091,3.091,0,0,1-.244-1.145,2.393,2.393,0,0,1,.507-1.3,2.555,2.555,0,0,0,.527-1.35,2.373,2.373,0,0,0-1.883-2.271,11.663,11.663,0,0,0-3.825-.5c-.2,0-.388.007-.586.013A10.879,10.879,0,0,1,63.673,74.33Z" transform="translate(-54.602 -73.83)"/><path class="f" d="M73.5,73.86c-.165,0-.309.013-.461.013,2.89.079,4.351.849,4.351,2.324A1.883,1.883,0,0,1,76.9,77.56a4.7,4.7,0,0,1-1.8.974,3.539,3.539,0,0,0-1.744,1.376,27.15,27.15,0,0,0-2.311,5.062l-3.028,8.321a32.53,32.53,0,0,1-2.258,5.056,14.886,14.886,0,0,1-2.581,3.338,9.963,9.963,0,0,1-6.748,2.824c.178.007.362.02.546.02a10.022,10.022,0,0,0,7.175-2.844,14.78,14.78,0,0,0,2.581-3.338,31.972,31.972,0,0,0,2.258-5.056l3.028-8.321a26.944,26.944,0,0,1,2.311-5.062,3.547,3.547,0,0,1,1.744-1.376,4.7,4.7,0,0,0,1.8-.974,1.883,1.883,0,0,0,.494-1.363Q78.355,73.857,73.5,73.86Z" transform="translate(-53.303 -73.84)"/></g><path class="f" d="M87.774,56.17H86.8A2.916,2.916,0,0,1,86.8,62h.974a2.916,2.916,0,0,0,0-5.833Z" transform="translate(-63.681 -26.691)"/></g></g></g></svg>