<?xml version="1.0" encoding="utf-8"?>
<!-- Generator: Adobe Illustrator 25.1.0, SVG Export Plug-In . SVG Version: 6.00 Build 0)  -->
<svg version="1.1" id="Layer_1" xmlns="http://www.w3.org/2000/svg" xmlns:xlink="http://www.w3.org/1999/xlink" x="0px" y="0px"
	 viewBox="0 0 128 80" style="enable-background:new 0 0 128 80;" xml:space="preserve">
<style type="text/css">
	.st0{fill:#612D82;}
	.st1{fill:#432355;}
	.st2{fill:#2276BC;}
	.st3{fill:#87D1EE;}
	.st4{fill:#FEBE40;}
	.st5{fill:#B557A1;}
</style>
<g>
	<g>
		
			<rect x="54.9" y="44.5" transform="matrix(0.8624 0.5062 -0.5062 0.8624 34.9456 -21.527)" class="st0" width="4.4" height="18.1"/>
		
			<rect x="68.5" y="42.1" transform="matrix(-0.5062 0.8624 -0.8624 -0.5062 150.6241 16.0167)" class="st0" width="4.4" height="18.1"/>
		
			<rect x="56.9" y="54.6" transform="matrix(-0.5062 0.8624 -0.8624 -0.5062 143.913 44.881)" class="st1" width="4.4" height="18.1"/>
		
			<rect x="78.6" y="48" transform="matrix(-0.5062 0.8624 -0.8624 -0.5062 170.9514 16.2341)" class="st1" width="4.4" height="18.1"/>
		
			<rect x="36.6" y="19.7" transform="matrix(0.8624 0.5062 -0.5062 0.8624 17.1403 -20.1972)" class="st2" width="18.2" height="3.5"/>
		
			<rect x="63.7" y="26.7" transform="matrix(0.8624 0.5062 -0.5062 0.8624 24.429 -32.9362)" class="st2" width="18.2" height="3.5"/>
		<rect x="53.5" y="23.2" transform="matrix(0.9894 -0.145 0.145 0.9894 -4.5004 9.2213)" class="st3" width="15" height="24.6"/>
		<circle class="st4" cx="57.1" cy="13.1" r="8.5"/>
		
			<rect x="26.7" y="7.6" transform="matrix(0.3289 0.9444 -0.9444 0.3289 32.8254 -27.5067)" class="st4" width="18.2" height="3.5"/>
		
			<rect x="69.7" y="25.3" transform="matrix(0.3289 0.9444 -0.9444 0.3289 78.4232 -56.2939)" class="st4" width="18.2" height="3.5"/>
		<g>
			<circle class="st0" cx="53.6" cy="11.7" r="1.3"/>
			<circle class="st0" cx="60" cy="10.8" r="1.3"/>
		</g>
		<path class="st1" d="M60.9,13.6c0.3,2-1.1,3.9-3.2,4.2s-3.9-1.1-4.2-3.2L60.9,13.6z"/>
		<polygon class="st5" points="56.5,9.2 55.8,13.7 58.5,13.3 		"/>
		<polygon class="st2" points="66.6,65.9 69.3,71.3 57.2,73.9 		"/>
		<polygon class="st2" points="85.9,61.9 89.7,66.5 96.9,56.4 		"/>
		
			<rect x="62.3" y="68.3" transform="matrix(0.7036 -0.7106 0.7106 0.7036 -31.0496 65.4054)" class="st4" width="1.2" height="3.2"/>
		<rect x="63.6" y="67" transform="matrix(0.7036 -0.7106 0.7106 0.7036 -29.716 65.9464)" class="st4" width="1.2" height="3.2"/>
		<rect x="89.4" y="58.7" transform="matrix(0.884 -0.4676 0.4676 0.884 -17.7729 49.1019)" class="st4" width="1.2" height="3.2"/>
		<rect x="91.1" y="57.9" transform="matrix(0.884 -0.4676 0.4676 0.884 -17.1725 49.7731)" class="st4" width="1.2" height="3.2"/>
		<circle class="st4" cx="67.2" cy="70.3" r="0.8"/>
		<circle class="st4" cx="89.5" cy="63.8" r="0.8"/>
		<g>
			
				<rect x="60.6" y="70.1" transform="matrix(0.9698 -0.2438 0.2438 0.9698 -15.106 20.7155)" class="st1" width="31" height="2.5"/>
			<g>
				<g>
					<circle class="st0" cx="66.8" cy="77.4" r="2.3"/>
					<circle class="st0" cx="87.2" cy="72.3" r="2.3"/>
				</g>
			</g>
		</g>
	</g>
	<polygon class="st2" points="60,26.4 56.3,36.4 66.8,34.6 	"/>
</g>
</svg>
