<?xml version="1.0" encoding="utf-8"?>
<!-- Generator: Adobe Illustrator 25.1.0, SVG Export Plug-In . SVG Version: 6.00 Build 0)  -->
<svg version="1.1" id="Layer_1" xmlns="http://www.w3.org/2000/svg" xmlns:xlink="http://www.w3.org/1999/xlink" width="128" height="80"
	 viewBox="0 0 133.27 133.27" style="enable-background:new 0 0 133.27 133.27;" xml:space="preserve">
<style type="text/css">
	.st0{clip-path:url(#SVGID_1_);}
	.st1{fill-rule:evenodd;clip-rule:evenodd;fill:#FFFFFF;}
	.st2{fill:#F48134;}
	.st3{fill:#C25117;}
	.st4{fill:#CC5C23;}
	.st5{fill:#4C4C4C;}
	.st6{opacity:0.5;fill:#66403B;}
	.st7{fill:#2B2B33;}
	.st8{fill:#8E8E8E;}
	.st9{fill:#896258;}
	.st10{fill:#7A5149;}
	.st11{fill:#C18C84;}
	.st12{fill:#FFFFFF;}
	.st13{fill:#E2E2E2;}
	.st14{fill:#F92338;}
	.st15{fill:#D87350;}
	.st16{fill:#F49271;}
	.st17{fill:#1E1E23;}
	.st18{fill:#2C98DB;}
	.st19{fill:#1E72C6;}
	.st20{fill:#E57225;}
	.st21{fill:#FF9750;}
</style>
<g>
	<g>
		<defs>
			<rect id="SVGID_2_" x="-0.01" y="-0.01" width="133.3" height="133.3"/>
		</defs>
		<clipPath id="SVGID_1_">
			<use xlink:href="#SVGID_2_"  style="overflow:visible;"/>
		</clipPath>
		<g class="st0">
			<g>
				
					<rect x="59.47" y="112.63" transform="matrix(0.8635 -0.5043 0.5043 0.8635 -48.8677 46.0498)" class="st1" width="2.37" height="1.38"/>
				
					<rect x="55.8" y="114.78" transform="matrix(0.8635 -0.5043 0.5043 0.8635 -50.4504 44.4946)" class="st1" width="2.37" height="1.38"/>
				
					<rect x="52.15" y="116.91" transform="matrix(0.8635 -0.5043 0.5043 0.8635 -52.0245 42.9394)" class="st1" width="2.37" height="1.38"/>
			</g>
			<g>
				
					<rect x="70.49" y="106.2" transform="matrix(0.8635 -0.5043 0.5043 0.8635 -44.12 50.7317)" class="st1" width="2.37" height="1.38"/>
				
					<rect x="66.82" y="108.34" transform="matrix(0.8635 -0.5043 0.5043 0.8635 -45.6997 49.1712)" class="st1" width="2.37" height="1.38"/>
				
					<rect x="63.17" y="110.48" transform="matrix(0.8635 -0.5043 0.5043 0.8635 -47.2755 47.6186)" class="st1" width="2.37" height="1.38"/>
			</g>
			<g>
				
					<rect x="81.51" y="99.76" transform="matrix(0.8635 -0.5043 0.5043 0.8635 -39.3697 55.4081)" class="st1" width="2.37" height="1.38"/>
				
					<rect x="77.84" y="101.9" transform="matrix(0.8636 -0.5043 0.5043 0.8636 -40.9499 53.8483)" class="st1" width="2.37" height="1.38"/>
				
					<rect x="74.19" y="104.04" transform="matrix(0.8635 -0.5043 0.5043 0.8635 -42.5278 52.3004)" class="st1" width="2.37" height="1.38"/>
			</g>
			<g>
				
					<rect x="92.53" y="93.33" transform="matrix(0.8636 -0.5042 0.5042 0.8636 -34.6193 60.0821)" class="st1" width="2.37" height="1.38"/>
				
					<rect x="88.86" y="95.47" transform="matrix(0.8635 -0.5043 0.5043 0.8635 -36.2017 58.5295)" class="st1" width="2.37" height="1.38"/>
				
					<rect x="85.21" y="97.6" transform="matrix(0.8635 -0.5043 0.5043 0.8635 -37.7775 56.9768)" class="st1" width="2.37" height="1.38"/>
			</g>
			<g>
				
					<rect x="103.55" y="86.89" transform="matrix(0.8635 -0.5043 0.5043 0.8635 -29.8722 64.7695)" class="st1" width="2.37" height="1.38"/>
				
					<rect x="99.88" y="89.03" transform="matrix(0.8635 -0.5043 0.5043 0.8635 -31.4527 63.2086)" class="st1" width="2.37" height="1.38"/>
				
					<rect x="96.23" y="91.17" transform="matrix(0.8635 -0.5043 0.5043 0.8635 -33.0292 61.659)" class="st1" width="2.37" height="1.38"/>
			</g>
			<g>
				
					<rect x="114.57" y="80.46" transform="matrix(0.8635 -0.5043 0.5043 0.8635 -25.1227 69.4455)" class="st1" width="2.37" height="1.38"/>
				
					<rect x="110.9" y="82.6" transform="matrix(0.8635 -0.5043 0.5043 0.8635 -26.7041 67.891)" class="st1" width="2.37" height="1.38"/>
				
					<rect x="107.25" y="84.73" transform="matrix(0.8635 -0.5043 0.5043 0.8635 -28.2795 66.3351)" class="st1" width="2.37" height="1.38"/>
			</g>
			<g>
				
					<rect x="125.59" y="74.02" transform="matrix(0.8635 -0.5043 0.5043 0.8635 -20.3737 74.1281)" class="st1" width="2.37" height="1.38"/>
				
					<rect x="121.92" y="76.16" transform="matrix(0.8636 -0.5043 0.5043 0.8636 -21.9546 72.564)" class="st1" width="2.37" height="1.38"/>
				
					<rect x="118.27" y="78.3" transform="matrix(0.8635 -0.5043 0.5043 0.8635 -23.5305 71.0142)" class="st1" width="2.37" height="1.38"/>
			</g>
			<g>
				
					<rect x="136.61" y="67.58" transform="matrix(0.8636 -0.5043 0.5043 0.8636 -15.6248 78.8025)" class="st1" width="2.37" height="1.38"/>
				
					<rect x="132.95" y="69.73" transform="matrix(0.8635 -0.5043 0.5043 0.8635 -17.2057 77.246)" class="st1" width="2.37" height="1.38"/>
				
					<rect x="129.29" y="71.86" transform="matrix(0.8635 -0.5043 0.5043 0.8635 -18.7815 75.6939)" class="st1" width="2.37" height="1.38"/>
			</g>
			<g>
				
					<rect x="130.44" y="48.95" transform="matrix(0.5007 -0.8656 0.8656 0.5007 22.1511 138.487)" class="st1" width="1.38" height="2.18"/>
				
					<rect x="133.83" y="50.91" transform="matrix(0.5007 -0.8656 0.8656 0.5007 22.1462 142.4008)" class="st1" width="1.38" height="2.18"/>
				
					<rect x="137.21" y="52.87" transform="matrix(0.5007 -0.8656 0.8656 0.5007 22.1413 146.3017)" class="st1" width="1.38" height="2.18"/>
			</g>
			<g>
				
					<rect x="120.25" y="43.06" transform="matrix(0.5007 -0.8656 0.8656 0.5007 22.1658 126.731)" class="st1" width="1.38" height="2.18"/>
				
					<rect x="123.64" y="45.02" transform="matrix(0.5007 -0.8656 0.8656 0.5007 22.1609 130.6447)" class="st1" width="1.38" height="2.18"/>
				
					<rect x="127.02" y="46.97" transform="matrix(0.5007 -0.8656 0.8656 0.5007 22.156 134.5456)" class="st1" width="1.38" height="2.18"/>
			</g>
			<g>
				
					<rect x="110.07" y="37.17" transform="matrix(0.5007 -0.8656 0.8656 0.5007 22.1805 114.9749)" class="st1" width="1.38" height="2.18"/>
				
					<rect x="113.46" y="39.13" transform="matrix(0.5007 -0.8656 0.8656 0.5007 22.1756 118.8886)" class="st1" width="1.38" height="2.18"/>
				
					<rect x="116.84" y="41.08" transform="matrix(0.5007 -0.8656 0.8656 0.5007 22.1707 122.7896)" class="st1" width="1.38" height="2.18"/>
			</g>
			<g>
				
					<rect x="99.89" y="31.28" transform="matrix(0.5007 -0.8656 0.8656 0.5007 22.1937 103.2172)" class="st1" width="1.38" height="2.18"/>
				
					<rect x="103.28" y="33.24" transform="matrix(0.5007 -0.8656 0.8656 0.5007 22.1888 107.1309)" class="st1" width="1.38" height="2.18"/>
				
					<rect x="106.65" y="35.19" transform="matrix(0.5007 -0.8656 0.8656 0.5007 22.1839 111.0318)" class="st1" width="1.38" height="2.18"/>
			</g>
			<g>
				
					<rect x="89.7" y="25.39" transform="matrix(0.5007 -0.8656 0.8656 0.5007 22.2085 91.4614)" class="st1" width="1.38" height="2.18"/>
				
					<rect x="93.09" y="27.35" transform="matrix(0.5007 -0.8656 0.8656 0.5007 22.2036 95.3751)" class="st1" width="1.38" height="2.18"/>
				
					<rect x="96.47" y="29.3" transform="matrix(0.5007 -0.8656 0.8656 0.5007 22.2015 99.2789)" class="st1" width="1.38" height="2.18"/>
			</g>
			<g>
				
					<rect x="71.22" y="30.21" transform="matrix(0.8623 -0.5064 0.5064 0.8623 -5.6782 40.9193)" class="st1" width="2.37" height="1.38"/>
				
					<rect x="74.87" y="28.06" transform="matrix(0.8623 -0.5065 0.5065 0.8623 -4.0853 42.4797)" class="st1" width="2.37" height="1.38"/>
				
					<rect x="78.52" y="25.92" transform="matrix(0.8623 -0.5064 0.5064 0.8623 -2.4987 44.0286)" class="st1" width="2.37" height="1.38"/>
			</g>
			<g>
				
					<rect x="60.22" y="36.67" transform="matrix(0.8623 -0.5064 0.5064 0.8623 -10.4613 36.2417)" class="st1" width="2.37" height="1.38"/>
				
					<rect x="63.88" y="34.52" transform="matrix(0.8623 -0.5064 0.5064 0.8623 -8.8689 37.7989)" class="st1" width="2.37" height="1.38"/>
				
					<rect x="67.53" y="32.38" transform="matrix(0.8623 -0.5064 0.5064 0.8623 -7.2818 39.351)" class="st1" width="2.37" height="1.38"/>
			</g>
			<g>
				
					<rect x="49.23" y="43.12" transform="matrix(0.8623 -0.5065 0.5065 0.8623 -15.2449 31.5668)" class="st1" width="2.37" height="1.38"/>
				
					<rect x="52.89" y="40.97" transform="matrix(0.8623 -0.5064 0.5064 0.8623 -13.6521 33.1214)" class="st1" width="2.37" height="1.38"/>
				
					<rect x="56.54" y="38.83" transform="matrix(0.8623 -0.5065 0.5065 0.8623 -12.0651 34.6763)" class="st1" width="2.37" height="1.38"/>
			</g>
			<g>
				
					<rect x="38.24" y="49.58" transform="matrix(0.8623 -0.5064 0.5064 0.8623 -20.0276 26.8866)" class="st1" width="2.37" height="1.38"/>
				
					<rect x="41.9" y="47.43" transform="matrix(0.8623 -0.5065 0.5065 0.8623 -18.436 28.4463)" class="st1" width="2.37" height="1.38"/>
				
					<rect x="45.55" y="45.29" transform="matrix(0.8623 -0.5064 0.5064 0.8623 -16.8481 29.9959)" class="st1" width="2.37" height="1.38"/>
			</g>
			<g>
				
					<rect x="27.25" y="56.04" transform="matrix(0.8623 -0.5064 0.5064 0.8623 -24.8107 22.209)" class="st1" width="2.37" height="1.38"/>
				
					<rect x="30.91" y="53.89" transform="matrix(0.8623 -0.5064 0.5064 0.8623 -23.2183 23.7663)" class="st1" width="2.37" height="1.38"/>
				
					<rect x="34.55" y="51.74" transform="matrix(0.8623 -0.5064 0.5064 0.8623 -21.6312 25.3184)" class="st1" width="2.37" height="1.38"/>
			</g>
			<g>
				
					<rect x="16.25" y="62.49" transform="matrix(0.8623 -0.5065 0.5065 0.8623 -29.5957 17.5334)" class="st1" width="2.37" height="1.38"/>
				
					<rect x="19.91" y="60.34" transform="matrix(0.8623 -0.5064 0.5064 0.8623 -28.0015 19.0887)" class="st1" width="2.37" height="1.38"/>
				
					<rect x="23.56" y="58.2" transform="matrix(0.8623 -0.5064 0.5064 0.8623 -26.4143 20.6408)" class="st1" width="2.37" height="1.38"/>
			</g>
			<g>
				
					<rect x="5.26" y="68.95" transform="matrix(0.8623 -0.5065 0.5065 0.8623 -34.3799 12.856)" class="st1" width="2.37" height="1.38"/>
				
					<rect x="8.92" y="66.8" transform="matrix(0.8623 -0.5064 0.5064 0.8623 -32.7846 14.4111)" class="st1" width="2.37" height="1.38"/>
				
					<rect x="12.57" y="64.66" transform="matrix(0.8623 -0.5065 0.5065 0.8623 -31.1995 15.965)" class="st1" width="2.37" height="1.38"/>
			</g>
			<g>
				
					<rect x="-5.73" y="75.4" transform="matrix(0.8623 -0.5064 0.5064 0.8623 -39.1609 8.1768)" class="st1" width="2.37" height="1.38"/>
				
					<rect x="-2.07" y="73.25" transform="matrix(0.8623 -0.5064 0.5064 0.8623 -37.5696 9.7346)" class="st1" width="2.37" height="1.38"/>
				
					<rect x="1.58" y="71.11" transform="matrix(0.8623 -0.5064 0.5064 0.8623 -35.9813 11.2861)" class="st1" width="2.37" height="1.38"/>
			</g>
			<g>
				
					<rect x="1.42" y="93.2" transform="matrix(0.5003 -0.8658 0.8658 0.5003 -80.5849 48.9443)" class="st1" width="1.38" height="2.17"/>
				
					<rect x="-1.95" y="91.25" transform="matrix(0.5003 -0.8658 0.8658 0.5003 -80.5828 45.0475)" class="st1" width="1.38" height="2.17"/>
				
					<rect x="-5.31" y="89.31" transform="matrix(0.5003 -0.8658 0.8658 0.5003 -80.5806 41.1635)" class="st1" width="1.38" height="2.17"/>
			</g>
			<g>
				
					<rect x="11.56" y="99.06" transform="matrix(0.5003 -0.8658 0.8658 0.5003 -80.5913 60.6494)" class="st1" width="1.38" height="2.17"/>
				
					<rect x="8.19" y="97.11" transform="matrix(0.5003 -0.8658 0.8658 0.5003 -80.5892 56.7526)" class="st1" width="1.38" height="2.17"/>
				
					<rect x="4.82" y="95.17" transform="matrix(0.5003 -0.8658 0.8658 0.5003 -80.587 52.8686)" class="st1" width="1.38" height="2.17"/>
			</g>
			<g>
				
					<rect x="21.7" y="104.92" transform="matrix(0.5003 -0.8658 0.8658 0.5003 -80.5985 72.357)" class="st1" width="1.38" height="2.17"/>
				
					<rect x="18.33" y="102.97" transform="matrix(0.5003 -0.8658 0.8658 0.5003 -80.5956 68.4578)" class="st1" width="1.38" height="2.17"/>
				
					<rect x="14.96" y="101.03" transform="matrix(0.5003 -0.8659 0.8659 0.5003 -80.595 64.5776)" class="st1" width="1.38" height="2.17"/>
			</g>
			<g>
				
					<rect x="31.84" y="110.78" transform="matrix(0.5003 -0.8659 0.8659 0.5003 -80.6053 84.0643)" class="st1" width="1.38" height="2.17"/>
				
					<rect x="28.46" y="108.83" transform="matrix(0.5003 -0.8659 0.8659 0.5003 -80.6039 80.1699)" class="st1" width="1.38" height="2.17"/>
				
					<rect x="25.1" y="106.88" transform="matrix(0.5003 -0.8659 0.8659 0.5003 -80.6012 76.2832)" class="st1" width="1.38" height="2.17"/>
			</g>
			<g>
				
					<rect x="41.98" y="116.64" transform="matrix(0.5003 -0.8659 0.8659 0.5003 -80.6115 95.7698)" class="st1" width="1.38" height="2.17"/>
				
					<rect x="38.6" y="114.69" transform="matrix(0.5003 -0.8659 0.8659 0.5003 -80.6094 91.8729)" class="st1" width="1.38" height="2.17"/>
				
					<rect x="35.24" y="112.74" transform="matrix(0.5003 -0.8658 0.8658 0.5003 -80.6069 87.9868)" class="st1" width="1.38" height="2.17"/>
			</g>
			<g>
				
					<rect x="140.62" y="64.43" transform="matrix(0.8636 -0.5043 0.5043 0.8636 -13.3803 80.7879)" class="st1" width="3.95" height="1.38"/>
				<polygon class="st1" points="150.78,61.14 147.37,63.13 146.67,61.93 148.04,61.14 148.01,61.09 147.99,61.06 147.99,61.06 
					147.99,61.06 147.99,61.06 147.98,61.05 147.96,61.04 147.79,60.94 147.45,60.74 146.77,60.35 147.46,59.16 149.17,60.15 
					150.02,60.64 150.45,60.89 150.66,61.01 150.71,61.04 150.73,61.05 150.73,61.05 150.73,61.05 150.73,61.06 150.74,61.07 				
					"/>
				
					<rect x="141.98" y="55.21" transform="matrix(0.5007 -0.8656 0.8656 0.5007 21.7327 152.0479)" class="st1" width="1.38" height="3.95"/>
			</g>
			<g>
				
					<rect x="86.79" y="24.48" transform="matrix(0.5007 -0.8656 0.8656 0.5007 21.9064 88.284)" class="st1" width="1.38" height="1.34"/>
				<polygon class="st1" points="85.17,23.01 86.32,23.68 85.63,24.88 85.17,24.61 85.14,24.66 85.13,24.69 85.12,24.69 
					85.12,24.69 85.12,24.69 85.12,24.69 85.12,24.69 85.12,24.69 85.11,24.7 85.05,24.73 84.94,24.8 84.71,24.93 84.01,23.75 
					84.59,23.41 84.88,23.24 85.02,23.15 85.09,23.11 85.11,23.1 85.12,23.1 85.12,23.1 85.12,23.1 85.12,23.09 85.13,23.08 				"/>
				
					<rect x="82.19" y="24.53" transform="matrix(0.8623 -0.5065 0.5065 0.8623 -1.36 45.4396)" class="st1" width="1.34" height="1.38"/>
			</g>
			<g>
				
					<rect x="-11.29" y="78.56" transform="matrix(0.8623 -0.5065 0.5065 0.8623 -41.4214 6.1953)" class="st1" width="3.94" height="1.38"/>
				<polygon class="st1" points="-17.48,83.24 -14.09,81.25 -13.39,82.44 -14.74,83.24 -14.72,83.29 -14.7,83.31 -14.7,83.32 
					-14.7,83.32 -14.7,83.32 -14.69,83.33 -14.66,83.34 -14.49,83.44 -14.16,83.63 -13.48,84.02 -14.17,85.22 -15.87,84.23 
					-16.72,83.74 -17.15,83.49 -17.36,83.37 -17.42,83.34 -17.43,83.33 -17.43,83.33 -17.43,83.33 -17.44,83.32 -17.45,83.31 				
					"/>
				
					<rect x="-10.08" y="85.21" transform="matrix(0.5003 -0.8659 0.8659 0.5003 -80.178 35.4356)" class="st1" width="1.38" height="3.94"/>
			</g>
			<g>
				
					<rect x="44.87" y="118.37" transform="matrix(0.5003 -0.8659 0.8659 0.5003 -80.3053 98.9375)" class="st1" width="1.38" height="1.33"/>
				<polygon class="st1" points="47.87,121.17 46.72,120.51 47.41,119.31 47.87,119.58 47.9,119.53 47.91,119.5 47.91,119.5 
					47.92,119.5 47.92,119.5 47.92,119.5 47.92,119.5 47.92,119.5 47.92,119.5 47.93,119.49 47.98,119.46 48.1,119.39 48.33,119.26 
					49.02,120.45 48.45,120.78 48.16,120.95 48.01,121.03 47.94,121.08 47.92,121.09 47.92,121.09 47.92,121.09 47.92,121.09 
					47.92,121.1 47.91,121.11 				"/>
				
					<rect x="49.5" y="118.29" transform="matrix(0.8635 -0.5043 0.5043 0.8635 -53.1511 41.5347)" class="st1" width="1.33" height="1.38"/>
			</g>
		</g>
		<g class="st0">
			<g>
				<g>
					<polygon class="st2" points="-0.97,80.9 48.71,109.61 135.34,59.68 85.46,30.82 					"/>
					<polygon class="st3" points="48.71,109.61 48.71,112.59 135.34,62.65 135.34,59.68 					"/>
					<polygon class="st4" points="-0.97,80.9 -0.97,83.88 48.71,112.59 48.71,109.61 					"/>
				</g>
				<g>
					<g>
						<path class="st5" d="M48.71,108.07l-0.21-0.12L1.73,80.94l83.5-48.46l0.21,0.12l46.97,27.15l-0.62,0.36L48.71,108.07z
							 M2.32,80.94l46.4,26.79l83.11-47.98L85.23,32.81L2.32,80.94z"/>
					</g>
				</g>
				<path class="st2" d="M99.51,55.89c-1.99,0.84-4.43,1.27-6.43,2.01c-2.08,1.18-4.68,1.39-6.69,0.57
					c-2.18-0.89-2.97-2.53-2.36-3.94c1.46-1.63,3.38-3.54,4.77-4.81l-9.38-5.44L20.97,78.12l9.17,5.32
					c3.05-0.97,6.94-2.27,9.23-3.28c1.75-0.78,4.97-0.51,6.59,0.77c1.43,1.13,1.79,2.67,0.63,3.86c-0.91,0.94-2.36,2.07-3.24,3.05
					c-0.59,0.66-1.35,1.39-1.95,2.03l10.34,6.07l58.56-33.82L99.51,55.89z"/>
				<g>
					<g>
						<path class="st5" d="M51.76,96.08l-0.21-0.12l-30.9-17.84l58.75-34.05l31.23,18.05L51.76,96.08z M21.24,78.12l30.52,17.62
							l58.29-33.61L79.41,44.42L21.24,78.12z"/>
					</g>
				</g>
				<path class="st2" d="M65.32,75.09c-4.73,0-8.57-2.35-8.57-5.25c0-2.89,3.84-5.25,8.57-5.25c4.73,0,8.57,2.35,8.57,5.25
					C73.89,72.74,70.04,75.09,65.32,75.09z"/>
				<g>
					<g>
						<path class="st5" d="M65.32,75.24c-4.81,0-8.72-2.42-8.72-5.39c0-2.97,3.91-5.39,8.72-5.39c4.81,0,8.72,2.42,8.72,5.39
							C74.03,72.82,70.12,75.24,65.32,75.24z M65.32,64.75c-4.64,0-8.42,2.29-8.42,5.1c0,2.81,3.78,5.1,8.42,5.1
							c4.64,0,8.42-2.29,8.42-5.1C73.74,67.03,69.96,64.75,65.32,64.75z"/>
					</g>
				</g>
				<g>
					<polygon class="st5" points="93.07,58.06 84.91,53.44 98.09,40.03 98.3,40.24 85.39,53.37 93.1,57.74 116.3,50.49 
						116.39,50.77 					"/>
				</g>
				<g>
					
						<rect x="57.07" y="57.24" transform="matrix(0.5001 -0.866 0.866 0.5001 -36.3507 87.05)" class="st5" width="0.29" height="35.54"/>
				</g>
				<g>
					
						<rect x="74.73" y="46.94" transform="matrix(0.5 -0.866 0.866 0.5 -18.6077 97.2019)" class="st5" width="0.29" height="35.55"/>
				</g>
				<g>
					
						<rect x="66.52" y="43.51" transform="matrix(0.5011 -0.8654 0.8654 0.5011 -27.7571 92.8736)" class="st5" width="0.29" height="54"/>
				</g>
			</g>
			<g>
				<g>
					<path class="st5" d="M89.17,59.09c-3.05,0-5.52-1.56-5.52-3.48c0-1.92,2.48-3.48,5.52-3.48s5.52,1.56,5.52,3.48
						C94.7,57.53,92.22,59.09,89.17,59.09z M89.17,52.43c-2.88,0-5.23,1.43-5.23,3.18c0,1.76,2.35,3.18,5.23,3.18
						c2.88,0,5.23-1.43,5.23-3.18C94.4,53.86,92.06,52.43,89.17,52.43z"/>
				</g>
			</g>
			<g>
				<g>
					<path class="st5" d="M41.99,86.55c-3.05,0-5.52-1.56-5.52-3.48c0-1.92,2.48-3.48,5.52-3.48s5.52,1.56,5.52,3.48
						C47.52,84.99,45.04,86.55,41.99,86.55z M41.99,79.88c-2.88,0-5.23,1.43-5.23,3.18s2.35,3.18,5.23,3.18
						c2.88,0,5.23-1.43,5.23-3.18S44.88,79.88,41.99,79.88z"/>
				</g>
			</g>
			<g>
				<g>
					<path class="st5" d="M25.13,74.85c-9,0-17.14,2.33-22.95,6.07c0.04,0.09,0.08,0.18,0.11,0.27c5.76-3.72,13.87-6.04,22.84-6.04
						c17.44,0,31.63,8.77,31.63,19.54c0,5.04-3.11,9.64-8.19,13.11c0.04,0.03,0.07,0.06,0.11,0.09c0.04,0.03,0.09,0.06,0.14,0.09
						c5.12-3.52,8.25-8.18,8.25-13.29C57.05,83.75,42.73,74.85,25.13,74.85z"/>
				</g>
			</g>
			<g>
				<g>
					<path class="st5" d="M131.81,59.5c-5.78,3.89-14.08,6.33-23.28,6.33c-17.44,0-31.63-8.77-31.63-19.54
						c0-5.19,3.3-9.92,8.66-13.42c-0.1-0.05-0.2-0.1-0.3-0.14c-5.36,3.55-8.65,8.32-8.65,13.56c0,10.94,14.32,19.84,31.92,19.84
						c9.3,0,17.69-2.49,23.53-6.45C131.97,59.62,131.89,59.56,131.81,59.5z"/>
				</g>
			</g>
			<g>
				<polygon class="st5" points="32.98,98.85 32.77,98.65 45.3,85.6 37.66,81.14 15.12,88.51 15.02,88.23 37.69,80.82 45.77,85.54 
									"/>
			</g>
		</g>
		<g class="st0">
			<polygon class="st1" points="83.08,34.31 82,33.83 81.2,35.71 82.28,36.2 			"/>
			<polygon class="st1" points="84.51,30.94 83.43,30.45 82.63,32.34 83.71,32.82 			"/>
			<polygon class="st1" points="85.93,27.58 84.85,27.09 84.05,28.97 85.14,29.46 			"/>
			<polygon class="st1" points="78.78,44.45 77.7,43.96 76.91,45.85 77.99,46.33 			"/>
			<polygon class="st1" points="80.21,41.08 79.13,40.59 78.34,42.47 79.42,42.96 			"/>
			<polygon class="st1" points="81.64,37.71 80.56,37.23 79.76,39.11 80.84,39.59 			"/>
			<polygon class="st1" points="74.49,54.59 73.41,54.1 72.61,55.98 73.69,56.47 			"/>
			<polygon class="st1" points="75.92,51.21 74.84,50.73 74.04,52.61 75.12,53.09 			"/>
			<polygon class="st1" points="77.35,47.85 76.26,47.36 75.47,49.24 76.55,49.73 			"/>
			<polygon class="st1" points="70.2,64.72 69.12,64.24 68.32,66.12 69.4,66.61 			"/>
			<polygon class="st1" points="71.63,61.35 70.55,60.86 69.75,62.74 70.83,63.23 			"/>
			<polygon class="st1" points="73.05,57.99 71.97,57.5 71.17,59.38 72.25,59.87 			"/>
			<polygon class="st1" points="65.9,74.86 64.82,74.37 64.03,76.26 65.11,76.74 			"/>
			<polygon class="st1" points="67.33,71.49 66.25,71 65.46,72.88 66.54,73.37 			"/>
			<polygon class="st1" points="68.76,68.12 67.68,67.64 66.88,69.52 67.96,70 			"/>
			<polygon class="st1" points="61.61,85 60.53,84.51 59.73,86.39 60.81,86.88 			"/>
			<polygon class="st1" points="63.04,81.62 61.96,81.14 61.16,83.02 62.24,83.5 			"/>
			<polygon class="st1" points="64.46,78.26 63.38,77.77 62.59,79.65 63.67,80.14 			"/>
			<polygon class="st1" points="57.32,95.13 56.24,94.65 55.44,96.53 56.52,97.01 			"/>
			<polygon class="st1" points="58.75,91.76 57.67,91.27 56.87,93.15 57.95,93.64 			"/>
			<polygon class="st1" points="60.17,88.4 59.09,87.91 58.29,89.79 59.37,90.28 			"/>
			<polygon class="st1" points="53.02,105.27 51.94,104.78 51.15,106.67 52.23,107.15 			"/>
			<polygon class="st1" points="54.45,101.9 53.37,101.41 52.57,103.29 53.66,103.78 			"/>
			<polygon class="st1" points="55.88,98.53 54.8,98.05 54,99.93 55.08,100.41 			"/>
			<polygon class="st1" points="48.73,115.41 47.65,114.92 46.85,116.8 47.93,117.29 			"/>
			<polygon class="st1" points="50.16,112.03 49.08,111.55 48.28,113.43 49.36,113.91 			"/>
			<polygon class="st1" points="51.58,108.67 50.5,108.18 49.71,110.06 50.79,110.55 			"/>
		</g>
		<g class="st0">
			<path class="st6" d="M10.48,80.96c-0.65,0-1.17-0.32-1.17-0.72c0-0.4,0.53-0.72,1.17-0.72c0.65,0,1.17,0.32,1.17,0.72
				C11.65,80.64,11.12,80.96,10.48,80.96z"/>
			<path class="st6" d="M9.07,82.89c-0.65,0-1.17-0.32-1.17-0.72c0-0.4,0.53-0.72,1.17-0.72c0.65,0,1.17,0.32,1.17,0.72
				C10.24,82.57,9.72,82.89,9.07,82.89z"/>
			<path class="st6" d="M89.19,52.31c-2.1,0-3.81-1.05-3.81-2.34c0-1.29,1.71-2.33,3.81-2.33c2.1,0,3.81,1.05,3.81,2.33
				C93.01,51.26,91.3,52.31,89.19,52.31z"/>
			<path class="st6" d="M6.63,81.38c-0.65,0-1.17-0.32-1.17-0.72s0.53-0.72,1.17-0.72c0.65,0,1.17,0.32,1.17,0.72
				S7.28,81.38,6.63,81.38z"/>
		</g>
		<g class="st0">
			<path class="st7" d="M106.5,23.1c0,0-4.58-1.96-5.37-2.24v1.22c1.22,0.48,2.8,1.2,4.28,1.84v22.94h0.01
				c-0.01,0.02-0.01,0.04-0.01,0.06c0,0.18,0.24,0.33,0.55,0.33s0.55-0.15,0.55-0.33c0-0.02,0-0.04-0.01-0.06h0.01V23.1z"/>
			<g>
				<polygon class="st8" points="97.3,24.26 105.77,29.14 105.77,20.49 97.3,16.21 				"/>
				<polygon class="st9" points="96.78,24.5 105.25,29.39 105.25,20.74 96.78,15.85 				"/>
				<polygon class="st10" points="105.25,29.39 105.77,29.14 105.77,20.43 105.25,20.74 				"/>
				<polygon class="st11" points="96.78,15.85 97.3,15.55 105.77,20.43 105.25,20.74 				"/>
				<g>
					<path class="st12" d="M103.22,26.15l-4.41-2.54v-4.52l4.41,2.54V26.15z M98.98,23.52l4.07,2.35v-4.13l-4.07-2.35V23.52z"/>
				</g>
				<g>
					<path class="st12" d="M104.88,28.54l-7.66-4.41v-7.42l7.66,4.41V28.54z M97.38,24.03l7.33,4.22v-7.03L97.38,17V24.03z"/>
				</g>
			</g>
			<g>
				<g>
					<g>
						<rect x="98.95" y="24.11" class="st13" width="0.28" height="2.99"/>
					</g>
					<g>
						
							<rect x="97.62" y="24.38" transform="matrix(0.9895 -0.1446 0.1446 0.9895 -2.7183 14.4125)" class="st13" width="0.28" height="3.04"/>
					</g>
					<g>
						
							<rect x="98.9" y="25.86" transform="matrix(0.1446 -0.9895 0.9895 0.1446 60.1662 121.5974)" class="st13" width="3.04" height="0.28"/>
					</g>
				</g>
				<g>
					<g>
						<g>
							<path class="st13" d="M99.09,29.89c-1.21,0-2.15-0.61-2.15-1.4c0-0.78,0.94-1.4,2.15-1.4c1.21,0,2.15,0.61,2.15,1.4
								C101.24,29.28,100.29,29.89,99.09,29.89z M99.09,27.38c-1.05,0-1.87,0.49-1.87,1.11c0,0.62,0.82,1.11,1.87,1.11
								c1.05,0,1.87-0.49,1.87-1.11C100.96,27.87,100.14,27.38,99.09,27.38z"/>
						</g>
					</g>
					<g>
						<g>
							<path class="st13" d="M99.08,28.95c-1.32,0-2.35-0.67-2.35-1.52c0-0.85,1.03-1.52,2.35-1.52s2.35,0.67,2.35,1.52
								C101.43,28.28,100.4,28.95,99.08,28.95z M99.08,26.21c-1.14,0-2.04,0.53-2.04,1.22c0,0.68,0.9,1.22,2.04,1.22
								c1.14,0,2.04-0.53,2.04-1.22C101.12,26.74,100.23,26.21,99.08,26.21z"/>
						</g>
					</g>
					<g>
						<g>
							<path class="st13" d="M99.08,28.04c-1.39,0-2.48-0.71-2.48-1.61c0-0.9,1.09-1.61,2.48-1.61c1.39,0,2.48,0.71,2.48,1.61
								C101.57,27.33,100.48,28.04,99.08,28.04z M99.08,25.14c-1.21,0-2.16,0.57-2.16,1.29c0,0.72,0.95,1.29,2.16,1.29
								c1.21,0,2.16-0.57,2.16-1.29C101.24,25.7,100.29,25.14,99.08,25.14z"/>
						</g>
					</g>
					<g>
						
							<rect x="96.69" y="25.78" transform="matrix(0.9832 -0.1823 0.1823 0.9832 -3.3274 18.1092)" class="st13" width="0.28" height="2.74"/>
					</g>
					<g>
						<path class="st13" d="M101.24,28.52l-0.28-0.05c0.2-1.08,0.51-2.73,0.52-2.83l0.28,0.01
							C101.76,25.72,101.47,27.25,101.24,28.52z"/>
					</g>
					<g>
						<polygon class="st13" points="97.86,29.53 97.68,26.98 97.96,26.96 98.14,29.51 						"/>
					</g>
					<g>
						
							<rect x="99.04" y="28.03" transform="matrix(0.0724 -0.9974 0.9974 0.0724 64.9561 126.1887)" class="st13" width="2.56" height="0.28"/>
					</g>
					<g>
						<rect x="98.95" y="27.24" class="st13" width="0.28" height="2.51"/>
					</g>
				</g>
				<g>
					<path class="st14" d="M99.09,27.33c-1.51,0-2.7-0.74-2.7-1.68c0-0.94,1.18-1.68,2.7-1.68c1.51,0,2.7,0.74,2.7,1.68
						C101.78,26.59,100.6,27.33,99.09,27.33z M99.09,24.29c-1.28,0-2.37,0.62-2.37,1.35c0,0.73,1.08,1.35,2.37,1.35
						c1.28,0,2.37-0.62,2.37-1.35C101.46,24.91,100.37,24.29,99.09,24.29z"/>
				</g>
			</g>
		</g>
		<g class="st0">
			<g>
				<g>
					<g>
						<rect x="33.09" y="61.3" class="st13" width="0.28" height="2.99"/>
					</g>
					<g>
						
							<rect x="31.76" y="61.58" transform="matrix(0.9895 -0.1446 0.1446 0.9895 -8.7905 5.2777)" class="st13" width="0.28" height="3.04"/>
					</g>
					<g>
						
							<rect x="33.03" y="63.05" transform="matrix(0.1446 -0.9895 0.9895 0.1446 -32.9735 88.2423)" class="st13" width="3.04" height="0.28"/>
					</g>
				</g>
				<g>
					<g>
						<g>
							<path class="st12" d="M33.23,67.09c-1.21,0-2.15-0.61-2.15-1.4c0-0.78,0.94-1.4,2.15-1.4s2.15,0.61,2.15,1.4
								C35.38,66.48,34.43,67.09,33.23,67.09z M33.23,64.58c-1.05,0-1.87,0.49-1.87,1.11c0,0.62,0.82,1.11,1.87,1.11
								c1.05,0,1.87-0.49,1.87-1.11C35.1,65.07,34.27,64.58,33.23,64.58z"/>
						</g>
					</g>
					<g>
						<g>
							<path class="st12" d="M33.22,66.14c-1.32,0-2.35-0.67-2.35-1.52c0-0.85,1.03-1.52,2.35-1.52c1.32,0,2.35,0.67,2.35,1.52
								C35.57,65.47,34.54,66.14,33.22,66.14z M33.22,63.4c-1.14,0-2.04,0.53-2.04,1.22c0,0.68,0.9,1.22,2.04,1.22
								c1.14,0,2.04-0.53,2.04-1.22C35.26,63.94,34.36,63.4,33.22,63.4z"/>
						</g>
					</g>
					<g>
						<g>
							<path class="st12" d="M33.22,65.23c-1.39,0-2.48-0.71-2.48-1.61c0-0.9,1.09-1.61,2.48-1.61c1.39,0,2.48,0.71,2.48,1.61
								C35.71,64.52,34.61,65.23,33.22,65.23z M33.22,62.33c-1.21,0-2.16,0.57-2.16,1.29c0,0.72,0.95,1.29,2.16,1.29
								c1.21,0,2.16-0.57,2.16-1.29C35.38,62.9,34.43,62.33,33.22,62.33z"/>
						</g>
					</g>
					<g>
						
							<rect x="30.82" y="62.98" transform="matrix(0.9832 -0.1823 0.1823 0.9832 -11.2129 6.7244)" class="st12" width="0.28" height="2.74"/>
					</g>
					<g>
						<path class="st12" d="M35.37,65.72l-0.28-0.05c0.2-1.08,0.51-2.73,0.52-2.83l0.28,0.01C35.9,62.92,35.61,64.45,35.37,65.72z"
							/>
					</g>
					<g>
						<polygon class="st12" points="32,66.73 31.82,64.17 32.1,64.15 32.28,66.71 						"/>
					</g>
					<g>
						
							<rect x="33.18" y="65.23" transform="matrix(0.0724 -0.9974 0.9974 0.0724 -33.2346 95.0001)" class="st12" width="2.56" height="0.28"/>
					</g>
					<g>
						<rect x="33.09" y="64.44" class="st12" width="0.28" height="2.51"/>
					</g>
				</g>
				<g>
					<path class="st14" d="M33.23,64.53c-1.51,0-2.7-0.74-2.7-1.68c0-0.94,1.18-1.68,2.7-1.68c1.51,0,2.7,0.74,2.7,1.68
						C35.92,63.79,34.74,64.53,33.23,64.53z M33.23,61.49c-1.28,0-2.37,0.62-2.37,1.35c0,0.73,1.08,1.35,2.37,1.35
						c1.28,0,2.37-0.62,2.37-1.35C35.59,62.11,34.51,61.49,33.23,61.49z"/>
				</g>
			</g>
			<g>
				<polygon class="st8" points="25.4,65.09 33.88,69.97 33.88,61.32 25.4,57.03 				"/>
				<polygon class="st9" points="24.88,65.33 33.35,70.21 33.35,61.56 24.88,56.68 				"/>
				<polygon class="st10" points="33.35,70.21 33.88,69.97 33.88,61.26 33.35,61.56 				"/>
				<polygon class="st11" points="24.88,56.68 25.4,56.38 33.88,61.26 33.35,61.56 				"/>
			</g>
			<path class="st7" d="M29.68,63.56c0-0.32-0.19-0.69-0.43-0.82c-0.19-0.11-0.34-0.04-0.4,0.15l-3.08,5.18v24.46
				c0,0.18,0.24,0.33,0.55,0.33c0.3,0,0.55-0.15,0.55-0.33h0.02V68.57l2.71-4.72l0,0C29.65,63.79,29.68,63.69,29.68,63.56z"/>
		</g>
		<g class="st0">
			<path class="st15" d="M92.24,23.34c0,0-0.26,0.68-0.26,0.91c0,0.23,0.01,0.39-0.1,0.52c-0.11,0.13-0.88,0.86-1.08,1.18
				c-0.2,0.31-0.59,1.06-0.67,1.21c-0.08,0.15-0.49,1.34-0.7,1.67c-0.21,0.33-0.43,0.66-0.59,1.02c-0.17,0.36-0.36,0.79-0.24,1.27
				c0.11,0.48,0.45,1.17,0.45,1.17s1.18-0.72,1.24-0.88c0.06-0.16,0.07-2.02,0.24-2.27c0.17-0.26,0.72-2.02,1.25-2.59
				c0.57-0.61,0.53-1.41,0.68-1.66c0.15-0.25,0.58-0.42,0.58-0.42L92.24,23.34z"/>
			<path class="st16" d="M91.09,27.17c-0.35-0.24-1.02-0.17-1.3,0.45c-0.16,0.34,0.31,0.71,0.34,1.35c0.03,0.52-0.38,1.35-0.38,1.35
				s-0.16,0.35,0.28,0.53c0.44,0.18,1.06-0.35,1.06-0.35l-0.01-0.79c0,0,0.48-0.07,0.56-0.15c0.2-0.18,0.31-0.73,0.21-1.44
				C91.71,27.08,91.21,27.26,91.09,27.17z"/>
			<path class="st17" d="M91.5,26.91c0.05-0.14-0.21-0.33-0.42-0.2c-0.13-0.14-0.37-0.21-0.51-0.07c-0.22-0.14-0.47-0.08-0.57,0.1
				c-0.2-0.08-0.36,0-0.38,0.25c-0.21-0.04-0.35,0.1-0.29,0.34c-0.16,0.04-0.28,0.23-0.14,0.41c-0.11,0.03-0.21,0.25-0.09,0.36
				c-0.09,0.1-0.09,0.27,0.07,0.34c0,0-0.1,0.2,0.09,0.28c0.1,0.25,0.28,0.59,0.47,0.73c0.24,0.19,0.27,0.48,0.27,0.48
				s0.8-0.21,0.84-0.56c0.01-0.11,0-0.44,0-0.44s-0.24-0.48-0.05-0.65c0.2-0.18,0.4,0.11,0.45,0.22c0.02,0.05,0.29-0.03,0.29-0.08
				c0.05-0.18,0.17-0.59,0.2-0.75C91.75,27.47,91.88,26.96,91.5,26.91z"/>
			<path class="st17" d="M87.42,39.49c0.04,0.05,0.58,1.03,0.62,1.24c0.05,0.21,0.38,0.26,0.54,0.09c0.16-0.17,0.23-0.72-0.19-1.22
				c-0.42-0.5-1.37-0.56-1.4-0.52C86.9,39.18,87.3,39.36,87.42,39.49z"/>
			<g>
				<path class="st16" d="M87.8,39.08c-0.15,0.09-0.33,0.32-0.81,0.32c-0.48,0-0.88,0.13-1.58,0.63c-0.7,0.5-1.47,0.79-1.47,0.79
					l-0.13,0.61l0.5,0.17c0,0,0.7-0.16,1.56-0.28c0.86-0.12,1.69-0.49,2.2-0.49c0.51,0,1-0.67,1.04-0.79
					C89.16,39.91,87.8,39.08,87.8,39.08z"/>
				<path class="st15" d="M87.54,40.6c0,0,0.26-0.06,0.44,0c0.18,0.06,0.18,0.06,0.18,0.06S87.91,40.86,87.54,40.6z"/>
				<path class="st18" d="M83.94,43.64c0,0,0.28-0.07,0.16-0.61c-0.12-0.54-0.02-0.97,0.14-1.18c0.16-0.21,0.56-0.36,0.56-0.36
					s-0.05-0.13-0.43-0.06c-0.22,0.04-0.19-0.22-0.17-0.27c0.04-0.09,0.1-0.24,0.01-0.38c-0.17-0.29-0.95,0.04-0.95,0.04
					s-0.32,1.19-0.17,1.72C83.25,43.08,83.61,43.64,83.94,43.64z"/>
				<path class="st17" d="M83.27,40.82c0.26-0.11,0.51,0.05,0.37,0.29c-0.15,0.24-0.2,0.46-0.12,0.87c0.07,0.41,0.14,0.69,0.21,1.11
					s0.22,0.55,0.22,0.55s-0.64,0.28-0.88-0.28c-0.24-0.56-0.11-1.35-0.07-1.71C83.04,41.19,82.93,40.97,83.27,40.82z"/>
				<path class="st12" d="M84.37,41.73c0,0-0.08-0.08-0.27,0.06c-0.18,0.14-0.17,0.26-0.17,0.5c0,0.24,0.12,0.41,0.12,0.41
					S84.09,42.05,84.37,41.73z"/>
			</g>
			<g>
				<path class="st16" d="M92.08,40.73c-0.06,0.16-0.44,0.57-0.82,0.86c-0.38,0.29-0.62,0.64-0.87,1.46
					c-0.25,0.82-0.68,1.53-0.68,1.53l0.27,0.56l0.49-0.17c0,0,0.45-0.55,1.06-1.17c0.61-0.62,1.4-2.02,1.81-2.34
					c0.17-0.13,0.31-0.33,0.3-0.56c-0.01-0.3,0.05-0.71,0.04-0.79c-0.09-0.65-0.37-1.42-0.49-1.51c-0.38-0.28-0.9,0.67-1.25,0.81
					C91.7,39.5,92.08,40.73,92.08,40.73z"/>
				<path class="st15" d="M92.88,41.43c0,0,0.17-0.2,0.35-0.27c0.18-0.07,0.18-0.07,0.18-0.07S93.33,41.42,92.88,41.43z"/>
				<path class="st18" d="M91.41,46.81c0,0,0.18-0.23-0.24-0.58c-0.42-0.35-0.6-0.76-0.6-1.02s0.22-0.62,0.22-0.62
					s-0.12-0.07-0.38,0.21c-0.15,0.16-0.28-0.06-0.29-0.11c-0.02-0.09-0.07-0.25-0.22-0.31c-0.32-0.12-0.74,0.61-0.74,0.61
					s0.47,1.14,0.91,1.47C90.52,46.79,91.15,47.02,91.41,46.81z"/>
				<path class="st17" d="M89.17,44.99c0.14-0.24,0.44-0.27,0.47,0.01c0.03,0.28,0.13,0.49,0.43,0.76c0.31,0.28,0.53,0.46,0.84,0.75
					c0.3,0.29,0.51,0.3,0.51,0.3s-0.33,0.61-0.87,0.31c-0.54-0.3-0.91-1.01-1.1-1.31C89.2,45.42,88.98,45.31,89.17,44.99z"/>
				<path class="st12" d="M90.59,45.04c0,0-0.11-0.01-0.18,0.21c-0.06,0.22,0.02,0.31,0.17,0.5c0.15,0.19,0.35,0.25,0.35,0.25
					S90.57,45.46,90.59,45.04z"/>
			</g>
			<path class="st17" d="M88.86,35.38c0,0-0.37,0.61-0.62,1.34c-0.26,0.73-0.44,1.85-0.62,2.09c-0.08,0.1-0.26,0.1-0.38,0.14
				c-0.16,0.06-0.25,0.13-0.25,0.13s0.62,0,0.96,0.44c0.38,0.48,0.63,1.3,0.63,1.3s0.94-0.59,1.28-0.92
				c0.34-0.33,0.54-1.23,0.54-1.23s0.48,0.53,0.6,0.76c0.32,0.59,0.28,1.17,0.28,1.17s1.06,0.14,1.74-0.52
				c0.68-0.66,0.72-1.54,0.72-1.54s-1.02-2.89-1.39-3.35S88.86,35.38,88.86,35.38z"/>
			<path class="st12" d="M91.88,35.84c0,0,0.62,1.05,0.92,1.61c0.29,0.55,0.37,0.77,0.46,1.17c0.09,0.41,0.07,1.1,0.07,1.1
				l-0.25,0.31c0,0,0.06-1.09-0.05-1.51c-0.14-0.56-0.37-0.9-0.58-1.22c-0.37-0.58-0.77-1.32-0.77-1.32L91.88,35.84z"/>
			<path class="st18" d="M92.33,32.81c0.23-0.54-0.47-1.47-0.48-1.85c-0.01-0.35-0.75-0.59-0.75-0.59
				c-0.37,0.09-0.78,0.22-1.12,0.07c-0.27-0.12-0.18-0.3-0.07-0.53l-0.13-0.08c0,0-0.97,0.82-0.92,2.22c0.03,0.77-0.1,1.53-0.04,2.3
				c0.03,0.33-0.1,0.44-0.2,0.64c-0.12,0.26,0.07,0.42,0.11,0.64c0.13,0.53,1.68,1.25,2.37,1.06c0.21-0.06,1.4-0.74,1.62-1.17
				c-0.13-0.21,0.03-0.33-0.01-0.54c-0.02-0.14-0.34-0.07-0.28-0.42C92.55,33.89,92.16,33.2,92.33,32.81z"/>
			<path class="st19" d="M91.19,32.98c0,0-0.06,0.46,0.14,0.75c0.2,0.29,0.68,0.17,1.03-0.19c-0.09-0.18-0.03-0.73-0.03-0.73
				L91.19,32.98z"/>
			<path class="st19" d="M89.6,35.65c0,0,0.54,0.24,1.31,0.26c0.79,0.02,1.16-0.58,1.16-0.58S90.83,35.71,89.6,35.65z"/>
			<g>
				<g>
					<path class="st20" d="M94.71,22.91c0.01,0.08,0.02,0.16,0.02,0.24c0,0.78-0.63,1.41-1.41,1.41c-0.46,0-0.87-0.22-1.13-0.57
						c0.11,0.66,0.69,1.17,1.38,1.17c0.78,0,1.41-0.63,1.41-1.41C94.99,23.44,94.89,23.15,94.71,22.91z"/>
					<path class="st21" d="M93.33,24.56c0.78,0,1.41-0.63,1.41-1.41c0-0.08-0.01-0.16-0.02-0.24c-0.26-0.34-0.66-0.57-1.13-0.57
						c-0.78,0-1.41,0.63-1.41,1.41c0,0.08,0.01,0.16,0.02,0.24C92.46,24.33,92.87,24.56,93.33,24.56z"/>
				</g>
				<path class="st17" d="M92.79,22.59c0,0,0.75,0.65,1.07,1.38c0.32,0.73,0.42,0.99,0.42,0.99l0.05-0.03c0,0-0.16-0.59-0.55-1.28
					c-0.34-0.61-0.96-1.09-0.96-1.09L92.79,22.59z"/>
				<path class="st17" d="M92.4,23.01c0,0,0.44,0.03,0.54,0.61c0.08,0.46,0.01,0.88,0.21,1.18c0.2,0.3,0.44,0.36,0.44,0.36l0.05,0
					c0,0-0.42-0.21-0.53-0.55c-0.12-0.35,0-1.11-0.31-1.45c-0.18-0.2-0.38-0.19-0.38-0.19L92.4,23.01z"/>
				<path class="st17" d="M93.32,22.37c0,0,0.04,0.42,0.4,0.52c0.15,0.04,0.53,0,0.73,0.21c0.37,0.38,0.42,1.21,0.42,1.21l0.03-0.09
					c0,0,0-0.55-0.3-1c-0.26-0.39-0.47-0.35-0.82-0.38c-0.32-0.04-0.43-0.47-0.43-0.47L93.32,22.37z"/>
			</g>
			<path class="st16" d="M91.42,30.33c-0.23,0.21-0.59,0.97-0.48,1.67c0.11,0.69,0.06,0.57,0.25,0.99c0.19,0.42,0.51,0.46,0.69,0.38
				c0.18-0.09,0.42-0.46,0.45-0.55c0.03-0.09,0.09-0.75,0.11-0.78c0.15-0.2,0.65-0.76,0.78-1.14c0.13-0.38,0.27-0.94,0.57-1.42
				c0.29-0.48,0.45-0.99,0.44-1.11c-0.02-0.4,0.1-0.61,0.11-1.02c0.01-0.82-0.04-1.45,0-1.71c0.1-0.64-0.29-0.84-0.38-1.21
				c-0.09-0.37-0.13-0.85-0.57-0.83s-0.41,0.64-0.36,0.88c0.06,0.24,0.65,0.95,0.67,1.07s-0.39,0.76-0.51,1.61
				c-0.05,0.34-0.04,1.2-0.04,1.2s-0.79,0.61-1.12,1.32C91.83,30.08,91.46,30.29,91.42,30.33z"/>
			<path class="st15" d="M92.44,32.03c0,0-0.57,0.31-0.77,0.78c-0.08,0.18-0.16,0.42-0.14,0.54c0.35,0.24,0.72-0.3,0.8-0.54
				C92.38,32.66,92.44,32.03,92.44,32.03z"/>
			<path class="st12" d="M89.24,31.8c0,0,0.39-0.62,0.88-0.38c0.67,0.32-0.1,1.13-0.1,1.13s0.75,0.12,0.57,0.93
				c-0.09,0.4-0.28,0.62-0.7,0.61c-0.43,0-0.77-0.45-0.77-0.45l0.2-0.14c0,0,0.24,0.29,0.54,0.25c0.3-0.05,0.57-0.47,0.33-0.76
				c-0.18-0.21-0.52-0.38-0.52-0.38s0.43-0.48,0.35-0.75c-0.07-0.24-0.58,0.11-0.58,0.11L89.24,31.8z"/>
		</g>
	</g>
</g>
</svg>
