<svg xmlns="http://www.w3.org/2000/svg" width="128" height="80" viewBox="0 0 128 80"><defs><style>.a{fill:#fff;opacity:0;}.b{fill:#ecba82;}.c{fill:#ffe2b1;}.d{fill:#b41e49;}.e{fill:#81aa40;}.f{fill:#e37a70;}.g{fill:#438f42;}.h{fill:#232221;}.i{fill:#d48352;}</style></defs><g transform="translate(-16 -16)"><rect class="a" width="128" height="80" transform="translate(16 16)"/><g transform="translate(42.658 18.658)"><g transform="translate(6.355 6.358)"><path class="b" d="M23.26,17.9a30.975,30.975,0,0,0-10.911,32.29.447.447,0,0,0,.555.314l2.746-.768a.445.445,0,0,0,.308-.544A27.251,27.251,0,1,1,26.813,64.731a.448.448,0,0,0-.622.106l-1.653,2.32a.45.45,0,0,0,.106.628A30.989,30.989,0,1,0,23.26,17.9Z" transform="translate(-11.341 -11.346)"/><path class="c" d="M29.375,67.408A27.241,27.241,0,1,0,19,52.552h0l26.193-7.341h0l-15.814,22.2Z" transform="translate(-14.273 -14.281)"/><g transform="translate(20.115 20.275)"><path class="d" d="M48.807,49.977a.8.8,0,0,1-.9-.672.23.23,0,0,1-.006-.062.791.791,0,1,1,.56-1.44.793.793,0,1,1,1,1.2l.017.084A.805.805,0,0,1,48.807,49.977Zm-.841-1.95a.434.434,0,0,0-.37.5.439.439,0,0,0,.476.375l.235-.022-.045.235a.438.438,0,1,0,.863.017.378.378,0,0,0-.05-.146l-.1-.191.207-.062a.441.441,0,0,0,.314-.482.44.44,0,0,0-.841-.106l-.112.263-.185-.219A.41.41,0,0,0,47.967,48.027Z" transform="translate(-47.236 -47.526)"/></g><g transform="translate(39.908 8.439)"><path class="d" d="M84.127,28.857a.8.8,0,0,1-.9-.672.23.23,0,0,1-.006-.062.791.791,0,1,1,.56-1.44.787.787,0,0,1,.493-.269.792.792,0,0,1,.51,1.468l.017.084A.8.8,0,0,1,84.127,28.857Zm-.841-1.95a.434.434,0,0,0-.37.5.439.439,0,0,0,.476.375l.235-.022-.045.235a.438.438,0,1,0,.863.017.378.378,0,0,0-.05-.146l-.1-.191.207-.062a.441.441,0,0,0,.314-.482.44.44,0,0,0-.841-.106l-.112.263-.185-.219A.4.4,0,0,0,83.287,26.907Z" transform="translate(-82.556 -26.406)"/></g><g transform="translate(8.215 17.223)"><g transform="translate(0 7.481)"><path class="d" d="M27.53,59.694a1.353,1.353,0,0,1-.941-1.67l.034-.1a1.355,1.355,0,0,1,1.1-2.443,1.328,1.328,0,0,1,.773.566,1.353,1.353,0,0,1,1.9,1.58,1.367,1.367,0,0,1-1.16.986,1.24,1.24,0,0,1-.028.14A1.362,1.362,0,0,1,27.53,59.694Zm.028-3.637a.755.755,0,0,0-.437,1.446l.387.123-.235.336a.715.715,0,0,0-.106.23.756.756,0,0,0,1.457.4.663.663,0,0,0,.022-.258l-.028-.37.37.05a.754.754,0,1,0-.42-1.3l-.359.336-.134-.471A.742.742,0,0,0,27.558,56.058Z" transform="translate(-26.001 -55.43)"/></g><g transform="translate(40.005)"><path class="d" d="M98.18,42.243a1.357,1.357,0,0,1,1.838.549.729.729,0,0,1,.045.1,1.356,1.356,0,1,1-.045,2.651A1.356,1.356,0,1,1,97.7,44.2a.892.892,0,0,1-.073-.123A1.361,1.361,0,0,1,98.18,42.243Zm2.5,2.634A.753.753,0,0,0,100,43.537l-.359.179-.062-.4a.716.716,0,0,0-.078-.241.752.752,0,1,0-1.323.717.7.7,0,0,0,.163.2l.28.247-.3.219a.751.751,0,1,0,1.194.644l.028-.488.426.247A.711.711,0,0,0,100.685,44.877Z" transform="translate(-97.389 -42.08)"/></g><g transform="translate(31.108 21.744)"><path class="d" d="M82.621,80.887a.792.792,0,0,1,.869.7c0,.022.006.039.006.062a.789.789,0,1,1-.611,1.418.789.789,0,0,1-1.367-.448.8.8,0,0,1,.42-.785.432.432,0,0,1-.011-.084A.774.774,0,0,1,82.621,80.887Zm.768,1.978a.444.444,0,0,0,.392-.482.436.436,0,0,0-.465-.392l-.235.017.056-.23a.438.438,0,0,0,.011-.146.439.439,0,1,0-.874.09.34.34,0,0,0,.045.146l.1.2-.213.05a.439.439,0,1,0,.5.616l.123-.258L83,82.7A.42.42,0,0,0,83.388,82.865Z" transform="translate(-81.513 -80.882)"/></g><g transform="translate(11.463 34.293)"><path class="d" d="M47.518,103.284a.8.8,0,0,1,.9.672.23.23,0,0,1,.006.062.785.785,0,0,1,.656.667.793.793,0,0,1-1.222.773.793.793,0,1,1-1-1.2l-.017-.084A.809.809,0,0,1,47.518,103.284Zm.841,1.95a.434.434,0,0,0,.37-.5.439.439,0,0,0-.476-.375l-.235.022.045-.235a.438.438,0,1,0-.863-.017.485.485,0,0,0,.045.146l.1.191-.207.062a.441.441,0,0,0-.314.482.44.44,0,0,0,.841.106l.112-.263.185.219A.419.419,0,0,0,48.358,105.234Z" transform="translate(-46.456 -103.276)"/></g><g transform="translate(43.788 21.373)"><path class="d" d="M104.157,81.879a.8.8,0,0,1,.616-.936c.022-.006.039-.006.062-.011a.785.785,0,0,1,.628-.695.792.792,0,0,1,.846,1.171.816.816,0,0,1,.3.471.79.79,0,0,1-1.435.594.577.577,0,0,1-.078.022A.8.8,0,0,1,104.157,81.879Zm1.9-.953a.441.441,0,0,0-.521-.342.435.435,0,0,0-.342.5l.039.235L105,81.285a.419.419,0,0,0-.146.006.441.441,0,1,0,.179.863.432.432,0,0,0,.14-.056l.185-.112.073.207a.44.44,0,0,0,.846-.235.445.445,0,0,0-.28-.325l-.269-.1.207-.2A.494.494,0,0,0,106.057,80.926Z" transform="translate(-104.14 -80.22)"/></g></g><g transform="translate(5.602 4.908)"><rect class="e" width="1.244" height="0.902" transform="translate(0.262 30.304) rotate(-45)"/><rect class="e" width="1.244" height="0.902" transform="translate(1.897 14.86) rotate(-45)"/><rect class="e" width="1.244" height="0.902" transform="translate(11.088 10.45) rotate(-45)"/><rect class="e" width="1.244" height="0.902" transform="translate(15.449 6.091) rotate(-45)"/><rect class="e" width="1.244" height="0.902" transform="translate(18.5 13.839) rotate(-45)"/><rect class="e" width="1.244" height="0.902" transform="translate(23.255 5.959) rotate(-45)"/><rect class="e" width="1.244" height="0.902" transform="matrix(-0.108, -0.994, 0.994, -0.108, 28.649, 7.754)"/><rect class="e" width="1.244" height="0.902" transform="matrix(-0.108, -0.994, 0.994, -0.108, 24.137, 14.074)"/><rect class="e" width="1.244" height="0.902" transform="translate(28.797 10.637) rotate(-30.951)"/><rect class="e" width="1.244" height="0.902" transform="matrix(0.654, 0.756, -0.756, 0.654, 31.93, 12.043)"/><rect class="e" width="1.244" height="0.902" transform="matrix(0.907, -0.422, 0.422, 0.907, 31.378, 6.169)"/><rect class="e" width="1.244" height="0.902" transform="matrix(0.907, -0.422, 0.422, 0.907, 29.338, 14.862)"/><rect class="e" width="1.244" height="0.902" transform="translate(25.894 21.406) rotate(-65.398)"/><rect class="e" width="1.244" height="0.902" transform="matrix(0.907, -0.422, 0.422, 0.907, 35.362, 7.413)"/><rect class="e" width="1.244" height="0.902" transform="matrix(0.259, 0.966, -0.966, 0.259, 30.929, 2.243)"/><rect class="e" width="1.244" height="0.902" transform="translate(34.129 2.802) rotate(-155.626)"/><rect class="e" width="1.244" height="0.902" transform="translate(26.243 15.99) rotate(135)"/><rect class="e" width="1.244" height="0.902" transform="translate(27.38 0.685) rotate(139.36)"/><rect class="e" width="1.244" height="0.902" transform="translate(21.03 20.891) rotate(-45)"/><rect class="e" width="1.244" height="0.902" transform="translate(4.459 10.809) rotate(-45)"/><rect class="e" width="1.244" height="0.902" transform="matrix(-0.78, -0.625, 0.625, -0.78, 8.837, 14.107)"/><rect class="e" width="1.244" height="0.902" transform="translate(8.421 6.295) rotate(29.531)"/><rect class="e" width="1.244" height="0.902" transform="translate(17.022 0.969) rotate(29.531)"/><rect class="e" width="1.244" height="0.902" transform="translate(12.91 2.971) rotate(29.531)"/><rect class="e" width="1.244" height="0.902" transform="matrix(0.998, -0.06, 0.06, 0.998, 15.179, 13.512)"/><rect class="e" width="1.244" height="0.902" transform="matrix(0.998, -0.06, 0.06, 0.998, 17.74, 18.685)"/><rect class="e" width="1.244" height="0.902" transform="translate(7.805 22.524) rotate(-45)"/><rect class="e" width="1.244" height="0.902" transform="translate(11.374 23.454) rotate(-45)"/><rect class="e" width="1.244" height="0.902" transform="matrix(0.89, 0.456, -0.456, 0.89, 0.844, 24.851)"/><rect class="e" width="1.244" height="0.902" transform="matrix(0.89, 0.456, -0.456, 0.89, 14.769, 21.125)"/><rect class="e" width="1.244" height="0.902" transform="matrix(0.89, 0.456, -0.456, 0.89, 6.003, 17.747)"/><rect class="e" width="1.244" height="0.902" transform="matrix(0.89, 0.456, -0.456, 0.89, 14.186, 25.048)"/><rect class="e" width="1.244" height="0.902" transform="matrix(0.89, 0.456, -0.456, 0.89, 3.969, 25.967)"/><rect class="e" width="1.244" height="0.902" transform="matrix(0.89, 0.456, -0.456, 0.89, 0.411, 20.093)"/><rect class="e" width="1.244" height="0.902" transform="matrix(0.89, 0.456, -0.456, 0.89, 10.409, 18.658)"/><rect class="e" width="1.244" height="0.902" transform="translate(41.876 5.287) rotate(91.072)"/><rect class="e" width="1.244" height="0.902" transform="translate(41.846 16.121) rotate(91.072)"/><rect class="e" width="1.244" height="0.902" transform="translate(38.629 17.925) rotate(91.072)"/><rect class="e" width="1.244" height="0.902" transform="matrix(-0.957, 0.289, -0.289, -0.957, 45.239, 9.617)"/><rect class="e" width="1.244" height="0.902" transform="matrix(-0.957, 0.289, -0.289, -0.957, 37.261, 20.993)"/><rect class="e" width="1.244" height="0.902" transform="matrix(-0.957, 0.289, -0.289, -0.957, 46.454, 18.312)"/><rect class="e" width="1.244" height="0.902" transform="matrix(-0.957, 0.289, -0.289, -0.957, 35.494, 18.73)"/><rect class="e" width="1.244" height="0.902" transform="matrix(-0.957, 0.289, -0.289, -0.957, 42.219, 10.983)"/><rect class="e" width="1.244" height="0.902" transform="matrix(-0.957, 0.289, -0.289, -0.957, 48.851, 12.746)"/><rect class="e" width="1.244" height="0.902" transform="matrix(-0.957, 0.289, -0.289, -0.957, 41.899, 19.594)"/><rect class="e" width="1.244" height="0.902" transform="translate(39.546 41.611) rotate(137.14)"/><rect class="e" width="1.244" height="0.902" transform="translate(35.021 45.807) rotate(137.14)"/><rect class="e" width="1.244" height="0.902" transform="translate(32.266 37.944) rotate(137.14)"/><rect class="e" width="1.244" height="0.902" transform="translate(29.998 30.811) rotate(137.14)"/><rect class="e" width="1.244" height="0.902" transform="translate(46.183 41.502) rotate(137.14)"/><rect class="e" width="1.244" height="0.902" transform="translate(41.925 38.041) rotate(40.852)"/><rect class="e" width="1.244" height="0.902" transform="matrix(-0.851, -0.525, 0.525, -0.851, 42.052, 45.866)"/><rect class="e" width="1.244" height="0.902" transform="matrix(-0.851, -0.525, 0.525, -0.851, 33.257, 50.865)"/><rect class="e" width="1.244" height="0.902" transform="matrix(-0.851, -0.525, 0.525, -0.851, 37.444, 49.02)"/><rect class="e" width="1.244" height="0.902" transform="translate(35.574 38.402) rotate(178.705)"/><rect class="e" width="1.244" height="0.902" transform="translate(33.209 33.138) rotate(178.705)"/><rect class="e" width="1.244" height="0.902" transform="matrix(-0.707, 0.707, -0.707, -0.707, 27.761, 46.643)"/><rect class="e" width="1.244" height="0.902" transform="translate(22.365 44.846) rotate(83.8)"/><rect class="e" width="1.244" height="0.902" transform="translate(26.88 38.524) rotate(83.8)"/><rect class="e" width="1.244" height="0.902" transform="translate(22.214 41.964) rotate(149.065)"/><rect class="e" width="1.244" height="0.902" transform="translate(19.084 40.552) rotate(-130.852)"/><rect class="e" width="1.244" height="0.902" transform="matrix(-0.907, 0.421, -0.421, -0.907, 19.633, 46.432)"/><rect class="e" width="1.244" height="0.902" transform="matrix(-0.907, 0.421, -0.421, -0.907, 21.672, 37.741)"/><rect class="e" width="1.244" height="0.902" transform="matrix(-0.417, 0.909, -0.909, -0.417, 25.123, 31.192)"/><rect class="e" width="1.244" height="0.902" transform="matrix(-0.907, 0.421, -0.421, -0.907, 15.653, 45.187)"/><rect class="e" width="1.244" height="0.902" transform="translate(20.081 50.356) rotate(-104.981)"/><rect class="e" width="1.244" height="0.902" transform="translate(16.879 49.793) rotate(24.394)"/><rect class="e" width="1.244" height="0.902" transform="matrix(0.707, -0.707, 0.707, 0.707, 24.773, 36.608)"/><rect class="e" width="1.244" height="0.902" transform="translate(23.633 51.915) rotate(-40.624)"/><rect class="e" width="1.244" height="0.902" transform="matrix(0.748, 0.664, -0.664, 0.748, 45.693, 22.743)"/><rect class="e" width="1.244" height="0.902" transform="matrix(0.986, -0.167, 0.167, 0.986, 44.219, 28.236)"/><rect class="e" width="1.244" height="0.902" transform="matrix(0.986, -0.167, 0.167, 0.986, 37.641, 24.111)"/><rect class="e" width="1.244" height="0.902" transform="translate(41.355 28.552) rotate(55.639)"/><rect class="e" width="1.244" height="0.902" transform="matrix(-0.716, 0.698, -0.698, -0.716, 40.13, 31.768)"/><rect class="e" width="1.244" height="0.902" transform="matrix(0.475, 0.88, -0.88, 0.475, 45.967, 30.865)"/><rect class="e" width="1.244" height="0.902" transform="matrix(0.475, 0.88, -0.88, 0.475, 37.171, 29.348)"/><rect class="e" width="1.244" height="0.902" transform="translate(30.435 26.301) rotate(21.192)"/><rect class="e" width="1.244" height="0.902" transform="matrix(0.475, 0.88, -0.88, 0.475, 44.963, 34.911)"/><rect class="e" width="1.244" height="0.902" transform="translate(49.854 30.191) rotate(161.59)"/><rect class="e" width="1.244" height="0.902" transform="translate(49.486 33.409) rotate(-69.035)"/><rect class="e" width="1.244" height="0.902" transform="matrix(-0.748, -0.664, 0.664, -0.748, 35.852, 26.322)"/><rect class="e" width="1.244" height="0.902" transform="translate(51.201 26.55) rotate(-134.052)"/></g><g transform="translate(12.412 11.476)"><g transform="translate(0 17.75)"><circle class="d" cx="2.141" cy="2.141" r="2.141"/><g transform="translate(0.408 0.356)"><g transform="translate(0.379 0.448)"><path class="f" d="M35.285,65.016l1.3,1.608-1.608-1.3a.219.219,0,1,1,.275-.342Z" transform="translate(-34.896 -64.936)"/><path class="f" d="M37.89,68.238l-1.3-1.608,1.608,1.3a.219.219,0,0,1-.275.342A.1.1,0,0,1,37.89,68.238Z" transform="translate(-35.64 -65.68)"/></g><g transform="translate(0 1.246)"><path class="f" d="M34.416,67.38l2.057-.23-1.961.656a.222.222,0,0,1-.28-.14.213.213,0,0,1,.14-.275A.132.132,0,0,1,34.416,67.38Z" transform="translate(-34.219 -66.707)"/><path class="f" d="M38.467,66.8l-2.057.23,1.961-.656a.222.222,0,0,1,.14.42C38.495,66.791,38.478,66.8,38.467,66.8Z" transform="translate(-35.182 -66.359)"/></g><g transform="translate(1.091)"><path class="f" d="M36.185,68.217l.779-1.917L36.6,68.34a.219.219,0,0,1-.432-.073A.518.518,0,0,0,36.185,68.217Z" transform="translate(-36.166 -65.087)"/><path class="f" d="M37.859,64.441l-.779,1.917.364-2.04a.219.219,0,0,1,.431.073A.261.261,0,0,1,37.859,64.441Z" transform="translate(-36.568 -64.136)"/></g></g></g><g transform="translate(3.348 5.161)"><circle class="d" cx="1.373" cy="1.373" r="1.373" transform="matrix(0.381, -0.925, 0.925, 0.381, 0, 2.539)"/><g transform="translate(0.686 0.65)"><g transform="translate(0.246 0.288)"><path class="f" d="M41.375,42.759l.835,1.031-1.031-.835a.14.14,0,1,1,.174-.219A.044.044,0,0,0,41.375,42.759Z" transform="translate(-41.128 -42.708)"/><path class="f" d="M43.035,44.821,42.2,43.79l1.031.835a.14.14,0,0,1-.174.219Z" transform="translate(-41.599 -43.183)"/></g><g transform="translate(0 0.798)"><path class="f" d="M40.813,44.276l1.317-.146-1.255.42a.142.142,0,0,1-.09-.269A.061.061,0,0,1,40.813,44.276Z" transform="translate(-40.689 -43.844)"/><path class="f" d="M43.4,43.9l-1.317.146,1.255-.42a.142.142,0,1,1,.09.269A.242.242,0,0,1,43.4,43.9Z" transform="translate(-41.3 -43.619)"/></g><g transform="translate(0.704)"><path class="f" d="M41.953,44.8l.5-1.227-.23,1.306a.14.14,0,1,1-.275-.05C41.942,44.82,41.947,44.808,41.953,44.8Z" transform="translate(-41.944 -42.799)"/><path class="f" d="M43.019,42.388l-.5,1.227.23-1.306a.14.14,0,0,1,.275.05A.244.244,0,0,1,43.019,42.388Z" transform="translate(-42.197 -42.194)"/></g></g></g><g transform="translate(17.445 1.022)"><circle class="d" cx="1.782" cy="1.782" r="1.782"/><g transform="translate(0.343 0.3)"><g transform="translate(0.313 0.372)"><path class="f" d="M66.115,34.917,67.2,36.256l-1.339-1.082a.183.183,0,1,1,.23-.286Z" transform="translate(-65.789 -34.849)"/><path class="f" d="M68.282,37.589,67.2,36.25l1.339,1.082a.183.183,0,0,1-.23.286A.068.068,0,0,1,68.282,37.589Z" transform="translate(-66.41 -35.465)"/></g><g transform="translate(0 1.035)"><path class="f" d="M65.393,36.881,67.1,36.69l-1.631.544a.183.183,0,1,1-.112-.347C65.365,36.886,65.382,36.881,65.393,36.881Z" transform="translate(-65.231 -36.321)"/><path class="f" d="M68.759,36.395l-1.709.191,1.631-.544a.183.183,0,1,1,.112.347C68.787,36.389,68.77,36.395,68.759,36.395Z" transform="translate(-66.031 -36.031)"/></g><g transform="translate(0.91)"><path class="f" d="M66.869,37.567l.65-1.6-.3,1.7a.182.182,0,1,1-.359-.067A.116.116,0,0,1,66.869,37.567Z" transform="translate(-66.855 -34.97)"/><path class="f" d="M68.25,34.434l-.65,1.6.3-1.7a.182.182,0,0,1,.359.067A.08.08,0,0,1,68.25,34.434Z" transform="translate(-67.183 -34.185)"/></g></g></g><g transform="translate(19.339 9.848)"><circle class="d" cx="1.373" cy="1.373" r="1.373"/><g transform="translate(0.268 0.232)"><g transform="translate(0.24 0.288)"><path class="f" d="M69.161,50.379,70,51.41l-1.037-.835a.14.14,0,1,1,.174-.219C69.144,50.363,69.15,50.374,69.161,50.379Z" transform="translate(-68.908 -50.328)"/><path class="f" d="M70.825,52.431,69.99,51.4l1.031.835a.14.14,0,0,1-.174.219A.044.044,0,0,1,70.825,52.431Z" transform="translate(-69.383 -50.799)"/></g><g transform="translate(0 0.798)"><path class="f" d="M68.6,51.886l1.317-.146-1.255.42a.142.142,0,0,1-.09-.269A.243.243,0,0,0,68.6,51.886Z" transform="translate(-68.479 -51.459)"/><path class="f" d="M71.191,51.514l-1.311.151,1.255-.42a.142.142,0,0,1,.09.269Z" transform="translate(-69.095 -51.239)"/></g><g transform="translate(0.704)"><path class="f" d="M69.743,52.417l.5-1.227-.23,1.306a.14.14,0,1,1-.275-.05A.051.051,0,0,1,69.743,52.417Z" transform="translate(-69.734 -50.419)"/><path class="f" d="M70.809,50.008l-.5,1.227.23-1.306a.14.14,0,1,1,.275.05A.243.243,0,0,1,70.809,50.008Z" transform="translate(-69.987 -49.814)"/></g></g></g><g transform="translate(6.956)"><circle class="d" cx="2.342" cy="2.342" r="2.342" transform="matrix(0.379, -0.925, 0.925, 0.379, 0, 4.335)"/><g transform="translate(1.164 1.103)"><g transform="translate(0.417 0.493)"><path class="f" d="M49.148,34.761l1.423,1.76L48.811,35.1a.239.239,0,1,1,.3-.37Z" transform="translate(-48.724 -34.674)"/><path class="f" d="M51.983,38.28,50.56,36.52l1.76,1.423a.239.239,0,1,1-.3.37Z" transform="translate(-49.531 -35.486)"/></g><g transform="translate(0 1.365)"><path class="f" d="M48.193,37.342l2.247-.252-2.146.717a.239.239,0,1,1-.151-.454A.164.164,0,0,1,48.193,37.342Z" transform="translate(-47.98 -36.608)"/><path class="f" d="M52.617,36.706l-2.247.252,2.146-.717a.239.239,0,0,1,.151.454A.164.164,0,0,1,52.617,36.706Z" transform="translate(-49.031 -36.23)"/></g><g transform="translate(1.19)"><path class="f" d="M50.13,38.256l.852-2.1-.4,2.23a.242.242,0,1,1-.476-.084C50.119,38.284,50.124,38.267,50.13,38.256Z" transform="translate(-50.104 -34.834)"/><path class="f" d="M51.952,34.128l-.852,2.1.4-2.23a.242.242,0,0,1,.476.084C51.963,34.094,51.963,34.111,51.952,34.128Z" transform="translate(-50.542 -33.794)"/></g></g></g><g transform="translate(29.115 5.147)"><circle class="d" cx="2.141" cy="2.141" r="2.141" transform="matrix(0.994, -0.109, 0.109, 0.994, 0, 0.468)"/><g transform="translate(0.629 0.831)"><g transform="translate(0 1.275)"><path class="f" d="M90.837,45.306l-2.057-.258,2.062-.179a.219.219,0,0,1,.034.437A.048.048,0,0,1,90.837,45.306Z" transform="translate(-87.541 -44.813)"/><path class="f" d="M86.81,44.77l2.057.258-2.062.179a.219.219,0,0,1-.034-.437Z" transform="translate(-86.568 -44.77)"/></g><g transform="translate(0.632 0.012)"><path class="f" d="M90.433,42.877,89.11,44.469l.958-1.832a.221.221,0,1,1,.392.2C90.449,42.855,90.438,42.866,90.433,42.877Z" transform="translate(-88.318 -42.517)"/><path class="f" d="M87.749,46.042l1.323-1.592-.958,1.832a.221.221,0,0,1-.392-.2A.237.237,0,0,1,87.749,46.042Z" transform="translate(-87.697 -43.367)"/></g><g transform="translate(0.822)"><path class="f" d="M88.458,42.632l.768,1.922-1.154-1.72a.218.218,0,1,1,.364-.241A.14.14,0,0,1,88.458,42.632Z" transform="translate(-88.035 -42.495)"/><path class="f" d="M90.058,46.432,89.29,44.51l1.154,1.72a.218.218,0,1,1-.364.241A.09.09,0,0,1,90.058,46.432Z" transform="translate(-88.586 -43.381)"/></g></g></g><g transform="translate(30.614 30.572)"><circle class="d" cx="1.373" cy="1.373" r="1.373"/><g transform="translate(0.252 0.327)"><g transform="translate(0.33 0.193)"><path class="f" d="M91,89.469l-.8-1.059,1,.869a.139.139,0,1,1-.185.207C91.007,89.486,91,89.475,91,89.469Z" transform="translate(-89.616 -87.793)"/><path class="f" d="M89.406,87.36l.8,1.059-1-.869a.139.139,0,1,1,.185-.207Q89.4,87.343,89.406,87.36Z" transform="translate(-89.158 -87.308)"/></g><g transform="translate(0 0.715)"><path class="f" d="M91.293,88.52l-1.323.1,1.272-.375a.14.14,0,0,1,.078.269A.061.061,0,0,1,91.293,88.52Z" transform="translate(-89.185 -88.24)"/><path class="f" d="M88.7,88.8l1.323-.1-1.272.375a.14.14,0,1,1-.078-.269A.042.042,0,0,1,88.7,88.8Z" transform="translate(-88.57 -88.442)"/></g><g transform="translate(0.658)"><path class="f" d="M90.9,87.163l-.544,1.2.28-1.295a.141.141,0,0,1,.275.062A.043.043,0,0,1,90.9,87.163Z" transform="translate(-90.015 -86.964)"/><path class="f" d="M89.758,89.545l.544-1.2-.28,1.294a.142.142,0,0,1-.168.106.138.138,0,0,1-.106-.168A.043.043,0,0,1,89.758,89.545Z" transform="translate(-89.744 -87.569)"/></g></g></g><g transform="translate(23.726 32.411)"><circle class="d" cx="2.342" cy="2.342" r="2.342" transform="translate(0 3.893) rotate(-56.205)"/><g transform="translate(1.329 1.461)"><g transform="translate(0.561 0.32)"><path class="f" d="M82.346,96.55,80.99,94.74l1.7,1.485a.238.238,0,0,1-.314.359Z" transform="translate(-79.988 -93.676)"/><path class="f" d="M79.632,92.936l1.356,1.81-1.7-1.485A.238.238,0,1,1,79.6,92.9C79.61,92.908,79.621,92.925,79.632,92.936Z" transform="translate(-79.202 -92.842)"/></g><g transform="translate(0 1.222)"><path class="f" d="M82.858,94.932,80.6,95.1l2.169-.639a.239.239,0,0,1,.134.46C82.892,94.927,82.87,94.927,82.858,94.932Z" transform="translate(-79.256 -94.451)"/><path class="f" d="M78.419,95.408l2.258-.168-2.169.639a.239.239,0,0,1-.134-.46A.132.132,0,0,1,78.419,95.408Z" transform="translate(-78.201 -94.798)"/></g><g transform="translate(1.12)"><path class="f" d="M82.2,92.612l-.93,2.062.482-2.214a.241.241,0,0,1,.471.1C82.211,92.584,82.206,92.6,82.2,92.612Z" transform="translate(-80.671 -92.27)"/><path class="f" d="M80.228,96.672l.93-2.062-.482,2.214a.241.241,0,0,1-.471-.1A.2.2,0,0,0,80.228,96.672Z" transform="translate(-80.2 -93.299)"/></g></g></g><g transform="translate(16.386 34.875)"><path class="d" d="M63.251,97.1a1.783,1.783,0,1,1,2.522,0A1.786,1.786,0,0,1,63.251,97.1Z" transform="translate(-62.73 -94.06)"/><g transform="translate(0.326 0.418)"><g transform="translate(0.385 0.283)"><path class="f" d="M66.492,98.049,65.41,96.71l1.339,1.082a.183.183,0,0,1-.23.286A.068.068,0,0,1,66.492,98.049Z" transform="translate(-64.62 -95.925)"/><path class="f" d="M64.325,95.377l1.082,1.339-1.339-1.082a.183.183,0,1,1,.23-.286A.068.068,0,0,1,64.325,95.377Z" transform="translate(-63.999 -95.309)"/></g><g transform="translate(0 0.89)"><path class="f" d="M66.849,96.755l-1.709.191,1.636-.544a.183.183,0,1,1,.112.347A.1.1,0,0,1,66.849,96.755Z" transform="translate(-64.116 -96.392)"/><path class="f" d="M63.479,97.241l1.709-.191-1.636.544a.183.183,0,0,1-.112-.347C63.451,97.246,63.468,97.241,63.479,97.241Z" transform="translate(-63.312 -96.682)"/></g><g transform="translate(0.904)"><path class="f" d="M66.32,95.054l-.65,1.6.3-1.7a.182.182,0,0,1,.359.067A.08.08,0,0,1,66.32,95.054Z" transform="translate(-65.253 -94.805)"/><path class="f" d="M64.939,98.187l.65-1.6-.3,1.7a.182.182,0,1,1-.359-.067A.08.08,0,0,1,64.939,98.187Z" transform="translate(-64.925 -95.59)"/></g></g></g><g transform="translate(15.31 26.867)"><circle class="d" cx="1.373" cy="1.373" r="1.373"/><g transform="translate(0.257 0.322)"><g transform="translate(0.291 0.22)"><path class="f" d="M63.709,82.841,62.88,81.81l1.031.835a.14.14,0,0,1-.174.219A.039.039,0,0,1,63.709,82.841Z" transform="translate(-62.268 -81.209)"/><path class="f" d="M62.041,80.789l.829,1.031-1.031-.835a.14.14,0,0,1,.174-.219A.123.123,0,0,1,62.041,80.789Z" transform="translate(-61.788 -80.738)"/></g><g transform="translate(0 0.686)"><path class="f" d="M63.977,81.85,62.66,82l1.255-.42a.142.142,0,1,1,.09.269A.245.245,0,0,1,63.977,81.85Z" transform="translate(-61.88 -81.569)"/><path class="f" d="M61.393,82.226l1.317-.146-1.255.42a.142.142,0,0,1-.09-.269A.042.042,0,0,1,61.393,82.226Z" transform="translate(-61.269 -81.794)"/></g><g transform="translate(0.692)"><path class="f" d="M63.579,80.538l-.5,1.227.23-1.306a.14.14,0,0,1,.275.05C63.584,80.521,63.579,80.527,63.579,80.538Z" transform="translate(-62.757 -80.344)"/><path class="f" d="M62.513,82.947l.5-1.227-.23,1.306a.133.133,0,0,1-.163.112.136.136,0,0,1-.112-.163A.051.051,0,0,1,62.513,82.947Z" transform="translate(-62.504 -80.949)"/></g></g></g><g transform="translate(33.859 17.374)"><circle class="d" cx="1.782" cy="1.782" r="1.782" transform="translate(0)"/><g transform="translate(0.391 0.367)"><g transform="translate(0.361 0.234)"><path class="f" d="M97.862,64.22,96.59,65.38l1-1.4a.181.181,0,0,1,.3.207A.214.214,0,0,1,97.862,64.22Z" transform="translate(-95.84 -63.902)"/><path class="f" d="M95.312,66.53l1.272-1.16-1,1.4a.181.181,0,0,1-.3-.207A.149.149,0,0,1,95.312,66.53Z" transform="translate(-95.252 -64.547)"/></g><g transform="translate(0.833)"><path class="f" d="M96.462,63.633l.291,1.7-.644-1.6a.181.181,0,1,1,.336-.134A.034.034,0,0,1,96.462,63.633Z" transform="translate(-96.095 -63.485)"/><path class="f" d="M97.141,66.968l-.291-1.7.644,1.6a.181.181,0,1,1-.336.134C97.147,66.99,97.147,66.979,97.141,66.968Z" transform="translate(-96.427 -64.27)"/></g><g transform="translate(0 0.955)"><path class="f" d="M94.85,65.2l1.631.555-1.709-.2a.183.183,0,1,1,.039-.364A.359.359,0,0,1,94.85,65.2Z" transform="translate(-94.608 -65.188)"/><path class="f" d="M98.061,66.4,96.43,65.85l1.709.2a.183.183,0,1,1-.039.364A.359.359,0,0,1,98.061,66.4Z" transform="translate(-95.409 -65.479)"/></g></g></g><g transform="translate(25.956 19.772)"><path class="d" d="M82.2,69.384a1.37,1.37,0,1,1-.118-1.933A1.373,1.373,0,0,1,82.2,69.384Z" transform="translate(-79.808 -67.108)"/><g transform="translate(0.302 0.277)"><g transform="translate(0.279 0.186)"><path class="f" d="M82.841,68.179l-.981.891.768-1.076a.141.141,0,1,1,.23.163C82.857,68.167,82.852,68.173,82.841,68.179Z" transform="translate(-81.291 -67.935)"/><path class="f" d="M80.887,69.961l.981-.891L81.1,70.146a.141.141,0,1,1-.23-.163A.077.077,0,0,1,80.887,69.961Z" transform="translate(-80.845 -68.434)"/></g><g transform="translate(0.647)"><path class="f" d="M81.781,67.719l.224,1.306L81.512,67.8a.142.142,0,1,1,.263-.106A.042.042,0,0,0,81.781,67.719Z" transform="translate(-81.502 -67.602)"/><path class="f" d="M82.294,70.286,82.07,68.98l.493,1.227a.142.142,0,1,1-.263.106A.061.061,0,0,0,82.294,70.286Z" transform="translate(-81.752 -68.208)"/></g><g transform="translate(0 0.743)"><path class="f" d="M80.534,68.934l1.255.426-1.317-.151a.141.141,0,1,1,.034-.28A.042.042,0,0,1,80.534,68.934Z" transform="translate(-80.347 -68.927)"/><path class="f" d="M83,69.856,81.74,69.43l1.317.151a.141.141,0,0,1-.034.28A.061.061,0,0,1,83,69.856Z" transform="translate(-80.96 -69.148)"/></g></g></g></g><g transform="translate(7.133 7.455)"><g transform="translate(24.73)"><path class="g" d="M70.879,27.273a.906.906,0,0,1-1.289,0l-.05-.05a.912.912,0,0,1-1.07-1.451.891.891,0,0,1,.588-.263.909.909,0,0,1,1.552-.588.915.915,0,0,1,.191,1.009c.022.022.05.039.073.062A.9.9,0,0,1,70.879,27.273Zm-2.124-1.216a.507.507,0,0,0,.7.734l.2-.185.118.247a.477.477,0,0,0,.1.14.507.507,0,0,0,.717-.717.56.56,0,0,0-.146-.1l-.23-.106.151-.2a.507.507,0,1,0-.9-.191l.078.319-.319-.078A.5.5,0,0,0,68.755,26.057Z" transform="translate(-68.2 -24.65)"/></g><g transform="translate(8.921 2.341)"><path class="g" d="M41.071,31.838a.956.956,0,0,1-.667-1.177c.006-.022.017-.05.022-.073a.957.957,0,0,1,.773-1.726.923.923,0,0,1,.544.4.956.956,0,1,1,.521,1.81.652.652,0,0,1-.022.1A.948.948,0,0,1,41.071,31.838Zm.022-2.561a.536.536,0,0,0-.656.37.525.525,0,0,0,.347.644l.275.09-.163.235a.621.621,0,0,0-.078.163.532.532,0,0,0,1.026.286.478.478,0,0,0,.017-.179l-.022-.263.258.034a.53.53,0,0,0,.213-1.037.524.524,0,0,0-.5.123l-.252.235-.1-.331A.517.517,0,0,0,41.093,29.277Z" transform="translate(-39.988 -28.828)"/></g><g transform="translate(14.799 21.148)"><path class="g" d="M51.561,65.4a.956.956,0,0,1-.667-1.177c.006-.022.017-.05.022-.073a.957.957,0,0,1,.773-1.726.923.923,0,0,1,.544.4.956.956,0,1,1,.521,1.81.651.651,0,0,1-.022.1A.944.944,0,0,1,51.561,65.4Zm.022-2.561a.536.536,0,0,0-.656.37.525.525,0,0,0,.347.644l.275.09-.163.235a.621.621,0,0,0-.078.163.532.532,0,0,0,1.026.286.478.478,0,0,0,.017-.179l-.022-.263.258.034a.53.53,0,0,0,.213-1.037.524.524,0,0,0-.5.123l-.252.235-.1-.331A.517.517,0,0,0,51.583,62.838Z" transform="translate(-50.478 -62.388)"/></g><g transform="translate(1.334 26.49)"><path class="g" d="M26.719,72.06a2.381,2.381,0,0,0,2.824-.14l.291.353a2.841,2.841,0,0,1-3.385.157Z" transform="translate(-26.45 -71.92)"/></g><g transform="translate(0 14.045)"><path class="g" d="M27.186,50.473a2.385,2.385,0,0,0-2.791.443L24.07,50.6a2.837,2.837,0,0,1,3.346-.521Z" transform="translate(-24.07 -49.712)"/></g><g transform="translate(28.751 17.324)"><path class="g" d="M75.933,55.679a.953.953,0,0,1,1.294.387l.034.067A.954.954,0,0,1,77.9,57.91a.94.94,0,0,1-.672.09.941.941,0,0,1-.443.51A.955.955,0,0,1,75.6,57.058a.667.667,0,0,1-.05-.084A.965.965,0,0,1,75.933,55.679ZM77.7,57.54a.53.53,0,0,0-.488-.941l-.258.123-.045-.286a.541.541,0,0,0-.056-.168.529.529,0,1,0-.93.5.675.675,0,0,0,.112.146l.2.174-.213.157a.529.529,0,0,0,.566.891.518.518,0,0,0,.275-.437l.017-.347.3.174A.536.536,0,0,0,77.7,57.54Z" transform="translate(-75.376 -55.563)"/></g><g transform="translate(36.677 5.094)"><path class="g" d="M91.907,34.188a2.372,2.372,0,0,0-1.933,2.062l-.454-.05a2.836,2.836,0,0,1,2.326-2.46Z" transform="translate(-89.52 -33.74)"/></g><g transform="translate(45.98 12.026)"><path class="g" d="M106.12,48.946a2.378,2.378,0,0,0,.874-2.69l.432-.146a2.843,2.843,0,0,1-1.059,3.217Z" transform="translate(-106.12 -46.11)"/></g><g transform="translate(13.27 1.256)"><path class="g" d="M50.866,27.653a2.385,2.385,0,0,0-2.791.443l-.325-.319a2.837,2.837,0,0,1,3.346-.521Z" transform="translate(-47.75 -26.892)"/></g><g transform="translate(35.356 41.554)"><path class="g" d="M89.279,98.845a.959.959,0,0,1,.622,1.2.39.39,0,0,1-.028.073.957.957,0,1,1-1.367,1.278.973.973,0,0,1-.678.039.953.953,0,0,1,.224-1.86.473.473,0,0,1,.028-.1A.952.952,0,0,1,89.279,98.845Zm-.118,2.561A.533.533,0,0,0,89.5,100.4l-.269-.1.174-.23a.475.475,0,0,0,.084-.157.532.532,0,0,0-1.014-.319.479.479,0,0,0-.022.179l.011.263-.258-.045a.529.529,0,1,0,.263.919l.263-.224.084.336A.494.494,0,0,0,89.161,101.406Z" transform="translate(-87.161 -98.801)"/></g><g transform="translate(30.726 44.349)"><path class="g" d="M79.141,104.132a2.375,2.375,0,0,0,2.808-.342l.314.331a2.843,2.843,0,0,1-3.362.392Z" transform="translate(-78.9 -103.79)"/></g><g transform="translate(24.915 9.698)"><path class="g" d="M71.332,42.429a2.387,2.387,0,0,0-2.376,1.53L68.53,43.8a2.844,2.844,0,0,1,2.852-1.827Z" transform="translate(-68.53 -41.956)"/></g><g transform="translate(20.274 44.615)"><path class="g" d="M60.513,104.531a.912.912,0,0,1,1.289,0,.506.506,0,0,1,.05.056.912.912,0,0,1,1.07,1.451.891.891,0,0,1-.588.263.909.909,0,0,1-1.552.588.915.915,0,0,1-.191-1.009c-.022-.022-.05-.039-.073-.062A.912.912,0,0,1,60.513,104.531Zm2.124,1.216a.507.507,0,0,0-.7-.734l-.2.185-.118-.247a.477.477,0,0,0-.1-.14.507.507,0,1,0-.717.717.56.56,0,0,0,.146.1l.23.106-.151.2a.507.507,0,1,0,.9.191l-.078-.319.319.078A.5.5,0,0,0,62.637,105.747Z" transform="translate(-60.249 -104.264)"/></g><g transform="translate(20.185 35.803)"><path class="g" d="M60.14,90.07a2.387,2.387,0,0,0,2.376-1.53l.426.157a2.844,2.844,0,0,1-2.852,1.827Z" transform="translate(-60.09 -88.54)"/></g><g transform="translate(44.979 23.107)"><path class="g" d="M104.64,68.605a.919.919,0,0,1-.078-1.289l.05-.05a.9.9,0,0,1,.1-1.076.915.915,0,0,1,1.592.493.906.906,0,0,1,.605.23A.912.912,0,0,1,106,68.454a.386.386,0,0,1-.062.073A.921.921,0,0,1,104.64,68.605Zm1.093-2.191a.508.508,0,0,0-.689.745l.2.191-.241.134a.491.491,0,0,0-.134.106.508.508,0,1,0,.762.672.515.515,0,0,0,.09-.151l.1-.235.207.14a.507.507,0,1,0,.134-.908l-.314.1.056-.325A.517.517,0,0,0,105.733,66.414Z" transform="translate(-104.335 -65.885)"/></g><g transform="translate(36.1 23.867)"><path class="g" d="M90.16,69.958a2.385,2.385,0,0,0-1.67-2.281l.134-.437a2.839,2.839,0,0,1,1.989,2.74Z" transform="translate(-88.49 -67.24)"/></g></g><g transform="translate(12.373 5.589)"><g transform="translate(0 8.114)"><path class="h" d="M36.076,38.456a1.557,1.557,0,1,1,0-2.2A1.563,1.563,0,0,1,36.076,38.456ZM34.3,36.68a.955.955,0,1,0,1.351,0A.95.95,0,0,0,34.3,36.68Z" transform="translate(-33.42 -35.8)"/></g><g transform="translate(12.149 14.777)"><path class="h" d="M57.756,50.346a1.557,1.557,0,1,1,0-2.2A1.563,1.563,0,0,1,57.756,50.346ZM55.98,48.57a.955.955,0,1,0,1.351,0A.95.95,0,0,0,55.98,48.57Z" transform="translate(-55.1 -47.69)"/></g><g transform="translate(14.867)"><path class="h" d="M62.606,23.976a1.557,1.557,0,1,1,0-2.2A1.563,1.563,0,0,1,62.606,23.976ZM60.83,22.2a.955.955,0,1,0,1.351,0A.95.95,0,0,0,60.83,22.2Z" transform="translate(-59.95 -21.32)"/></g><g transform="translate(24.988 7.358)"><path class="h" d="M80.666,37.106a1.557,1.557,0,1,1,0-2.2A1.563,1.563,0,0,1,80.666,37.106ZM78.89,35.33a.955.955,0,1,0,1.351,0A.95.95,0,0,0,78.89,35.33Z" transform="translate(-78.01 -34.45)"/></g><g transform="translate(6.366 26.775)"><path class="h" d="M47.84,70.249l-.583.157a.955.955,0,0,0-1.6-.426.945.945,0,0,0-.241.941l-.577.168a1.556,1.556,0,0,1,2.595-1.535A1.581,1.581,0,0,1,47.84,70.249Z" transform="translate(-44.78 -69.1)"/></g><g transform="translate(33.978 39.573)"><path class="h" d="M96.708,94.6a.32.32,0,0,1-.045.039,1.55,1.55,0,0,1-2.2-.084h0a1.564,1.564,0,0,1,.084-2.2,1.55,1.55,0,0,1,2.2.084,1.546,1.546,0,0,1,.415,1.115A1.525,1.525,0,0,1,96.708,94.6Zm-1.8-.448a.956.956,0,0,0,1.351.05.916.916,0,0,0,.3-.661.952.952,0,0,0-1.6-.734.962.962,0,0,0-.056,1.345Z" transform="translate(-94.053 -91.938)"/></g><g transform="translate(22.081 32.463)"><path class="h" d="M75.483,81.912a.321.321,0,0,1-.045.039,1.559,1.559,0,0,1-2.2-.084h0a1.558,1.558,0,1,1,2.247.045Zm-1.8-.448a.956.956,0,1,0,.05-1.351.956.956,0,0,0-.05,1.351Z" transform="translate(-72.823 -79.249)"/></g><g transform="translate(19.49 48.137)"><path class="h" d="M70.856,109.871h0a1.563,1.563,0,0,1-2.2,0h0a1.556,1.556,0,0,1,0-2.2h0a1.555,1.555,0,0,1,2.2,2.2Zm-1.771-.426a.961.961,0,0,0,1.351,0h0a.961.961,0,0,0,0-1.351.95.95,0,0,0-.672-.28.941.941,0,0,0-.672.28h0a.95.95,0,0,0-.28.672.913.913,0,0,0,.275.678Z" transform="translate(-68.2 -107.22)"/></g><g transform="translate(9.375 40.768)"><path class="h" d="M52.806,96.726h0a1.563,1.563,0,0,1-2.2,0,1.563,1.563,0,0,1,0-2.2h0a1.557,1.557,0,0,1,2.2,2.2ZM51.03,94.95a.961.961,0,0,0,0,1.351.947.947,0,0,0,1.345,0h0A.953.953,0,0,0,51.03,94.95Z" transform="translate(-50.15 -94.07)"/></g><g transform="translate(41.075 20.222)"><path class="h" d="M109.375,60.064a1.559,1.559,0,1,1-.067-2.264,1.522,1.522,0,0,1,.521,1.07A1.547,1.547,0,0,1,109.436,60h0A.672.672,0,0,1,109.375,60.064ZM107.6,58.288a.321.321,0,0,0-.039.045.955.955,0,0,0,.078,1.345.973.973,0,0,0,.689.241.955.955,0,0,0,.656-.319h0a.973.973,0,0,0,.241-.689.955.955,0,0,0-.319-.656.973.973,0,0,0-.689-.241A.936.936,0,0,0,107.6,58.288Z" transform="translate(-106.717 -57.406)"/></g><g transform="translate(34.333 30.763)"><path class="h" d="M97.345,78.875a1.578,1.578,0,1,1,.062-.067h0A.672.672,0,0,1,97.345,78.875ZM95.568,77.1l-.039.039A.953.953,0,0,0,96.952,78.4h0A.952.952,0,0,0,95.568,77.1Z" transform="translate(-94.687 -76.217)"/></g></g><path class="i" d="M64.183,17.851l-.734-.527L45.993,41.7,39.3,12.6l-.88.2L45.1,41.841,19.716,26.167l-.476.768L45.382,43.08l6.926,30.132.88-.2L46.464,43.746,71.984,59.5l.476-.768L46.912,42.962l28.737-8.439-.258-.869L46.873,42.026Z" transform="translate(-14.814 -11.898)"/></g><g transform="translate(0.897 41.347)"><path class="b" d="M11.564,97.8A28.536,28.536,0,0,1,5.394,86.45L1.6,87.509a32.687,32.687,0,0,0,12.407,17.764l2.286-3.205A28.473,28.473,0,0,1,11.564,97.8Z" transform="translate(-1.6 -79.351)"/><path class="c" d="M19.265,96.5,34.519,75.126a.849.849,0,0,0-.919-1.311L8.36,80.881a28.536,28.536,0,0,0,6.17,11.348A29.023,29.023,0,0,0,19.265,96.5Z" transform="translate(-4.572 -73.782)"/><rect class="e" width="1.244" height="0.902" transform="matrix(0.707, -0.707, 0.707, 0.707, 8.392, 10.875)"/><rect class="e" width="1.244" height="0.902" transform="matrix(0.707, -0.707, 0.707, 0.707, 15.648, 17.682)"/><rect class="e" width="1.244" height="0.902" transform="matrix(0.707, -0.707, 0.707, 0.707, 13.396, 6.514)"/><rect class="e" width="1.244" height="0.902" transform="matrix(0.707, -0.707, 0.707, 0.707, 5.999, 8.675)"/><rect class="e" width="1.244" height="0.902" transform="translate(9.677 14.545) rotate(27.142)"/><rect class="e" width="1.244" height="0.902" transform="translate(21.055 4.585) rotate(27.142)"/><rect class="e" width="1.244" height="0.902" transform="translate(13.365 12.839) rotate(-104.981)"/><rect class="e" width="1.244" height="0.902" transform="translate(18.113 5.587) rotate(-104.981)"/><rect class="e" width="1.244" height="0.902" transform="translate(13.233 20.311) rotate(-104.981)"/><rect class="e" width="1.244" height="0.902" transform="translate(16.074 14.738) rotate(-104.981)"/><g transform="translate(16.055 8.57)"><circle class="d" cx="2.141" cy="2.141" r="2.141" transform="translate(0 2.255) rotate(-31.781)"/><g transform="translate(1.221 1.166)"><g transform="translate(0.379 0.448)"><path class="f" d="M33.495,92.036l1.3,1.608-1.608-1.3A.219.219,0,1,1,33.461,92Z" transform="translate(-33.105 -91.955)"/><path class="f" d="M36.09,95.258l-1.3-1.608,1.608,1.3a.219.219,0,1,1-.275.342Z" transform="translate(-33.846 -92.7)"/></g><g transform="translate(0 1.246)"><path class="f" d="M32.62,94.39l2.057-.23-1.961.656a.218.218,0,0,1-.134-.415C32.592,94.4,32.609,94.4,32.62,94.39Z" transform="translate(-32.429 -93.722)"/><path class="f" d="M36.667,93.817l-2.057.23,1.961-.656a.218.218,0,1,1,.134.415A.355.355,0,0,1,36.667,93.817Z" transform="translate(-33.388 -93.379)"/></g><g transform="translate(1.097)"><path class="f" d="M34.4,95.227l.785-1.917-.364,2.04a.219.219,0,0,1-.431-.073A.112.112,0,0,1,34.4,95.227Z" transform="translate(-34.386 -92.103)"/><path class="f" d="M36.055,91.461l-.785,1.917.364-2.04a.219.219,0,0,1,.431.073A.164.164,0,0,1,36.055,91.461Z" transform="translate(-34.775 -91.156)"/></g></g></g><g transform="translate(9.61 6.922)"><circle class="d" cx="1.524" cy="1.524" r="1.524" transform="translate(0 1.609) rotate(-31.851)"/><g transform="translate(0.872 0.831)"><g transform="translate(0.269 0.319)"><path class="f" d="M21.063,88.244l.925,1.143-1.143-.925a.155.155,0,0,1,.2-.241Z" transform="translate(-20.786 -88.186)"/><path class="f" d="M22.915,90.543,21.99,89.4l1.143.925a.155.155,0,0,1-.2.241C22.926,90.56,22.92,90.549,22.915,90.543Z" transform="translate(-21.315 -88.72)"/></g><g transform="translate(0 0.89)"><path class="f" d="M20.442,89.923,21.9,89.76l-1.4.465a.156.156,0,0,1-.1-.3A.061.061,0,0,0,20.442,89.923Z" transform="translate(-20.305 -89.449)"/><path class="f" d="M23.323,89.516l-1.463.163,1.4-.465a.156.156,0,0,1,.1.3A.243.243,0,0,1,23.323,89.516Z" transform="translate(-20.989 -89.205)"/></g><g transform="translate(0.775)"><path class="f" d="M21.7,90.522l.555-1.362L22,90.611a.156.156,0,0,1-.308-.05A.143.143,0,0,0,21.7,90.522Z" transform="translate(-21.687 -88.296)"/><path class="f" d="M22.895,87.837,22.34,89.2l.258-1.451a.156.156,0,1,1,.308.05A.143.143,0,0,0,22.895,87.837Z" transform="translate(-21.974 -87.617)"/></g></g></g><g transform="translate(22.595 1.774)"><circle class="d" cx="1.524" cy="1.524" r="1.524" transform="matrix(0.85, -0.526, 0.526, 0.85, 0, 1.605)"/><g transform="translate(0.872 0.829)"><g transform="translate(0.264 0.319)"><path class="f" d="M44.223,79.054l.925,1.143L44,79.273a.155.155,0,1,1,.2-.241C44.212,79.037,44.217,79.049,44.223,79.054Z" transform="translate(-43.946 -78.996)"/><path class="f" d="M46.075,81.353,45.15,80.21l1.143.925a.155.155,0,1,1-.2.241C46.091,81.364,46.08,81.359,46.075,81.353Z" transform="translate(-44.475 -79.53)"/></g><g transform="translate(0 0.89)"><path class="f" d="M43.612,80.733l1.463-.163-1.4.465a.156.156,0,0,1-.1-.3A.061.061,0,0,0,43.612,80.733Z" transform="translate(-43.475 -80.259)"/><path class="f" d="M46.483,80.326l-1.463.163,1.4-.465a.156.156,0,0,1,.1.3A.061.061,0,0,0,46.483,80.326Z" transform="translate(-44.154 -80.015)"/></g><g transform="translate(0.775)"><path class="f" d="M44.87,81.332l.555-1.362-.258,1.451a.156.156,0,1,1-.308-.05A.356.356,0,0,1,44.87,81.332Z" transform="translate(-44.857 -79.106)"/><path class="f" d="M46.055,78.647,45.5,80.009l.258-1.451a.156.156,0,0,1,.308.05A.358.358,0,0,1,46.055,78.647Z" transform="translate(-45.14 -78.427)"/></g></g></g><g transform="translate(14.973 6.672)"><path class="g" d="M29.4,88.7a.956.956,0,0,1-.667-1.177c.006-.022.017-.05.022-.073a.957.957,0,0,1,.773-1.726.923.923,0,0,1,.544.4.956.956,0,1,1,.521,1.81.651.651,0,0,1-.022.1A.953.953,0,0,1,29.4,88.7Zm.017-2.567a.536.536,0,0,0-.656.37.525.525,0,0,0,.347.644l.275.09-.163.235a.621.621,0,0,0-.078.163.532.532,0,0,0,1.026.286.478.478,0,0,0,.017-.179l-.022-.263.258.034a.53.53,0,0,0,.213-1.037.524.524,0,0,0-.5.123l-.252.235-.1-.331A.527.527,0,0,0,29.418,86.132Z" transform="translate(-28.318 -85.688)"/></g><g transform="translate(19.883 7.243)"><path class="g" d="M40.2,87.465a2.376,2.376,0,0,0-2.791.443l-.325-.319a2.83,2.83,0,0,1,3.346-.516Z" transform="translate(-37.08 -86.706)"/></g><g transform="translate(7.862 12.266)"><path class="g" d="M15.955,95.67a2.376,2.376,0,0,0,2.808.336l.23.392a2.845,2.845,0,0,1-3.362-.415Z" transform="translate(-15.63 -95.67)"/></g><g transform="translate(11.286 14.603)"><path class="h" d="M24.4,102.5a1.557,1.557,0,1,1,0-2.2A1.563,1.563,0,0,1,24.4,102.5Zm-1.771-1.776a.955.955,0,1,0,1.351,0A.961.961,0,0,0,22.625,100.72Z" transform="translate(-21.74 -99.84)"/></g><g transform="translate(8.686 4.886)"><path class="h" d="M19.706,84.041a1.557,1.557,0,0,1-2.606-.7l.583-.157a.955.955,0,0,0,1.6.426.945.945,0,0,0,.241-.941L20.1,82.5A1.577,1.577,0,0,1,19.706,84.041Z" transform="translate(-17.1 -82.5)"/></g></g></g></g></svg>