<?xml version="1.0" encoding="utf-8"?>
<!-- Generator: Adobe Illustrator 25.1.0, SVG Export Plug-In . SVG Version: 6.00 Build 0)  -->
<svg version="1.1" id="Layer_1" xmlns="http://www.w3.org/2000/svg" xmlns:xlink="http://www.w3.org/1999/xlink" x="0px" y="0px"
	 viewBox="0 0 128 80" style="enable-background:new 0 0 128 80;" xml:space="preserve">
<style type="text/css">
	.st0{fill-rule:evenodd;clip-rule:evenodd;fill:#FFFFFF;}
	.st1{fill:#949494;}
	.st2{fill:#424242;}
	.st3{fill:#4D4D4D;}
	.st4{fill:#DC1C4B;}
	.st5{fill:#87D1EE;}
	.st6{fill:#043146;}
	.st7{fill:#7C7C7C;}
	.st8{fill:#3EC2E5;}
	.st9{opacity:0.08;}
	.st10{fill:#2276BC;}
	.st11{fill:#D0E2EE;}
	.st12{fill:#FFFFFF;}
</style>
<g>
	<g>
		<g>
			<g>
				<g>
					<polygon class="st0" points="98.26,72.31 99.41,71.16 97.61,69.35 96.46,70.5 					"/>
					<polygon class="st0" points="101.48,75.56 102.63,74.4 100.83,72.59 99.68,73.74 					"/>
				</g>
				<g>
					<polygon class="st0" points="65.93,39.74 67.08,38.59 65.27,36.77 64.13,37.93 					"/>
				</g>
				<g>
					<polygon class="st0" points="59.46,33.22 60.6,32.07 58.8,30.25 57.66,31.41 					"/>
					<polygon class="st0" points="62.68,36.46 63.82,35.31 62.02,33.5 60.88,34.65 					"/>
				</g>
			</g>
			<g>
				<g>
					<g>
						<path class="st1" d="M89.57,68.46l0.89,0.28c0.38,0.12,0.79,0.02,1.07-0.26l2.01-2.03l0,0l2.01-2.03
							c0.28-0.28,0.38-0.7,0.26-1.08l-0.28-0.9L89.57,68.46z"/>
						<path class="st2" d="M90.78,68.89c-0.12,0-0.23-0.02-0.35-0.05l-1.03-0.33l6.17-6.22l0.33,1.03c0.13,0.41,0.02,0.86-0.28,1.17
							l-4.03,4.06C91.37,68.77,91.08,68.89,90.78,68.89z M89.73,68.42l0.75,0.24c0.35,0.11,0.73,0.02,0.99-0.24l4.03-4.06
							c0.26-0.26,0.35-0.64,0.24-0.99l-0.24-0.76L89.73,68.42z"/>
					</g>
					<g>
						<path class="st3" d="M87.6,68.21l1.15,0.37c0.49,0.16,1.02,0.02,1.38-0.34l2.59-2.61l0,0l2.59-2.61
							c0.36-0.36,0.49-0.9,0.34-1.39l-0.36-1.15L87.6,68.21z"/>
						<path class="st2" d="M89.16,68.73c-0.15,0-0.3-0.02-0.44-0.07l-1.28-0.41l7.89-7.95l0.41,1.29c0.17,0.52,0.03,1.09-0.36,1.48
							l-5.19,5.23C89.91,68.58,89.54,68.73,89.16,68.73z M87.76,68.17l1.01,0.32c0.46,0.15,0.95,0.02,1.29-0.32l5.19-5.23
							c0.34-0.34,0.46-0.84,0.32-1.3l-0.32-1.02L87.76,68.17z"/>
					</g>
				</g>
				<g>
					<g>
						<path class="st4" d="M89.37,54.79c0,0,8.79-4.33,14.95,2.72c0,0-11.12-0.1-12.92,4.13L89.37,54.79z"/>
					</g>
					<g>
						<path class="st4" d="M82.01,62.2c0,0-4.3,8.86,2.7,15.06c0,0-0.1-11.2,4.1-13.01L82.01,62.2z"/>
					</g>
				</g>
				<path class="st4" d="M76.27,42.66c-2.66-1.15-5.54-1.98-8.64-2.3l0.01,0.01l-0.01-0.01c0.31,3.08,1.12,5.96,2.25,8.62
					C71,47.14,72.98,44.67,76.27,42.66z"/>
				<path class="st5" d="M76.58,42.79L76.58,42.79l-0.31-0.14c-4.4,2.62-6.39,6.32-6.39,6.32l0.17,0.4c0,0,0,0,0,0
					c4.6,10.46,14.04,17.33,16.8,19.17c0.44,0.3,1.04,0.24,1.41-0.14l0.49-0.5l6.27-6.32l0.44-0.45c0.38-0.38,0.44-0.98,0.14-1.42
					C93.78,56.94,86.97,47.42,76.58,42.79z"/>
				<g>
					<g>
						<ellipse class="st6" cx="79.02" cy="52.09" rx="3.8" ry="3.82"/>
						<path class="st2" d="M79.02,56c-0.99,0-1.99-0.38-2.75-1.14c-0.73-0.74-1.14-1.72-1.14-2.77s0.4-2.03,1.14-2.77
							c1.51-1.52,3.98-1.53,5.49,0l0,0c0.73,0.74,1.14,1.72,1.14,2.77s-0.4,2.03-1.14,2.77C81.01,55.62,80.01,56,79.02,56z
							 M79.02,48.35c-0.95,0-1.9,0.36-2.62,1.09c-0.7,0.71-1.09,1.64-1.09,2.64s0.39,1.94,1.09,2.64c1.45,1.46,3.8,1.46,5.24,0
							c0.7-0.71,1.09-1.64,1.09-2.64s-0.39-1.94-1.09-2.64C80.92,48.72,79.97,48.35,79.02,48.35z"/>
					</g>
					<g>
						<ellipse class="st7" cx="79.27" cy="52.08" rx="2.9" ry="2.93"/>
						<path class="st2" d="M79.27,55.09c-0.77,0-1.53-0.29-2.12-0.88c-0.57-0.57-0.88-1.33-0.88-2.13c0-0.8,0.31-1.56,0.88-2.13
							c0.56-0.57,1.32-0.88,2.12-0.88c0,0,0,0,0,0c0.8,0,1.55,0.31,2.12,0.88c1.17,1.17,1.17,3.09,0,4.26
							C80.81,54.8,80.04,55.09,79.27,55.09z M79.27,49.24c-0.75,0-1.46,0.3-1.99,0.83c-0.53,0.54-0.83,1.25-0.83,2.01
							c0,0.76,0.29,1.47,0.83,2.01c1.1,1.11,2.89,1.11,3.98,0c1.1-1.11,1.1-2.91,0-4.01C80.73,49.54,80.03,49.24,79.27,49.24z"/>
					</g>
					<g>
						<ellipse class="st8" cx="79.02" cy="52.09" rx="2.88" ry="2.9"/>
						<path class="st2" d="M79.02,55.07c-0.76,0-1.52-0.29-2.1-0.87c-1.16-1.16-1.16-3.06,0-4.22c1.16-1.16,3.04-1.16,4.19,0l0,0
							c1.16,1.16,1.16,3.06,0,4.22C80.54,54.78,79.78,55.07,79.02,55.07z M79.02,49.28c-0.71,0-1.43,0.27-1.97,0.82
							c-1.09,1.1-1.09,2.88,0,3.97c1.09,1.1,2.86,1.1,3.94,0c1.09-1.1,1.09-2.88,0-3.97C80.45,49.55,79.73,49.28,79.02,49.28z"/>
					</g>
					<g class="st9">
						<g>
							<path d="M77.46,50.25c0.81-0.81,1.97-1.04,2.98-0.69c-1.1-0.63-2.52-0.47-3.45,0.47c-1.12,1.13-1.12,2.97,0,4.1
								c0.32,0.32,0.69,0.55,1.09,0.69c-0.22-0.13-0.43-0.28-0.62-0.47C76.33,53.22,76.33,51.39,77.46,50.25z"/>
							<path class="st2" d="M78.05,54.9c-0.43-0.15-0.81-0.39-1.12-0.71c-0.56-0.56-0.87-1.31-0.87-2.11s0.31-1.55,0.87-2.11
								c0.94-0.95,2.4-1.14,3.56-0.48l-0.07,0.16c-1.02-0.36-2.13-0.1-2.89,0.66l0,0c-1.09,1.1-1.09,2.88,0,3.97
								c0.17,0.17,0.37,0.33,0.6,0.46L78.05,54.9z M79.02,49.28c-0.72,0-1.44,0.28-1.97,0.82c-0.53,0.53-0.82,1.24-0.82,1.99
								c0,0.75,0.29,1.46,0.82,1.99c0.07,0.07,0.14,0.14,0.22,0.2c-1.02-1.17-0.98-2.96,0.13-4.08l0,0
								c0.56-0.57,1.31-0.87,2.07-0.87C79.32,49.29,79.17,49.28,79.02,49.28z"/>
						</g>
					</g>
				</g>
				<path class="st4" d="M86.51,59.32c2.8,7.24,9.3,9.37,9.3,9.37S93.7,62.14,86.51,59.32z"/>
			</g>
		</g>
		<g>
			<g>
				<g>
					<polygon class="st0" points="68.51,8.18 67.36,7.02 65.56,8.84 66.71,9.99 					"/>
					<polygon class="st0" points="71.74,4.92 70.59,3.77 68.79,5.58 69.93,6.74 					"/>
					<polygon class="st0" points="74.95,1.68 73.81,0.53 72.01,2.34 73.15,3.5 					"/>
				</g>
				<g>
					<polygon class="st0" points="65.25,11.45 64.11,10.3 62.31,12.11 63.45,13.27 					"/>
				</g>
				<g>
					<polygon class="st0" points="29.7,47.27 28.56,46.12 26.76,47.93 27.9,49.08 					"/>
					<polygon class="st0" points="32.93,44.02 31.79,42.86 29.98,44.68 31.13,45.83 					"/>
				</g>
			</g>
			<g>
				<g>
					<g>
						<path class="st1" d="M33.77,36.16l-0.28,0.9c-0.12,0.38-0.02,0.8,0.26,1.08l2.01,2.03l0,0l2.01,2.03
							c0.28,0.28,0.69,0.38,1.07,0.26l0.89-0.28L33.77,36.16z"/>
						<path class="st2" d="M38.53,42.6c-0.3,0-0.59-0.12-0.81-0.34l-4.03-4.06c-0.31-0.31-0.41-0.76-0.28-1.17L33.73,36l6.17,6.22
							l-1.03,0.33C38.76,42.58,38.65,42.6,38.53,42.6z M33.81,36.33l-0.24,0.76c-0.11,0.35-0.02,0.73,0.24,0.99l4.03,4.06
							c0.26,0.26,0.64,0.35,0.99,0.24l0.75-0.24L33.81,36.33z"/>
					</g>
					<g>
						<path class="st3" d="M34.02,34.18l-0.36,1.15c-0.15,0.49-0.02,1.03,0.34,1.39l2.59,2.61l0,0l2.59,2.61
							c0.36,0.36,0.89,0.5,1.38,0.34l1.15-0.37L34.02,34.18z"/>
						<path class="st2" d="M40.15,42.44c-0.38,0-0.75-0.15-1.03-0.43l-5.19-5.23c-0.39-0.39-0.52-0.96-0.36-1.48l0.41-1.29
							l7.89,7.95l-1.28,0.41C40.45,42.42,40.3,42.44,40.15,42.44z M34.06,34.34l-0.32,1.02c-0.15,0.46-0.02,0.96,0.32,1.3l5.19,5.23
							c0.34,0.34,0.84,0.46,1.29,0.32l1.01-0.32L34.06,34.34z"/>
					</g>
				</g>
				<g>
					<g>
						<path class="st10" d="M47.35,35.97c0,0,4.3,8.86-2.7,15.06c0,0,0.1-11.2-4.1-13.01L47.35,35.97z"/>
					</g>
					<g>
						<path class="st10" d="M39.99,28.55c0,0-8.79-4.33-14.95,2.72c0,0,11.12-0.1,12.92,4.13L39.99,28.55z"/>
					</g>
				</g>
				<path class="st10" d="M59.39,22.77c1.14-2.68,1.97-5.59,2.28-8.7l-0.01,0.01l0.01-0.01c-3.06,0.31-5.92,1.13-8.55,2.26
					C54.94,17.46,57.4,19.45,59.39,22.77z"/>
				<path class="st4" d="M59.26,23.08L59.26,23.08l0.14-0.31c-2.6-4.43-6.28-6.44-6.28-6.44l-0.39,0.17c0,0,0,0,0,0
					c-10.38,4.63-17.2,14.14-19.03,16.92c-0.29,0.45-0.23,1.04,0.14,1.42l0.49,0.5l6.27,6.32l0.44,0.45
					c0.38,0.38,0.97,0.44,1.41,0.14C45.22,40.41,54.66,33.54,59.26,23.08z"/>
				<g>
					<g>
						<ellipse class="st6" cx="50.03" cy="25.53" rx="3.8" ry="3.82"/>
						<path class="st2" d="M50.03,29.45c-1.04,0-2.01-0.41-2.75-1.15c-0.73-0.74-1.14-1.72-1.14-2.77c0-1.04,0.4-2.03,1.14-2.77
							c0.73-0.74,1.71-1.15,2.75-1.15c1.04,0,2.01,0.41,2.75,1.15c0.73,0.74,1.14,1.72,1.14,2.77c0,1.04-0.4,2.03-1.14,2.77l0,0
							C52.04,29.04,51.07,29.45,50.03,29.45z M50.03,21.8c-0.99,0-1.92,0.39-2.62,1.09c-0.7,0.71-1.09,1.64-1.09,2.64
							c0,1,0.39,1.94,1.09,2.64c0.7,0.71,1.63,1.09,2.62,1.09c0.99,0,1.92-0.39,2.62-1.09l0,0c0.7-0.71,1.09-1.64,1.09-2.64
							c0-1-0.39-1.94-1.09-2.64C51.95,22.19,51.02,21.8,50.03,21.8z"/>
					</g>
					<g>
						<ellipse class="st7" cx="50.04" cy="25.79" rx="2.9" ry="2.93"/>
						<path class="st2" d="M50.04,28.8c-0.77,0-1.53-0.29-2.12-0.88c-1.17-1.17-1.17-3.09,0-4.26c0.56-0.57,1.32-0.88,2.12-0.88
							c0.8,0,1.55,0.31,2.12,0.88c1.17,1.17,1.17,3.09,0,4.26l0,0C51.57,28.51,50.8,28.8,50.04,28.8z M50.04,22.95
							c-0.75,0-1.46,0.3-1.99,0.83c-1.1,1.11-1.1,2.91,0,4.01c1.1,1.11,2.89,1.11,3.98,0c1.1-1.11,1.1-2.91,0-4.01
							C51.5,23.25,50.79,22.95,50.04,22.95z"/>
					</g>
					<g>
						<ellipse class="st8" cx="50.03" cy="25.53" rx="2.88" ry="2.9"/>
						<path class="st2" d="M50.03,28.52c-0.76,0-1.52-0.29-2.1-0.87c-0.56-0.56-0.87-1.31-0.87-2.11c0-0.8,0.31-1.55,0.87-2.11
							c1.16-1.16,3.04-1.16,4.19,0c1.16,1.16,1.16,3.06,0,4.22l0,0C51.55,28.23,50.79,28.52,50.03,28.52z M50.03,22.73
							c-0.71,0-1.43,0.27-1.97,0.82c-0.53,0.53-0.82,1.24-0.82,1.99c0,0.75,0.29,1.46,0.82,1.99c1.09,1.1,2.86,1.1,3.94,0
							c1.09-1.1,1.09-2.88,0-3.97C51.46,23,50.75,22.73,50.03,22.73z"/>
					</g>
					<g class="st9">
						<g>
							<path d="M51.85,23.96c0.81,0.81,1.03,1.98,0.68,3c0.62-1.11,0.47-2.53-0.47-3.48c-1.12-1.13-2.94-1.13-4.07,0
								c-0.32,0.32-0.54,0.7-0.68,1.1c0.13-0.22,0.28-0.43,0.47-0.62C48.91,22.83,50.73,22.83,51.85,23.96z"/>
							<path class="st2" d="M52.61,27.01l-0.16-0.07c0.35-1.03,0.1-2.14-0.66-2.91c-1.09-1.1-2.86-1.1-3.94,0
								c-0.17,0.17-0.33,0.38-0.45,0.6l-0.16-0.07c0.15-0.43,0.38-0.81,0.7-1.13c1.16-1.16,3.04-1.16,4.19,0
								C53.07,24.37,53.26,25.84,52.61,27.01z M49.82,23.03c0.76,0,1.52,0.29,2.1,0.87l0,0c0.56,0.57,0.87,1.32,0.87,2.09
								c0.14-0.87-0.13-1.79-0.78-2.44c-1.09-1.1-2.86-1.1-3.94,0c-0.07,0.07-0.13,0.14-0.2,0.22
								C48.42,23.27,49.12,23.03,49.82,23.03z"/>
						</g>
					</g>
				</g>
				<path class="st10" d="M42.85,33.08c-7.18,2.82-9.3,9.37-9.3,9.37S40.06,40.32,42.85,33.08z"/>
			</g>
		</g>
	</g>
	<ellipse class="st11" cx="26.72" cy="35.2" rx="0.81" ry="0.82"/>
	<ellipse class="st11" cx="48.53" cy="10.02" rx="0.81" ry="0.82"/>
	<ellipse class="st11" cx="100.23" cy="49.49" rx="0.81" ry="0.82"/>
	<ellipse class="st11" cx="89.43" cy="79.18" rx="0.81" ry="0.82"/>
	<ellipse class="st11" cx="73.92" cy="75.76" rx="0.81" ry="0.82"/>
	<ellipse class="st11" cx="81.52" cy="36.64" rx="0.81" ry="0.82"/>
	<ellipse class="st11" cx="56.4" cy="6.42" rx="0.81" ry="0.82"/>
	<ellipse class="st11" cx="90.04" cy="26.55" rx="0.81" ry="0.82"/>
	<ellipse class="st11" cx="94.25" cy="14.21" rx="0.81" ry="0.82"/>
	<ellipse class="st11" cx="75.98" cy="23.62" rx="0.81" ry="0.82"/>
	<ellipse class="st11" cx="56.79" cy="59.52" rx="0.81" ry="0.82"/>
	<ellipse class="st11" cx="39.27" cy="10.85" rx="0.81" ry="0.82"/>
	<ellipse class="st11" cx="36.74" cy="67.58" rx="0.81" ry="0.82"/>
	<path class="st12" d="M37.88,15.01l0.66,1.51c0.18,0.44,0.33,0.78,0.45,1.1h0.04c0.27-0.38,0.41-0.61,0.75-1.04l1.26-1.57h1.36
		l-2.88,3.36l1.61,3.53h-1.27l-0.69-1.55c-0.23-0.51-0.33-0.78-0.49-1.22h-0.03c-0.21,0.33-0.41,0.64-0.71,1.05l-1.39,1.72H35.2
		l3-3.55l-1.58-3.35H37.88z"/>
	<path class="st12" d="M69.09,58.94l0.68,3.72c0.16,0.78,0.24,1.3,0.31,1.81h0.03c0.18-0.44,0.38-0.93,0.73-1.68l1.74-3.84h1.24
		l-2.56,5.24c-0.73,1.49-1.43,2.71-2.36,3.62c-0.76,0.78-1.6,1.11-1.99,1.2l-0.28-1.01c0.3-0.11,0.79-0.3,1.26-0.67
		c0.45-0.36,0.95-0.91,1.31-1.58c0.06-0.11,0.06-0.2,0.04-0.31l-1.37-6.48H69.09z"/>
</g>
</svg>
