<?xml version="1.0" encoding="utf-8"?>
<!-- Generator: Adobe Illustrator 25.1.0, SVG Export Plug-In . SVG Version: 6.00 Build 0)  -->
<svg version="1.1" id="Layer_1" xmlns="http://www.w3.org/2000/svg" xmlns:xlink="http://www.w3.org/1999/xlink" width="128" height="80"
	 viewBox="0 0 133.27 133.27" style="enable-background:new 0 0 128 80;" xml:space="preserve">
<style type="text/css">
	.st0{fill:#D0E2EE;}
	.st1{fill-rule:evenodd;clip-rule:evenodd;fill:#FFFFFF;}
	.st2{fill:#1D5C87;}
	.st3{fill:#05CE7C;}
	.st4{fill:#AABFD0;}
	.st5{opacity:0.4;}
	.st6{fill:#6E9AAF;}
	.st7{fill:#EC7523;}
	.st8{fill:#FEBE40;}
	.st9{fill:#FFF79C;}
</style>
<g>
	<circle class="st0" cx="22.93" cy="105.24" r="1.02"/>
	<circle class="st0" cx="41.63" cy="30.4" r="1.02"/>
	<circle class="st0" cx="25.54" cy="15.77" r="1.02"/>
	<circle class="st0" cx="119.19" cy="102.39" r="1.02"/>
	<circle class="st0" cx="116.4" cy="91.94" r="1.02"/>
	<circle class="st0" cx="22.52" cy="42.63" r="1.02"/>
	<circle class="st0" cx="75.56" cy="10.06" r="1.02"/>
	<circle class="st0" cx="14.98" cy="26.05" r="1.02"/>
	<circle class="st0" cx="73.52" cy="118.18" r="1.02"/>
	<circle class="st0" cx="16" cy="121.28" r="1.02"/>
	<circle class="st0" cx="37.29" cy="115.75" r="1.02"/>
	<circle class="st0" cx="63.6" cy="24.67" r="1.02"/>
	<circle class="st0" cx="123.36" cy="69.27" r="1.02"/>
	<g>
		<g>
			
				<rect x="61.17" y="53.21" transform="matrix(0.9487 -0.3162 0.3162 0.9487 -14.043 22.9214)" class="st1" width="4.88" height="3.05"/>
			
				<rect x="69.47" y="50.44" transform="matrix(0.9487 -0.3162 0.3162 0.9487 -12.7429 25.4032)" class="st1" width="4.88" height="3.05"/>
			
				<rect x="77.74" y="47.69" transform="matrix(0.9487 -0.3162 0.3162 0.9487 -11.4476 27.8781)" class="st1" width="4.88" height="3.05"/>
			
				<rect x="36.23" y="61.52" transform="matrix(0.9487 -0.3162 0.3162 0.9487 -17.9511 15.462)" class="st1" width="4.88" height="3.05"/>
			
				<rect x="44.53" y="58.76" transform="matrix(0.9487 -0.3162 0.3162 0.9487 -16.6535 17.945)" class="st1" width="4.88" height="3.05"/>
			
				<rect x="52.81" y="56" transform="matrix(0.9487 -0.3162 0.3162 0.9487 -15.3542 20.4215)" class="st1" width="4.88" height="3.05"/>
			
				<rect x="96.74" y="73.37" transform="matrix(0.0959 -0.9954 0.9954 0.0959 15.0095 166.3177)" class="st1" width="4.64" height="3.05"/>
			
				<rect x="97.54" y="65.09" transform="matrix(0.0959 -0.9954 0.9954 0.0959 23.9784 159.6252)" class="st1" width="4.64" height="3.05"/>
			
				<rect x="98.33" y="56.83" transform="matrix(0.0959 -0.9954 0.9954 0.0959 32.9149 152.9436)" class="st1" width="4.64" height="3.05"/>
			
				<rect x="94.35" y="98.24" transform="matrix(0.0959 -0.9954 0.9954 0.0959 -11.9105 186.4195)" class="st1" width="4.64" height="3.05"/>
			
				<rect x="95.15" y="89.97" transform="matrix(0.0959 -0.9954 0.9954 0.0959 -2.9524 179.735)" class="st1" width="4.64" height="3.05"/>
			
				<rect x="95.94" y="81.71" transform="matrix(0.0959 -0.9954 0.9954 0.0959 5.9845 173.0533)" class="st1" width="4.64" height="3.05"/>
			
				<rect x="54.35" y="85.54" transform="matrix(0.467 -0.8843 0.8843 0.467 -48.6641 96.6961)" class="st1" width="3.05" height="6.34"/>
			
				<rect x="44.31" y="80.24" transform="matrix(0.467 -0.8843 0.8843 0.467 -49.3235 84.9847)" class="st1" width="3.05" height="6.34"/>
			
				<rect x="34.29" y="74.95" transform="matrix(0.467 -0.8843 0.8843 0.467 -49.9915 73.3091)" class="st1" width="3.05" height="6.34"/>
			
				<rect x="84.55" y="101.49" transform="matrix(0.467 -0.8843 0.8843 0.467 -46.6679 131.8979)" class="st1" width="3.05" height="6.34"/>
			
				<rect x="74.5" y="96.17" transform="matrix(0.467 -0.8843 0.8843 0.467 -47.3271 120.1746)" class="st1" width="3.05" height="6.34"/>
			
				<rect x="64.48" y="90.89" transform="matrix(0.467 -0.8843 0.8843 0.467 -47.9958 108.5003)" class="st1" width="3.05" height="6.34"/>
		</g>
		<g>
			<path class="st2" d="M39.32,69.07c0,8.69-7.05,15.74-15.74,15.74c-2.47,0-4.82-0.57-6.9-1.59c-1.88-0.92-3.54-2.2-4.91-3.75
				c-0.63-0.71-1.19-1.48-1.68-2.3c-0.7-1.16-1.25-2.42-1.63-3.75c-0.4-1.38-0.61-2.85-0.61-4.36c0-1.49,0.21-2.92,0.59-4.29
				c0.37-1.33,0.92-2.59,1.61-3.75c2.74-4.62,7.78-7.71,13.54-7.71c5.5,0,10.34,2.82,13.16,7.09c0.76,1.15,1.37,2.41,1.81,3.75
				C39.05,65.71,39.32,67.36,39.32,69.07z"/>
			<g>
				<path class="st3" d="M38.54,64.17H26.75c-1.03,0-1.87-0.84-1.87-1.87c0-0.52,0.21-0.99,0.55-1.32c0.34-0.34,0.81-0.55,1.32-0.55
					h9.98C37.5,61.58,38.11,62.83,38.54,64.17z"/>
				<path class="st3" d="M35.85,70.21H21.49c-0.92,0-1.67-0.75-1.67-1.67v-0.41c0-0.92,0.75-1.67,1.67-1.67h14.36
					c0.92,0,1.67,0.75,1.67,1.67v0.41C37.52,69.47,36.77,70.21,35.85,70.21z"/>
				<rect x="27.76" y="63.31" class="st3" width="2.52" height="4.24"/>
			</g>
			<g>
				<path class="st3" d="M19.82,75.3c0,1.03-0.84,1.87-1.87,1.87h-7.86c-0.7-1.16-1.25-2.42-1.63-3.75h9.49
					c0.52,0,0.99,0.21,1.32,0.55C19.61,74.32,19.82,74.79,19.82,75.3z"/>
				<path class="st3" d="M24.88,81.35c0,1.03-0.84,1.87-1.87,1.87h-6.32c-1.88-0.92-3.54-2.2-4.91-3.75H23
					c0.52,0,0.99,0.21,1.32,0.55C24.67,80.36,24.88,80.83,24.88,81.35z"/>
				<rect x="14.42" y="76.32" class="st3" width="2.52" height="4.24"/>
			</g>
			<g>
				<path class="st3" d="M15.68,62.91c0,1.03-0.84,1.87-1.87,1.87H8.43c0.37-1.33,0.92-2.59,1.61-3.75h3.76
					c0.52,0,0.99,0.21,1.32,0.55C15.47,61.92,15.68,62.39,15.68,62.91z"/>
			</g>
		</g>
		<g>
			<circle class="st4" cx="96.67" cy="111.36" r="7.56"/>
			<g class="st5">
				<circle class="st6" cx="99.39" cy="110.09" r="3.23"/>
			</g>
			<g class="st5">
				<circle class="st6" cx="94.6" cy="108.47" r="1.29"/>
			</g>
			<g class="st5">
				<circle class="st6" cx="92.91" cy="115.39" r="1.29"/>
			</g>
			<g class="st5">
				<circle class="st6" cx="96.17" cy="106.86" r="0.55"/>
			</g>
			<g class="st5">
				<circle class="st6" cx="94.6" cy="116.68" r="0.33"/>
			</g>
			<g class="st5">
				<path class="st6" d="M91.23,112.53c-0.65,0-1.18-0.53-1.18-1.18s0.53-1.18,1.18-1.18s1.18,0.53,1.18,1.18
					S91.88,112.53,91.23,112.53z M91.23,110.45c-0.5,0-0.9,0.4-0.9,0.9s0.4,0.9,0.9,0.9s0.9-0.4,0.9-0.9
					C92.13,110.86,91.73,110.45,91.23,110.45z"/>
			</g>
			<g class="st5">
				<path class="st6" d="M98.36,117.16c-0.65,0-1.18-0.53-1.18-1.18s0.53-1.18,1.18-1.18s1.18,0.53,1.18,1.18
					C99.54,116.63,99.01,117.16,98.36,117.16z M98.36,115.08c-0.5,0-0.9,0.4-0.9,0.9s0.4,0.9,0.9,0.9s0.9-0.4,0.9-0.9
					C99.26,115.49,98.86,115.08,98.36,115.08z"/>
			</g>
		</g>
		<g>
			<path class="st7" d="M100.8,59.61c-13.38,0-24.27-10.89-24.27-24.27s10.89-24.27,24.27-24.27s24.27,10.89,24.27,24.27
				S114.18,59.61,100.8,59.61z M100.8,15.43c-10.98,0-19.92,8.94-19.92,19.92s8.94,19.92,19.92,19.92s19.92-8.94,19.92-19.92
				S111.79,15.43,100.8,15.43z"/>
		</g>
		<g>
			<path class="st8" d="M100.8,50.98c-8.62,0-15.63-7.01-15.63-15.63s7.01-15.63,15.63-15.63s15.63,7.01,15.63,15.63
				S109.42,50.98,100.8,50.98z"/>
		</g>
		<g>
			<g>
				<path class="st9" d="M100.8,43.28c-4.37,0-7.93-3.56-7.93-7.93s3.56-7.93,7.93-7.93s7.93,3.56,7.93,7.93
					S105.18,43.28,100.8,43.28z"/>
			</g>
		</g>
	</g>
</g>
</svg>
