<?xml version="1.0" encoding="utf-8"?>
<!-- Generator: Adobe Illustrator 25.1.0, SVG Export Plug-In . SVG Version: 6.00 Build 0)  -->
<svg version="1.1" id="Layer_1" xmlns="http://www.w3.org/2000/svg" xmlns:xlink="http://www.w3.org/1999/xlink" x="0px" y="0px"
	 viewBox="0 0 128 80" style="enable-background:new 0 0 128 80;" xml:space="preserve">
<style type="text/css">
	.st0{fill-rule:evenodd;clip-rule:evenodd;fill:#FFFFFF;}
	.st1{fill:#949494;}
	.st2{fill:#424242;}
	.st3{fill:#4D4D4D;}
	.st4{fill:#DC1C4B;}
	.st5{fill:#87D1EE;}
	.st6{fill:#043146;}
	.st7{fill:#7C7C7C;}
	.st8{fill:#3EC2E5;}
	.st9{opacity:0.08;}
	.st10{fill:#2276BC;}
	.st11{fill:#D0E2EE;}
	.st12{fill:#FFFFFF;}
</style>
<g>
	<g>
		<g>
			<g>
				<g>
					<polygon class="st0" points="27.88,44.77 29.15,46.03 31.15,44.04 29.88,42.78 					"/>
					<polygon class="st0" points="24.31,48.32 25.58,49.58 27.58,47.59 26.31,46.33 					"/>
				</g>
				<g>
					<polygon class="st0" points="63.79,9.12 65.06,10.38 67.06,8.4 65.79,7.13 					"/>
				</g>
				<g>
					<polygon class="st0" points="70.98,1.99 72.25,3.25 74.25,1.26 72.98,0 					"/>
					<polygon class="st0" points="67.4,5.53 68.68,6.8 70.68,4.81 69.4,3.55 					"/>
				</g>
			</g>
			<g>
				<g>
					<g>
						<path class="st1" d="M32.12,35.18l-0.31,0.98c-0.13,0.42-0.02,0.87,0.29,1.18l2.23,2.22l0,0l2.23,2.22
							c0.31,0.31,0.77,0.42,1.19,0.29l0.99-0.31L32.12,35.18z"/>
						<path class="st2" d="M31.66,36.52c0-0.13,0.02-0.26,0.06-0.39L32.08,35l6.85,6.8l-1.14,0.36c-0.46,0.14-0.95,0.02-1.29-0.31
							l-4.47-4.44C31.79,37.17,31.66,36.85,31.66,36.52z M32.17,35.36l-0.27,0.83c-0.12,0.38-0.02,0.8,0.27,1.09l4.47,4.44
							c0.29,0.29,0.71,0.39,1.09,0.26l0.84-0.26L32.17,35.36z"/>
					</g>
					<g>
						<path class="st3" d="M32.4,33.01L32,34.27c-0.17,0.54-0.03,1.13,0.37,1.52l2.88,2.86l0,0l2.88,2.86
							c0.4,0.4,0.99,0.54,1.54,0.37l1.27-0.4L32.4,33.01z"/>
						<path class="st2" d="M31.83,34.73c0-0.16,0.03-0.33,0.08-0.49l0.45-1.41l8.76,8.7l-1.42,0.45c-0.58,0.18-1.2,0.03-1.63-0.4
							l-5.76-5.72C32,35.56,31.83,35.15,31.83,34.73z M32.45,33.19l-0.36,1.11c-0.16,0.51-0.03,1.05,0.35,1.43l5.76,5.72
							c0.38,0.37,0.93,0.51,1.44,0.35l1.12-0.35L32.45,33.19z"/>
					</g>
				</g>
				<g>
					<g>
						<path class="st4" d="M47.21,34.97c0,0,4.77,9.69-2.99,16.48c0,0,0.12-12.26-4.55-14.24L47.21,34.97z"/>
					</g>
					<g>
						<path class="st4" d="M39.03,26.85c0,0-9.76-4.74-16.6,2.97c0,0,12.35-0.11,14.35,4.52L39.03,26.85z"/>
					</g>
				</g>
				<path class="st4" d="M60.58,20.53c1.27-2.93,2.19-6.11,2.53-9.52l-0.01,0.01L63.11,11c-3.4,0.34-6.58,1.24-9.5,2.48
					C55.63,14.71,58.36,16.9,60.58,20.53z"/>
				<path class="st5" d="M60.43,20.87L60.43,20.87l0.15-0.34c-2.89-4.85-6.97-7.05-6.97-7.05l-0.44,0.19c0,0,0,0,0,0
					c-11.53,5.07-19.1,15.48-21.14,18.52c-0.33,0.49-0.26,1.14,0.16,1.56l0.55,0.54l6.97,6.91l0.49,0.49
					c0.42,0.42,1.08,0.48,1.57,0.16C44.84,39.83,55.32,32.31,60.43,20.87z"/>
				<g>
					<g>
						<ellipse class="st6" cx="50.18" cy="23.55" rx="4.22" ry="4.18"/>
						<path class="st2" d="M45.87,23.55c0-1.1,0.42-2.19,1.26-3.03c0.81-0.81,1.9-1.25,3.05-1.25c1.15,0,2.23,0.45,3.05,1.25
							c1.68,1.67,1.68,4.38,0,6.05l0,0c-0.81,0.81-1.9,1.25-3.05,1.25c-1.15,0-2.23-0.45-3.05-1.25
							C46.29,25.74,45.87,24.65,45.87,23.55z M54.3,23.55c0-1.05-0.4-2.09-1.2-2.89c-0.78-0.77-1.81-1.2-2.91-1.2
							c-1.1,0-2.13,0.43-2.91,1.2c-1.61,1.59-1.61,4.19,0,5.78c0.78,0.77,1.81,1.2,2.91,1.2c1.1,0,2.13-0.43,2.91-1.2
							C53.9,25.64,54.3,24.6,54.3,23.55z"/>
					</g>
					<g>
						<ellipse class="st7" cx="50.19" cy="23.83" rx="3.23" ry="3.2"/>
						<path class="st2" d="M46.87,23.83c0-0.84,0.32-1.69,0.97-2.33c0.63-0.62,1.46-0.97,2.35-0.97c0.89,0,1.72,0.34,2.35,0.97
							c0.63,0.62,0.97,1.45,0.97,2.33c0,0,0,0,0,0c0,0.88-0.35,1.71-0.97,2.33c-1.3,1.29-3.4,1.29-4.7,0
							C47.19,25.52,46.87,24.68,46.87,23.83z M53.31,23.83c0-0.83-0.33-1.61-0.92-2.2c-0.59-0.59-1.38-0.91-2.21-0.91
							c-0.84,0-1.62,0.32-2.21,0.91c-1.22,1.21-1.22,3.18,0,4.39c1.22,1.21,3.2,1.21,4.42,0C52.99,25.44,53.31,24.66,53.31,23.83z"
							/>
					</g>
					<g>
						<ellipse class="st8" cx="50.18" cy="23.55" rx="3.19" ry="3.17"/>
						<path class="st2" d="M46.89,23.55c0-0.84,0.32-1.67,0.96-2.31c1.28-1.27,3.37-1.27,4.66,0c1.28,1.27,1.28,3.35,0,4.62l0,0
							c-1.28,1.27-3.37,1.27-4.66,0C47.21,25.22,46.89,24.39,46.89,23.55z M53.28,23.55c0-0.79-0.3-1.58-0.91-2.17
							c-1.21-1.2-3.17-1.2-4.38,0c-1.21,1.2-1.21,3.15,0,4.35c1.21,1.2,3.17,1.2,4.38,0C52.98,25.13,53.28,24.34,53.28,23.55z"/>
					</g>
					<g class="st9">
						<g>
							<path d="M52.2,21.83c0.89,0.89,1.14,2.17,0.76,3.28c0.69-1.21,0.52-2.77-0.52-3.81c-1.25-1.24-3.27-1.24-4.52,0
								c-0.35,0.35-0.6,0.76-0.76,1.2c0.14-0.24,0.31-0.47,0.52-0.68C48.93,20.59,50.95,20.59,52.2,21.83z"/>
							<path class="st2" d="M47.07,22.48c0.17-0.47,0.43-0.89,0.78-1.24c0.62-0.62,1.45-0.96,2.33-0.96c0.88,0,1.71,0.34,2.33,0.96
								c1.04,1.03,1.26,2.65,0.53,3.92l-0.18-0.08c0.39-1.13,0.11-2.34-0.73-3.18l0,0c-1.21-1.2-3.17-1.2-4.38,0
								c-0.19,0.19-0.36,0.41-0.5,0.66L47.07,22.48z M53.28,23.55c0-0.8-0.31-1.59-0.9-2.18c-0.59-0.58-1.36-0.9-2.19-0.9
								c-0.83,0-1.61,0.32-2.19,0.9c-0.08,0.08-0.15,0.16-0.22,0.24c1.29-1.13,3.27-1.08,4.5,0.15l0,0
								c0.63,0.62,0.96,1.44,0.96,2.29C53.26,23.88,53.28,23.72,53.28,23.55z"/>
						</g>
					</g>
				</g>
				<path class="st4" d="M42.21,31.81c-7.98,3.08-10.33,10.26-10.33,10.26S39.1,39.73,42.21,31.81z"/>
			</g>
		</g>
		<g>
			<g>
				<g>
					<polygon class="st0" points="57.69,71.57 58.96,72.84 60.94,70.84 59.68,69.57 					"/>
					<polygon class="st0" points="54.13,75.15 55.4,76.42 57.38,74.42 56.12,73.15 					"/>
					<polygon class="st0" points="50.58,78.73 51.85,80 53.83,78 52.57,76.73 					"/>
				</g>
				<g>
					<polygon class="st0" points="61.28,67.95 62.54,69.23 64.53,67.23 63.27,65.95 					"/>
				</g>
				<g>
					<polygon class="st0" points="100.48,28.47 101.74,29.74 103.72,27.74 102.46,26.47 					"/>
					<polygon class="st0" points="96.91,32.05 98.18,33.33 100.16,31.33 98.9,30.05 					"/>
				</g>
			</g>
			<g>
				<g>
					<g>
						<path class="st1" d="M95.99,40.71l0.31-0.99c0.13-0.42,0.02-0.88-0.29-1.19l-2.22-2.23l0,0l-2.22-2.23
							c-0.31-0.31-0.77-0.42-1.18-0.29l-0.98,0.31L95.99,40.71z"/>
						<path class="st2" d="M90.74,33.62c0.33,0,0.65,0.13,0.89,0.37l4.44,4.47c0.34,0.34,0.46,0.83,0.31,1.29l-0.36,1.14l-6.8-6.85
							l1.13-0.36C90.48,33.64,90.61,33.62,90.74,33.62z M95.94,40.53l0.26-0.84c0.12-0.39,0.02-0.81-0.26-1.09l-4.44-4.47
							c-0.29-0.29-0.7-0.39-1.09-0.27l-0.83,0.27L95.94,40.53z"/>
					</g>
					<g>
						<path class="st3" d="M95.71,42.9l0.4-1.27c0.17-0.54,0.03-1.13-0.37-1.54l-2.86-2.88l0,0l-2.86-2.88
							c-0.4-0.4-0.99-0.55-1.52-0.37l-1.26,0.4L95.71,42.9z"/>
						<path class="st2" d="M88.95,33.79c0.42,0,0.83,0.17,1.13,0.47l5.72,5.76c0.43,0.43,0.58,1.05,0.4,1.63l-0.45,1.42l-8.7-8.76
							l1.41-0.45C88.63,33.81,88.79,33.79,88.95,33.79z M95.67,42.72l0.35-1.12c0.16-0.51,0.03-1.06-0.35-1.44l-5.72-5.76
							c-0.37-0.38-0.92-0.51-1.43-0.35l-1.11,0.36L95.67,42.72z"/>
					</g>
				</g>
				<g>
					<g>
						<path class="st10" d="M81.01,40.93c0,0-4.74-9.76,2.97-16.6c0,0-0.11,12.35,4.52,14.35L81.01,40.93z"/>
					</g>
					<g>
						<path class="st10" d="M89.13,49.1c0,0,9.69,4.77,16.48-2.99c0,0-12.26,0.12-14.24-4.55L89.13,49.1z"/>
					</g>
				</g>
				<path class="st10" d="M67.74,55.48c-1.26,2.95-2.17,6.16-2.51,9.59l0.01-0.01l-0.01,0.01c3.38-0.34,6.53-1.24,9.43-2.49
					C72.65,61.34,69.94,59.13,67.74,55.48z"/>
				<path class="st4" d="M67.89,55.13L67.89,55.13l-0.15,0.34c2.87,4.88,6.92,7.1,6.92,7.1l0.43-0.19c0,0,0,0,0,0
					c11.45-5.11,18.96-15.59,20.98-18.66c0.33-0.49,0.26-1.15-0.16-1.57l-0.54-0.55l-6.91-6.97l-0.49-0.49
					c-0.42-0.42-1.07-0.49-1.56-0.16C83.37,36.03,72.96,43.6,67.89,55.13z"/>
				<g>
					<g>
						<ellipse class="st6" cx="78.06" cy="52.43" rx="4.18" ry="4.22"/>
						<path class="st2" d="M78.06,48.12c1.14,0,2.22,0.45,3.03,1.26c0.81,0.81,1.25,1.9,1.25,3.05c0,1.15-0.45,2.23-1.25,3.05
							c-0.81,0.81-1.88,1.26-3.03,1.26c-1.14,0-2.22-0.45-3.03-1.26c-0.81-0.81-1.25-1.9-1.25-3.05c0-1.15,0.45-2.23,1.25-3.05l0,0
							C75.84,48.57,76.92,48.12,78.06,48.12z M78.06,56.55c1.09,0,2.12-0.43,2.89-1.21s1.2-1.81,1.2-2.91s-0.43-2.13-1.2-2.91
							s-1.8-1.21-2.89-1.21c-1.09,0-2.12,0.43-2.89,1.21l0,0c-0.77,0.78-1.2,1.81-1.2,2.91s0.43,2.13,1.2,2.91
							C75.94,56.12,76.97,56.55,78.06,56.55z"/>
					</g>
					<g>
						<ellipse class="st7" cx="78.06" cy="52.15" rx="3.2" ry="3.23"/>
						<path class="st2" d="M78.06,48.83c0.84,0,1.69,0.32,2.33,0.97c1.29,1.3,1.29,3.4,0,4.7c-0.62,0.63-1.45,0.97-2.33,0.97
							c-0.88,0-1.71-0.35-2.33-0.97c-1.29-1.3-1.29-3.4,0-4.7l0,0C76.37,49.15,77.21,48.83,78.06,48.83z M78.06,55.28
							c0.83,0,1.61-0.33,2.2-0.92c1.21-1.22,1.21-3.2,0-4.42c-1.21-1.22-3.18-1.22-4.39,0c-1.21,1.22-1.21,3.2,0,4.42
							C76.45,54.95,77.23,55.28,78.06,55.28z"/>
					</g>
					<g>
						<ellipse class="st8" cx="78.06" cy="52.43" rx="3.17" ry="3.19"/>
						<path class="st2" d="M78.06,49.14c0.84,0,1.67,0.32,2.31,0.96c0.62,0.62,0.96,1.45,0.96,2.33c0,0.88-0.34,1.71-0.96,2.33
							c-1.27,1.28-3.35,1.28-4.62,0c-1.27-1.28-1.27-3.37,0-4.66l0,0C76.39,49.46,77.23,49.14,78.06,49.14z M78.06,55.53
							c0.79,0,1.57-0.3,2.17-0.91c0.58-0.59,0.9-1.36,0.9-2.19c0-0.83-0.32-1.61-0.9-2.19c-1.2-1.21-3.15-1.21-4.35,0
							c-1.2,1.21-1.2,3.17,0,4.38C76.49,55.23,77.27,55.53,78.06,55.53z"/>
					</g>
					<g class="st9">
						<g>
							<path d="M76.06,54.16c-0.89-0.89-1.14-2.19-0.75-3.31c-0.69,1.22-0.52,2.79,0.51,3.83c1.24,1.25,3.25,1.25,4.49,0
								c0.35-0.35,0.6-0.77,0.75-1.21c-0.14,0.24-0.31,0.48-0.51,0.68C79.3,55.41,77.29,55.41,76.06,54.16z"/>
							<path class="st2" d="M75.22,50.81l0.17,0.08c-0.39,1.13-0.11,2.36,0.73,3.21c1.2,1.21,3.15,1.21,4.35,0
								c0.19-0.19,0.36-0.42,0.5-0.66l0.17,0.08c-0.16,0.48-0.42,0.9-0.77,1.25c-1.27,1.28-3.35,1.28-4.62,0
								C74.72,53.72,74.5,52.09,75.22,50.81z M78.3,55.19c-0.84,0-1.67-0.32-2.31-0.96l0,0c-0.62-0.63-0.95-1.45-0.96-2.3
								c-0.16,0.96,0.14,1.97,0.86,2.69c1.2,1.21,3.15,1.21,4.35,0c0.08-0.08,0.15-0.16,0.22-0.24
								C79.84,54.92,79.07,55.19,78.3,55.19z"/>
						</g>
					</g>
				</g>
				<path class="st10" d="M85.98,44.11C93.89,41,96.23,33.77,96.23,33.77S89.06,36.13,85.98,44.11z"/>
			</g>
		</g>
	</g>
	<ellipse class="st11" cx="19.87" cy="33.82" rx="0.89" ry="0.9"/>
	<ellipse class="st11" cx="43.91" cy="6.05" rx="0.89" ry="0.9"/>
	<ellipse class="st11" cx="105.32" cy="44.06" rx="0.89" ry="0.9"/>
	<ellipse class="st11" cx="100.03" cy="72.39" rx="0.89" ry="0.9"/>
	<ellipse class="st11" cx="71.9" cy="78.54" rx="0.89" ry="0.9"/>
	<ellipse class="st11" cx="70.36" cy="38.71" rx="0.89" ry="0.9"/>
	<ellipse class="st11" cx="52.59" cy="2.09" rx="0.89" ry="0.9"/>
	<ellipse class="st11" cx="89.68" cy="24.28" rx="0.89" ry="0.9"/>
	<ellipse class="st11" cx="94.32" cy="10.68" rx="0.89" ry="0.9"/>
	<ellipse class="st11" cx="74.18" cy="21.05" rx="0.89" ry="0.9"/>
	<ellipse class="st11" cx="53.01" cy="60.62" rx="0.89" ry="0.9"/>
	<ellipse class="st11" cx="33.7" cy="6.97" rx="0.89" ry="0.9"/>
	<ellipse class="st11" cx="30.92" cy="69.52" rx="0.89" ry="0.9"/>
	<path class="st12" d="M32.17,11.56l0.73,1.66c0.2,0.49,0.36,0.86,0.5,1.21h0.05c0.3-0.42,0.45-0.67,0.83-1.15l1.39-1.73h1.5
		l-3.18,3.7l1.78,3.89h-1.4l-0.76-1.71c-0.25-0.57-0.36-0.86-0.55-1.35h-0.03c-0.23,0.36-0.45,0.71-0.78,1.16l-1.53,1.9h-1.5
		l3.3-3.91l-1.75-3.69H32.17z"/>
	<path class="st12" d="M89.73,61.09l0.75,4.1c0.17,0.86,0.26,1.43,0.34,1.99h0.03c0.2-0.49,0.42-1.02,0.81-1.85l1.92-4.24h1.37
		l-2.82,5.78c-0.81,1.65-1.57,2.98-2.6,3.99c-0.84,0.86-1.76,1.22-2.2,1.32l-0.31-1.11c0.33-0.13,0.87-0.33,1.39-0.74
		c0.5-0.39,1.04-1,1.45-1.74c0.06-0.13,0.06-0.22,0.05-0.35l-1.51-7.14H89.73z"/>
</g>
</svg>
