<?xml version="1.0" encoding="utf-8"?>
<!-- Generator: Adobe Illustrator 25.3.1, SVG Export Plug-In . SVG Version: 6.00 Build 0)  -->
<svg version="1.1" id="Layer_1" xmlns="http://www.w3.org/2000/svg" xmlns:xlink="http://www.w3.org/1999/xlink"
	 width="128" height="80" viewBox="0 0 133.3 133.3" style="enable-background:new 0 0 133.3 133.3;" xml:space="preserve">
<style type="text/css">
	.st1{fill:#FDC3AD;}
	.st2{fill:#C9AA9A;}
	.st3{fill:#0F2437;}
	.st4{fill:#326BA5;}
	.st5{fill:#FFFFFF;}
	.st6{opacity:0.49;fill:#F3AE99;}
	.st7{fill:#EF937E;}
	.st8{fill:#AC958A;}
</style>
<g>
	<g>
		<path class="st1" d="M104.9,78.9H26.5c-2,0-3.5-1.7-3.3-3.7l7.3-59.3c0.4-3.2,3.9-5.8,7.9-5.8h54.6c3.9,0,7.5,2.6,7.9,5.8
			l7.3,59.3C108.4,77.2,106.8,78.9,104.9,78.9z"/>
		<path class="st2" d="M32.4,42.8l2.3-21.6c0.1-0.7,0.8-1.3,1.7-1.3h58.9c0.9,0,1.6,0.6,1.7,1.3l2.3,21.6h4.8l-4-32.7H31.2l-4,32.7
			H32.4z"/>
	</g>
	<path class="st3" d="M42,133.3c0.5-6.3,0.9-11.6,1.1-15c0.9-16.7-0.3-34.9-11.5-29.7c0,0-8.3,7.3-8.2,44.7H42z"/>
	<path class="st3" d="M91.6,133.3h18.3c0.9-38.7-7.8-46.2-7.8-46.2C91,81.8,89.7,99.4,90.4,115.6C90.5,119.2,91,125.5,91.6,133.3z"
		/>
	<path class="st3" d="M37.4,115.4c-0.3,0.3-0.6,7.7-0.8,17.8h59c-0.7-7.8-1.2-13.3-1.3-13.8l3.4-33.8l-22.4-1.7
		c0,0-9.2,6.5-20.9-0.4L33.2,87c0,0,1.4,15.2,4.8,27.9C37.8,115.1,37.6,115.3,37.4,115.4z"/>
	<path class="st4" d="M80.1,133.3l-1.8-49.7c0,0-14.6,2.7-23.8-0.5c-1.8-0.6,1,28,2,50.2H80.1z"/>
	<path class="st4" d="M90.9,85.1l-2.6-0.3c0,0,0,0,0,0c0.4,0.1,0.6,0.1,0.7,0.1c0.5,0.2-3.7,13.6-3.7,13.6l3.5,1.8l-8.3,22.6
		l10.2-22.6l-4.2-2.5L90.9,85.1z"/>
	<path class="st5" d="M87,87.1c0,0.4-0.4,0.8-0.8,0.8c-0.4,0-0.8-0.4-0.8-0.8s0.4-0.8,0.8-0.8C86.6,86.3,87,86.7,87,87.1z"/>
	<path class="st5" d="M86.6,101.5c0,0.4-0.4,0.8-0.8,0.8c-0.4,0-0.8-0.4-0.8-0.8c0-0.4,0.4-0.8,0.8-0.8
		C86.3,100.7,86.6,101,86.6,101.5z"/>
	<path class="st4" d="M43.8,86.1l2.6-0.3c0,0,0,0,0,0c-0.4,0.1-0.6,0.1-0.7,0.1c-0.5,0.2,3.7,13.6,3.7,13.6l-3.5,1.8l8.3,22.6
		l-10.2-22.6l4.2-2.5L43.8,86.1z"/>
	<path class="st5" d="M47.6,88.2c0,0.4,0.4,0.8,0.8,0.8c0.4,0,0.8-0.4,0.8-0.8c0-0.4-0.4-0.8-0.8-0.8C48,87.4,47.6,87.7,47.6,88.2z"
		/>
	<path class="st5" d="M48,102.5c0,0.4,0.4,0.8,0.8,0.8s0.8-0.4,0.8-0.8c0-0.4-0.4-0.8-0.8-0.8C48.4,101.7,48,102.1,48,102.5z"/>
	<path class="st1" d="M55.1,68.5c0,0,1.5,11.7-1.3,16.6c0,0,12.5,8.3,23.3,0.5l0.5-16C77.7,69.6,66.1,62.7,55.1,68.5z"/>
	<path class="st1" d="M54.5,83.1c-0.3,0.1,2.8,18.4,12.5,18.4c0,0,11-1.4,11.2-17.9C78.3,83.6,60.1,80.9,54.5,83.1z"/>
	<g>
		<path class="st1" d="M104.6,39.1c0,0,5-3.3,6.2,1.7c1.3,4.9-3.3,14.8-9.1,11.8C101.8,52.6,99.1,40.5,104.6,39.1z"/>
		<path class="st6" d="M105.2,41.4c0,0,3.2-2.1,4,1.1c0.8,3.2-2.2,9.6-5.9,7.7C103.3,50.1,101.6,42.3,105.2,41.4z"/>
		<path class="st1" d="M26.3,40.3c0,0-4.3-2.6-4.7,2.4c-0.4,5,4.5,14.2,8.7,10.6C30.3,53.3,30.8,40.9,26.3,40.3z"/>
		<path class="st6" d="M25.8,43.9c0,0-2.6-1.4-2.2,1.8c0.3,3.2,3.8,8.7,5.6,6.1C29.2,51.8,28.2,44,25.8,43.9z"/>
	</g>
	<path class="st3" d="M49.7,34.7c0,0,6.4-3.5,10.3-1.1c0,0,1.1,1.8-1.4,2.5c-2.5,0.7-3.9-2.1-8.8,1.1C49.7,37.1,47.3,35.4,49.7,34.7
		z"/>
	<path class="st3" d="M81.4,34.3c0,0-6.4-3.5-10.3-1.1c0,0-1.1,1.8,1.4,2.5c2.5,0.7,3.9-2.1,8.8,1.1C81.4,36.8,83.9,35,81.4,34.3z"
		/>
	<path class="st5" d="M51.3,55.8c0,0,3.4,7.7,15.9,7.1c12.5-0.6,13.9-6.8,13.9-6.8S68.1,51.6,51.3,55.8z"/>
	<path class="st3" d="M61.3,71c0,0-3.5,1.8-2.2,6.8l0.9-2.2c0,0-1.2,5.5,1.2,7.7l0-2.5c0,0,0.2,5.1,3.9,6.6c0,0,4-3.5,4.8-6.9
		L69.8,83c0,0,2.9-3.1,2.8-6.6l0.8,1.2c0,0,0.3-3.9-2-6.3C71.3,71.3,66.5,73.6,61.3,71z"/>
	<ellipse class="st3" cx="55.7" cy="41.6" rx="1.4" ry="2.7"/>
	<ellipse class="st3" cx="76.3" cy="41.6" rx="1.4" ry="2.7"/>
	<path class="st3" d="M52.8,11.7c0,0,2.4-12.6,21.3-6.6c0,0,5.6,3.5,8.4,3.1c0,0-7.7,3.5-10.8,1.7c-3.1-1.7,7.7,0.3,9.4,7.7
		c0,0,1.7,2.8,3.8,1.7c2.1-1-4.9,6.6-15-0.3c0,0-2.4,4.2,3.1,5.2C73.1,24.3,50,27.8,52.8,11.7z"/>
	<path class="st7" d="M66.2,52.2h-0.4c-2.4,0-4.4-2-4.4-4.4V37.4c0-2.4,2-4.4,4.4-4.4h0.4c2.4,0,4.4,2,4.4,4.4v10.4
		C70.7,50.2,68.7,52.2,66.2,52.2z"/>
	<path class="st8" d="M63.7,98c0.9,0,0.9-1.4,0-1.4C62.8,96.5,62.8,98,63.7,98L63.7,98z"/>
	<path class="st8" d="M61.4,93.1c0,0-0.1,0.1-0.1,0.1c-0.7,0.7,0.4,1.7,1,1c0,0,0.1-0.1,0.1-0.1C63.1,93.5,62,92.5,61.4,93.1
		L61.4,93.1z"/>
	<path class="st8" d="M66.7,95.8c0,0,0.1,0,0.1,0c0.9,0,0.9-1.4,0-1.4c0,0-0.1,0-0.1,0C65.8,94.3,65.8,95.8,66.7,95.8L66.7,95.8z"/>
	<path class="st8" d="M71.4,93.7c0,0,0.1,0,0.1,0c0.9,0,0.9-1.4,0-1.4c0,0-0.1,0-0.1,0C70.5,92.3,70.5,93.7,71.4,93.7L71.4,93.7z"/>
	<path class="st8" d="M67.4,99.9c0.9,0,0.9-1.4,0-1.4C66.5,98.4,66.5,99.9,67.4,99.9L67.4,99.9z"/>
	<path class="st8" d="M70.5,96.9c0.9,0,0.9-1.4,0-1.4C69.5,95.4,69.5,96.9,70.5,96.9L70.5,96.9z"/>
	<g>
		<g>
			<path class="st8" d="M89.4,18.7c1.1,0,1.1-1.7,0-1.7C88.3,17.1,88.3,18.7,89.4,18.7L89.4,18.7z"/>
			<path class="st8" d="M86.7,13.1c0,0-0.1,0.1-0.1,0.1c-0.8,0.8,0.4,1.9,1.2,1.2c0,0,0.1-0.1,0.1-0.1
				C88.7,13.5,87.5,12.4,86.7,13.1L86.7,13.1z"/>
			<path class="st8" d="M92.9,16.2c0,0,0.1,0,0.1,0c1.1,0,1.1-1.7,0-1.7c0,0-0.1,0-0.1,0C91.8,14.6,91.8,16.2,92.9,16.2L92.9,16.2z"
				/>
			<path class="st8" d="M93.7,21c1.1,0,1.1-1.7,0-1.7C92.7,19.3,92.7,21,93.7,21L93.7,21z"/>
			<path class="st8" d="M97.2,17.5c1.1,0,1.1-1.7,0-1.7C96.2,15.8,96.2,17.5,97.2,17.5L97.2,17.5z"/>
		</g>
	</g>
	<g>
		<g>
			<path class="st8" d="M42,18.7c-1.1,0-1.1-1.7,0-1.7C43.1,17.1,43.1,18.7,42,18.7L42,18.7z"/>
			<path class="st8" d="M44.7,13.1c0,0,0.1,0.1,0.1,0.1c0.8,0.8-0.4,1.9-1.2,1.2c0,0-0.1-0.1-0.1-0.1C42.7,13.5,43.9,12.4,44.7,13.1
				L44.7,13.1z"/>
			<path class="st8" d="M38.5,16.2c0,0-0.1,0-0.1,0c-1.1,0-1.1-1.7,0-1.7c0,0,0.1,0,0.1,0C39.6,14.6,39.6,16.2,38.5,16.2L38.5,16.2z
				"/>
			<path class="st8" d="M37.7,21c-1.1,0-1.1-1.7,0-1.7C38.7,19.3,38.7,21,37.7,21L37.7,21z"/>
			<path class="st8" d="M34.2,17.5c-1.1,0-1.1-1.7,0-1.7C35.2,15.8,35.2,17.5,34.2,17.5L34.2,17.5z"/>
		</g>
	</g>
</g>
</svg>
