<?xml version="1.0" encoding="utf-8"?>
<!-- Generator: Adobe Illustrator 25.1.0, SVG Export Plug-In . SVG Version: 6.00 Build 0)  -->
<svg version="1.1" id="Layer_1" xmlns="http://www.w3.org/2000/svg" xmlns:xlink="http://www.w3.org/1999/xlink" width="128" height="80"
	 viewBox="0 0 133.27 133.27" style="enable-background:new 0 0 133.27 133.27;" xml:space="preserve">
<style type="text/css">
	.st1{fill:#FEBE40;}
	.st2{fill:#A4D7EA;}
	.st3{fill:#48A5E2;}
	.st4{fill:#182C35;}
	.st5{fill:#0F2027;}
	.st6{fill:#DC1C4B;}
	.st7{fill:#B31E48;}
	.st8{opacity:0.4;}
	.st9{fill:#FFFFFF;}
</style>
<polygon class="st1" points="66.64,36.9 75.94,7.9 75.83,38.36 93.64,13.65 84.11,42.58 108.69,24.58 90.69,49.16 119.63,39.64
	94.92,57.45 125.38,57.33 96.37,66.64 125.38,75.94 94.92,75.83 119.63,93.64 90.69,84.11 108.69,108.69 84.11,90.69 93.64,119.63
	75.83,94.92 75.94,125.38 66.64,96.37 57.33,125.38 57.45,94.92 39.64,119.63 49.16,90.69 24.58,108.69 42.58,84.11 13.65,93.64
	38.36,75.83 7.9,75.94 36.9,66.64 7.9,57.33 38.36,57.45 13.65,39.64 42.58,49.16 24.58,24.58 49.16,42.58 39.64,13.65 57.45,38.36
	57.33,7.9 "/>
<g>
	<g>
		<g>
			<path class="st2" d="M87.38,32.59c-1.7-5.47-4.36-4.64-4.65-10.36l-0.89-8.79l5.73,1.27l0.89,8.79
				c0.29,5.72,2.95,4.88,4.65,10.36c0.42,1.35,0.69,2.75,0.81,4.18c-0.11-1.43-0.38-2.83-0.8-4.18c-1.7-5.47-4.36-4.63-4.66-10.35
				l-0.89-8.79l-14.14-3.14l-4.68,7.86c-2.61,4.91-4.58,2.9-8.35,6.99c-1.06,1.15-1.98,2.44-2.74,3.84l30.54,6.79
				C88.11,35.52,87.83,34.02,87.38,32.59z"/>
		</g>
		<g>
			<path class="st3" d="M88.46,23.51l-0.89-8.79l-5.73-1.27l0.89,8.79c0.29,5.72,2.95,4.88,4.65,10.36
				c0.45,1.44,0.73,2.93,0.82,4.46l5.73,1.27c-0.01-0.09-0.01-0.19-0.02-0.28c-0.11-1.43-0.38-2.83-0.81-4.18
				C91.42,28.39,88.75,29.23,88.46,23.51z"/>
		</g>
		<g>
			<path class="st4" d="M55.81,37.47l31.4,6.98c0.41-1.2,0.71-2.46,0.88-3.77c0.16-1.22,0.19-2.44,0.11-3.64l-30.54-6.79
				c-0.84,1.55-1.49,3.24-1.9,5.05c-0.16,0.7-0.26,1.4-0.34,2.1C55.56,37.43,55.68,37.44,55.81,37.47z"/>
		</g>
		<g>
			<path class="st4" d="M73.72,102.73c-0.08-2.08,0.09-4.15,0.63-6.16l3.64-11.82c0.17-0.75,0.42-1.95,0.74-3.45l-31.26-6.95
				c-0.15,0.64-0.27,1.16-0.35,1.54l-2.13,14.19c-0.36,2.03-1.08,3.96-2.03,5.79c-0.76,1.46-1.34,3.04-1.71,4.72
				c-1.06,4.76-0.8,15.14-1.44,16.61c-1.56,3.58,0.55,7.49,4.16,8.29c1.39,0.31,2.77,0.11,3.95-0.48c1.26-0.63,2.8-0.29,3.68,0.82
				c0.82,1.03,1.98,1.8,3.37,2.11c1.39,0.31,2.77,0.11,3.95-0.48c1.26-0.63,2.8-0.29,3.68,0.82c0.21,0.26,0.44,0.49,0.69,0.71
				c2.34-0.72,4.16-2.86,4.23-5.63c0.04-1.6,4.68-10.89,5.74-15.65C73.64,106.04,73.78,104.37,73.72,102.73z"/>
		</g>
		<g>
			<path class="st5" d="M87.21,44.45l5.73,1.27c0.24-0.71,0.44-1.43,0.61-2.18c0.11-0.52,0.21-1.05,0.28-1.59
				c0.16-1.22,0.19-2.44,0.11-3.64l-5.73-1.27c0.08,1.2,0.05,2.41-0.11,3.64C87.92,41.99,87.61,43.25,87.21,44.45z"/>
		</g>
		<g>
			<path class="st5" d="M79.45,102.85c0-0.13-0.01-0.26,0-0.4c0-0.15,0.02-0.3,0.03-0.46c0.06-1.4,0.25-2.79,0.62-4.14l3.64-11.83
				c0.17-0.75,0.42-1.94,0.74-3.45l-5.74-1.28c-0.32,1.5-0.57,2.69-0.74,3.45l-3.64,11.82c-0.54,2.01-0.71,4.08-0.63,6.16
				c0.06,1.64-0.08,3.3-0.45,4.97c-1.06,4.76-5.69,14.05-5.74,15.65c-0.07,2.77-1.9,4.92-4.24,5.63c0.03,0.02,0.05,0.04,0.08,0.06
				c0.2,0.17,0.41,0.34,0.64,0.48c0.07,0.05,0.15,0.09,0.22,0.14c0.2,0.12,0.42,0.23,0.64,0.33c0.07,0.03,0.13,0.06,0.2,0.09
				c0.29,0.12,0.6,0.22,0.92,0.29c3.61,0.8,7.18-1.84,7.28-5.74c0.01-0.4,0.3-1.27,0.75-2.42c1.36-3.51,4.18-9.65,4.98-13.23
				c0.37-1.67,0.52-3.35,0.45-4.98C79.44,103.61,79.44,103.23,79.45,102.85z"/>
		</g>
	</g>
	<g>
		<g>
			<path class="st6" d="M87.06,44.89c0.06-0.17,0.11-0.34,0.17-0.51l-31.8-7.07c-0.04,0.31-0.07,0.61-0.09,0.92
				c-0.3,4.49-6.43,29.97-7.9,36.23l31.26,6.95C80.31,73.71,85.4,49.42,87.06,44.89z"/>
		</g>
		<g>
			<path class="st7" d="M87.24,44.38c-0.06,0.17-0.11,0.34-0.17,0.51c-1.66,4.53-6.76,28.82-8.36,36.52l5.74,1.28
				c0.3-1.45,2.8-12.81,3.18-14.64c1.44-6.94,3.32-15.78,4.66-20.3c0.01-0.04,0.03-0.09,0.04-0.13c0.05-0.15,0.09-0.3,0.13-0.44
				c0.02-0.07,0.04-0.14,0.07-0.21c0.04-0.11,0.07-0.22,0.11-0.33c0.06-0.17,0.11-0.33,0.17-0.48c0.06-0.17,0.11-0.34,0.17-0.51
				L87.24,44.38z"/>
		</g>
	</g>
	<g>
		<path class="st3" d="M87.53,19.12l-15.92-3.54c-0.52-0.11-0.84-0.63-0.73-1.15v0c0.11-0.52,0.63-0.84,1.15-0.73l15.92,3.54
			c0.52,0.11,0.84,0.63,0.73,1.15v0C88.56,18.9,88.04,19.23,87.53,19.12z"/>
	</g>
	<g>
		<path class="st7" d="M90.9,8.38l-1.75,7.85l-17.8-3.96l1.75-7.85c0.2-0.91,0.96-1.55,1.83-1.66c0.24-0.03,0.48-0.02,0.72,0.03
			l13.63,3.03c0.25,0.06,0.47,0.15,0.67,0.28C90.69,6.58,91.1,7.48,90.9,8.38z"/>
	</g>
	<g>
		<g>
			<path class="st6" d="M74.93,2.77l-2.18,9.82l-1.39-0.31l1.75-7.85C73.3,3.51,74.06,2.87,74.93,2.77z"/>
		</g>
		<g>
			
				<rect x="71.26" y="7.32" transform="matrix(0.217 -0.9762 0.9762 0.217 51.8049 80.9312)" class="st6" width="10.18" height="1.71"/>
		</g>
		<g>
			
				<rect x="74.61" y="8.06" transform="matrix(0.217 -0.9762 0.9762 0.217 53.6962 84.7752)" class="st6" width="10.18" height="1.71"/>
		</g>
		<g>
			<rect x="77.94" y="8.8" transform="matrix(0.217 -0.9762 0.9762 0.217 55.583 88.61)" class="st6" width="10.18" height="1.71"/>
		</g>
		<g>
			
				<rect x="81.28" y="9.54" transform="matrix(0.217 -0.9762 0.9762 0.217 57.472 92.4494)" class="st6" width="10.18" height="1.72"/>
		</g>
		<g>
			<path class="st6" d="M90.9,8.38l-1.75,7.85l-1.39-0.31l2.18-9.82C90.69,6.58,91.1,7.48,90.9,8.38z"/>
		</g>
	</g>
	<g class="st8">
		<g>
			<path class="st9" d="M61.62,36.2c-1.11-0.25-1.81-1.35-1.57-2.46c1.1-4.93,4.23-6.82,6.75-8.34c2.25-1.36,4.02-2.43,4.9-5.35
				c0.33-1.09,1.47-1.72,2.57-1.38c1.09,0.33,1.71,1.48,1.38,2.57c-1.33,4.45-4.32,6.25-6.72,7.7c-2.31,1.4-4.14,2.5-4.85,5.7
				C63.84,35.75,62.74,36.45,61.62,36.2z"/>
		</g>
	</g>
	<g class="st8">
		<path class="st9" d="M44.84,104.01c-1.09-0.24-1.79-1.31-1.58-2.41c0.39-2,1.19-4.28,2.11-6.92c1.64-4.7,3.5-10.03,3.62-15.38
			c0.02-1.14,0.97-2.04,2.11-2.02c1.14,0.02,2.04,0.97,2.02,2.11c-0.13,6-2.19,11.9-3.85,16.65c-0.87,2.49-1.62,4.64-1.95,6.35
			c-0.22,1.12-1.3,1.85-2.42,1.63C44.88,104.02,44.86,104.01,44.84,104.01z"/>
	</g>
	<g>
		<g>
			<g>
				<path class="st9" d="M60.17,65.09c-0.66-0.15-1.31-0.35-1.95-0.61c-1.82-0.76-2.95-2.01-3.1-3.43
					c-0.17-1.58,0.88-2.91,2.05-3.56c-0.22-0.13-0.44-0.28-0.64-0.47c-0.61-0.59-0.86-1.43-0.62-2.14c0.2-0.61,0.66-0.98,1.09-1.27
					c3.76-2.54,9.08-2.62,12.92-0.21c0.4,0.25,0.53,0.79,0.27,1.19c-0.25,0.4-0.79,0.52-1.19,0.27c-3.28-2.06-7.82-1.99-11.04,0.17
					c-0.25,0.17-0.39,0.29-0.41,0.37c-0.02,0.05,0.03,0.22,0.18,0.36c0.22,0.21,0.58,0.36,0.93,0.5c0.41,0.17,0.82,0.34,1.23,0.49
					c0.44-0.03,0.86-0.02,1.27-0.01c1.58,0.05,3.17,0.26,4.71,0.63c0.38,0.09,0.65,0.42,0.66,0.8c0.02,0.39-0.23,0.74-0.59,0.86
					c-2.08,0.69-4.17,0.24-6.29-0.53c-0.54,0.06-1.07,0.18-1.54,0.42c-0.69,0.35-1.35,1.13-1.27,1.93c0.12,1.13,1.59,1.83,2.04,2.02
					c2.98,1.24,6.38,0.86,9.32,0.32c0.93-0.17,1.9-0.37,2.72-0.81c0.09-0.05,0.19-0.1,0.28-0.16c0.34-0.96,0.92-1.88,1.72-2.67
					c1.46-1.45,3.37-2.31,5.06-3.01c0.39-0.16,0.84-0.02,1.06,0.34c0.22,0.36,0.15,0.83-0.17,1.11l-4.91,4.27
					c-0.41,0.35-0.82,0.71-1.27,1.04c-0.13,0.59-0.14,1.17,0,1.7c0.09,0.33,0.2,0.45,0.23,0.46c0.08,0.04,0.34,0.02,0.44,0.01
					c1.34-0.11,2.74-0.38,4.09-0.64c2.93-0.57,5.95-1.15,8.91-0.25c0.46,0.14,0.71,0.62,0.57,1.08c-0.14,0.46-0.63,0.71-1.08,0.57
					c-2.55-0.78-5.23-0.26-8.08,0.29c-1.39,0.27-2.84,0.55-4.27,0.67c-0.4,0.03-0.87,0.05-1.33-0.17c-0.39-0.19-0.9-0.61-1.16-1.59
					c-0.1-0.37-0.15-0.76-0.16-1.14c-0.78,0.29-1.58,0.45-2.35,0.59C66.08,65.35,63.05,65.73,60.17,65.09z"/>
			</g>
		</g>
		<g>
			<g>
				<path class="st9" d="M77.61,62.21c-0.59-0.13-1.2-0.4-1.79-0.82c-0.32-0.22-0.61-0.46-0.9-0.69c-0.5-0.41-0.98-0.79-1.5-1.02
					c-1.15-0.51-2.56-0.28-4.13,0.04c-0.47,0.09-0.92-0.21-1.02-0.68c-0.09-0.47,0.21-0.92,0.68-1.02c1.44-0.29,3.42-0.69,5.17,0.07
					c0.73,0.32,1.32,0.8,1.89,1.26c0.27,0.22,0.53,0.43,0.8,0.62c0.29,0.21,1.32,0.85,2.08,0.5c0.66-0.3,0.97-1.26,1.21-2.14
					c0.13-0.46,0.6-0.72,1.06-0.6c0.46,0.13,0.73,0.6,0.6,1.06c-0.25,0.91-0.72,2.59-2.16,3.25C79.01,62.31,78.32,62.36,77.61,62.21
					z"/>
			</g>
		</g>
	</g>
</g>
</svg>
