<svg xmlns="http://www.w3.org/2000/svg" width="128" height="80" viewBox="0 0 128 80"><defs><style>.a{fill:#fff;opacity:0;}.b{fill:#67352e;}.c{fill:#e5e84d;}.d{fill:#bdbf50;}.e{fill:#db1c4c;}.f{fill:#b41e49;}.g{fill:#de527d;}.h{fill:#023618;}.i{fill:#1bac94;}</style></defs><g transform="translate(-16 -16)"><path class="a" d="M0,0H128V80H0Z" transform="translate(16 16)"/><g transform="translate(39.085 18.883)"><g transform="translate(14.21 5.1)"><g transform="translate(26.982 8.85)"><path class="b" d="M65.89,39.954A14.358,14.358,0,0,1,75.02,21.81l.72,2.171a12.076,12.076,0,0,0-7.674,15.258Z" transform="translate(-65.158 -21.81)"/></g><rect class="c" width="6.408" height="7.393" transform="translate(0 34.382)"/><path class="d" d="M56.689,62.48H18.055a3.845,3.845,0,0,0-3.845,3.845h0a3.845,3.845,0,0,0,3.845,3.845H56.689a2.52,2.52,0,0,0,2.521-2.521V65A2.52,2.52,0,0,0,56.689,62.48Z" transform="translate(-14.21 -32.092)"/><path class="e" d="M42.525,86.477a13.446,13.446,0,0,1,8.558,0,24.588,24.588,0,0,0,20.3-24.213c0-9.872-5.079-21.682-14.214-20.162-4.014.667-6.509,2.341-10.37,2.341s-6.36-1.674-10.37-2.341c-9.141-1.52-14.214,10.29-14.214,20.162A24.588,24.588,0,0,0,42.525,86.477Z" transform="translate(-17.978 -22.443)"/><g transform="translate(30.373 19.526)"><path class="f" d="M80.383,42.1c-.429.069-.837.154-1.229.244,6.535,2,10.1,11.641,10.1,19.918a24.593,24.593,0,0,1-17.7,23.6,13.415,13.415,0,0,1,2.733.609A24.588,24.588,0,0,0,94.6,62.264C94.6,52.392,89.519,40.582,80.383,42.1Z" transform="translate(-71.56 -41.969)"/></g><path class="c" d="M59.215,78.818V90.755a1.835,1.835,0,0,1-1.838,1.838H20.051a5.831,5.831,0,0,1-5.831-5.831V76.98H57.382A1.834,1.834,0,0,1,59.215,78.818Z" transform="translate(-14.215 -38.912)"/><path class="d" d="M92.632,78.818V90.755a1.835,1.835,0,0,1-1.838,1.838H85.26V76.98h5.534A1.835,1.835,0,0,1,92.632,78.818Z" transform="translate(-47.632 -38.912)"/><path class="d" d="M28.129,76.98V86a1.245,1.245,0,0,1-2.489,0V76.98Z" transform="translate(-19.587 -38.912)"/><path class="d" d="M74.119,76.98V86a1.245,1.245,0,0,1-2.489,0V76.98Z" transform="translate(-41.22 -38.912)"/><path class="d" d="M62.629,76.98V86a1.245,1.245,0,0,1-2.489,0V76.98Z" transform="translate(-35.816 -38.912)"/><path class="d" d="M51.129,76.98V86a1.245,1.245,0,0,1-2.489,0V76.98Z" transform="translate(-30.406 -38.912)"/><path class="d" d="M39.629,76.98V86a1.245,1.245,0,0,1-2.489,0V76.98Z" transform="translate(-24.996 -38.912)"/><ellipse class="g" cx="6.747" cy="4.703" rx="6.747" ry="4.703" transform="matrix(0.5, -0.866, 0.866, 0.5, 5.762, 32.251)"/><g transform="translate(15.59)"><path class="h" d="M53.817,10.677C56.9,15.289,55.263,21.8,55.263,21.8s-6.646-.964-9.734-5.577S44.083,5.1,44.083,5.1,50.729,6.064,53.817,10.677Z" transform="translate(-43.647 -5.1)"/><path class="i" d="M50.947,13.77a75.208,75.208,0,0,1,4.65,7.96,75.42,75.42,0,0,1-5.582-7.33A77.016,77.016,0,0,1,45.36,6.44,75.926,75.926,0,0,1,50.947,13.77Z" transform="translate(-44.453 -5.73)"/></g></g></g></g></svg>