<?xml version="1.0" encoding="utf-8"?>
<!-- Generator: Adobe Illustrator 25.1.0, SVG Export Plug-In . SVG Version: 6.00 Build 0)  -->
<svg version="1.1" width="128" height="80" id="Layer_1" xmlns="http://www.w3.org/2000/svg" xmlns:xlink="http://www.w3.org/1999/xlink"
	 viewBox="0 0 133.3 133.3" style="enable-background:new 0 0 133.3 133.3;" xml:space="preserve">
<style type="text/css">
	.st0{opacity:0.61;}
	.st1{fill:#FFFFFF;}
	.st2{opacity:0.61;fill:#FFFFFF;}
	.st3{fill:#D0E2EE;}
	.st4{fill-rule:evenodd;clip-rule:evenodd;fill:#B31E48;}
	.st5{fill:#0A3341;}
	.st6{fill:#AABFD0;}
	.st7{fill-rule:evenodd;clip-rule:evenodd;fill:#AABFD0;}
	.st8{fill-rule:evenodd;clip-rule:evenodd;fill:#D0E2EE;}
	.st9{fill-rule:evenodd;clip-rule:evenodd;fill:#2276BC;}
	.st10{fill-rule:evenodd;clip-rule:evenodd;fill:#DC1C4B;}
	.st11{fill:#66342D;}
	.st12{fill:#F8C09D;}
	.st13{fill:#EF937E;}
	.st14{fill:#0F2437;}
	.st15{fill:#333E48;}
	.st16{fill:#143441;}
	.st17{fill:#2276BC;}
	.st18{fill:#2BB3CD;}
	.st19{fill:#FEBE40;}
	.st20{opacity:0.48;}
</style>
<g class="st0">
	<g>
		<path class="st1" d="M11.6,54.6c0.8-0.2,1.3,0.2,1.5,1l0.3,1.6c0.2,0.8-0.2,1.3-1,1.5L10,59.2c-0.8,0.2-1.1,0.6-1,1.5l2.6,12.9
			c0.2,0.8,0.7,1.1,1.5,1l2.4-0.5c0.8-0.2,1.3,0.2,1.5,1l0.5,2.4c0.2,0.8-0.2,1.3-1,1.5l-6.4,1.3c-0.8,0.2-1.3-0.2-1.5-1L4.3,57.4
			c-0.2-0.8,0.2-1.3,1-1.5L11.6,54.6z"/>
	</g>
	<g>
		<path class="st1" d="M32,74.3c0.2,0.8-0.2,1.3-1,1.5l-6.4,1.3c-0.8,0.2-1.3-0.2-1.5-1l-0.5-2.4c-0.2-0.8,0.2-1.3,1-1.5l2.4-0.5
			c0.8-0.2,1.1-0.7,1-1.5l-2.7-12.7c-0.2-0.8-0.7-1.1-1.5-1L20.5,57c-0.8,0.2-1.3-0.2-1.5-1l-0.3-1.6c-0.2-0.8,0.2-1.3,1-1.5
			l6.4-1.3c0.8-0.2,1.3,0.2,1.5,1L32,74.3z"/>
	</g>
</g>
<g class="st0">
	<g>
		<path class="st1" d="M118.2,45.2c0.6,0.1,0.9,0.5,0.7,1.1l-0.8,3.5c-0.1,0.6-0.5,0.9-1.1,0.7l-3.5-0.8c-0.6-0.1-0.9-0.6-0.7-1.1
			l0.8-3.5c0.1-0.6,0.6-0.9,1.1-0.7L118.2,45.2z M116.3,53.5c0.6,0.1,0.9,0.5,0.7,1.1l-0.8,3.5c-0.1,0.6-0.5,0.9-1.1,0.7l-3.5-0.8
			c-0.6-0.1-0.9-0.6-0.7-1.1l0.8-3.5c0.1-0.6,0.6-0.9,1.1-0.7L116.3,53.5z"/>
	</g>
</g>
<g class="st0">
	<path class="st1" d="M105.1,5.8c0.4-0.4,0.7-0.4,1.1,0l2.1,2.1c0.4,0.4,0.4,0.7,0,1.1l-3,3c-0.1,0.1-0.1,0.2,0,0.4l3,3
		c0.4,0.4,0.4,0.7,0,1.1l-2.1,2.1c-0.4,0.4-0.7,0.4-1.1,0l-3-3c-0.1-0.1-0.2-0.1-0.4,0l-3,3c-0.4,0.4-0.8,0.4-1.1,0l-2.1-2.1
		c-0.4-0.4-0.4-0.8,0-1.1l3-3c0.1-0.1,0.1-0.3,0-0.4l-3-3c-0.4-0.4-0.4-0.8,0-1.1l2.1-2.1c0.4-0.4,0.8-0.4,1.1,0l3,3
		c0.1,0.1,0.3,0.1,0.4,0L105.1,5.8z"/>
</g>
<g class="st0">
	<path class="st1" d="M19.8,98.7c0.5,0,0.8,0.3,0.8,0.8v2.9c0,0.5-0.3,0.8-0.8,0.8h-4.3c-0.2,0-0.3,0.1-0.3,0.3v4.3
		c0,0.5-0.3,0.8-0.8,0.8h-2.9c-0.5,0-0.8-0.3-0.8-0.8v-4.3c0-0.2-0.1-0.3-0.3-0.3H6.3c-0.5,0-0.8-0.3-0.8-0.8v-2.9
		c0-0.5,0.3-0.8,0.8-0.8h4.3c0.2,0,0.3-0.1,0.3-0.3v-4.3c0-0.5,0.3-0.8,0.8-0.8h2.9c0.5,0,0.8,0.3,0.8,0.8v4.3
		c0,0.2,0.1,0.3,0.3,0.3H19.8z"/>
</g>
<g class="st0">
	<path class="st1" d="M113.4,80.1c0-0.5,0.3-0.8,0.8-0.8h12c0.5,0,0.8,0.3,0.8,0.8V83c0,0.5-0.3,0.8-0.8,0.8h-12
		c-0.5,0-0.8-0.3-0.8-0.8V80.1z"/>
</g>
<g class="st0">
	<path class="st1" d="M109.9,104.9c0.2-0.5,0.5-0.6,1-0.5l11.3,4.1c0.5,0.2,0.7,0.5,0.5,1l-1,2.8c-0.2,0.5-0.5,0.7-1,0.5l-11.3-4.1
		c-0.5-0.2-0.6-0.5-0.5-1L109.9,104.9z M107.7,111.1c0.2-0.5,0.5-0.6,1-0.5l11.3,4.1c0.5,0.2,0.7,0.5,0.5,1l-1,2.8
		c-0.2,0.5-0.5,0.7-1,0.5l-11.3-4.1c-0.5-0.2-0.6-0.5-0.5-1L107.7,111.1z"/>
</g>
<g class="st0">
	<path class="st1" d="M18.3,26.2l1.3,2.7l2.9,0.4c0.6,0.1,0.9,0.9,0.4,1.3l-2.1,2.1l0.5,2.9c0.1,0.6-0.6,1.1-1.1,0.8L17.6,35
		L15,36.4c-0.6,0.3-1.2-0.2-1.1-0.8l0.5-2.9l-2.1-2.1c-0.5-0.5-0.2-1.2,0.4-1.3l2.9-0.4l1.3-2.7C17.2,25.6,18,25.6,18.3,26.2z"/>
</g>
<g class="st0">
	<path class="st1" d="M123.5,20.8l1.3,2.7l2.9,0.4c0.6,0.1,0.9,0.9,0.4,1.3l-2.1,2.1l0.5,2.9c0.1,0.6-0.6,1.1-1.1,0.8l-2.6-1.4
		l-2.6,1.4c-0.6,0.3-1.2-0.2-1.1-0.8l0.5-2.9l-2.1-2.1c-0.5-0.5-0.2-1.2,0.4-1.3l2.9-0.4l1.3-2.7C122.4,20.2,123.2,20.2,123.5,20.8z
		"/>
</g>
<g class="st0">
	<path class="st1" d="M32.7,113.3L34,116l2.9,0.4c0.6,0.1,0.9,0.9,0.4,1.3l-2.1,2.1l0.5,2.9c0.1,0.6-0.6,1.1-1.1,0.8l-2.6-1.4
		l-2.6,1.4c-0.6,0.3-1.2-0.2-1.1-0.8l0.5-2.9l-2.1-2.1c-0.5-0.5-0.2-1.2,0.4-1.3L30,116l1.3-2.7C31.6,112.7,32.4,112.7,32.7,113.3z"
		/>
</g>
<path class="st2" d="M93.4,18l-5,0.5l1.2,1.7L32,61.3c-0.2,0.2-0.3,0.5-0.1,0.7c0.1,0.1,0.2,0.2,0.4,0.2c0.1,0,0.2,0,0.3-0.1
	L90.1,21l1.2,1.6L93.4,18z"/>
<path class="st2" d="M111.6,37.2l-4.5-15.5c-0.1-0.2-0.3-0.4-0.6-0.3c-0.2,0.1-0.4,0.3-0.3,0.6l4.5,15.4l-1.9,0.6l3.6,3.4l1.2-4.8
	L111.6,37.2z"/>
<path class="st2" d="M109.5,58c-0.2-0.3-0.4-0.4-0.7-0.3L25.6,93.6l-0.8-1.8l-2.9,4l4.9,0.6L26,94.6l83.2-35.9
	C109.5,58.5,109.6,58.3,109.5,58z"/>
<path class="st2" d="M111.9,83.7l-4.8-1.6l0.4,1.9L25,101c-0.3,0.1-0.5,0.3-0.4,0.6c0.1,0.2,0.3,0.4,0.5,0.4h0.1l82.5-17l0.4,2
	L111.9,83.7z"/>
<path class="st2" d="M122.1,85.7c-0.3-0.1-0.6,0.1-0.6,0.4l-2.4,14.5l-1.9-0.3l1.8,4.7l3.1-3.9l-2-0.3l2.4-14.5
	C122.6,86,122.4,85.7,122.1,85.7z"/>
<g>
	<g>
		<g>
			<path class="st3" d="M86.7,49.3c9.1,0,16.5,7.4,16.5,16.5s-7.4,16.5-16.5,16.5c-1.6,0-2.9-1.3-2.9-2.9s1.3-2.9,2.9-2.9
				c5.9,0,10.7-4.8,10.7-10.7c0-5.9-4.8-10.7-10.7-10.7c-1.6,0-2.9-1.3-2.9-2.9S85.1,49.3,86.7,49.3z"/>
		</g>
	</g>
	<g>
		<g>
			<g>
				<rect x="60.9" y="42.2" class="st4" width="17.8" height="82.5"/>
			</g>
		</g>
		<g>
			<g>
				<g>
					<g>
						<g>
							<path class="st5" d="M60.9,128.5c-1.6,0-2.9-1.3-2.9-2.9V89.8c0-1.6,1.3-2.9,2.9-2.9c1.6,0,2.9,1.3,2.9,2.9v35.8
								C63.8,127.2,62.5,128.5,60.9,128.5z"/>
						</g>
					</g>
				</g>
				<g>
					<g>
						<path class="st3" d="M58.5,55.4c-6.4,6.4-16.9,6.4-23.4,0c-6.4-6.4-6.4-16.9,0-23.4c1.1-1.1,3-1.1,4.2,0c1.1,1.1,1.1,3,0,4.2
							c-4.2,4.2-4.2,10.9,0,15.1s10.9,4.2,15.1,0c1.1-1.1,3-1.1,4.2,0C59.7,52.3,59.7,54.2,58.5,55.4z"/>
					</g>
				</g>
			</g>
			<g>
				<g>
					<g>
						<g>
							<g>
								<g>
									<g>
										<path class="st5" d="M79.1,128.5c-1.6,0-2.9-1.3-2.9-2.9V89.8c0-1.6,1.3-2.9,2.9-2.9s2.9,1.3,2.9,2.9v35.8
											C82,127.2,80.7,128.5,79.1,128.5z"/>
									</g>
								</g>
							</g>
						</g>
						<g>
							<g>
								<path class="st6" d="M83.4,82.8c0,7.4-6,13.4-13.4,13.4s-13.4-6-13.4-13.4s6-13.4,13.4-13.4S83.4,75.4,83.4,82.8z"/>
							</g>
						</g>
						<g>
							<g>
								<path class="st7" d="M54.1,58.1c0-8.8,7.1-15.9,15.9-15.9s15.9,7.1,15.9,15.9v12.3c0,8.8-7.1,15.9-15.9,15.9
									s-15.9-7.1-15.9-15.9C54.1,70.4,54.1,58.1,54.1,58.1z"/>
							</g>
						</g>
						<g>
							<g>
								<path class="st8" d="M56.6,56.9c0-8,6-14.6,13.4-14.6s13.4,6.5,13.4,14.6v11.3c0,8-6,14.6-13.4,14.6s-13.4-6.5-13.4-14.6
									C56.6,68.2,56.6,56.9,56.6,56.9z"/>
							</g>
						</g>
					</g>
				</g>
			</g>
			<g>
				<path class="st9" d="M84.4,74.4H55.6c-0.8,0-1.5-0.7-1.5-1.5v-1c0-0.8,0.7-1.5,1.5-1.5h28.8c0.8,0,1.5,0.7,1.5,1.5v1
					C85.9,73.8,85.2,74.4,84.4,74.4z"/>
			</g>
		</g>
		<g>
			<g>
				<path class="st10" d="M60.9,124.6H44.4V58.7c0-9.1,7.4-16.5,16.5-16.5l0,0V124.6z"/>
			</g>
		</g>
		<g>
			<g>
				<path class="st10" d="M78.7,124.6h16.5V58.7c0-9.1-7.4-16.5-16.5-16.5l0,0V124.6z"/>
			</g>
		</g>
	</g>
	<g>
		<g>
			<g>
				<g>
					<path class="st11" d="M50,115.2l-11.4-103c-0.1-0.6-0.6-1-1.3-1l0,0c-0.6,0.1-1,0.6-0.9,1.2l11.4,103.1
						c0.1,0.8,0.9,1.2,1.6,0.9l0,0C49.8,116.1,50.1,115.7,50,115.2z"/>
				</g>
			</g>
		</g>
		<g>
			<g>
				<g>
					<path class="st11" d="M46.1,66.1l-6.2-55.2c-0.1-0.6-0.6-1-1.3-1l0,0c-0.6,0.1-1,0.6-0.9,1.2l6.2,55.2c0.1,0.8,0.9,1.2,1.6,0.9
						l0,0C45.9,67,46.1,66.5,46.1,66.1z"/>
				</g>
			</g>
		</g>
		<g>
			<g>
				<g>
					<path class="st11" d="M52.8,126.4l-6.2-55.2c-0.1-0.6-0.6-1-1.3-1l0,0c-0.6,0.1-1,0.6-0.9,1.2l6.2,55.2
						c0.1,0.8,0.9,1.2,1.6,0.9l0,0C52.6,127.3,52.8,126.8,52.8,126.4z"/>
				</g>
			</g>
		</g>
		<g>
			<g>
				<g>
					<path class="st11" d="M43.9,75.4l-6.2-55.2c-0.1-0.6-0.6-1-1.3-1l0,0c-0.6,0.1-1,0.6-0.9,1.2l6.2,55.2c0.1,0.8,0.9,1.2,1.6,0.9
						l0,0C43.8,76.3,44,75.9,43.9,75.4z"/>
				</g>
			</g>
		</g>
	</g>
	<g>
		<g>
			<g>
				<path class="st12" d="M34.2,49.9c0.9-0.6,1.9-1.3,2.9-1.8c-1.8-3.9-1.1-8.8,2.2-12c1.1-1.1,1.1-3,0-4.2c-1.1-1.1-3-1.1-4.2,0
					c-5.2,5.2-6.2,13.2-2.9,19.4C32.9,50.9,33.6,50.4,34.2,49.9z"/>
			</g>
		</g>
	</g>
	<g>
		<g>
			<g>
				<path class="st12" d="M100.1,70.3c-1.1-0.2-2.2-0.5-3.4-0.8c-1.5,4.1-5.4,7-10,7c-1.6,0-2.9,1.3-2.9,2.9s1.3,2.9,2.9,2.9
					c7.4,0,13.7-4.9,15.8-11.7C101.7,70.5,100.9,70.4,100.1,70.3z"/>
			</g>
		</g>
	</g>
	<g>
		<g>
			<path class="st12" d="M59.7,29c0-1.2-0.9-2.1-2.1-2.1c-1.2,0-2.1,0.9-2.1,2.1s0.9,2.1,2.1,2.1S59.7,30.2,59.7,29z"/>
		</g>
		<g>
			<path class="st12" d="M84.5,29c0-1.2-0.9-2.1-2.1-2.1s-2.1,0.9-2.1,2.1s0.9,2.1,2.1,2.1C83.6,31.1,84.5,30.2,84.5,29z"/>
		</g>
	</g>
	<g>
		<rect x="66.3" y="38.8" class="st13" width="7.4" height="5.3"/>
	</g>
	<g>
		<g>
			<path class="st12" d="M58.6,25.6v4.7c0,6.3,5.1,11.4,11.4,11.4c6.3-0.1,11.3-5.2,11.3-11.4v-4.7c0-0.6-0.1-1.2-0.2-1.8H58.8
				C58.7,24.4,58.6,25,58.6,25.6z"/>
		</g>
		<g>
			<path class="st14" d="M70,14.3c-5.7,0-10.3,4.2-11.2,9.6h22.4C80.3,18.4,75.7,14.3,70,14.3z"/>
		</g>
	</g>
	<g>
		<ellipse class="st13" cx="70" cy="44" rx="5.2" ry="1.2"/>
	</g>
	<g>
		<g>
			<path class="st15" d="M70,34.3c-1.7,0-3.4-0.5-4.2-1c-0.1-0.1-0.1-0.2-0.1-0.3c0.1-0.1,0.2-0.1,0.3-0.1c0.7,0.5,2.4,0.9,4,0.9
				s3.2-0.5,4-0.9c0.1-0.1,0.2,0,0.3,0.1c0.1,0.1,0,0.2-0.1,0.3C73.4,33.8,71.7,34.3,70,34.3z"/>
		</g>
	</g>
	<g>
		<g>
			<g>
				<path class="st15" d="M66.4,28.1c0-0.4-0.4-0.8-0.8-0.8s-0.8,0.4-0.8,0.8s0.4,0.8,0.8,0.8C66.1,28.9,66.4,28.6,66.4,28.1z"/>
			</g>
		</g>
		<g>
			<g>
				<path class="st15" d="M75.1,28.1c0-0.4-0.4-0.8-0.8-0.8s-0.8,0.4-0.8,0.8s0.4,0.8,0.8,0.8S75.1,28.6,75.1,28.1z"/>
			</g>
		</g>
	</g>
	<g>
		<path class="st13" d="M70,32L70,32c-1,0-1.7-0.8-1.7-1.7v-1c0-1,0.8-1.7,1.7-1.7l0,0c1,0,1.7,0.8,1.7,1.7v1
			C71.7,31.2,70.9,32,70,32z"/>
	</g>
	<g>
		<path class="st16" d="M83.1,12.1h-8.6c-4,0-7.3,3.3-7.3,7.3v2.9h8.6c4,0,7.3-3.3,7.3-7.3V12.1z"/>
	</g>
	<g>
		<g>
			<rect x="58.6" y="24.3" class="st14" width="1.5" height="5.9"/>
		</g>
		<g>
			<rect x="79.8" y="24.3" class="st14" width="1.5" height="5.9"/>
		</g>
	</g>
	<g>
		<path class="st3" d="M82.4,21.8H57.6c-0.5,0-1,0.4-1,1v0.6c0,0.5,0.4,1,1,1h24.8c0.5,0,1-0.4,1-1v-0.6
			C83.4,22.2,83,21.8,82.4,21.8z"/>
	</g>
	<g>
		<path class="st17" d="M49.6,15.1c0,6.6-5.3,11.9-11.9,11.9s-11.9-5.3-11.9-11.9c0-0.7,0.1-1.4,0.2-2.1c1-5.6,5.9-9.8,11.7-9.8
			c5.9,0,10.7,4.2,11.7,9.8C49.5,13.7,49.6,14.4,49.6,15.1z"/>
	</g>
	<g>
		<ellipse class="st18" cx="37.6" cy="13" rx="11.7" ry="9.8"/>
	</g>
	<g>
		<path class="st19" d="M70.7,51.1l1.3,2.7l2.9,0.4c0.6,0.1,0.9,0.9,0.4,1.3l-2,2.1l0.5,2.9c0.1,0.6-0.6,1.1-1.1,0.8l-2.6-1.4
			l-2.6,1.4c-0.6,0.3-1.2-0.2-1.1-0.8l0.5-2.9l-2.1-2.1c-0.5-0.5-0.2-1.2,0.4-1.3l2.9-0.4l1.3-2.7C69.6,50.5,70.4,50.5,70.7,51.1z"
			/>
	</g>
	<g class="st20">
		<ellipse transform="matrix(0.3578 -0.9338 0.9338 0.3578 19.156 43.1827)" class="st3" cx="41" cy="7.7" rx="3.3" ry="6.2"/>
	</g>
	<g>
		<path class="st12" d="M40.5,36.7c0.1-0.4-0.3-0.8-0.7-0.9l0.8,0.1c0.4,0.1,0.8-0.3,0.9-0.7c0.1-0.4-0.3-0.8-0.7-0.9L40,34.2l0,0
			l1,0.1c0.4,0.1,0.8-0.3,0.9-0.7c0.1-0.4-0.3-0.8-0.7-0.9l-1-0.1l0,0l0.8,0.1c0.4,0.1,0.8-0.3,0.9-0.7c0.1-0.4-0.3-0.8-0.7-0.9
			L40.4,31l0,0l-0.3,0h0.2c0.4-0.2,0.5-0.7,0.3-1.1s-0.7-0.5-1.1-0.3l-3.6,1.8l-0.3,5.4l4,0.6C40.1,37.5,40.5,37.2,40.5,36.7z"/>
	</g>
	<g>
		<path class="st12" d="M82.4,82.1c-0.1-0.4,0.3-0.8,0.7-0.9l-0.8,0.1c-0.4,0.1-0.8-0.3-0.9-0.7c-0.1-0.4,0.3-0.8,0.7-0.9l0.8-0.1
			l0,0l-1,0.1c-0.4,0.1-0.8-0.3-0.9-0.7c-0.1-0.4,0.3-0.8,0.7-0.9l1-0.1l0,0l-0.8,0.1c-0.4,0.1-0.8-0.3-0.9-0.7s0.3-0.8,0.7-0.9
			l0.8-0.1l0,0l0.3-0.1l-0.1-0.1c-0.4-0.2-0.5-0.7-0.3-1.1s0.7-0.5,1.1-0.3l3.6,1.8l0.3,5.4l-4,0.6C82.9,82.9,82.5,82.5,82.4,82.1z"
			/>
	</g>
</g>
</svg>
