<?xml version="1.0" encoding="utf-8"?>
<!-- Generator: Adobe Illustrator 25.4.1, SVG Export Plug-In . SVG Version: 6.00 Build 0)  -->
<svg version="1.1" id="Layer_1" xmlns="http://www.w3.org/2000/svg" xmlns:xlink="http://www.w3.org/1999/xlink" width="128" height="80"
	 viewBox="0 0 133.3 133.3" style="enable-background:new 0 0 133.3 133.3;" xml:space="preserve">
<style type="text/css">
	.st0{clip-path:url(#SVGID_00000024710983951336182900000010522486897459534015_);}
	.st1{fill:#CEB69B;}
	.st2{fill:#5F6466;}
	.st3{fill:#838789;}
	.st4{fill:#C6A25C;}
	.st5{fill:#AD8C51;}
	.st6{fill:#7A8184;}
	.st7{fill:#9BA5AA;}
	.st8{fill:#DFE4E8;}
	.st9{fill:#F9522B;}
	.st10{fill:#747F82;}
	.st11{fill:#BACDD1;}
	.st12{fill:#A5B5B7;}
	.st13{fill:#143441;}
	.st14{fill:#B31E48;}
	.st15{fill:#DC1C4B;}
	.st16{fill:#0F2437;}
	.st17{fill:#C3D5D8;}
	.st18{fill:#9CACAF;}
	.st19{fill:#2276BC;}
	.st20{fill:#87D1EE;}
	.st21{fill:#1D5C87;}
</style>
<g>
	<g>
		<defs>
			<rect id="SVGID_00000093881473548873074620000013748350099693691783_" width="133.3" height="133.3"/>
		</defs>
		<use xlink:href="#SVGID_00000093881473548873074620000013748350099693691783_"  style="overflow:visible;fill:#BFA882;"/>
		<clipPath id="SVGID_00000105400085037531875590000012262084970074538939_">
			<use xlink:href="#SVGID_00000093881473548873074620000013748350099693691783_"  style="overflow:visible;"/>
		</clipPath>
		<g style="clip-path:url(#SVGID_00000105400085037531875590000012262084970074538939_);">
			<g>
				<path class="st1" d="M157.27,87.41v28.27h-178.8V87.41H157.27 M158.61,86.07h-1.34h-178.8h-1.34v1.34v28.27v1.34h1.34h178.8
					h1.34v-1.34V87.41V86.07L158.61,86.07z"/>
			</g>
			<g>
				<polygon class="st2" points="55.28,177.71 55.28,75.84 22.81,75.84 22.81,60.97 -22.24,60.97 -22.24,35.82 22.81,35.82 
					22.81,20.96 55.28,20.96 55.28,-40.39 80.43,-40.39 80.43,20.96 112.9,20.96 112.9,35.82 157.95,35.82 157.95,60.97 
					112.9,60.97 112.9,75.84 80.43,75.84 80.43,177.71 				"/>
				<path class="st1" d="M79.76-39.72v61.35h32.47v14.87h45.04V60.3h-45.04v14.87H79.76v101.87H55.95V75.17H23.48V60.3h-45.04V36.49
					h45.04V21.63h32.47v-61.35H79.76 M81.1-41.06h-1.34H55.95h-1.34v1.34v60.01H23.48h-1.34v1.34v13.53h-43.7h-1.34v1.34V60.3v1.34
					h1.34h43.7v13.53v1.34h1.34h31.14v100.53v1.34h1.34h23.81h1.34v-1.34V76.51h31.14h1.34v-1.34V61.64h43.7h1.34V60.3V36.49v-1.34
					h-1.34h-43.7V21.63v-1.34h-1.34H81.1v-60.01V-41.06L81.1-41.06z"/>
			</g>
			<g>
				<rect x="55.98" y="71.72" class="st2" width="23.78" height="49.11"/>
			</g>
			<g>
				<g>
					<rect x="-21.53" y="87.41" class="st2" width="178.81" height="28.27"/>
				</g>
				<g>
					<rect x="57.03" y="87.41" class="st3" width="21.67" height="28.27"/>
				</g>
				<g>
					<g>
						<rect x="59.77" y="74.87" class="st4" width="16.23" height="2.68"/>
					</g>
					<g>
						<polygon class="st5" points="75.57,74.87 75.57,77.16 59.77,77.16 59.77,77.55 76,77.55 76,74.87 						"/>
					</g>
					<g>
						<path class="st6" d="M61.53,77h-0.11c-0.32,0-0.57-0.26-0.57-0.57v-0.68c0-0.32,0.26-0.57,0.57-0.57h0.11V77z"/>
					</g>
					<g>
						<path class="st6" d="M63.46,77h0.11c0.32,0,0.57-0.26,0.57-0.57v-0.68c0-0.32-0.26-0.57-0.57-0.57h-0.11V77z"/>
					</g>
					<g>
						<path class="st6" d="M72.31,77H72.2c-0.32,0-0.57-0.26-0.57-0.57v-0.68c0-0.32,0.26-0.57,0.57-0.57h0.11V77z"/>
					</g>
					<g>
						<path class="st6" d="M74.24,77h0.11c0.32,0,0.57-0.26,0.57-0.57v-0.68c0-0.32-0.26-0.57-0.57-0.57h-0.11V77z"/>
					</g>
				</g>
				<g>
					<g>
						<rect x="59.77" y="81.93" class="st4" width="16.23" height="2.68"/>
					</g>
					<g>
						<polygon class="st5" points="75.57,81.93 75.57,84.23 59.77,84.23 59.77,84.62 76,84.62 76,81.93 						"/>
					</g>
					<g>
						<path class="st6" d="M61.53,84.06h-0.11c-0.32,0-0.57-0.26-0.57-0.57v-0.68c0-0.32,0.26-0.57,0.57-0.57h0.11V84.06z"/>
					</g>
					<g>
						<path class="st6" d="M63.46,84.06h0.11c0.32,0,0.57-0.26,0.57-0.57v-0.68c0-0.32-0.26-0.57-0.57-0.57h-0.11V84.06z"/>
					</g>
					<g>
						<path class="st6" d="M72.31,84.06H72.2c-0.32,0-0.57-0.26-0.57-0.57v-0.68c0-0.32,0.26-0.57,0.57-0.57h0.11V84.06z"/>
					</g>
					<g>
						<path class="st6" d="M74.24,84.06h0.11c0.32,0,0.57-0.26,0.57-0.57v-0.68c0-0.32-0.26-0.57-0.57-0.57h-0.11V84.06z"/>
					</g>
				</g>
				<g>
					<g>
						<rect x="59.77" y="117.27" class="st4" width="16.23" height="2.68"/>
					</g>
					<g>
						<polygon class="st5" points="75.57,117.27 75.57,119.56 59.77,119.56 59.77,119.95 76,119.95 76,117.27 						"/>
					</g>
					<g>
						<path class="st6" d="M61.53,119.4h-0.11c-0.32,0-0.57-0.26-0.57-0.57v-0.68c0-0.32,0.26-0.57,0.57-0.57h0.11V119.4z"/>
					</g>
					<g>
						<path class="st6" d="M63.46,119.4h0.11c0.32,0,0.57-0.26,0.57-0.57v-0.68c0-0.32-0.26-0.57-0.57-0.57h-0.11V119.4z"/>
					</g>
					<g>
						<path class="st6" d="M72.31,119.4H72.2c-0.32,0-0.57-0.26-0.57-0.57v-0.68c0-0.32,0.26-0.57,0.57-0.57h0.11V119.4z"/>
					</g>
					<g>
						<path class="st6" d="M74.24,119.4h0.11c0.32,0,0.57-0.26,0.57-0.57v-0.68c0-0.32-0.26-0.57-0.57-0.57h-0.11V119.4z"/>
					</g>
				</g>
				<g>
					<g>
						<rect x="59.77" y="124.34" class="st4" width="16.23" height="2.68"/>
					</g>
					<g>
						<polygon class="st5" points="75.57,124.34 75.57,126.63 59.77,126.63 59.77,127.02 76,127.02 76,124.34 						"/>
					</g>
					<g>
						<path class="st6" d="M61.53,126.47h-0.11c-0.32,0-0.57-0.26-0.57-0.57v-0.68c0-0.32,0.26-0.57,0.57-0.57h0.11V126.47z"/>
					</g>
					<g>
						<path class="st6" d="M63.46,126.47h0.11c0.32,0,0.57-0.26,0.57-0.57v-0.68c0-0.32-0.26-0.57-0.57-0.57h-0.11V126.47z"/>
					</g>
					<g>
						<path class="st6" d="M72.31,126.47H72.2c-0.32,0-0.57-0.26-0.57-0.57v-0.68c0-0.32,0.26-0.57,0.57-0.57h0.11V126.47z"/>
					</g>
					<g>
						<path class="st6" d="M74.24,126.47h0.11c0.32,0,0.57-0.26,0.57-0.57v-0.68c0-0.32-0.26-0.57-0.57-0.57h-0.11V126.47z"/>
					</g>
				</g>
				<g>
					<g>
						<rect x="61.53" y="72.82" class="st7" width="1.93" height="55.66"/>
					</g>
				</g>
				<g>
					<g>
						<rect x="72.31" y="72.82" class="st7" width="1.93" height="55.66"/>
					</g>
				</g>
				<g>
					<rect x="81.6" y="100.84" class="st8" width="6.82" height="1.41"/>
				</g>
				<g>
					<rect x="91.11" y="100.84" class="st8" width="6.82" height="1.41"/>
				</g>
				<g>
					<rect x="100.62" y="100.84" class="st8" width="6.82" height="1.41"/>
				</g>
				<g>
					<rect x="110.13" y="100.84" class="st8" width="6.82" height="1.41"/>
				</g>
				<g>
					<rect x="119.63" y="100.84" class="st8" width="6.82" height="1.41"/>
				</g>
				<g>
					<rect x="129.14" y="100.84" class="st8" width="6.82" height="1.41"/>
				</g>
				<g>
					<rect x="138.65" y="100.84" class="st8" width="6.82" height="1.41"/>
				</g>
				<g>
					<rect x="148.16" y="100.84" class="st8" width="6.82" height="1.41"/>
				</g>
				<g>
					<rect x="-19.43" y="100.84" class="st8" width="6.82" height="1.41"/>
				</g>
				<g>
					<rect x="-9.92" y="100.84" class="st8" width="6.82" height="1.41"/>
				</g>
				<g>
					<rect x="-0.42" y="100.84" class="st8" width="6.82" height="1.41"/>
				</g>
				<g>
					<rect x="9.09" y="100.84" class="st8" width="6.82" height="1.41"/>
				</g>
				<g>
					<rect x="18.6" y="100.84" class="st8" width="6.82" height="1.41"/>
				</g>
				<g>
					<rect x="28.11" y="100.84" class="st8" width="6.82" height="1.41"/>
				</g>
				<g>
					<rect x="37.61" y="100.84" class="st8" width="6.82" height="1.41"/>
				</g>
				<g>
					<rect x="47.12" y="100.84" class="st8" width="6.82" height="1.41"/>
				</g>
				<g>
					<path class="st2" d="M84.17,77.88h-0.55c-0.83,0-1.49,0.67-1.49,1.49v3.77c0,0.83,0.67,1.49,1.49,1.49h0.55
						c0.83,0,1.49-0.67,1.49-1.49v-3.77C85.66,78.55,84.99,77.88,84.17,77.88z"/>
				</g>
				<g>
					<path class="st3" d="M84.11,78.66h-0.45c-0.68,0-1.23,0.55-1.23,1.23v3.1c0,0.68,0.55,1.23,1.23,1.23h0.45
						c0.68,0,1.23-0.55,1.23-1.23v-3.1C85.34,79.21,84.79,78.66,84.11,78.66z"/>
				</g>
				<g>
					<g>
						
							<rect x="75.15" y="90.91" transform="matrix(-1.836970e-16 1 -1 -1.836970e-16 175.7565 7.8943)" class="st8" width="17.56" height="1.82"/>
					</g>
					<g>
						<polygon class="st9" points="84.84,83.05 83.02,85.26 83.02,86.8 84.84,84.59 						"/>
					</g>
					<g>
						<polygon class="st9" points="84.84,85.81 83.02,88.02 83.02,89.56 84.84,87.35 						"/>
					</g>
					<g>
						<polygon class="st9" points="84.84,88.57 83.02,90.78 83.02,92.32 84.84,90.11 						"/>
					</g>
					<g>
						<polygon class="st9" points="84.84,91.33 83.02,93.54 83.02,95.09 84.84,92.87 						"/>
					</g>
					<g>
						<polygon class="st9" points="84.84,94.09 83.02,96.3 83.02,97.85 84.84,95.63 						"/>
					</g>
					<g>
						<polygon class="st9" points="84.84,96.85 83.02,99.06 83.02,100.61 84.84,98.39 						"/>
					</g>
					<g>
						<polygon class="st9" points="84.84,99.68 84.06,100.61 84.84,100.61 						"/>
					</g>
					<g>
						<path class="st9" d="M83.88,83.05c-0.03,0-0.87,1.18-0.87,1.18v-1.18H83.88z"/>
					</g>
					<g>
						
							<rect x="75.15" y="107.49" transform="matrix(-1.836970e-16 1 -1 -1.836970e-16 192.3305 24.4682)" class="st8" width="17.56" height="1.82"/>
					</g>
					<g>
						<polygon class="st9" points="84.84,99.62 83.02,101.84 83.02,103.38 84.84,101.16 						"/>
					</g>
					<g>
						<polygon class="st9" points="84.84,102.38 83.02,104.6 83.02,106.14 84.84,103.92 						"/>
					</g>
					<g>
						<polygon class="st9" points="84.84,105.14 83.02,107.36 83.02,108.9 84.84,106.68 						"/>
					</g>
					<g>
						<polygon class="st9" points="84.84,107.9 83.02,110.12 83.02,111.66 84.84,109.44 						"/>
					</g>
					<g>
						<polygon class="st9" points="84.84,110.66 83.02,112.88 83.02,114.42 84.84,112.2 						"/>
					</g>
					<g>
						<polygon class="st9" points="84.84,113.42 83.02,115.64 83.02,117.18 84.84,114.96 						"/>
					</g>
					<g>
						<polygon class="st9" points="84.84,116.25 84.06,117.18 84.84,117.18 						"/>
					</g>
					<g>
						<path class="st9" d="M83.88,99.62c-0.03,0-0.87,1.18-0.87,1.18v-1.18H83.88z"/>
					</g>
				</g>
				<g>
					<path class="st2" d="M52.45,124.44h-0.56c-0.84,0-1.51-0.68-1.51-1.51v-3.82c0-0.84,0.68-1.51,1.51-1.51h0.56
						c0.84,0,1.51,0.68,1.51,1.51v3.82C53.96,123.76,53.29,124.44,52.45,124.44z"/>
				</g>
				<g>
					<path class="st3" d="M52.39,123.64h-0.46c-0.69,0-1.25-0.56-1.25-1.25v-3.14c0-0.69,0.56-1.25,1.25-1.25h0.46
						c0.69,0,1.25,0.56,1.25,1.25v3.14C53.63,123.09,53.08,123.64,52.39,123.64z"/>
				</g>
				<g>
					<g>
						
							<rect x="43.31" y="109.38" transform="matrix(6.123234e-17 -1 1 6.123234e-17 -58.0975 162.5147)" class="st8" width="17.79" height="1.85"/>
					</g>
					<g>
						<polygon class="st9" points="53.13,119.2 51.28,116.96 51.28,115.39 53.13,117.64 						"/>
					</g>
					<g>
						<polygon class="st9" points="53.13,116.41 51.28,114.16 51.28,112.6 53.13,114.84 						"/>
					</g>
					<g>
						<polygon class="st9" points="53.13,113.61 51.28,111.36 51.28,109.8 53.13,112.05 						"/>
					</g>
					<g>
						<polygon class="st9" points="53.13,110.81 51.28,108.57 51.28,107 53.13,109.25 						"/>
					</g>
					<g>
						<polygon class="st9" points="53.13,108.02 51.28,105.77 51.28,104.21 53.13,106.45 						"/>
					</g>
					<g>
						<polygon class="st9" points="53.13,105.22 51.28,102.97 51.28,101.41 53.13,103.66 						"/>
					</g>
					<g>
						<polygon class="st9" points="53.13,102.35 52.34,101.41 53.13,101.41 						"/>
					</g>
					<g>
						<path class="st9" d="M52.16,119.2c-0.03,0-0.88-1.19-0.88-1.19v1.19H52.16z"/>
					</g>
					<g>
						
							<rect x="43.31" y="92.59" transform="matrix(6.123234e-17 -1 1 6.123234e-17 -41.304 145.7212)" class="st8" width="17.79" height="1.85"/>
					</g>
					<g>
						<polygon class="st9" points="53.13,102.41 51.28,100.16 51.28,98.6 53.13,100.85 						"/>
					</g>
					<g>
						<polygon class="st9" points="53.13,99.61 51.28,97.37 51.28,95.8 53.13,98.05 						"/>
					</g>
					<g>
						<polygon class="st9" points="53.13,96.82 51.28,94.57 51.28,93.01 53.13,95.25 						"/>
					</g>
					<g>
						<polygon class="st9" points="53.13,94.02 51.28,91.77 51.28,90.21 53.13,92.46 						"/>
					</g>
					<g>
						<polygon class="st9" points="53.13,91.22 51.28,88.98 51.28,87.41 53.13,89.66 						"/>
					</g>
					<g>
						<polygon class="st9" points="53.13,88.43 51.28,86.18 51.28,84.62 53.13,86.86 						"/>
					</g>
					<g>
						<polygon class="st9" points="53.13,85.55 52.34,84.62 53.13,84.62 						"/>
					</g>
					<g>
						<path class="st9" d="M52.16,102.41c-0.03,0-0.88-1.19-0.88-1.19v1.19H52.16z"/>
					</g>
				</g>
			</g>
			<g>
				<g>
					<g>
						
							<rect x="69.94" y="33.32" transform="matrix(6.123234e-17 -1 1 6.123234e-17 44.8497 141.6589)" class="st10" width="46.63" height="30.17"/>
					</g>
					<g>
						<g>
							<g>
								
									<rect x="78.58" y="47.43" transform="matrix(6.123234e-17 -1 1 6.123234e-17 37.9272 135.4686)" class="st4" width="16.23" height="2.68"/>
							</g>
							<g>
								<polygon class="st5" points="85.36,41.09 87.65,41.09 87.65,56.89 88.04,56.89 88.04,40.66 85.36,40.66 								"/>
							</g>
							<g>
								<path class="st6" d="M87.49,55.12v0.11c0,0.32-0.26,0.57-0.57,0.57h-0.68c-0.32,0-0.57-0.26-0.57-0.57v-0.11H87.49z"/>
							</g>
							<g>
								<path class="st6" d="M87.49,53.19v-0.11c0-0.32-0.26-0.57-0.57-0.57h-0.68c-0.32,0-0.57,0.26-0.57,0.57v0.11H87.49z"/>
							</g>
							<g>
								<path class="st6" d="M87.49,44.35v0.11c0,0.32-0.26,0.57-0.57,0.57h-0.68c-0.32,0-0.57-0.26-0.57-0.57v-0.11H87.49z"/>
							</g>
							<g>
								<path class="st6" d="M87.49,42.41v-0.11c0-0.32-0.26-0.57-0.57-0.57h-0.68c-0.32,0-0.57,0.26-0.57,0.57v0.11H87.49z"/>
							</g>
						</g>
						<g>
							<g>
								
									<rect x="85.65" y="47.43" transform="matrix(6.123234e-17 -1 1 6.123234e-17 44.9943 142.5357)" class="st4" width="16.23" height="2.68"/>
							</g>
							<g>
								<polygon class="st5" points="92.42,41.09 94.72,41.09 94.72,56.89 95.11,56.89 95.11,40.66 92.42,40.66 								"/>
							</g>
							<g>
								<path class="st6" d="M94.55,55.12v0.11c0,0.32-0.26,0.57-0.57,0.57H93.3c-0.32,0-0.57-0.26-0.57-0.57v-0.11H94.55z"/>
							</g>
							<g>
								<path class="st6" d="M94.55,53.19v-0.11c0-0.32-0.26-0.57-0.57-0.57H93.3c-0.32,0-0.57,0.26-0.57,0.57v0.11H94.55z"/>
							</g>
							<g>
								<path class="st6" d="M94.55,44.35v0.11c0,0.32-0.26,0.57-0.57,0.57H93.3c-0.32,0-0.57-0.26-0.57-0.57v-0.11H94.55z"/>
							</g>
							<g>
								<path class="st6" d="M94.55,42.41v-0.11c0-0.32-0.26-0.57-0.57-0.57H93.3c-0.32,0-0.57,0.26-0.57,0.57v0.11H94.55z"/>
							</g>
						</g>
						<g>
							<g>
								
									<rect x="92.72" y="47.43" transform="matrix(6.123234e-17 -1 1 6.123234e-17 52.0615 149.6028)" class="st4" width="16.23" height="2.68"/>
							</g>
							<g>
								<polygon class="st5" points="99.49,41.09 101.79,41.09 101.79,56.89 102.17,56.89 102.17,40.66 99.49,40.66 								"/>
							</g>
							<g>
								<path class="st6" d="M101.62,55.12v0.11c0,0.32-0.26,0.57-0.57,0.57h-0.68c-0.32,0-0.57-0.26-0.57-0.57v-0.11H101.62z"/>
							</g>
							<g>
								<path class="st6" d="M101.62,53.19v-0.11c0-0.32-0.26-0.57-0.57-0.57h-0.68c-0.32,0-0.57,0.26-0.57,0.57v0.11H101.62z"/>
							</g>
							<g>
								<path class="st6" d="M101.62,44.35v0.11c0,0.32-0.26,0.57-0.57,0.57h-0.68c-0.32,0-0.57-0.26-0.57-0.57v-0.11H101.62z"/>
							</g>
							<g>
								<path class="st6" d="M101.62,42.41v-0.11c0-0.32-0.26-0.57-0.57-0.57h-0.68c-0.32,0-0.57,0.26-0.57,0.57v0.11H101.62z"/>
							</g>
						</g>
						<g>
							<g>
								
									<rect x="99.78" y="47.43" transform="matrix(6.123234e-17 -1 1 6.123234e-17 59.1286 156.6699)" class="st4" width="16.23" height="2.68"/>
							</g>
							<g>
								<polygon class="st5" points="106.56,41.09 108.85,41.09 108.85,56.89 109.24,56.89 109.24,40.66 106.56,40.66 								"/>
							</g>
							<g>
								<path class="st6" d="M108.69,55.12v0.11c0,0.32-0.26,0.57-0.57,0.57h-0.68c-0.32,0-0.57-0.26-0.57-0.57v-0.11H108.69z"/>
							</g>
							<g>
								<path class="st6" d="M108.69,53.19v-0.11c0-0.32-0.26-0.57-0.57-0.57h-0.68c-0.32,0-0.57,0.26-0.57,0.57v0.11H108.69z"/>
							</g>
							<g>
								<path class="st6" d="M108.69,44.35v0.11c0,0.32-0.26,0.57-0.57,0.57h-0.68c-0.32,0-0.57-0.26-0.57-0.57v-0.11H108.69z"/>
							</g>
							<g>
								<path class="st6" d="M108.69,42.41v-0.11c0-0.32-0.26-0.57-0.57-0.57h-0.68c-0.32,0-0.57,0.26-0.57,0.57v0.11H108.69z"/>
							</g>
						</g>
						<g>
							<g>
								
									<rect x="106.85" y="47.43" transform="matrix(6.123234e-17 -1 1 6.123234e-17 66.1956 163.737)" class="st4" width="16.23" height="2.68"/>
							</g>
							<g>
								<polygon class="st5" points="113.63,41.09 115.92,41.09 115.92,56.89 116.31,56.89 116.31,40.66 113.63,40.66 								"/>
							</g>
							<g>
								<path class="st6" d="M115.76,55.12v0.11c0,0.32-0.26,0.57-0.57,0.57h-0.68c-0.32,0-0.57-0.26-0.57-0.57v-0.11H115.76z"/>
							</g>
							<g>
								<path class="st6" d="M115.76,53.19v-0.11c0-0.32-0.26-0.57-0.57-0.57h-0.68c-0.32,0-0.57,0.26-0.57,0.57v0.11H115.76z"/>
							</g>
							<g>
								<path class="st6" d="M115.76,44.35v0.11c0,0.32-0.26,0.57-0.57,0.57h-0.68c-0.32,0-0.57-0.26-0.57-0.57v-0.11H115.76z"/>
							</g>
							<g>
								<path class="st6" d="M115.76,42.41v-0.11c0-0.32-0.26-0.57-0.57-0.57h-0.68c-0.32,0-0.57,0.26-0.57,0.57v0.11H115.76z"/>
							</g>
						</g>
						<g>
							<g>
								
									<rect x="113.92" y="47.43" transform="matrix(6.123234e-17 -1 1 6.123234e-17 73.2628 170.8041)" class="st4" width="16.23" height="2.68"/>
							</g>
							<g>
								<polygon class="st5" points="120.69,41.09 122.99,41.09 122.99,56.89 123.37,56.89 123.37,40.66 120.69,40.66 								"/>
							</g>
							<g>
								<path class="st6" d="M122.82,55.12v0.11c0,0.32-0.26,0.57-0.57,0.57h-0.68c-0.32,0-0.57-0.26-0.57-0.57v-0.11H122.82z"/>
							</g>
							<g>
								<path class="st6" d="M122.82,53.19v-0.11c0-0.32-0.26-0.57-0.57-0.57h-0.68c-0.32,0-0.57,0.26-0.57,0.57v0.11H122.82z"/>
							</g>
							<g>
								<path class="st6" d="M122.82,44.35v0.11c0,0.32-0.26,0.57-0.57,0.57h-0.68c-0.32,0-0.57-0.26-0.57-0.57v-0.11H122.82z"/>
							</g>
							<g>
								<path class="st6" d="M122.82,42.41v-0.11c0-0.32-0.26-0.57-0.57-0.57h-0.68c-0.32,0-0.57,0.26-0.57,0.57v0.11H122.82z"/>
							</g>
						</g>
						<g>
							<g>
								
									<rect x="120.98" y="47.43" transform="matrix(6.123234e-17 -1 1 6.123234e-17 80.3299 177.8712)" class="st4" width="16.23" height="2.68"/>
							</g>
							<g>
								<polygon class="st5" points="127.76,41.09 130.05,41.09 130.05,56.89 130.44,56.89 130.44,40.66 127.76,40.66 								"/>
							</g>
							<g>
								<path class="st6" d="M129.89,55.12v0.11c0,0.32-0.26,0.57-0.57,0.57h-0.68c-0.32,0-0.57-0.26-0.57-0.57v-0.11H129.89z"/>
							</g>
							<g>
								<path class="st6" d="M129.89,53.19v-0.11c0-0.32-0.26-0.57-0.57-0.57h-0.68c-0.32,0-0.57,0.26-0.57,0.57v0.11H129.89z"/>
							</g>
							<g>
								<path class="st6" d="M129.89,44.35v0.11c0,0.32-0.26,0.57-0.57,0.57h-0.68c-0.32,0-0.57-0.26-0.57-0.57v-0.11H129.89z"/>
							</g>
							<g>
								<path class="st6" d="M129.89,42.41v-0.11c0-0.32-0.26-0.57-0.57-0.57h-0.68c-0.32,0-0.57,0.26-0.57,0.57v0.11H129.89z"/>
							</g>
						</g>
						<g>
							<g>
								
									<rect x="128.05" y="47.43" transform="matrix(6.123234e-17 -1 1 6.123234e-17 87.3969 184.9382)" class="st4" width="16.23" height="2.68"/>
							</g>
							<g>
								<polygon class="st5" points="134.83,41.09 137.12,41.09 137.12,56.89 137.51,56.89 137.51,40.66 134.83,40.66 								"/>
							</g>
							<g>
								<path class="st6" d="M136.96,55.12v0.11c0,0.32-0.26,0.57-0.57,0.57h-0.68c-0.32,0-0.57-0.26-0.57-0.57v-0.11H136.96z"/>
							</g>
							<g>
								<path class="st6" d="M136.96,53.19v-0.11c0-0.32-0.26-0.57-0.57-0.57h-0.68c-0.32,0-0.57,0.26-0.57,0.57v0.11H136.96z"/>
							</g>
							<g>
								<path class="st6" d="M136.96,44.35v0.11c0,0.32-0.26,0.57-0.57,0.57h-0.68c-0.32,0-0.57-0.26-0.57-0.57v-0.11H136.96z"/>
							</g>
							<g>
								<path class="st6" d="M136.96,42.41v-0.11c0-0.32-0.26-0.57-0.57-0.57h-0.68c-0.32,0-0.57,0.26-0.57,0.57v0.11H136.96z"/>
							</g>
						</g>
						<g>
							<g>
								<rect x="83.31" y="53.19" class="st7" width="55.66" height="1.93"/>
							</g>
						</g>
						<g>
							<g>
								<rect x="83.31" y="42.41" class="st7" width="55.66" height="1.93"/>
							</g>
						</g>
					</g>
				</g>
				<g>
					<g>
						
							<rect x="19.18" y="33.28" transform="matrix(-1.720896e-03 -1 1 -1.720896e-03 -5.798 90.9434)" class="st10" width="46.63" height="30.17"/>
					</g>
					<g>
						<g>
							<g>
								
									<rect x="40.94" y="47.38" transform="matrix(-1.719526e-03 -1 1 -1.719526e-03 0.4155 97.8557)" class="st4" width="16.23" height="2.68"/>
							</g>
							<g>
								<polygon class="st5" points="50.38,41.03 48.09,41.04 48.11,56.84 47.72,56.84 47.7,40.61 50.38,40.6 								"/>
							</g>
							<g>
								<path class="st6" d="M48.27,55.07l0,0.11c0,0.32,0.26,0.57,0.57,0.57l0.68,0c0.32,0,0.57-0.26,0.57-0.57l0-0.11L48.27,55.07
									z"/>
							</g>
							<g>
								<path class="st6" d="M48.27,53.14l0-0.11c0-0.32,0.26-0.57,0.57-0.57l0.68,0c0.32,0,0.57,0.26,0.57,0.57l0,0.11L48.27,53.14
									z"/>
							</g>
							<g>
								<path class="st6" d="M48.26,44.3l0,0.11c0,0.32,0.26,0.57,0.57,0.57l0.68,0c0.32,0,0.57-0.26,0.57-0.57l0-0.11L48.26,44.3z"
									/>
							</g>
							<g>
								<path class="st6" d="M48.25,42.37l0-0.11c0-0.32,0.26-0.57,0.57-0.57l0.68,0c0.32,0,0.57,0.26,0.57,0.57l0,0.11L48.25,42.37
									z"/>
							</g>
						</g>
						<g>
							<g>
								
									<rect x="33.87" y="47.39" transform="matrix(-1.725029e-03 -1 1 -1.725029e-03 -6.6757 90.8011)" class="st4" width="16.23" height="2.68"/>
							</g>
							<g>
								<polygon class="st5" points="43.31,41.05 41.02,41.05 41.05,56.85 40.66,56.85 40.63,40.62 43.31,40.61 								"/>
							</g>
							<g>
								<path class="st6" d="M41.21,55.08l0,0.11c0,0.32,0.26,0.57,0.57,0.57l0.68,0c0.32,0,0.57-0.26,0.57-0.57l0-0.11L41.21,55.08
									z"/>
							</g>
							<g>
								<path class="st6" d="M41.2,53.15l0-0.11c0-0.32,0.26-0.57,0.57-0.57l0.68,0c0.32,0,0.57,0.26,0.57,0.57l0,0.11L41.2,53.15z"
									/>
							</g>
							<g>
								<path class="st6" d="M41.19,44.31l0,0.11c0,0.32,0.26,0.57,0.57,0.57l0.68,0c0.32,0,0.57-0.26,0.57-0.57l0-0.11L41.19,44.31
									z"/>
							</g>
							<g>
								<path class="st6" d="M41.18,42.38l0-0.11c0-0.32,0.26-0.57,0.57-0.57l0.68,0c0.32,0,0.57,0.26,0.57,0.57l0,0.11L41.18,42.38
									z"/>
							</g>
						</g>
						<g>
							<g>
								
									<rect x="26.8" y="47.4" transform="matrix(-1.719527e-03 -1 1 -1.719527e-03 -13.7673 83.7459)" class="st4" width="16.23" height="2.68"/>
							</g>
							<g>
								<polygon class="st5" points="36.24,41.06 33.95,41.06 33.98,56.86 33.59,56.86 33.56,40.63 36.24,40.63 								"/>
							</g>
							<g>
								<path class="st6" d="M34.14,55.1l0,0.11c0,0.32,0.26,0.57,0.57,0.57l0.68,0c0.32,0,0.57-0.26,0.57-0.57l0-0.11L34.14,55.1z"
									/>
							</g>
							<g>
								<path class="st6" d="M34.14,53.17l0-0.11c0-0.32,0.26-0.57,0.57-0.57l0.68,0c0.32,0,0.57,0.26,0.57,0.57l0,0.11L34.14,53.17
									z"/>
							</g>
							<g>
								<path class="st6" d="M34.12,44.32l0,0.11c0,0.32,0.26,0.57,0.57,0.57l0.68,0c0.32,0,0.57-0.26,0.57-0.57l0-0.11L34.12,44.32
									z"/>
							</g>
							<g>
								<path class="st6" d="M34.12,42.39l0-0.11c0-0.32,0.26-0.57,0.57-0.57l0.68,0c0.32,0,0.57,0.26,0.57,0.57l0,0.11L34.12,42.39
									z"/>
							</g>
						</g>
						<g>
							<g>
								
									<rect x="19.73" y="47.42" transform="matrix(-1.719526e-03 -1 1 -1.719526e-03 -20.8587 76.691)" class="st4" width="16.23" height="2.68"/>
							</g>
							<g>
								<polygon class="st5" points="29.18,41.07 26.88,41.07 26.91,56.87 26.52,56.87 26.5,40.64 29.18,40.64 								"/>
							</g>
							<g>
								<path class="st6" d="M27.07,55.11l0,0.11c0,0.32,0.26,0.57,0.57,0.57l0.68,0c0.32,0,0.57-0.26,0.57-0.57l0-0.11L27.07,55.11
									z"/>
							</g>
							<g>
								<path class="st6" d="M27.07,53.18l0-0.11c0-0.32,0.26-0.57,0.57-0.57l0.68,0c0.32,0,0.57,0.26,0.57,0.57l0,0.11L27.07,53.18
									z"/>
							</g>
							<g>
								<path class="st6" d="M27.05,44.33l0,0.11c0,0.32,0.26,0.57,0.57,0.57l0.68,0c0.32,0,0.57-0.26,0.57-0.57l0-0.11L27.05,44.33
									z"/>
							</g>
							<g>
								<path class="st6" d="M27.05,42.4l0-0.11c0-0.32,0.26-0.57,0.57-0.57l0.68,0c0.32,0,0.57,0.26,0.57,0.57l0,0.11L27.05,42.4z"
									/>
							</g>
						</g>
						<g>
							<g>
								
									<rect x="12.67" y="47.43" transform="matrix(-1.722282e-03 -1 1 -1.722282e-03 -27.9501 69.6363)" class="st4" width="16.23" height="2.68"/>
							</g>
							<g>
								<polygon class="st5" points="22.11,41.08 19.82,41.09 19.84,56.89 19.46,56.89 19.43,40.66 22.11,40.65 								"/>
							</g>
							<g>
								<path class="st6" d="M20.01,55.12l0,0.11c0,0.32,0.26,0.57,0.57,0.57l0.68,0c0.32,0,0.57-0.26,0.57-0.57l0-0.11L20.01,55.12
									z"/>
							</g>
							<g>
								<path class="st6" d="M20,53.19l0-0.11c0-0.32,0.26-0.57,0.57-0.57l0.68,0c0.32,0,0.57,0.26,0.57,0.57l0,0.11L20,53.19z"/>
							</g>
							<g>
								<path class="st6" d="M19.99,44.35l0,0.11c0,0.32,0.26,0.57,0.57,0.57l0.68,0c0.32,0,0.57-0.26,0.57-0.57l0-0.11L19.99,44.35
									z"/>
							</g>
							<g>
								<path class="st6" d="M19.98,42.41l0-0.11c0-0.32,0.26-0.57,0.57-0.57l0.68,0c0.32,0,0.57,0.26,0.57,0.57l0,0.11L19.98,42.41
									z"/>
							</g>
						</g>
						<g>
							<g>
								
									<rect x="5.6" y="47.44" transform="matrix(-1.722278e-03 -1 1 -1.722278e-03 -35.0416 62.5814)" class="st4" width="16.23" height="2.68"/>
							</g>
							<g>
								<polygon class="st5" points="15.04,41.09 12.75,41.1 12.78,56.9 12.39,56.9 12.36,40.67 15.04,40.66 								"/>
							</g>
							<g>
								<path class="st6" d="M12.94,55.13l0,0.11c0,0.32,0.26,0.57,0.57,0.57l0.68,0c0.32,0,0.57-0.26,0.57-0.57l0-0.11L12.94,55.13
									z"/>
							</g>
							<g>
								<path class="st6" d="M12.93,53.2l0-0.11c0-0.32,0.26-0.57,0.57-0.57l0.68,0c0.32,0,0.57,0.26,0.57,0.57l0,0.11L12.93,53.2z"
									/>
							</g>
							<g>
								<path class="st6" d="M12.92,44.36l0,0.11c0,0.32,0.26,0.57,0.57,0.57l0.68,0c0.32,0,0.57-0.26,0.57-0.57l0-0.11L12.92,44.36
									z"/>
							</g>
							<g>
								<path class="st6" d="M12.92,42.43l0-0.11c0-0.32,0.26-0.57,0.57-0.57l0.68,0c0.32,0,0.57,0.26,0.57,0.57l0,0.11L12.92,42.43
									z"/>
							</g>
						</g>
						<g>
							<g>
								
									<rect x="-1.47" y="47.45" transform="matrix(-1.722282e-03 -1 1 -1.722282e-03 -42.133 55.5265)" class="st4" width="16.23" height="2.68"/>
							</g>
							<g>
								<polygon class="st5" points="7.98,41.11 5.68,41.11 5.71,56.91 5.32,56.91 5.29,40.68 7.98,40.68 								"/>
							</g>
							<g>
								<path class="st6" d="M5.87,55.15l0,0.11c0,0.32,0.26,0.57,0.57,0.57l0.68,0c0.32,0,0.57-0.26,0.57-0.57l0-0.11L5.87,55.15z"
									/>
							</g>
							<g>
								<path class="st6" d="M5.87,53.21l0-0.11c0-0.32,0.26-0.57,0.57-0.57l0.68,0c0.32,0,0.57,0.26,0.57,0.57l0,0.11L5.87,53.21z"
									/>
							</g>
							<g>
								<path class="st6" d="M5.85,44.37l0,0.11c0,0.32,0.26,0.57,0.57,0.57l0.68,0c0.32,0,0.57-0.26,0.57-0.57l0-0.11L5.85,44.37z"
									/>
							</g>
							<g>
								<path class="st6" d="M5.85,42.44l0-0.11c0-0.32,0.26-0.57,0.57-0.57l0.68,0c0.32,0,0.57,0.26,0.57,0.57l0,0.11L5.85,42.44z"
									/>
							</g>
						</g>
						<g>
							<g>
								
									<rect x="-8.53" y="47.46" transform="matrix(-1.722282e-03 -1 1 -1.722282e-03 -49.2244 48.4716)" class="st4" width="16.23" height="2.68"/>
							</g>
							<g>
								<polygon class="st5" points="0.91,41.12 -1.38,41.12 -1.36,56.92 -1.74,56.92 -1.77,40.69 0.91,40.69 								"/>
							</g>
							<g>
								<path class="st6" d="M-1.2,55.16l0,0.11c0,0.32,0.26,0.57,0.57,0.57l0.68,0c0.32,0,0.57-0.26,0.57-0.57l0-0.11L-1.2,55.16z"
									/>
							</g>
							<g>
								<path class="st6" d="M-1.2,53.23l0-0.11c0-0.32,0.26-0.57,0.57-0.57l0.68,0c0.32,0,0.57,0.26,0.57,0.57l0,0.11L-1.2,53.23z"
									/>
							</g>
							<g>
								<path class="st6" d="M-1.21,44.38l0,0.11c0,0.32,0.26,0.57,0.57,0.57l0.68,0c0.32,0,0.57-0.26,0.57-0.57l0-0.11L-1.21,44.38
									z"/>
							</g>
							<g>
								<path class="st6" d="M-1.22,42.45l0-0.11c0-0.32,0.26-0.57,0.57-0.57l0.68,0c0.32,0,0.57,0.26,0.57,0.57l0,0.11L-1.22,42.45
									z"/>
							</g>
						</g>
						<g>
							<g>
								
									<rect x="-3.21" y="53.18" transform="matrix(1 -1.739361e-03 1.739361e-03 1 -0.0941 0.0429)" class="st7" width="55.66" height="1.93"/>
							</g>
						</g>
						<g>
							<g>
								
									<rect x="-3.23" y="42.41" transform="matrix(1 -1.716263e-03 1.716263e-03 1 -0.0744 0.0423)" class="st7" width="55.66" height="1.93"/>
							</g>
						</g>
					</g>
					<g>
						<path class="st11" d="M68.05,71.63l-40.6,0.07l-0.01-5.04c0.15,0,0.29,0,0.44,0c10.79-0.02,17.78-8.22,17.76-18.31
							c-0.02-10.1-7.03-18.27-17.82-18.25c-0.15,0-0.29,0-0.44,0.01l-0.01-5.04l40.6-0.07L68.05,71.63z"/>
					</g>
					<g>
						
							<rect x="45.23" y="48.85" transform="matrix(-1.723704e-03 -1 1 -1.723704e-03 -21.323 117.0164)" class="st12" width="5.04" height="40.6"/>
					</g>
					<g>
						
							<rect x="45.16" y="7.26" transform="matrix(-1.721931e-03 -1 1 -1.721931e-03 20.1944 75.2838)" class="st12" width="5.04" height="40.6"/>
					</g>
					<g>
						<g>
							<g>
								<g>
									<rect x="44.15" y="46.8" class="st13" width="1.61" height="3.01"/>
								</g>
								<g>
									<polygon class="st13" points="44.15,48.3 46.5,50.54 46.5,46.07 									"/>
								</g>
							</g>
							<g>
								<path class="st14" d="M20.35,55.42h-7.51c-3.79,0-6.86-3.07-6.86-6.86v0c0-3.79,3.07-6.86,6.86-6.86h7.51
									c1.14,0,2.06,0.92,2.06,2.06v9.6C22.41,54.5,21.49,55.42,20.35,55.42z"/>
							</g>
							<g>
								<path class="st14" d="M44.65,55.42H15.53c-3.79,0-6.86-3.07-6.86-6.86v0c0-3.79,3.07-6.86,6.86-6.86h29.13V55.42z"/>
							</g>
							<g>
								<path class="st15" d="M44.13,54.55H18.9c-3.26,0-5.89-2.64-5.89-5.89v0c0-3.26,2.64-5.89,5.89-5.89h25.23V54.55z"/>
							</g>
							<g>
								<path class="st16" d="M12.64,51.4c-0.38-0.94-0.52-2.84-0.52-2.84s0.14-1.9,0.52-2.84c0.76-1.85,2.21-2.71,2.34-2.88
									c0.13-0.18-1.7,0-1.7,0s-1.75,0.68-2.86,2.77c-0.71,1.34-0.76,2.95-0.76,2.95s0.05,1.61,0.76,2.95
									c1.11,2.09,2.86,2.77,2.86,2.77s1.83,0.18,1.7,0C14.85,54.11,13.4,53.26,12.64,51.4z"/>
							</g>
							<g>
								<path class="st14" d="M21.8,50.05h-3.09c-0.8,0-1.45-0.65-1.45-1.45v-0.11c0-0.8,0.65-1.45,1.45-1.45h3.09
									c0.8,0,1.45,0.65,1.45,1.45v0.11C23.25,49.4,22.6,50.05,21.8,50.05z"/>
							</g>
							<g>
								<path class="st14" d="M31.98,50.05h-3.09c-0.8,0-1.45-0.65-1.45-1.45v-0.11c0-0.8,0.65-1.45,1.45-1.45h3.09
									c0.8,0,1.45,0.65,1.45,1.45v0.11C33.43,49.4,32.78,50.05,31.98,50.05z"/>
							</g>
							<g>
								<path class="st14" d="M42.16,49.83h-3.09c-0.8,0-1.45-0.65-1.45-1.45v-0.11c0-0.8,0.65-1.45,1.45-1.45h3.09
									c0.8,0,1.45,0.65,1.45,1.45v0.11C43.61,49.18,42.96,49.83,42.16,49.83z"/>
							</g>
						</g>
						<g>
							<g>
								<g>
									<rect x="86.43" y="46.99" class="st13" width="1.61" height="3.01"/>
								</g>
								<g>
									<polygon class="st13" points="86.43,48.49 88.78,50.73 88.78,46.26 									"/>
								</g>
							</g>
							<g>
								<g>
									
										<rect x="47.24" y="46.9" transform="matrix(-1 -1.224647e-16 1.224647e-16 -1 96.0913 96.8076)" class="st13" width="1.61" height="3.01"/>
								</g>
								<g>
									<polygon class="st13" points="48.85,48.4 46.5,50.64 46.5,46.17 									"/>
								</g>
							</g>
							<g>
								<path class="st14" d="M84.75,55.32H50.81c-1.39,0-2.52-1.13-2.52-2.52v-8.63c0-1.39,1.13-2.52,2.52-2.52h33.94
									c1.39,0,2.52,1.13,2.52,2.52v8.63C87.27,54.2,86.14,55.32,84.75,55.32z"/>
							</g>
							<g>
								<path class="st15" d="M84.2,54.13H51.52c-1.23,0-2.23-1-2.23-2.23v-6.81c0-1.23,1-2.23,2.23-2.23H84.2
									c1.23,0,2.23,1,2.23,2.23v6.81C86.43,53.13,85.43,54.13,84.2,54.13z"/>
							</g>
							<g>
								<path class="st14" d="M54.64,50.1h-3.09c-0.8,0-1.45-0.65-1.45-1.45v-0.11c0-0.8,0.65-1.45,1.45-1.45h3.09
									c0.8,0,1.45,0.65,1.45,1.45v0.11C56.09,49.45,55.44,50.1,54.64,50.1z"/>
							</g>
							<g>
								<path class="st14" d="M64.57,50.1h-3.09c-0.8,0-1.45-0.65-1.45-1.45v-0.11c0-0.8,0.65-1.45,1.45-1.45h3.09
									c0.8,0,1.45,0.65,1.45,1.45v0.11C66.02,49.45,65.37,50.1,64.57,50.1z"/>
							</g>
							<g>
								<path class="st14" d="M74.5,50.1h-3.09c-0.8,0-1.45-0.65-1.45-1.45v-0.11c0-0.8,0.65-1.45,1.45-1.45h3.09
									c0.8,0,1.45,0.65,1.45,1.45v0.11C75.95,49.45,75.3,50.1,74.5,50.1z"/>
							</g>
							<g>
								<path class="st14" d="M84.43,50.1h-3.09c-0.8,0-1.45-0.65-1.45-1.45v-0.11c0-0.8,0.65-1.45,1.45-1.45h3.09
									c0.8,0,1.45,0.65,1.45,1.45v0.11C85.88,49.45,85.23,50.1,84.43,50.1z"/>
							</g>
						</g>
						<g>
							<g>
								<rect x="128.71" y="47.09" class="st13" width="1.61" height="3.01"/>
							</g>
							<g>
								<polygon class="st13" points="128.71,48.59 131.06,50.82 131.06,46.36 								"/>
							</g>
						</g>
						<g>
							<g>
								
									<rect x="89.34" y="47" transform="matrix(-1 -1.224647e-16 1.224647e-16 -1 180.2918 97.0054)" class="st13" width="1.61" height="3.01"/>
							</g>
							<g>
								<polygon class="st13" points="90.95,48.5 88.6,50.73 88.6,46.27 								"/>
							</g>
						</g>
						<g>
							<path class="st14" d="M127.03,55.42H93.09c-1.39,0-2.52-1.13-2.52-2.52v-8.63c0-1.39,1.13-2.52,2.52-2.52h33.94
								c1.39,0,2.52,1.13,2.52,2.52v8.63C129.54,54.3,128.42,55.42,127.03,55.42z"/>
						</g>
						<g>
							<path class="st15" d="M126.47,54.23H93.79c-1.23,0-2.23-1-2.23-2.23v-6.81c0-1.23,1-2.23,2.23-2.23h32.68
								c1.23,0,2.23,1,2.23,2.23V52C128.71,53.23,127.71,54.23,126.47,54.23z"/>
						</g>
						<g>
							<path class="st14" d="M96.92,50.19h-3.09c-0.8,0-1.45-0.65-1.45-1.45v-0.11c0-0.8,0.65-1.45,1.45-1.45h3.09
								c0.8,0,1.45,0.65,1.45,1.45v0.11C98.37,49.55,97.72,50.19,96.92,50.19z"/>
						</g>
						<g>
							<path class="st14" d="M106.85,50.19h-3.09c-0.8,0-1.45-0.65-1.45-1.45v-0.11c0-0.8,0.65-1.45,1.45-1.45h3.09
								c0.8,0,1.45,0.65,1.45,1.45v0.11C108.3,49.55,107.65,50.19,106.85,50.19z"/>
						</g>
						<g>
							<path class="st14" d="M116.78,50.19h-3.09c-0.8,0-1.45-0.65-1.45-1.45v-0.11c0-0.8,0.65-1.45,1.45-1.45h3.09
								c0.8,0,1.45,0.65,1.45,1.45v0.11C118.23,49.55,117.58,50.19,116.78,50.19z"/>
						</g>
						<g>
							<path class="st14" d="M126.71,50.19h-3.09c-0.8,0-1.45-0.65-1.45-1.45v-0.11c0-0.8,0.65-1.45,1.45-1.45h3.09
								c0.8,0,1.45,0.65,1.45,1.45v0.11C128.16,49.55,127.51,50.19,126.71,50.19z"/>
						</g>
					</g>
					<g>
						
							<rect x="43.2" y="36.87" transform="matrix(-1.720462e-03 -1 1 -1.720462e-03 9.1868 104.9647)" class="st11" width="27.58" height="22.05"/>
					</g>
					<g>
						
							<rect x="49.89" y="37.26" transform="matrix(-1.718665e-03 -1 1 -1.718665e-03 8.8019 105.3725)" class="st17" width="14.21" height="22.07"/>
					</g>
					<g>
						<path class="st18" d="M50.72,48.35c0.02,11.6-5.45,21.26-14.2,23.34l-9.07,0.02l-0.01-5.04c0.15,0,0.29,0,0.44,0
							c10.79-0.02,17.78-8.22,17.76-18.31c-0.02-10.1-7.03-18.27-17.82-18.25c-0.15,0-0.29,0-0.44,0.01l-0.01-5.04l9.07-0.02
							C45.19,27.11,50.7,36.75,50.72,48.35z"/>
					</g>
				</g>
				<g>
					<path class="st11" d="M67.74,71.72h40.6v-5.04c-0.15,0-0.29,0.01-0.44,0.01c-10.79,0-17.79-8.18-17.79-18.28
						c0-10.1,7-18.28,17.79-18.28c0.15,0,0.29,0,0.44,0.01v-5.04h-40.6V71.72z"/>
				</g>
				<g>
					
						<rect x="85.52" y="48.9" transform="matrix(6.123234e-17 -1 1 6.123234e-17 18.8394 157.2379)" class="st12" width="5.04" height="40.6"/>
				</g>
				<g>
					
						<rect x="85.52" y="7.31" transform="matrix(6.123234e-17 -1 1 6.123234e-17 60.4287 115.6486)" class="st12" width="5.04" height="40.6"/>
				</g>
				<g>
					
						<rect x="64.97" y="36.93" transform="matrix(6.123234e-17 -1 1 6.123234e-17 30.8018 126.7231)" class="st11" width="27.58" height="22.05"/>
				</g>
				<g>
					
						<rect x="71.65" y="37.32" transform="matrix(6.123234e-17 -1 1 6.123234e-17 30.3952 127.1087)" class="st17" width="14.21" height="22.07"/>
				</g>
				<g>
					<path class="st18" d="M85.03,48.4c0,11.6,5.49,21.25,14.24,23.31h9.07v-5.04c-0.15,0-0.29,0.01-0.44,0.01
						c-10.79,0-17.79-8.19-17.79-18.28s7-18.28,17.79-18.28c0.15,0,0.29,0,0.44,0.01v-5.04h-9.07C90.52,27.15,85.03,36.8,85.03,48.4
						z"/>
				</g>
			</g>
			<g>
				<rect x="55.98" y="23.68" class="st2" width="23.78" height="50.34"/>
			</g>
			<g>
				<g>
					<g>
						<rect x="59.75" y="19.24" class="st4" width="16.23" height="2.68"/>
					</g>
					<g>
						<polygon class="st5" points="75.55,19.24 75.55,21.53 59.75,21.53 59.75,21.92 75.98,21.92 75.98,19.24 						"/>
					</g>
					<g>
						<path class="st6" d="M61.52,21.37h-0.11c-0.32,0-0.57-0.26-0.57-0.57v-0.68c0-0.32,0.26-0.57,0.57-0.57h0.11V21.37z"/>
					</g>
					<g>
						<path class="st6" d="M63.45,21.37h0.11c0.32,0,0.57-0.26,0.57-0.57v-0.68c0-0.32-0.26-0.57-0.57-0.57h-0.11V21.37z"/>
					</g>
					<g>
						<path class="st6" d="M72.29,21.37h-0.11c-0.32,0-0.57-0.26-0.57-0.57v-0.68c0-0.32,0.26-0.57,0.57-0.57h0.11V21.37z"/>
					</g>
					<g>
						<path class="st6" d="M74.23,21.37h0.11c0.32,0,0.57-0.26,0.57-0.57v-0.68c0-0.32-0.26-0.57-0.57-0.57h-0.11V21.37z"/>
					</g>
				</g>
				<g>
					<g>
						<rect x="59.75" y="26.31" class="st4" width="16.23" height="2.68"/>
					</g>
					<g>
						<polygon class="st5" points="75.55,26.31 75.55,28.6 59.75,28.6 59.75,28.99 75.98,28.99 75.98,26.31 						"/>
					</g>
					<g>
						<path class="st6" d="M61.52,28.44h-0.11c-0.32,0-0.57-0.26-0.57-0.57v-0.68c0-0.32,0.26-0.57,0.57-0.57h0.11V28.44z"/>
					</g>
					<g>
						<path class="st6" d="M63.45,28.44h0.11c0.32,0,0.57-0.26,0.57-0.57v-0.68c0-0.32-0.26-0.57-0.57-0.57h-0.11V28.44z"/>
					</g>
					<g>
						<path class="st6" d="M72.29,28.44h-0.11c-0.32,0-0.57-0.26-0.57-0.57v-0.68c0-0.32,0.26-0.57,0.57-0.57h0.11V28.44z"/>
					</g>
					<g>
						<path class="st6" d="M74.23,28.44h0.11c0.32,0,0.57-0.26,0.57-0.57v-0.68c0-0.32-0.26-0.57-0.57-0.57h-0.11V28.44z"/>
					</g>
				</g>
				<g>
					<g>
						<rect x="59.75" y="33.38" class="st4" width="16.23" height="2.68"/>
					</g>
					<g>
						<polygon class="st5" points="75.55,33.38 75.55,35.67 59.75,35.67 59.75,36.06 75.98,36.06 75.98,33.38 						"/>
					</g>
					<g>
						<path class="st6" d="M61.52,35.5h-0.11c-0.32,0-0.57-0.26-0.57-0.57v-0.68c0-0.32,0.26-0.57,0.57-0.57h0.11V35.5z"/>
					</g>
					<g>
						<path class="st6" d="M63.45,35.5h0.11c0.32,0,0.57-0.26,0.57-0.57v-0.68c0-0.32-0.26-0.57-0.57-0.57h-0.11V35.5z"/>
					</g>
					<g>
						<path class="st6" d="M72.29,35.5h-0.11c-0.32,0-0.57-0.26-0.57-0.57v-0.68c0-0.32,0.26-0.57,0.57-0.57h0.11V35.5z"/>
					</g>
					<g>
						<path class="st6" d="M74.23,35.5h0.11c0.32,0,0.57-0.26,0.57-0.57v-0.68c0-0.32-0.26-0.57-0.57-0.57h-0.11V35.5z"/>
					</g>
				</g>
				<g>
					<g>
						<rect x="59.75" y="40.44" class="st4" width="16.23" height="2.68"/>
					</g>
					<g>
						<polygon class="st5" points="75.55,40.44 75.55,42.74 59.75,42.74 59.75,43.12 75.98,43.12 75.98,40.44 						"/>
					</g>
					<g>
						<path class="st6" d="M61.52,42.57h-0.11c-0.32,0-0.57-0.26-0.57-0.57v-0.68c0-0.32,0.26-0.57,0.57-0.57h0.11V42.57z"/>
					</g>
					<g>
						<path class="st6" d="M63.45,42.57h0.11c0.32,0,0.57-0.26,0.57-0.57v-0.68c0-0.32-0.26-0.57-0.57-0.57h-0.11V42.57z"/>
					</g>
					<g>
						<path class="st6" d="M72.29,42.57h-0.11c-0.32,0-0.57-0.26-0.57-0.57v-0.68c0-0.32,0.26-0.57,0.57-0.57h0.11V42.57z"/>
					</g>
					<g>
						<path class="st6" d="M74.23,42.57h0.11c0.32,0,0.57-0.26,0.57-0.57v-0.68c0-0.32-0.26-0.57-0.57-0.57h-0.11V42.57z"/>
					</g>
				</g>
				<g>
					<g>
						<rect x="59.75" y="47.51" class="st4" width="16.23" height="2.68"/>
					</g>
					<g>
						<polygon class="st5" points="75.55,47.51 75.55,49.8 59.75,49.8 59.75,50.19 75.98,50.19 75.98,47.51 						"/>
					</g>
					<g>
						<path class="st6" d="M61.52,49.64h-0.11c-0.32,0-0.57-0.26-0.57-0.57v-0.68c0-0.32,0.26-0.57,0.57-0.57h0.11V49.64z"/>
					</g>
					<g>
						<path class="st6" d="M63.45,49.64h0.11c0.32,0,0.57-0.26,0.57-0.57v-0.68c0-0.32-0.26-0.57-0.57-0.57h-0.11V49.64z"/>
					</g>
					<g>
						<path class="st6" d="M72.29,49.64h-0.11c-0.32,0-0.57-0.26-0.57-0.57v-0.68c0-0.32,0.26-0.57,0.57-0.57h0.11V49.64z"/>
					</g>
					<g>
						<path class="st6" d="M74.23,49.64h0.11c0.32,0,0.57-0.26,0.57-0.57v-0.68c0-0.32-0.26-0.57-0.57-0.57h-0.11V49.64z"/>
					</g>
				</g>
				<g>
					<g>
						<rect x="59.75" y="54.58" class="st4" width="16.23" height="2.68"/>
					</g>
					<g>
						<polygon class="st5" points="75.55,54.58 75.55,56.87 59.75,56.87 59.75,57.26 75.98,57.26 75.98,54.58 						"/>
					</g>
					<g>
						<path class="st6" d="M61.52,56.71h-0.11c-0.32,0-0.57-0.26-0.57-0.57v-0.68c0-0.32,0.26-0.57,0.57-0.57h0.11V56.71z"/>
					</g>
					<g>
						<path class="st6" d="M63.45,56.71h0.11c0.32,0,0.57-0.26,0.57-0.57v-0.68c0-0.32-0.26-0.57-0.57-0.57h-0.11V56.71z"/>
					</g>
					<g>
						<path class="st6" d="M72.29,56.71h-0.11c-0.32,0-0.57-0.26-0.57-0.57v-0.68c0-0.32,0.26-0.57,0.57-0.57h0.11V56.71z"/>
					</g>
					<g>
						<path class="st6" d="M74.23,56.71h0.11c0.32,0,0.57-0.26,0.57-0.57v-0.68c0-0.32-0.26-0.57-0.57-0.57h-0.11V56.71z"/>
					</g>
				</g>
				<g>
					<g>
						<rect x="59.75" y="61.64" class="st4" width="16.23" height="2.68"/>
					</g>
					<g>
						<polygon class="st5" points="75.55,61.64 75.55,63.94 59.75,63.94 59.75,64.33 75.98,64.33 75.98,61.64 						"/>
					</g>
					<g>
						<path class="st6" d="M61.52,63.77h-0.11c-0.32,0-0.57-0.26-0.57-0.57v-0.68c0-0.32,0.26-0.57,0.57-0.57h0.11V63.77z"/>
					</g>
					<g>
						<path class="st6" d="M63.45,63.77h0.11c0.32,0,0.57-0.26,0.57-0.57v-0.68c0-0.32-0.26-0.57-0.57-0.57h-0.11V63.77z"/>
					</g>
					<g>
						<path class="st6" d="M72.29,63.77h-0.11c-0.32,0-0.57-0.26-0.57-0.57v-0.68c0-0.32,0.26-0.57,0.57-0.57h0.11V63.77z"/>
					</g>
					<g>
						<path class="st6" d="M74.23,63.77h0.11c0.32,0,0.57-0.26,0.57-0.57v-0.68c0-0.32-0.26-0.57-0.57-0.57h-0.11V63.77z"/>
					</g>
				</g>
				<g>
					<g>
						<rect x="59.75" y="68.71" class="st4" width="16.23" height="2.68"/>
					</g>
					<g>
						<polygon class="st5" points="75.55,68.71 75.55,71 59.75,71 59.75,71.39 75.98,71.39 75.98,68.71 						"/>
					</g>
					<g>
						<path class="st6" d="M61.52,70.84h-0.11c-0.32,0-0.57-0.26-0.57-0.57v-0.68c0-0.32,0.26-0.57,0.57-0.57h0.11V70.84z"/>
					</g>
					<g>
						<path class="st6" d="M63.45,70.84h0.11c0.32,0,0.57-0.26,0.57-0.57v-0.68c0-0.32-0.26-0.57-0.57-0.57h-0.11V70.84z"/>
					</g>
					<g>
						<path class="st6" d="M72.29,70.84h-0.11c-0.32,0-0.57-0.26-0.57-0.57v-0.68c0-0.32,0.26-0.57,0.57-0.57h0.11V70.84z"/>
					</g>
					<g>
						<path class="st6" d="M74.23,70.84h0.11c0.32,0,0.57-0.26,0.57-0.57v-0.68c0-0.32-0.26-0.57-0.57-0.57h-0.11V70.84z"/>
					</g>
				</g>
				<g>
					<g>
						<rect x="61.52" y="17.19" class="st7" width="1.93" height="55.66"/>
					</g>
				</g>
				<g>
					<g>
						<rect x="72.29" y="17.19" class="st7" width="1.93" height="55.66"/>
					</g>
				</g>
			</g>
			<g>
				<g>
					<g>
						<rect x="59.75" y="130.53" class="st4" width="16.23" height="2.68"/>
					</g>
					<g>
						<polygon class="st5" points="75.55,130.53 75.55,132.82 59.75,132.82 59.75,133.21 75.98,133.21 75.98,130.53 						"/>
					</g>
					<g>
						<path class="st6" d="M61.52,132.66h-0.11c-0.32,0-0.57-0.26-0.57-0.57v-0.68c0-0.32,0.26-0.57,0.57-0.57h0.11V132.66z"/>
					</g>
					<g>
						<path class="st6" d="M63.45,132.66h0.11c0.32,0,0.57-0.26,0.57-0.57v-0.68c0-0.32-0.26-0.57-0.57-0.57h-0.11V132.66z"/>
					</g>
					<g>
						<path class="st6" d="M72.29,132.66h-0.11c-0.32,0-0.57-0.26-0.57-0.57v-0.68c0-0.32,0.26-0.57,0.57-0.57h0.11V132.66z"/>
					</g>
					<g>
						<path class="st6" d="M74.23,132.66h0.11c0.32,0,0.57-0.26,0.57-0.57v-0.68c0-0.32-0.26-0.57-0.57-0.57h-0.11V132.66z"/>
					</g>
				</g>
				<g>
					<g>
						<rect x="59.75" y="137.6" class="st4" width="16.23" height="2.68"/>
					</g>
					<g>
						<polygon class="st5" points="75.55,137.6 75.55,139.89 59.75,139.89 59.75,140.28 75.98,140.28 75.98,137.6 						"/>
					</g>
					<g>
						<path class="st6" d="M61.52,139.72h-0.11c-0.32,0-0.57-0.26-0.57-0.57v-0.68c0-0.32,0.26-0.57,0.57-0.57h0.11V139.72z"/>
					</g>
					<g>
						<path class="st6" d="M63.45,139.72h0.11c0.32,0,0.57-0.26,0.57-0.57v-0.68c0-0.32-0.26-0.57-0.57-0.57h-0.11V139.72z"/>
					</g>
					<g>
						<path class="st6" d="M72.29,139.72h-0.11c-0.32,0-0.57-0.26-0.57-0.57v-0.68c0-0.32,0.26-0.57,0.57-0.57h0.11V139.72z"/>
					</g>
					<g>
						<path class="st6" d="M74.23,139.72h0.11c0.32,0,0.57-0.26,0.57-0.57v-0.68c0-0.32-0.26-0.57-0.57-0.57h-0.11V139.72z"/>
					</g>
				</g>
				<g>
					<g>
						<rect x="59.75" y="144.66" class="st4" width="16.23" height="2.68"/>
					</g>
					<g>
						<polygon class="st5" points="75.55,144.66 75.55,146.96 59.75,146.96 59.75,147.34 75.98,147.34 75.98,144.66 						"/>
					</g>
					<g>
						<path class="st6" d="M61.52,146.79h-0.11c-0.32,0-0.57-0.26-0.57-0.57v-0.68c0-0.32,0.26-0.57,0.57-0.57h0.11V146.79z"/>
					</g>
					<g>
						<path class="st6" d="M63.45,146.79h0.11c0.32,0,0.57-0.26,0.57-0.57v-0.68c0-0.32-0.26-0.57-0.57-0.57h-0.11V146.79z"/>
					</g>
					<g>
						<path class="st6" d="M72.29,146.79h-0.11c-0.32,0-0.57-0.26-0.57-0.57v-0.68c0-0.32,0.26-0.57,0.57-0.57h0.11V146.79z"/>
					</g>
					<g>
						<path class="st6" d="M74.23,146.79h0.11c0.32,0,0.57-0.26,0.57-0.57v-0.68c0-0.32-0.26-0.57-0.57-0.57h-0.11V146.79z"/>
					</g>
				</g>
				<g>
					<g>
						<rect x="59.75" y="151.73" class="st4" width="16.23" height="2.68"/>
					</g>
					<g>
						<polygon class="st5" points="75.55,151.73 75.55,154.02 59.75,154.02 59.75,154.41 75.98,154.41 75.98,151.73 						"/>
					</g>
					<g>
						<path class="st6" d="M61.52,153.86h-0.11c-0.32,0-0.57-0.26-0.57-0.57v-0.68c0-0.32,0.26-0.57,0.57-0.57h0.11V153.86z"/>
					</g>
					<g>
						<path class="st6" d="M63.45,153.86h0.11c0.32,0,0.57-0.26,0.57-0.57v-0.68c0-0.32-0.26-0.57-0.57-0.57h-0.11V153.86z"/>
					</g>
					<g>
						<path class="st6" d="M72.29,153.86h-0.11c-0.32,0-0.57-0.26-0.57-0.57v-0.68c0-0.32,0.26-0.57,0.57-0.57h0.11V153.86z"/>
					</g>
					<g>
						<path class="st6" d="M74.23,153.86h0.11c0.32,0,0.57-0.26,0.57-0.57v-0.68c0-0.32-0.26-0.57-0.57-0.57h-0.11V153.86z"/>
					</g>
				</g>
				<g>
					<g>
						<rect x="59.75" y="158.8" class="st4" width="16.23" height="2.68"/>
					</g>
					<g>
						<polygon class="st5" points="75.55,158.8 75.55,161.09 59.75,161.09 59.75,161.48 75.98,161.48 75.98,158.8 						"/>
					</g>
					<g>
						<path class="st6" d="M61.52,160.93h-0.11c-0.32,0-0.57-0.26-0.57-0.57v-0.68c0-0.32,0.26-0.57,0.57-0.57h0.11V160.93z"/>
					</g>
					<g>
						<path class="st6" d="M63.45,160.93h0.11c0.32,0,0.57-0.26,0.57-0.57v-0.68c0-0.32-0.26-0.57-0.57-0.57h-0.11V160.93z"/>
					</g>
					<g>
						<path class="st6" d="M72.29,160.93h-0.11c-0.32,0-0.57-0.26-0.57-0.57v-0.68c0-0.32,0.26-0.57,0.57-0.57h0.11V160.93z"/>
					</g>
					<g>
						<path class="st6" d="M74.23,160.93h0.11c0.32,0,0.57-0.26,0.57-0.57v-0.68c0-0.32-0.26-0.57-0.57-0.57h-0.11V160.93z"/>
					</g>
				</g>
				<g>
					<g>
						<rect x="59.75" y="165.86" class="st4" width="16.23" height="2.68"/>
					</g>
					<g>
						<polygon class="st5" points="75.55,165.86 75.55,168.16 59.75,168.16 59.75,168.55 75.98,168.55 75.98,165.86 						"/>
					</g>
					<g>
						<path class="st6" d="M61.52,167.99h-0.11c-0.32,0-0.57-0.26-0.57-0.57v-0.68c0-0.32,0.26-0.57,0.57-0.57h0.11V167.99z"/>
					</g>
					<g>
						<path class="st6" d="M63.45,167.99h0.11c0.32,0,0.57-0.26,0.57-0.57v-0.68c0-0.32-0.26-0.57-0.57-0.57h-0.11V167.99z"/>
					</g>
					<g>
						<path class="st6" d="M72.29,167.99h-0.11c-0.32,0-0.57-0.26-0.57-0.57v-0.68c0-0.32,0.26-0.57,0.57-0.57h0.11V167.99z"/>
					</g>
					<g>
						<path class="st6" d="M74.23,167.99h0.11c0.32,0,0.57-0.26,0.57-0.57v-0.68c0-0.32-0.26-0.57-0.57-0.57h-0.11V167.99z"/>
					</g>
				</g>
				<g>
					<g>
						<rect x="59.75" y="172.93" class="st4" width="16.23" height="2.68"/>
					</g>
					<g>
						<polygon class="st5" points="75.55,172.93 75.55,175.22 59.75,175.22 59.75,175.61 75.98,175.61 75.98,172.93 						"/>
					</g>
					<g>
						<path class="st6" d="M61.52,175.06h-0.11c-0.32,0-0.57-0.26-0.57-0.57v-0.68c0-0.32,0.26-0.57,0.57-0.57h0.11V175.06z"/>
					</g>
					<g>
						<path class="st6" d="M63.45,175.06h0.11c0.32,0,0.57-0.26,0.57-0.57v-0.68c0-0.32-0.26-0.57-0.57-0.57h-0.11V175.06z"/>
					</g>
					<g>
						<path class="st6" d="M72.29,175.06h-0.11c-0.32,0-0.57-0.26-0.57-0.57v-0.68c0-0.32,0.26-0.57,0.57-0.57h0.11V175.06z"/>
					</g>
					<g>
						<path class="st6" d="M74.23,175.06h0.11c0.32,0,0.57-0.26,0.57-0.57v-0.68c0-0.32-0.26-0.57-0.57-0.57h-0.11V175.06z"/>
					</g>
				</g>
				<g>
					<g>
						<rect x="59.75" y="180" class="st4" width="16.23" height="2.68"/>
					</g>
					<g>
						<polygon class="st5" points="75.55,180 75.55,182.29 59.75,182.29 59.75,182.68 75.98,182.68 75.98,180 						"/>
					</g>
					<g>
						<path class="st6" d="M61.52,182.13h-0.11c-0.32,0-0.57-0.26-0.57-0.57v-0.68c0-0.32,0.26-0.57,0.57-0.57h0.11V182.13z"/>
					</g>
					<g>
						<path class="st6" d="M63.45,182.13h0.11c0.32,0,0.57-0.26,0.57-0.57v-0.68c0-0.32-0.26-0.57-0.57-0.57h-0.11V182.13z"/>
					</g>
					<g>
						<path class="st6" d="M72.29,182.13h-0.11c-0.32,0-0.57-0.26-0.57-0.57v-0.68c0-0.32,0.26-0.57,0.57-0.57h0.11V182.13z"/>
					</g>
					<g>
						<path class="st6" d="M74.23,182.13h0.11c0.32,0,0.57-0.26,0.57-0.57v-0.68c0-0.32-0.26-0.57-0.57-0.57h-0.11V182.13z"/>
					</g>
				</g>
				<g>
					<g>
						<rect x="61.52" y="128.48" class="st7" width="1.93" height="55.66"/>
					</g>
				</g>
				<g>
					<g>
						<rect x="72.29" y="128.48" class="st7" width="1.93" height="55.66"/>
					</g>
				</g>
			</g>
			<g>
				<g>
					<g>
						<rect x="59.75" y="-37.67" class="st4" width="16.23" height="2.68"/>
					</g>
					<g>
						<polygon class="st5" points="75.55,-37.67 75.55,-35.38 59.75,-35.38 59.75,-34.99 75.98,-34.99 75.98,-37.67 						"/>
					</g>
					<g>
						<path class="st6" d="M61.52-35.54h-0.11c-0.32,0-0.57-0.26-0.57-0.57v-0.68c0-0.32,0.26-0.57,0.57-0.57h0.11V-35.54z"/>
					</g>
					<g>
						<path class="st6" d="M63.45-35.54h0.11c0.32,0,0.57-0.26,0.57-0.57v-0.68c0-0.32-0.26-0.57-0.57-0.57h-0.11V-35.54z"/>
					</g>
					<g>
						<path class="st6" d="M72.29-35.54h-0.11c-0.32,0-0.57-0.26-0.57-0.57v-0.68c0-0.32,0.26-0.57,0.57-0.57h0.11V-35.54z"/>
					</g>
					<g>
						<path class="st6" d="M74.23-35.54h0.11c0.32,0,0.57-0.26,0.57-0.57v-0.68c0-0.32-0.26-0.57-0.57-0.57h-0.11V-35.54z"/>
					</g>
				</g>
				<g>
					<g>
						<rect x="59.75" y="-30.6" class="st4" width="16.23" height="2.68"/>
					</g>
					<g>
						<polygon class="st5" points="75.55,-30.6 75.55,-28.31 59.75,-28.31 59.75,-27.92 75.98,-27.92 75.98,-30.6 						"/>
					</g>
					<g>
						<path class="st6" d="M61.52-28.47h-0.11c-0.32,0-0.57-0.26-0.57-0.57v-0.68c0-0.32,0.26-0.57,0.57-0.57h0.11V-28.47z"/>
					</g>
					<g>
						<path class="st6" d="M63.45-28.47h0.11c0.32,0,0.57-0.26,0.57-0.57v-0.68c0-0.32-0.26-0.57-0.57-0.57h-0.11V-28.47z"/>
					</g>
					<g>
						<path class="st6" d="M72.29-28.47h-0.11c-0.32,0-0.57-0.26-0.57-0.57v-0.68c0-0.32,0.26-0.57,0.57-0.57h0.11V-28.47z"/>
					</g>
					<g>
						<path class="st6" d="M74.23-28.47h0.11c0.32,0,0.57-0.26,0.57-0.57v-0.68c0-0.32-0.26-0.57-0.57-0.57h-0.11V-28.47z"/>
					</g>
				</g>
				<g>
					<g>
						<rect x="59.75" y="-23.54" class="st4" width="16.23" height="2.68"/>
					</g>
					<g>
						<polygon class="st5" points="75.55,-23.54 75.55,-21.24 59.75,-21.24 59.75,-20.85 75.98,-20.85 75.98,-23.54 						"/>
					</g>
					<g>
						<path class="st6" d="M61.52-21.41h-0.11c-0.32,0-0.57-0.26-0.57-0.57v-0.68c0-0.32,0.26-0.57,0.57-0.57h0.11V-21.41z"/>
					</g>
					<g>
						<path class="st6" d="M63.45-21.41h0.11c0.32,0,0.57-0.26,0.57-0.57v-0.68c0-0.32-0.26-0.57-0.57-0.57h-0.11V-21.41z"/>
					</g>
					<g>
						<path class="st6" d="M72.29-21.41h-0.11c-0.32,0-0.57-0.26-0.57-0.57v-0.68c0-0.32,0.26-0.57,0.57-0.57h0.11V-21.41z"/>
					</g>
					<g>
						<path class="st6" d="M74.23-21.41h0.11c0.32,0,0.57-0.26,0.57-0.57v-0.68c0-0.32-0.26-0.57-0.57-0.57h-0.11V-21.41z"/>
					</g>
				</g>
				<g>
					<g>
						<rect x="59.75" y="-16.47" class="st4" width="16.23" height="2.68"/>
					</g>
					<g>
						<polygon class="st5" points="75.55,-16.47 75.55,-14.17 59.75,-14.17 59.75,-13.79 75.98,-13.79 75.98,-16.47 						"/>
					</g>
					<g>
						<path class="st6" d="M61.52-14.34h-0.11c-0.32,0-0.57-0.26-0.57-0.57v-0.68c0-0.32,0.26-0.57,0.57-0.57h0.11V-14.34z"/>
					</g>
					<g>
						<path class="st6" d="M63.45-14.34h0.11c0.32,0,0.57-0.26,0.57-0.57v-0.68c0-0.32-0.26-0.57-0.57-0.57h-0.11V-14.34z"/>
					</g>
					<g>
						<path class="st6" d="M72.29-14.34h-0.11c-0.32,0-0.57-0.26-0.57-0.57v-0.68c0-0.32,0.26-0.57,0.57-0.57h0.11V-14.34z"/>
					</g>
					<g>
						<path class="st6" d="M74.23-14.34h0.11c0.32,0,0.57-0.26,0.57-0.57v-0.68c0-0.32-0.26-0.57-0.57-0.57h-0.11V-14.34z"/>
					</g>
				</g>
				<g>
					<g>
						<rect x="59.75" y="-9.4" class="st4" width="16.23" height="2.68"/>
					</g>
					<g>
						<polygon class="st5" points="75.55,-9.4 75.55,-7.11 59.75,-7.11 59.75,-6.72 75.98,-6.72 75.98,-9.4 						"/>
					</g>
					<g>
						<path class="st6" d="M61.52-7.27h-0.11c-0.32,0-0.57-0.26-0.57-0.57v-0.68c0-0.32,0.26-0.57,0.57-0.57h0.11V-7.27z"/>
					</g>
					<g>
						<path class="st6" d="M63.45-7.27h0.11c0.32,0,0.57-0.26,0.57-0.57v-0.68c0-0.32-0.26-0.57-0.57-0.57h-0.11V-7.27z"/>
					</g>
					<g>
						<path class="st6" d="M72.29-7.27h-0.11c-0.32,0-0.57-0.26-0.57-0.57v-0.68c0-0.32,0.26-0.57,0.57-0.57h0.11V-7.27z"/>
					</g>
					<g>
						<path class="st6" d="M74.23-7.27h0.11c0.32,0,0.57-0.26,0.57-0.57v-0.68c0-0.32-0.26-0.57-0.57-0.57h-0.11V-7.27z"/>
					</g>
				</g>
				<g>
					<g>
						<rect x="59.75" y="-2.33" class="st4" width="16.23" height="2.68"/>
					</g>
					<g>
						<polygon class="st5" points="75.55,-2.33 75.55,-0.04 59.75,-0.04 59.75,0.35 75.98,0.35 75.98,-2.33 						"/>
					</g>
					<g>
						<path class="st6" d="M61.52-0.2h-0.11c-0.32,0-0.57-0.26-0.57-0.57v-0.68c0-0.32,0.26-0.57,0.57-0.57h0.11V-0.2z"/>
					</g>
					<g>
						<path class="st6" d="M63.45-0.2l0.11,0c0.32,0,0.57-0.26,0.57-0.57v-0.68c0-0.32-0.26-0.57-0.57-0.57h-0.11V-0.2z"/>
					</g>
					<g>
						<path class="st6" d="M72.29-0.2h-0.11c-0.32,0-0.57-0.26-0.57-0.57v-0.68c0-0.32,0.26-0.57,0.57-0.57h0.11V-0.2z"/>
					</g>
					<g>
						<path class="st6" d="M74.23-0.2h0.11c0.32,0,0.57-0.26,0.57-0.57v-0.68c0-0.32-0.26-0.57-0.57-0.57h-0.11V-0.2z"/>
					</g>
				</g>
				<g>
					<g>
						<rect x="59.75" y="4.73" class="st4" width="16.23" height="2.68"/>
					</g>
					<g>
						<polygon class="st5" points="75.55,4.73 75.55,7.03 59.75,7.03 59.75,7.41 75.98,7.41 75.98,4.73 						"/>
					</g>
					<g>
						<path class="st6" d="M61.52,6.86h-0.11c-0.32,0-0.57-0.26-0.57-0.57V5.61c0-0.32,0.26-0.57,0.57-0.57h0.11V6.86z"/>
					</g>
					<g>
						<path class="st6" d="M63.45,6.86h0.11c0.32,0,0.57-0.26,0.57-0.57V5.61c0-0.32-0.26-0.57-0.57-0.57h-0.11V6.86z"/>
					</g>
					<g>
						<path class="st6" d="M72.29,6.86h-0.11c-0.32,0-0.57-0.26-0.57-0.57V5.61c0-0.32,0.26-0.57,0.57-0.57h0.11V6.86z"/>
					</g>
					<g>
						<path class="st6" d="M74.23,6.86h0.11c0.32,0,0.57-0.26,0.57-0.57V5.61c0-0.32-0.26-0.57-0.57-0.57h-0.11V6.86z"/>
					</g>
				</g>
				<g>
					<g>
						<rect x="59.75" y="11.8" class="st4" width="16.23" height="2.68"/>
					</g>
					<g>
						<polygon class="st5" points="75.55,11.8 75.55,14.09 59.75,14.09 59.75,14.48 75.98,14.48 75.98,11.8 						"/>
					</g>
					<g>
						<path class="st6" d="M61.52,13.93h-0.11c-0.32,0-0.57-0.26-0.57-0.57v-0.68c0-0.32,0.26-0.57,0.57-0.57h0.11V13.93z"/>
					</g>
					<g>
						<path class="st6" d="M63.45,13.93h0.11c0.32,0,0.57-0.26,0.57-0.57v-0.68c0-0.32-0.26-0.57-0.57-0.57h-0.11V13.93z"/>
					</g>
					<g>
						<path class="st6" d="M72.29,13.93h-0.11c-0.32,0-0.57-0.26-0.57-0.57v-0.68c0-0.32,0.26-0.57,0.57-0.57h0.11V13.93z"/>
					</g>
					<g>
						<path class="st6" d="M74.23,13.93h0.11c0.32,0,0.57-0.26,0.57-0.57v-0.68c0-0.32-0.26-0.57-0.57-0.57h-0.11V13.93z"/>
					</g>
				</g>
				<g>
					<g>
						<rect x="61.52" y="-39.72" class="st7" width="1.93" height="56.91"/>
					</g>
				</g>
				<g>
					<g>
						<rect x="72.29" y="-39.72" class="st7" width="1.93" height="56.91"/>
					</g>
				</g>
			</g>
			<g>
				<g>
					<g>
						<g>
							<rect x="66.62" y="74.02" class="st13" width="3.01" height="1.61"/>
						</g>
						<g>
							<polygon class="st13" points="68.12,74.02 65.89,76.37 70.35,76.37 							"/>
						</g>
					</g>
					<g>
						<path class="st15" d="M61,50.22v-7.51c0-3.79,3.07-6.86,6.86-6.86h0c3.79,0,6.86,3.07,6.86,6.86v7.51
							c0,1.14-0.92,2.06-2.06,2.06h-9.6C61.92,52.28,61,51.36,61,50.22z"/>
					</g>
					<g>
						<path class="st19" d="M61,74.52V45.4c0-3.79,3.07-6.86,6.86-6.86h0c3.79,0,6.86,3.07,6.86,6.86v29.13H61z"/>
					</g>
					<g>
						<path class="st20" d="M61.88,74V48.77c0-3.26,2.64-5.89,5.89-5.89h0c3.26,0,5.89,2.64,5.89,5.89V74H61.88z"/>
					</g>
					<g>
						<path class="st16" d="M65.02,42.51c0.94-0.38,2.84-0.52,2.84-0.52s1.9,0.14,2.84,0.52c1.85,0.76,2.71,2.21,2.88,2.34
							c0.18,0.13,0-1.7,0-1.7s-0.68-1.75-2.77-2.86c-1.34-0.71-2.95-0.76-2.95-0.76s-1.61,0.05-2.95,0.76
							c-2.09,1.11-2.77,2.86-2.77,2.86s-0.18,1.83,0,1.7C62.32,44.72,63.17,43.27,65.02,42.51z"/>
					</g>
					<g>
						<path class="st21" d="M66.37,51.67v-3.09c0-0.8,0.65-1.45,1.45-1.45h0.11c0.8,0,1.45,0.65,1.45,1.45v3.09
							c0,0.8-0.65,1.45-1.45,1.45h-0.11C67.02,53.12,66.37,52.47,66.37,51.67z"/>
					</g>
					<g>
						<path class="st21" d="M66.37,61.85v-3.09c0-0.8,0.65-1.45,1.45-1.45h0.11c0.8,0,1.45,0.65,1.45,1.45v3.09
							c0,0.8-0.65,1.45-1.45,1.45h-0.11C67.02,63.3,66.37,62.65,66.37,61.85z"/>
					</g>
					<g>
						<path class="st21" d="M66.59,72.03v-3.09c0-0.8,0.65-1.45,1.45-1.45h0.11c0.8,0,1.45,0.65,1.45,1.45v3.09
							c0,0.8-0.65,1.45-1.45,1.45h-0.11C67.24,73.48,66.59,72.83,66.59,72.03z"/>
					</g>
				</g>
				<g>
					<g>
						<g>
							<rect x="66.43" y="116.3" class="st13" width="3.01" height="1.61"/>
						</g>
						<g>
							<polygon class="st13" points="67.93,116.3 65.7,118.65 70.16,118.65 							"/>
						</g>
					</g>
					<g>
						<g>
							<rect x="66.52" y="77.11" class="st13" width="3.01" height="1.61"/>
						</g>
						<g>
							<polygon class="st13" points="68.02,78.72 65.79,76.37 70.25,76.37 							"/>
						</g>
					</g>
					<g>
						<path class="st19" d="M61.1,114.62V80.68c0-1.39,1.13-2.52,2.52-2.52h8.63c1.39,0,2.52,1.13,2.52,2.52v33.94
							c0,1.39-1.13,2.52-2.52,2.52h-8.63C62.23,117.14,61.1,116.01,61.1,114.62z"/>
					</g>
					<g>
						<path class="st20" d="M62.29,114.07V81.39c0-1.23,1-2.23,2.23-2.23h6.81c1.23,0,2.23,1,2.23,2.23v32.68
							c0,1.23-1,2.23-2.23,2.23h-6.81C63.29,116.3,62.29,115.3,62.29,114.07z"/>
					</g>
					<g>
						<path class="st21" d="M66.33,84.51v-3.09c0-0.8,0.65-1.45,1.45-1.45h0.11c0.8,0,1.45,0.65,1.45,1.45v3.09
							c0,0.8-0.65,1.45-1.45,1.45h-0.11C66.98,85.96,66.33,85.31,66.33,84.51z"/>
					</g>
					<g>
						<path class="st21" d="M66.33,94.44v-3.09c0-0.8,0.65-1.45,1.45-1.45h0.11c0.8,0,1.45,0.65,1.45,1.45v3.09
							c0,0.8-0.65,1.45-1.45,1.45h-0.11C66.98,95.89,66.33,95.24,66.33,94.44z"/>
					</g>
					<g>
						<path class="st21" d="M66.33,104.37v-3.09c0-0.8,0.65-1.45,1.45-1.45h0.11c0.8,0,1.45,0.65,1.45,1.45v3.09
							c0,0.8-0.65,1.45-1.45,1.45h-0.11C66.98,105.82,66.33,105.17,66.33,104.37z"/>
					</g>
					<g>
						<path class="st21" d="M66.33,114.3v-3.09c0-0.8,0.65-1.45,1.45-1.45h0.11c0.8,0,1.45,0.65,1.45,1.45v3.09
							c0,0.8-0.65,1.45-1.45,1.45h-0.11C66.98,115.75,66.33,115.1,66.33,114.3z"/>
					</g>
				</g>
				<g>
					<g>
						<rect x="66.33" y="158.58" class="st13" width="3.01" height="1.61"/>
					</g>
					<g>
						<polygon class="st13" points="67.83,158.58 65.6,160.93 70.06,160.93 						"/>
					</g>
				</g>
				<g>
					<g>
						<rect x="66.42" y="119.21" class="st13" width="3.01" height="1.61"/>
					</g>
					<g>
						<polygon class="st13" points="67.92,120.82 65.69,118.47 70.15,118.47 						"/>
					</g>
				</g>
				<g>
					<path class="st19" d="M61,156.9v-33.94c0-1.39,1.13-2.52,2.52-2.52h8.63c1.39,0,2.52,1.13,2.52,2.52v33.94
						c0,1.39-1.13,2.52-2.52,2.52h-8.63C62.13,159.41,61,158.29,61,156.9z"/>
				</g>
				<g>
					<path class="st20" d="M62.19,156.34v-32.68c0-1.23,1-2.23,2.23-2.23h6.81c1.23,0,2.23,1,2.23,2.23v32.68
						c0,1.23-1,2.23-2.23,2.23h-6.81C63.19,158.58,62.19,157.58,62.19,156.34z"/>
				</g>
				<g>
					<path class="st21" d="M66.23,126.79v-3.09c0-0.8,0.65-1.45,1.45-1.45h0.11c0.8,0,1.45,0.65,1.45,1.45v3.09
						c0,0.8-0.65,1.45-1.45,1.45h-0.11C66.88,128.24,66.23,127.59,66.23,126.79z"/>
				</g>
				<g>
					<path class="st21" d="M66.23,136.72v-3.09c0-0.8,0.65-1.45,1.45-1.45h0.11c0.8,0,1.45,0.65,1.45,1.45v3.09
						c0,0.8-0.65,1.45-1.45,1.45h-0.11C66.88,138.17,66.23,137.52,66.23,136.72z"/>
				</g>
				<g>
					<path class="st21" d="M66.23,146.65v-3.09c0-0.8,0.65-1.45,1.45-1.45h0.11c0.8,0,1.45,0.65,1.45,1.45v3.09
						c0,0.8-0.65,1.45-1.45,1.45h-0.11C66.88,148.1,66.23,147.45,66.23,146.65z"/>
				</g>
				<g>
					<path class="st21" d="M66.23,156.58v-3.09c0-0.8,0.65-1.45,1.45-1.45h0.11c0.8,0,1.45,0.65,1.45,1.45v3.09
						c0,0.8-0.65,1.45-1.45,1.45h-0.11C66.88,158.03,66.23,157.38,66.23,156.58z"/>
				</g>
			</g>
			<g>
				<g>
					<g>
						
							<rect x="134.24" y="47.43" transform="matrix(6.123234e-17 -1 1 6.123234e-17 93.5875 191.1288)" class="st4" width="16.23" height="2.68"/>
					</g>
					<g>
						<polygon class="st5" points="141.02,41.09 143.31,41.09 143.31,56.89 143.7,56.89 143.7,40.66 141.02,40.66 						"/>
					</g>
					<g>
						<path class="st6" d="M143.15,55.12v0.11c0,0.32-0.26,0.57-0.57,0.57h-0.68c-0.32,0-0.57-0.26-0.57-0.57v-0.11H143.15z"/>
					</g>
					<g>
						<path class="st6" d="M143.15,53.19v-0.11c0-0.32-0.26-0.57-0.57-0.57h-0.68c-0.32,0-0.57,0.26-0.57,0.57v0.11H143.15z"/>
					</g>
					<g>
						<path class="st6" d="M143.15,44.35v0.11c0,0.32-0.26,0.57-0.57,0.57h-0.68c-0.32,0-0.57-0.26-0.57-0.57v-0.11H143.15z"/>
					</g>
					<g>
						<path class="st6" d="M143.15,42.41v-0.11c0-0.32-0.26-0.57-0.57-0.57h-0.68c-0.32,0-0.57,0.26-0.57,0.57v0.11H143.15z"/>
					</g>
				</g>
				<g>
					<g>
						
							<rect x="141.31" y="47.43" transform="matrix(6.123234e-17 -1 1 6.123234e-17 100.6546 198.1959)" class="st4" width="16.23" height="2.68"/>
					</g>
					<g>
						<polygon class="st5" points="148.08,41.09 150.38,41.09 150.38,56.89 150.77,56.89 150.77,40.66 148.08,40.66 						"/>
					</g>
					<g>
						<path class="st6" d="M150.21,55.12v0.11c0,0.32-0.26,0.57-0.57,0.57h-0.68c-0.32,0-0.57-0.26-0.57-0.57v-0.11H150.21z"/>
					</g>
					<g>
						<path class="st6" d="M150.21,53.19v-0.11c0-0.32-0.26-0.57-0.57-0.57h-0.68c-0.32,0-0.57,0.26-0.57,0.57v0.11H150.21z"/>
					</g>
					<g>
						<path class="st6" d="M150.21,44.35v0.11c0,0.32-0.26,0.57-0.57,0.57h-0.68c-0.32,0-0.57-0.26-0.57-0.57v-0.11H150.21z"/>
					</g>
					<g>
						<path class="st6" d="M150.21,42.41v-0.11c0-0.32-0.26-0.57-0.57-0.57h-0.68c-0.32,0-0.57,0.26-0.57,0.57v0.11H150.21z"/>
					</g>
				</g>
				<g>
					<g>
						
							<rect x="148.38" y="47.43" transform="matrix(6.123234e-17 -1 1 6.123234e-17 107.7217 205.263)" class="st4" width="16.23" height="2.68"/>
					</g>
					<g>
						<polygon class="st5" points="155.15,41.09 157.45,41.09 157.45,56.89 157.83,56.89 157.83,40.66 155.15,40.66 						"/>
					</g>
					<g>
						<path class="st6" d="M157.28,55.12v0.11c0,0.32-0.26,0.57-0.57,0.57h-0.68c-0.32,0-0.57-0.26-0.57-0.57v-0.11H157.28z"/>
					</g>
					<g>
						<path class="st6" d="M157.28,53.19v-0.11c0-0.32-0.26-0.57-0.57-0.57h-0.68c-0.32,0-0.57,0.26-0.57,0.57v0.11H157.28z"/>
					</g>
					<g>
						<path class="st6" d="M157.28,44.35v0.11c0,0.32-0.26,0.57-0.57,0.57h-0.68c-0.32,0-0.57-0.26-0.57-0.57v-0.11H157.28z"/>
					</g>
					<g>
						<path class="st6" d="M157.28,42.41v-0.11c0-0.32-0.26-0.57-0.57-0.57h-0.68c-0.32,0-0.57,0.26-0.57,0.57v0.11H157.28z"/>
					</g>
				</g>
				<g>
					<g>
						
							<rect x="155.44" y="47.43" transform="matrix(6.123234e-17 -1 1 6.123234e-17 114.7888 212.3302)" class="st4" width="16.23" height="2.68"/>
					</g>
					<g>
						<polygon class="st5" points="162.22,41.09 164.51,41.09 164.51,56.89 164.9,56.89 164.9,40.66 162.22,40.66 						"/>
					</g>
					<g>
						<path class="st6" d="M164.35,55.12v0.11c0,0.32-0.26,0.57-0.57,0.57h-0.68c-0.32,0-0.57-0.26-0.57-0.57v-0.11H164.35z"/>
					</g>
					<g>
						<path class="st6" d="M164.35,53.19v-0.11c0-0.32-0.26-0.57-0.57-0.57h-0.68c-0.32,0-0.57,0.26-0.57,0.57v0.11H164.35z"/>
					</g>
					<g>
						<path class="st6" d="M164.35,44.35v0.11c0,0.32-0.26,0.57-0.57,0.57h-0.68c-0.32,0-0.57-0.26-0.57-0.57v-0.11H164.35z"/>
					</g>
					<g>
						<path class="st6" d="M164.35,42.41v-0.11c0-0.32-0.26-0.57-0.57-0.57h-0.68c-0.32,0-0.57,0.26-0.57,0.57v0.11H164.35z"/>
					</g>
				</g>
				<g>
					<g>
						
							<rect x="162.51" y="47.43" transform="matrix(6.123234e-17 -1 1 6.123234e-17 121.8559 219.3972)" class="st4" width="16.23" height="2.68"/>
					</g>
					<g>
						<polygon class="st5" points="169.29,41.09 171.58,41.09 171.58,56.89 171.97,56.89 171.97,40.66 169.29,40.66 						"/>
					</g>
					<g>
						<path class="st6" d="M171.42,55.12v0.11c0,0.32-0.26,0.57-0.57,0.57h-0.68c-0.32,0-0.57-0.26-0.57-0.57v-0.11H171.42z"/>
					</g>
					<g>
						<path class="st6" d="M171.42,53.19v-0.11c0-0.32-0.26-0.57-0.57-0.57h-0.68c-0.32,0-0.57,0.26-0.57,0.57v0.11H171.42z"/>
					</g>
					<g>
						<path class="st6" d="M171.42,44.35v0.11c0,0.32-0.26,0.57-0.57,0.57h-0.68c-0.32,0-0.57-0.26-0.57-0.57v-0.11H171.42z"/>
					</g>
					<g>
						<path class="st6" d="M171.42,42.41v-0.11c0-0.32-0.26-0.57-0.57-0.57h-0.68c-0.32,0-0.57,0.26-0.57,0.57v0.11H171.42z"/>
					</g>
				</g>
				<g>
					<g>
						
							<rect x="169.58" y="47.43" transform="matrix(6.123234e-17 -1 1 6.123234e-17 128.9231 226.4644)" class="st4" width="16.23" height="2.68"/>
					</g>
					<g>
						<polygon class="st5" points="176.35,41.09 178.65,41.09 178.65,56.89 179.03,56.89 179.03,40.66 176.35,40.66 						"/>
					</g>
					<g>
						<path class="st6" d="M178.48,55.12v0.11c0,0.32-0.26,0.57-0.57,0.57h-0.68c-0.32,0-0.57-0.26-0.57-0.57v-0.11H178.48z"/>
					</g>
					<g>
						<path class="st6" d="M178.48,53.19v-0.11c0-0.32-0.26-0.57-0.57-0.57h-0.68c-0.32,0-0.57,0.26-0.57,0.57v0.11H178.48z"/>
					</g>
					<g>
						<path class="st6" d="M178.48,44.35v0.11c0,0.32-0.26,0.57-0.57,0.57h-0.68c-0.32,0-0.57-0.26-0.57-0.57v-0.11H178.48z"/>
					</g>
					<g>
						<path class="st6" d="M178.48,42.41v-0.11c0-0.32-0.26-0.57-0.57-0.57h-0.68c-0.32,0-0.57,0.26-0.57,0.57v0.11H178.48z"/>
					</g>
				</g>
				<g>
					<g>
						
							<rect x="176.65" y="47.43" transform="matrix(6.123234e-17 -1 1 6.123234e-17 135.9901 233.5314)" class="st4" width="16.23" height="2.68"/>
					</g>
					<g>
						<polygon class="st5" points="183.42,41.09 185.71,41.09 185.71,56.89 186.1,56.89 186.1,40.66 183.42,40.66 						"/>
					</g>
					<g>
						<path class="st6" d="M185.55,55.12v0.11c0,0.32-0.26,0.57-0.57,0.57h-0.68c-0.32,0-0.57-0.26-0.57-0.57v-0.11H185.55z"/>
					</g>
					<g>
						<path class="st6" d="M185.55,53.19v-0.11c0-0.32-0.26-0.57-0.57-0.57h-0.68c-0.32,0-0.57,0.26-0.57,0.57v0.11H185.55z"/>
					</g>
					<g>
						<path class="st6" d="M185.55,44.35v0.11c0,0.32-0.26,0.57-0.57,0.57h-0.68c-0.32,0-0.57-0.26-0.57-0.57v-0.11H185.55z"/>
					</g>
					<g>
						<path class="st6" d="M185.55,42.41v-0.11c0-0.32-0.26-0.57-0.57-0.57h-0.68c-0.32,0-0.57,0.26-0.57,0.57v0.11H185.55z"/>
					</g>
				</g>
				<g>
					<g>
						
							<rect x="183.71" y="47.43" transform="matrix(6.123234e-17 -1 1 6.123234e-17 143.0572 240.5985)" class="st4" width="16.23" height="2.68"/>
					</g>
					<g>
						<polygon class="st5" points="190.49,41.09 192.78,41.09 192.78,56.89 193.17,56.89 193.17,40.66 190.49,40.66 						"/>
					</g>
					<g>
						<path class="st6" d="M192.62,55.12v0.11c0,0.32-0.26,0.57-0.57,0.57h-0.68c-0.32,0-0.57-0.26-0.57-0.57v-0.11H192.62z"/>
					</g>
					<g>
						<path class="st6" d="M192.62,53.19v-0.11c0-0.32-0.26-0.57-0.57-0.57h-0.68c-0.32,0-0.57,0.26-0.57,0.57v0.11H192.62z"/>
					</g>
					<g>
						<path class="st6" d="M192.62,44.35v0.11c0,0.32-0.26,0.57-0.57,0.57h-0.68c-0.32,0-0.57-0.26-0.57-0.57v-0.11H192.62z"/>
					</g>
					<g>
						<path class="st6" d="M192.62,42.41v-0.11c0-0.32-0.26-0.57-0.57-0.57h-0.68c-0.32,0-0.57,0.26-0.57,0.57v0.11H192.62z"/>
					</g>
				</g>
				<g>
					<g>
						<rect x="138.97" y="53.19" class="st7" width="55.66" height="1.93"/>
					</g>
				</g>
				<g>
					<g>
						<rect x="138.97" y="42.41" class="st7" width="55.66" height="1.93"/>
					</g>
				</g>
			</g>
			<g>
				<g>
					<g>
						
							<rect x="-14.74" y="47.43" transform="matrix(-1.836970e-16 1 -1 -1.836970e-16 42.1511 55.3902)" class="st4" width="16.23" height="2.68"/>
					</g>
					<g>
						<polygon class="st5" points="-5.28,56.46 -7.57,56.46 -7.57,40.66 -7.96,40.66 -7.96,56.89 -5.28,56.89 						"/>
					</g>
					<g>
						<path class="st6" d="M-7.41,42.42v-0.11c0-0.32,0.26-0.57,0.57-0.57h0.68c0.32,0,0.57,0.26,0.57,0.57v0.11H-7.41z"/>
					</g>
					<g>
						<path class="st6" d="M-7.41,44.35v0.11c0,0.32,0.26,0.57,0.57,0.57h0.68c0.32,0,0.57-0.26,0.57-0.57v-0.11H-7.41z"/>
					</g>
					<g>
						<path class="st6" d="M-7.41,53.2v-0.11c0-0.32,0.26-0.57,0.57-0.57h0.68c0.32,0,0.57,0.26,0.57,0.57v0.11H-7.41z"/>
					</g>
					<g>
						<path class="st6" d="M-7.41,55.13v0.11c0,0.32,0.26,0.57,0.57,0.57h0.68c0.32,0,0.57-0.26,0.57-0.57v-0.11H-7.41z"/>
					</g>
				</g>
				<g>
					<g>
						
							<rect x="-21.8" y="47.43" transform="matrix(-1.836970e-16 1 -1 -1.836970e-16 35.084 62.4573)" class="st4" width="16.23" height="2.68"/>
					</g>
					<g>
						<polygon class="st5" points="-12.35,56.46 -14.64,56.46 -14.64,40.66 -15.03,40.66 -15.03,56.89 -12.35,56.89 						"/>
					</g>
					<g>
						<path class="st6" d="M-14.48,42.42v-0.11c0-0.32,0.26-0.57,0.57-0.57h0.68c0.32,0,0.57,0.26,0.57,0.57v0.11H-14.48z"/>
					</g>
					<g>
						<path class="st6" d="M-14.48,44.35v0.11c0,0.32,0.26,0.57,0.57,0.57h0.68c0.32,0,0.57-0.26,0.57-0.57v-0.11H-14.48z"/>
					</g>
					<g>
						<path class="st6" d="M-14.48,53.2v-0.11c0-0.32,0.26-0.57,0.57-0.57h0.68c0.32,0,0.57,0.26,0.57,0.57v0.11H-14.48z"/>
					</g>
					<g>
						<path class="st6" d="M-14.48,55.13v0.11c0,0.32,0.26,0.57,0.57,0.57h0.68c0.32,0,0.57-0.26,0.57-0.57v-0.11H-14.48z"/>
					</g>
				</g>
				<g>
					<g>
						
							<rect x="-28.87" y="47.43" transform="matrix(-1.836970e-16 1 -1 -1.836970e-16 28.0169 69.5245)" class="st4" width="16.23" height="2.68"/>
					</g>
					<g>
						<polygon class="st5" points="-19.41,56.46 -21.71,56.46 -21.71,40.66 -22.09,40.66 -22.09,56.89 -19.41,56.89 						"/>
					</g>
					<g>
						<path class="st6" d="M-21.54,42.42v-0.11c0-0.32,0.26-0.57,0.57-0.57h0.68c0.32,0,0.57,0.26,0.57,0.57v0.11H-21.54z"/>
					</g>
					<g>
						<path class="st6" d="M-21.54,44.35v0.11c0,0.32,0.26,0.57,0.57,0.57h0.68c0.32,0,0.57-0.26,0.57-0.57v-0.11H-21.54z"/>
					</g>
					<g>
						<path class="st6" d="M-21.54,53.2v-0.11c0-0.32,0.26-0.57,0.57-0.57h0.68c0.32,0,0.57,0.26,0.57,0.57v0.11H-21.54z"/>
					</g>
					<g>
						<path class="st6" d="M-21.54,55.13v0.11c0,0.32,0.26,0.57,0.57,0.57h0.68c0.32,0,0.57-0.26,0.57-0.57v-0.11H-21.54z"/>
					</g>
				</g>
				<g>
					<g>
						
							<rect x="-35.94" y="47.43" transform="matrix(-1.836970e-16 1 -1 -1.836970e-16 20.9497 76.5916)" class="st4" width="16.23" height="2.68"/>
					</g>
					<g>
						<polygon class="st5" points="-26.48,56.46 -28.77,56.46 -28.77,40.66 -29.16,40.66 -29.16,56.89 -26.48,56.89 						"/>
					</g>
					<g>
						<path class="st6" d="M-28.61,42.42v-0.11c0-0.32,0.26-0.57,0.57-0.57h0.68c0.32,0,0.57,0.26,0.57,0.57v0.11H-28.61z"/>
					</g>
					<g>
						<path class="st6" d="M-28.61,44.35v0.11c0,0.32,0.26,0.57,0.57,0.57h0.68c0.32,0,0.57-0.26,0.57-0.57v-0.11H-28.61z"/>
					</g>
					<g>
						<path class="st6" d="M-28.61,53.2v-0.11c0-0.32,0.26-0.57,0.57-0.57h0.68c0.32,0,0.57,0.26,0.57,0.57v0.11H-28.61z"/>
					</g>
					<g>
						<path class="st6" d="M-28.61,55.13v0.11c0,0.32,0.26,0.57,0.57,0.57h0.68c0.32,0,0.57-0.26,0.57-0.57v-0.11H-28.61z"/>
					</g>
				</g>
				<g>
					<g>
						
							<rect x="-43" y="47.43" transform="matrix(-1.836970e-16 1 -1 -1.836970e-16 13.8827 83.6586)" class="st4" width="16.23" height="2.68"/>
					</g>
					<g>
						<polygon class="st5" points="-33.55,56.46 -35.84,56.46 -35.84,40.66 -36.23,40.66 -36.23,56.89 -33.55,56.89 						"/>
					</g>
					<g>
						<path class="st6" d="M-35.68,42.42v-0.11c0-0.32,0.26-0.57,0.57-0.57h0.68c0.32,0,0.57,0.26,0.57,0.57v0.11H-35.68z"/>
					</g>
					<g>
						<path class="st6" d="M-35.68,44.35v0.11c0,0.32,0.26,0.57,0.57,0.57h0.68c0.32,0,0.57-0.26,0.57-0.57v-0.11H-35.68z"/>
					</g>
					<g>
						<path class="st6" d="M-35.68,53.2v-0.11c0-0.32,0.26-0.57,0.57-0.57h0.68c0.32,0,0.57,0.26,0.57,0.57v0.11H-35.68z"/>
					</g>
					<g>
						<path class="st6" d="M-35.68,55.13v0.11c0,0.32,0.26,0.57,0.57,0.57h0.68c0.32,0,0.57-0.26,0.57-0.57v-0.11H-35.68z"/>
					</g>
				</g>
				<g>
					<g>
						
							<rect x="-50.07" y="47.43" transform="matrix(-1.836970e-16 1 -1 -1.836970e-16 6.8155 90.7258)" class="st4" width="16.23" height="2.68"/>
					</g>
					<g>
						<polygon class="st5" points="-40.61,56.46 -42.91,56.46 -42.91,40.66 -43.3,40.66 -43.3,56.89 -40.61,56.89 						"/>
					</g>
					<g>
						<path class="st6" d="M-42.74,42.42v-0.11c0-0.32,0.26-0.57,0.57-0.57h0.68c0.32,0,0.57,0.26,0.57,0.57v0.11H-42.74z"/>
					</g>
					<g>
						<path class="st6" d="M-42.74,44.35v0.11c0,0.32,0.26,0.57,0.57,0.57h0.68c0.32,0,0.57-0.26,0.57-0.57v-0.11H-42.74z"/>
					</g>
					<g>
						<path class="st6" d="M-42.74,53.2v-0.11c0-0.32,0.26-0.57,0.57-0.57h0.68c0.32,0,0.57,0.26,0.57,0.57v0.11H-42.74z"/>
					</g>
					<g>
						<path class="st6" d="M-42.74,55.13v0.11c0,0.32,0.26,0.57,0.57,0.57h0.68c0.32,0,0.57-0.26,0.57-0.57v-0.11H-42.74z"/>
					</g>
				</g>
				<g>
					<g>
						
							<rect x="-57.14" y="47.43" transform="matrix(-1.836970e-16 1 -1 -1.836970e-16 -0.2515 97.7929)" class="st4" width="16.23" height="2.68"/>
					</g>
					<g>
						<polygon class="st5" points="-47.68,56.46 -49.98,56.46 -49.98,40.66 -50.36,40.66 -50.36,56.89 -47.68,56.89 						"/>
					</g>
					<g>
						<path class="st6" d="M-49.81,42.42v-0.11c0-0.32,0.26-0.57,0.57-0.57h0.68c0.32,0,0.57,0.26,0.57,0.57v0.11H-49.81z"/>
					</g>
					<g>
						<path class="st6" d="M-49.81,44.35v0.11c0,0.32,0.26,0.57,0.57,0.57h0.68c0.32,0,0.57-0.26,0.57-0.57v-0.11H-49.81z"/>
					</g>
					<g>
						<path class="st6" d="M-49.81,53.2v-0.11c0-0.32,0.26-0.57,0.57-0.57h0.68c0.32,0,0.57,0.26,0.57,0.57v0.11H-49.81z"/>
					</g>
					<g>
						<path class="st6" d="M-49.81,55.13v0.11c0,0.32,0.26,0.57,0.57,0.57h0.68c0.32,0,0.57-0.26,0.57-0.57v-0.11H-49.81z"/>
					</g>
				</g>
				<g>
					<g>
						
							<rect x="-64.2" y="47.43" transform="matrix(-1.836970e-16 1 -1 -1.836970e-16 -7.3186 104.8599)" class="st4" width="16.23" height="2.68"/>
					</g>
					<g>
						<polygon class="st5" points="-54.75,56.46 -57.04,56.46 -57.04,40.66 -57.43,40.66 -57.43,56.89 -54.75,56.89 						"/>
					</g>
					<g>
						<path class="st6" d="M-56.88,42.42v-0.11c0-0.32,0.26-0.57,0.57-0.57h0.68c0.32,0,0.57,0.26,0.57,0.57v0.11H-56.88z"/>
					</g>
					<g>
						<path class="st6" d="M-56.88,44.35v0.11c0,0.32,0.26,0.57,0.57,0.57h0.68c0.32,0,0.57-0.26,0.57-0.57v-0.11H-56.88z"/>
					</g>
					<g>
						<path class="st6" d="M-56.88,53.2v-0.11c0-0.32,0.26-0.57,0.57-0.57h0.68c0.32,0,0.57,0.26,0.57,0.57v0.11H-56.88z"/>
					</g>
					<g>
						<path class="st6" d="M-56.88,55.13v0.11c0,0.32,0.26,0.57,0.57,0.57h0.68c0.32,0,0.57-0.26,0.57-0.57v-0.11H-56.88z"/>
					</g>
				</g>
				<g>
					<g>
						<rect x="-58.89" y="42.42" class="st7" width="55.66" height="1.93"/>
					</g>
				</g>
				<g>
					<g>
						<rect x="-58.89" y="53.2" class="st7" width="55.66" height="1.93"/>
					</g>
				</g>
			</g>
		</g>
	</g>
</g>
</svg>
