<?xml version="1.0" encoding="utf-8"?>
<!-- Generator: Adobe Illustrator 25.4.1, SVG Export Plug-In . SVG Version: 6.00 Build 0)  -->
<svg version="1.1" id="Layer_1" xmlns="http://www.w3.org/2000/svg" xmlns:xlink="http://www.w3.org/1999/xlink" width="128" height="80"
	 viewBox="0 0 133.3 133.3" style="enable-background:new 0 0 133.3 133.3;" xml:space="preserve">
<style type="text/css">
	.st0{fill:#FFDA9C;}
	.st1{fill:#A96F25;}
	.st2{fill:#C6A887;}
	.st3{fill:#EDC788;}
</style>
<g>
	<polygon class="st0" points="118.3,4.2 116.3,9.5 114.3,4.2 113,4.2 111.7,7.6 110.4,4.2 80.3,4.2 79,7.6 77.7,4.2 74.6,4.2
		73.3,7.6 72,4.2 57.1,4.2 55.1,9.5 53.1,4.2 49.6,4.2 48.3,7.6 47,4.2 13,4.2 11.7,7.6 10.5,4.4 9.3,7.6 8.1,4.2 4.2,4.2
		4.2,129.1 16.5,129.1 17,126.6 17.5,129.1 23,129.1 24,124.1 24.7,129.1 30.4,129.1 31.2,126.6 32.1,129.1 62.8,129.1 64.1,124.1
		64.9,129.1 67.2,129.1 70.2,121.3 73.2,129.1 74.7,129.1 77,123.1 79.3,129.1 92.3,129.1 94.2,124.1 95.5,129.1 111.3,129.1
		113.6,123.1 114.8,126.2 116,123.1 118.3,129.1 129.1,129.1 129.1,4.2 	"/>
	<g>
		<g>
			<path class="st1" d="M58.1,35.7c4.8,6,9.5,12,14.2,17.9c0.6-0.4,1.2-0.8,1.8-1.1c0,0,0.1,0.1,0.2,0.2c-0.5,0.4-1.1,0.9-1.7,1.3
				C78,60.9,83.4,67.8,89,74.8c-6.9,0-13.6,0-20.4,0c0,0.5,0,0.8,0,1.2c0,0.3,0.2,0.7-0.3,1c-0.2-0.7,0-1.4-0.2-2.2
				c-0.3,0-0.6,0-0.9,0c-0.2,0.7,0,1.4-0.3,2.1c-0.4-0.6-0.1-1.3-0.3-2c-0.8-0.1-1.6,0-2.5-0.1c-0.8,0-1.7,0-2.5,0
				c-0.8,0-1.7,0-2.5,0c-0.8,0-1.7,0-2.5,0c-0.8,0-1.7,0-2.5,0c-0.8,0-1.7,0-2.5,0c-0.8,0-1.7,0-2.6,0c1.4-6.1,2.8-12,4.2-18.1
				c-0.6-0.1-1.3-0.2-1.9-0.4c0.3-0.6,0.7-0.2,1-0.2c0.3,0,0.7,0.1,1.1,0.1c0-0.3,0.1-0.5,0.1-0.7c-0.6-0.2-1.1-0.3-1.7-0.5
				c0,0,0-0.1,0-0.3c0.6,0.1,1.1,0.1,1.8,0.2c0.1-0.3,0.1-0.5,0.2-0.8c-0.7-0.3-1.3-0.2-2-0.5c0.8-0.4,1.4,0.1,2.1,0
				c0.7-2.9,1.4-5.9,2.1-8.9C56.6,41.8,57.3,38.8,58.1,35.7z M62,42c-0.8,0.3-1.5,0.8-2.3,1c-0.8,0.2-1.7,0.1-2.6,0.1
				c-0.8,3.5-1.7,7.1-2.5,10.7c0.6,0.4,1.4,0.1,2,0.7c-0.8,0.2-1.4-0.2-2.1-0.1c0,0.1-0.1,0.3-0.1,0.4c0,0.1,0,0.3,0,0.4
				c0.4,0.1,0.8,0.1,1.2,0.2c0.3,0.1,0.8-0.1,0.9,0.5c-0.8-0.1-1.5-0.2-2.2-0.3c-0.1,0.2-0.1,0.5-0.2,0.7c0.7,0.3,1.4,0.1,2,0.5
				c0,0.1,0,0.2,0,0.2c-0.7,0-1.4,0-2.1-0.1c-1,4.2-2,8.4-3,12.7c1,0.3,1.9,0.8,2.4,1.6c0.5,0.8,0.7,1.8,0.6,2.7c4.3,0,8.5,0,12.8,0
				c0-0.5,0-1,0-1.4c0-0.1,0.1-0.3,0.2-0.5c0.3,0.7,0,1.3,0.3,1.9c0.3,0,0.6,0,0.9,0c0-0.6,0-1.2,0-1.7c0.1,0,0.2,0,0.3,0
				c0.5,0.5,0,1.2,0.3,1.7c0.9,0.1,11.4,0.1,12.1,0c-0.1-2.1,0.6-4,2.1-5.5c-3.7-4.6-7.3-9.2-10.9-13.8c-0.7,0.2-1,0.9-1.7,1
				c0.3-0.6,1-0.8,1.4-1.4C68.4,50.1,65.2,46,62,42z M49.9,73.9c0.9,0.2,2.8,0.2,3.5,0c0.3-1.9-0.8-3.6-2.6-3.7
				C50.5,71.4,50.2,72.6,49.9,73.9z M60.8,40.5c-0.4-0.5-0.8-1-1.1-1.4c-0.4-0.4-0.6-1-1.2-1.3c-0.3,1.2-0.5,2.3-0.8,3.5
				C58.8,41.6,59.8,41.2,60.8,40.5z M84.9,70.9c-0.9,0.9-1.1,1.9-0.8,3c1.1,0,2.1,0,3.2,0C86.4,72.9,85.7,71.9,84.9,70.9z
				 M83.1,68.7c-1.5,1.5-2.1,3.1-1.9,5.2c0.4,0,0.7,0,1,0c-0.2-1.8,0.3-3.2,1.5-4.4C83.5,69.2,83.3,69,83.1,68.7z M57.5,41.6
				c-0.1,0.4-0.1,0.6-0.2,0.9c1.7,0.5,3.2,0.1,4.2-1c-0.2-0.2-0.3-0.4-0.5-0.7C60,41.7,58.8,41.9,57.5,41.6z M83.6,74
				c-0.3-1.3,0.2-2.4,1-3.4c-0.2-0.3-0.4-0.5-0.6-0.7c-1.2,1.2-1.6,2.5-1.3,4.1C83,74,83.2,74,83.6,74z"/>
			<path class="st1" d="M46,75.7c0-0.9,0-1.7,0-2.6c0.4,0,0.8-0.1,1.2,0c0.5,0,0.7,0.4,0.6,0.9c-0.1,0.2-0.1,0.3,0,0.4
				c0.4,0.6,0.1,1.1-0.6,1.2C46.8,75.7,46.5,75.7,46,75.7z M46.4,75.3c0.3,0,0.6,0,0.9,0c0.3,0,0.4-0.2,0.4-0.5
				c0-0.2-0.2-0.4-0.3-0.4c-0.3-0.1-0.6,0-0.9,0C46.4,74.7,46.4,75,46.4,75.3z M46.4,74.1c0.3,0,0.6,0,0.8,0c0.1,0,0.3-0.2,0.3-0.4
				c0-0.1-0.1-0.3-0.3-0.4c-0.3-0.1-0.5,0-0.9-0.1C46.4,73.6,46.4,73.8,46.4,74.1z"/>
			<path class="st1" d="M58.8,35.2c-0.1-0.2-0.2-0.5-0.4-0.8c-0.3,0-0.6,0-1,0c-0.1,0.3-0.3,0.5-0.4,0.8c-0.1-0.6,0.4-2,0.9-2.7
				c0.5,0.3,0.5,0.8,0.6,1.2c0.2,0.4,0.3,0.9,0.5,1.3C59,35.1,58.9,35.2,58.8,35.2z M58.3,34.1c-0.2-0.4-0.3-0.7-0.4-1.1
				c-0.1,0.4-0.2,0.7-0.3,1C57.8,34,58,34,58.3,34.1z"/>
			<path class="st1" d="M91.8,73.8c-0.8-0.7-1.2-0.7-1.6-0.4c-0.4,0.4-0.4,1.3,0,1.7c0.4,0.4,0.8,0.2,1.5-0.5c0,0.5-0.1,0.7-0.5,0.9
				c-0.5,0.2-0.9,0.1-1.3-0.3c-0.4-0.5-0.4-1.4,0-1.9c0.3-0.3,0.6-0.5,1-0.4C91.4,73,91.7,73.2,91.8,73.8z"/>
		</g>
		<g>
			<path class="st1" d="M70,36.4c-0.7,0.3-1.1,1-1.9,1.2c0-0.1-0.1-0.1-0.1-0.2c0.5-0.4,1.1-0.9,1.7-1.4
				C64.1,29,58.5,21.9,52.9,14.9c0.3-0.2,0.6-0.1,0.9-0.1c6.2,0,12.5,0,18.7,0c0.4,0,0.7,0,1.1,0c0.3-0.7-0.1-1.5,0.3-2.3
				c0.5,0.8,0.1,1.6,0.3,2.3c0.3,0,0.6,0,0.9,0c0-0.7,0-1.4,0-2.2c0.7,0.1,0.4,0.6,0.5,0.9c0,0.4,0,0.8,0,1.3c1.1,0.1,2.1,0,3.1,0
				c1,0,2,0,2.9,0c1,0,2,0,3,0s2,0,3,0c1,0,2,0,2.9,0c1,0,2,0,3.1,0C92.5,20.9,91,27,89.6,33.3c0.7,0.1,1.3,0.2,1.9,0.4
				c0,0.1,0,0.1,0,0.2c-0.1,0.1-0.3,0.2-0.4,0.1c-0.5,0-1-0.1-1.6-0.2c-0.1,0.3-0.1,0.5-0.2,0.7c0.4,0.1,0.7,0.1,1,0.2
				c0.3,0.1,0.6,0.1,1,0.2c-0.8,0.5-1.4-0.1-2.1,0.2c-0.1,0.2-0.1,0.5-0.2,0.7c0.7,0.4,1.4,0.2,2.2,0.6c-0.9,0.3-1.5-0.1-2.3,0
				c-1.5,6.1-2.8,12.2-4.3,18.4C79.6,48.6,74.8,42.5,70,36.4z M73.8,15.6c-4.2,0-8.3,0-12.5,0c0.1,2.2-0.6,4.2-2.2,5.7
				c3.8,4.8,7.5,9.5,11.2,14.2c0.5-0.4,0.9-0.7,1.4-1.1c0.1-0.1,0.3,0,0.6,0c-0.7,0.5-1.1,0.9-1.7,1.4c3.3,4.2,6.6,8.4,9.9,12.5
				c0.8-0.4,1.6-0.8,2.4-1c0.8-0.2,1.7,0,2.6,0c0.4-1.9,0.9-3.8,1.3-5.6c0.4-1.8,0.9-3.6,1.2-5.5c-0.7-0.1-1.4-0.2-2-0.4
				c0-0.1,0-0.1,0-0.2c0.1-0.1,0.3-0.2,0.4-0.1c0.5,0.1,1,0.1,1.5,0.2c0.1,0,0.2,0,0.3-0.1c0-0.2,0.1-0.5,0.1-0.7
				c-0.7-0.4-1.5-0.1-2.2-0.6c0.9-0.4,1.6,0.2,2.4,0c0.1-0.2,0.1-0.4,0.2-0.5c-0.6-0.4-1.5-0.1-2.2-0.7c0.9-0.2,1.6,0.2,2.4,0.1
				c1-4.3,2-8.6,3-12.9c-0.6-0.4-1.2-0.6-1.8-1c-0.6-0.4-1-1-1.1-1.7c-0.1-0.6-0.1-1.3-0.2-1.9c-2.7-0.2-12.3-0.1-13,0.1
				c0,0.3,0,0.6,0,1c0,0.3,0.2,0.7-0.4,0.8c0-0.7,0-1.3-0.1-2c-0.4,0-0.7,0.1-0.9,0.1c-0.3,0.7,0.1,1.3-0.3,1.9
				c-0.3-0.3-0.2-0.6-0.2-0.9C73.8,16.3,73.8,16,73.8,15.6z M91.8,19.6c0.4-0.5,1-3.2,1-4c-1.1,0-2.2,0-3.3,0
				C88.8,17.4,89.8,19,91.8,19.6z M81.9,49.9c0.5,0.9,1.8,2.5,2.3,2.8c0.2-1.2,0.6-2.3,0.8-3.6C83.7,49,82.7,49.1,81.9,49.9z
				 M57.1,18.8c0.8-1,1.2-2,0.8-3.2c-0.5,0-1.1,0-1.6,0c-0.5,0-1.1,0-1.7,0C55.5,16.7,56.2,17.7,57.1,18.8z M59.9,15.6
				c0.2,1.8-0.3,3.3-1.6,4.6c0.2,0.2,0.3,0.4,0.4,0.5c0.1,0.1,0.1,0.1,0.3,0.2c1.5-1.5,2.1-3.2,1.9-5.3
				C60.5,15.6,60.3,15.6,59.9,15.6z M85.3,47.8c-1.7-0.4-3.1-0.1-4.4,1c0.2,0.3,0.4,0.5,0.6,0.7c1.1-0.8,2.3-1.1,3.6-0.8
				C85.2,48.4,85.2,48.2,85.3,47.8z M57.9,19.8c1.2-0.8,1.8-2.6,1.4-4.2c-0.3,0-0.6,0-0.8,0c-0.1,0.7-0.1,1.3-0.3,1.9
				c-0.2,0.6-0.5,1.1-0.8,1.7C57.6,19.4,57.7,19.6,57.9,19.8z"/>
			<path class="st1" d="M85,57.8c-0.2-0.1-0.5-0.1-0.7-0.2c0,0,0-0.1,0-0.1c0.3,0,0.6,0,1,0c0.2,0.4,0.1,0.8,0.1,1.2
				c-0.3,0.1-0.6,0.1-0.8,0.2c-0.6,0.1-1.1-0.1-1.3-0.5c-0.3-0.6-0.3-1.1,0-1.7c0.3-0.4,0.8-0.6,1.3-0.5c0.4,0.1,0.4,0.1,0.8,0.9
				c-0.3-0.2-0.4-0.4-0.6-0.5c-0.6-0.4-1.3-0.1-1.4,0.6c0,0.2,0,0.5,0,0.7c0.1,0.5,0.4,0.8,0.9,0.7C84.7,58.6,84.9,58.3,85,57.8z"/>
			<path class="st1" d="M50.1,16.1c0.6,0,1,0,1.5,0c0,0,0,0.1,0,0.1c-0.6,0-1.2,0-1.8,0c-0.2-0.4-0.1-0.8-0.1-1.3c0-0.4,0-0.8,0-1.3
				c0.7-0.1,1.3-0.2,1.8,0.1c-0.4,0.2-0.9,0.1-1.4,0.2c0,0.2,0,0.5,0,0.8c0.4,0,0.9,0.1,1.5,0.1c-0.6,0.3-1.1,0.1-1.5,0.3
				C50.1,15.4,50.1,15.7,50.1,16.1z"/>
			<path class="st1" d="M96.2,16.2c0-0.1-0.1-0.1-0.1-0.2c0-0.8,0-1.5,0-2.4c0.6,0,1.2,0,1.8,0c0,0,0,0.1,0,0.1
				c-0.4,0-0.9,0-1.4,0.1c0,0.3,0,0.5,0,0.8c0.4,0,0.8,0.1,1.2,0.1c0,0.1,0,0.1,0,0.2c-0.4,0-0.7,0.1-1.1,0.1c0,0.4-0.1,0.8-0.1,1.2
				C96.3,16.2,96.2,16.2,96.2,16.2z"/>
		</g>
	</g>
	<g>
		<g>
			<polygon class="st2" points="25.7,83.1 32.4,83.1 25.9,82.9 			"/>
			<path class="st3" d="M12.4,36c-0.2,2.6-0.4,4.6-0.8,6.3c-0.6,2.2-0.4,4.3,0,7.8c0.4,3.8-0.1,5.6-0.2,6.8
				c-0.1,1.2,0.1,1.6,1.5,1.8c0.1,0,0.2,0,0.3,0c1.1,0,1.2-0.9,0.9-1.9c-0.5-1.7-0.8-3.2-0.8-4.5c0-1.3,0.9-7.2,0.6-9.6
				c-0.3-2.4,1.2-3.9,1.3-5.3c0-0.2,0.1-0.5,0.1-0.9c-0.2,0-0.4,0.1-0.6,0.1C13.7,36.6,13,36.4,12.4,36z"/>
			<g>
				<path class="st3" d="M31.9,82.1c-0.3-0.2-0.7-0.2-1-0.2l-0.1,0c-0.4,0-0.8,0-1.2-0.1c-0.3-0.1-0.7-0.4-1.2-0.8
					c-0.6-0.4-1.5-1.1-1.8-1.1l-0.2-0.1l-1.2-2.8l-0.1,0l-2.5,0l1.3,3.4l-0.1,0.3c-0.3,0.1-0.5,0.4-0.6,0.7c0.3,0.1,0.6,0.1,0.9,0.1
					l0.1,0c0.4,0,0.9,0,1.3,0.3c0.3,0.2,0.5,0.5,0.6,0.8l6.2,0.1C32.2,82.4,32,82.2,31.9,82.1z"/>
				<path class="st3" d="M25.1,82.1c-0.3-0.2-0.7-0.2-1-0.2l-0.1,0c-0.3,0-0.6,0-0.9-0.1c-0.1,0-0.2,0-0.3-0.1
					c-0.1,0-0.2-0.1-0.3-0.1c-0.3-0.2-0.6-0.4-1-0.7c-0.6-0.4-1.5-1.1-1.8-1.1l-0.2-0.2l0-2.7l-2.4,0l0,3.5L17,80.6
					c-0.4,0.1-0.6,0.5-0.7,0.9c0,0.4,0.2,0.7,0.5,0.9l1.1,0l5,0.1l2.5,0.1c0-0.1,0-0.1,0-0.1C25.4,82.3,25.3,82.1,25.1,82.1z"/>
			</g>
			<path class="st3" d="M21.3,19.9c-0.1,0.1-0.2,0-0.3-0.1c-0.1-0.1-0.1-0.2,0-0.3c0.2-0.3,0.2-0.7-0.1-1c-0.2-0.3-0.7-0.3-1-0.2
				c-0.5,0.3-0.6,1-0.4,1.6c0.1,0.3,0.2,0.6,0.3,0.8c0.2,0.4,0.3,0.7,0.4,1.2c0.1,0.5,0.1,1,0.1,1.4l-0.1,3.7
				c1.1-0.3,1.3-1.5,1.3-1.5l0-0.3c0,0,0,0,0,0c0.2-1.5,0.9-1.4,1.8-1.3c0.3,0,0.6,0.1,1,0.1c0.3,0,0.5-0.1,0.6-0.2
				c0.1-0.2,0-0.7-0.1-0.9c-0.1,0-0.2,0-0.3-0.1c0,0,0,0,0,0c-0.1,0-0.2-0.1-0.2-0.3c0-0.1,0.1-0.2,0.3-0.2c0,0,0,0,0,0
				c0.1,0,0.2,0,0.3-0.1c0-0.4,0-0.8,0.3-0.8c0.2,0,0.4-0.1,0.5-0.2c-0.9-0.7-1.1-1.9-1.1-2.8c0-0.5-0.1-1-0.4-1.4
				C23.5,18.3,22.5,19.3,21.3,19.9z M20.4,19.7c0,0,0.1,0.1,0.1,0.1c0.1,0.1,0.1,0.1,0.2,0.2c0.1,0.2,0.2,0.4,0.1,0.5
				c0,0.1-0.1,0.2-0.2,0.2c0,0,0,0-0.1,0c-0.1,0-0.2-0.2-0.2-0.3c0,0,0-0.1-0.1-0.2c0,0-0.1-0.1-0.1-0.1c0,0-0.1-0.1-0.1-0.1
				c-0.1-0.2-0.2-0.3-0.2-0.5c0-0.2,0.2-0.3,0.3-0.4c0.2-0.1,0.4,0,0.5,0.1c0.1,0.1,0.1,0.2,0,0.3c-0.1,0.1-0.2,0.1-0.3,0
				c0,0-0.1,0-0.1,0c0,0,0,0,0,0.1C20.3,19.6,20.3,19.6,20.4,19.7z M23.9,20.2c-0.2,0-0.3,0-0.5,0c0,0-0.2,0-0.2-0.1
				c0,0,0.1-0.1,0.2-0.2c0.1-0.1,0.3-0.2,0.4-0.2c0.1,0,0.2-0.1,0.3,0c0.2,0.1,0.2,0.3,0.3,0.4C24.3,20.1,23.9,20.2,23.9,20.2z
				 M24,18.9c0.4,0.1,0.3,0.4,0.3,0.4c-0.7,0-1.5,0.4-1.5,0.4C22.5,19.6,23.5,18.7,24,18.9z"/>
			<path class="st1" d="M16,25.2c0.5-0.2,0.9-0.2,1.2-0.3l0-0.7c0-0.1,0.1-0.2,0.2-0.2c0.1,0,0.2,0.1,0.2,0.2l0,0.7l0,0.5l0,6.7
				c0.6,0.2,1.3,0.3,2,0.1l0.2-4.6l0-0.5l0.1-3.8c0-0.4,0-0.9-0.1-1.3c-0.1-0.4-0.2-0.7-0.4-1.1c-0.1-0.3-0.3-0.6-0.4-0.9
				c-0.2-0.8-0.1-1.8,0.6-2.2c0.5-0.3,1.2-0.2,1.6,0.3c0.2,0.3,0.3,0.6,0.3,0.9c0.9-0.6,1.7-1.4,2.2-2.4c0,0,0,0,0,0
				c-0.4-0.4-0.8-0.6-1-0.8l0,0c-1.5-1.1-3.8-1-5.2,0.1c-1,0.8-1.7,2-2.1,3.8c-0.2,0.6-0.3,1.3-0.4,2c-0.2,0.8-0.3,1.7-0.6,2.5
				c-0.3,1-0.8,2-1.2,3c-0.2,0.4-0.4,0.8-0.5,1.2c0.2-0.4,0.5-0.8,0.8-1.4l0.1-0.1c0.6-1,1.4-1.6,2.1-1.9
				C15.8,25.2,15.9,25.2,16,25.2C16,25.2,16,25.2,16,25.2z"/>
			<path class="st1" d="M11.9,32.1c0,0.1,0.1,0.2,0.2,0.2c0.1-1.1,0.1-1.9,0.3-2.5c-0.2,0.6-0.4,1.2-0.4,1.8
				C11.9,31.8,11.9,32,11.9,32.1z"/>
			<g>
				<path class="st3" d="M40.2,50.8c-0.3-0.4-0.4-0.9-0.2-1.4c0.1-0.2,0.2-0.5,0.4-0.8c-0.3,0-0.6-0.1-1-0.4
					c-1.1-0.7-4.7-2.9-6.3-4.6c-1.6-1.7-2.3-1.1-2.9-3.2c-0.4-1.5-1.2-3-1.8-4.9c-0.7,0.8-1.7,1.2-2.7,1.2c-0.1,0-0.2,0-0.3,0
					c0.8,1.9,2.9,6.4,6.1,8.8c3.8,2.9,9,5.7,9.4,5.9c0.1,0,0.2,0.1,0.4,0.1l0-0.3C40.7,51.1,40.4,50.9,40.2,50.8z"/>
				<path class="st3" d="M43.3,48.6c-0.1,0-0.2-0.1-0.4-0.1c-0.3,0-0.6,0-0.8,0c-0.2,0-0.3,0-0.4,0l0,2.2c0.1,0,0.1,0,0.2,0l0.1,0.4
					c-0.1,0-0.2,0.1-0.3,0.1l0,0.4c0.1,0,0.3,0,0.4,0c0.4,0,0.8-0.1,1-0.4C43.5,50.5,43.8,48.9,43.3,48.6z"/>
				<path class="st3" d="M40.4,49.5c-0.1,0.3-0.1,0.7,0.1,1c0.1,0.2,0.4,0.3,0.6,0.3l0-2.2c0,0,0,0,0,0C40.9,48.6,40.6,49,40.4,49.5
					z"/>
			</g>
			<path class="st1" d="M41.8,48l0-28.5l-0.1,0l-0.4,0l-0.1,0l0,28.6c0.1,0,0.1,0,0.2,0C41.5,48,41.6,48,41.8,48z"/>
			<path class="st3" d="M41.2,50.7c0.1,0,0.3,0,0.5,0l0-2.2c-0.2,0-0.3,0-0.5,0c0,0,0,0,0,0"/>
			<path class="st1" d="M41.2,82.7l0.6,0l0-30.6c-0.2,0-0.4,0-0.6-0.1L41.2,82.7z"/>
			<path class="st1" d="M41.8,51.1c-0.2,0-0.4,0-0.5,0c0,0-0.1,0-0.1,0l0,0.3c0.2,0,0.4,0.1,0.6,0.1L41.8,51.1z"/>
			<path class="st1" d="M22.7,81.1c0.1,0.1,0.3,0.2,0.4,0.2c0,0,0.1,0,0.1,0c0.1-0.3,0.3-0.6,0.6-0.7l0.1-0.3l-1.3-3.4l-0.5,0
				l1.3,3.4C23,80.4,22.8,80.7,22.7,81.1z"/>
			<path class="st1" d="M32.1,81.6c-0.4-0.2-0.9-0.2-1.3-0.3l-0.1,0c-0.4,0-0.7,0-1-0.1c-0.2-0.1-0.7-0.4-1.1-0.8
				c-0.8-0.6-1.5-1.1-1.9-1.2l-1.2-2.7l0,0.2l-0.5,0l1.2,2.8l0.2,0.1c0.3,0,1.2,0.7,1.8,1.1c0.5,0.4,1,0.7,1.2,0.8
				c0.4,0.1,0.8,0.1,1.2,0.1l0.1,0c0.4,0,0.7,0,1,0.2c0.2,0.1,0.4,0.3,0.4,0.5L26,82.5c0,0.2,0,0.3,0,0.5l0,0l6.5,0.1l0.2-0.2
				C32.8,82.4,32.5,81.9,32.1,81.6z"/>
			<path class="st1" d="M23.5,82.9l-0.1,0c-0.1-0.1-0.3-0.2-0.4-0.3l-5-0.1l-1.1,0c-0.3-0.2-0.5-0.6-0.5-0.9c0-0.4,0.3-0.7,0.7-0.9
				l0.2-0.2l0-3.5l-0.5,0l0,3.4c-0.5,0.2-0.8,0.7-0.8,1.2c0,0.6,0.3,1.1,0.7,1.4l0.1,0l9,0.2l0.2-0.1L23.5,82.9z"/>
			<path class="st1" d="M25.4,81.6c-0.4-0.2-0.9-0.2-1.3-0.3l-0.1,0c-0.3,0-0.6,0-0.9-0.1c0,0.1,0,0.1,0,0.2c0,0.1,0,0.2,0,0.3
				c0.3,0.1,0.6,0.1,0.9,0.1l0.1,0c0.4,0,0.7,0,1,0.2c0.1,0.1,0.3,0.2,0.3,0.4l0.5,0C25.9,82.1,25.7,81.8,25.4,81.6z"/>
			<path class="st1" d="M19.9,79.8c0.3,0,1.2,0.7,1.8,1.1c0.4,0.3,0.7,0.5,1,0.7c0-0.1,0-0.1,0-0.2c0-0.1,0-0.3,0.1-0.4
				c-0.2-0.2-0.5-0.4-0.8-0.6c-0.8-0.6-1.4-1-1.8-1.2l0-2.5l-0.5,0l0,2.7L19.9,79.8z"/>
			<path class="st1" d="M25.5,82.6L23,82.5c0.1,0.1,0.2,0.2,0.4,0.3l0.1,0l2.5,0.1l0,0c0.1-0.2,0.1-0.3,0-0.5l-0.5,0
				C25.5,82.5,25.5,82.5,25.5,82.6z"/>
			<path class="st1" d="M22.7,81.1c0,0.1-0.1,0.2-0.1,0.4c0,0.1,0,0.1,0,0.2c0.1,0.1,0.2,0.1,0.3,0.1c0.1,0,0.2,0.1,0.3,0.1
				c0-0.1,0-0.2,0-0.3c0-0.1,0-0.1,0-0.2c0,0-0.1,0-0.1,0C23,81.2,22.8,81.2,22.7,81.1z"/>
			<path class="st1" d="M42.1,48.5c0.2,0,0.5,0,0.8,0c-0.4-0.1-0.8-0.1-1.3-0.1l0,0C41.8,48.5,41.9,48.5,42.1,48.5z"/>
			<path class="st1" d="M21.9,25.6C21.9,25.6,21.8,25.6,21.9,25.6c-0.2,0-0.2-0.1-0.2-0.2l0,0.3c0,0.1-0.2,1.3-1.3,1.5l0,0.5
				c1.5-0.3,1.8-2,1.8-2c0.2,0,0.3,0.1,0.5,0.1c0-0.1,0-0.1,0.1-0.2l0.5,0.1c0,0.1,0,0.1-0.1,0.2c1,0.3,1.7,0.7,2.3,1.3c0,0,0,0,0,0
				l0.5,0.1c0,0.1,0,0.2-0.1,0.4c1.4,1.7,1.6,4,2,5.9c0.1,0.5,0.2,0.9,0.4,1.3c0.1-0.1,0.1-0.2,0.2-0.3l0.3,0.2
				c-0.1-0.4-0.3-0.8-0.4-1.3c-0.1-0.4-0.2-0.8-0.3-1.3c-0.5-2.7-1.2-6.1-5.8-6.9l0,0c0,0.1,0,0.1,0,0.2
				C22.1,25.5,22,25.6,21.9,25.6z"/>
			<path class="st1" d="M43.4,48.6C43.4,48.6,43.3,48.6,43.4,48.6c0.5,0.3,0.1,1.9-0.3,2.5c-0.2,0.3-0.6,0.4-1,0.4
				c-0.1,0-0.3,0-0.4,0l0,0.5c0.1,0,0.3,0,0.4,0c0.8,0,1.2-0.4,1.4-0.6c0.4-0.6,0.8-2.1,0.4-2.8c-0.2-0.3-0.4-0.5-0.8-0.5
				c-0.2,0-0.3,0-0.5,0c0.3,0,0.6,0.1,0.8,0.2L43.4,48.6z"/>
			<path class="st1" d="M17.2,24.9c-0.3,0-0.7,0.1-1.2,0.3c0.1,0,0.2,0.1,0.2,0.2c0,0.1,0,0.1,0.1,0.2c0.3-0.1,0.6-0.2,0.9-0.2
				L17.2,24.9z"/>
			<path class="st1" d="M30.2,40.3c0.6,2,1.3,1.5,2.9,3.2c1.6,1.7,5.2,3.9,6.3,4.6c0.4,0.2,0.7,0.3,1,0.4c0.2-0.2,0.4-0.4,0.6-0.4
				c0.1,0,0.1,0,0.2,0l0,0c0,0,0,0,0,0c-0.2,0-0.4,0-0.5,0c-0.3,0-0.6,0-1-0.3c-0.1-0.1-0.2-0.1-0.4-0.2c-1.3-0.8-4.4-2.8-5.9-4.3
				c-0.7-0.7-1.2-1-1.6-1.3c-0.6-0.4-0.9-0.6-1.2-1.6c-0.2-0.9-0.6-1.7-1-2.7c-0.3-0.8-0.7-1.7-1-2.6c-0.1,0.2-0.2,0.3-0.4,0.5
				C29,37.3,29.7,38.8,30.2,40.3z"/>
			<path class="st1" d="M17.2,76.7l0,0.2l2.4,0l0-0.2l0.5,0l0,0.2l1.9,0l0-0.1l0.5-0.2l0.1,0.3l2.5,0l0.1,0l-0.1-0.1l0.4-0.2l0,0.1
				l-0.1-0.3c0-0.1-1.7-10.5-1.6-15.6c0-1.4,0.1-2.8,0.2-4.2c0.2-3.6,0.4-6.7-0.2-8.7c-0.8-2.5-1-4.1-0.7-4.9
				c0.3-0.9,0.2-2.5-0.3-4.4c-0.5-1.5,0-2.7,0.3-2.9c0.2-0.1,0.4-0.1,0.6-0.1c0.2,0,0.7,0,0.8,0.4c0,0,0,0.1,0.1,0.2
				c2.3,5.6,4.8,8.3,6.5,9.6c3.9,3,9.1,5.8,9.5,5.9c0.1,0.1,0.3,0.1,0.6,0.2l0-0.5c-0.2,0-0.3-0.1-0.4-0.1c-0.4-0.2-5.6-3-9.4-5.9
				c-3.2-2.4-5.3-7-6.1-8.8c-0.1,0-0.2,0-0.3,0l0.1-0.5c0-0.1-0.1-0.2-0.1-0.2c-0.2-0.5-0.8-0.7-1.3-0.7c-0.3,0-0.5,0.1-0.7,0.1
				c-0.6,0.3-1,1.8-0.6,3.5c0.5,1.6,0.7,3.2,0.3,4s-0.1,2.6,0.7,5.2c0.8,2.6,0.2,7.5,0,12.7C23.3,65.8,25,76.4,25,76.4l-8.4,0
				c0,0,0.2-15.5,0.2-18.1c0-2.6-0.3-7.2-1.5-10.6c-1.1-3.4,0.3-4.6,0.6-5.6c0.2-1,0.9-2.3,1.5-5.2c0.6-2.9-1.8-6.9-1.8-6.9
				s-0.3,3.9-0.5,6.2l0.1,0.4c0,0-0.1,0-0.1,0c0,0.4-0.1,0.6-0.1,0.9c-0.2,1.5-1.7,2.9-1.3,5.3c0.3,2.4-0.6,8.3-0.6,9.6
				c0,1.3,0.3,2.8,0.8,4.5c0.3,1,0.2,1.9-0.9,1.9c-0.1,0-0.2,0-0.3,0c-1.4-0.2-1.6-0.6-1.5-1.8c0.1-1.2,0.6-3,0.2-6.8
				c-0.4-3.5-0.6-5.6,0-7.8c0.4-1.7,0.7-3.7,0.8-6.3c-0.1-0.1-0.3-0.2-0.4-0.3l0.3-0.4c0,0,0.1,0.1,0.1,0.1c0-0.6,0.1-1.2,0.1-1.9
				c0.2-3.8,0.2-3.9,1.6-6.2c0.1-0.2,0.2-0.3,0.3-0.5c0-0.2,0-0.3,0-0.5c0-0.1,0.1-0.2,0.2-0.2c0.1,0,0.2,0.1,0.2,0.2
				c0.3-0.3,0.6-0.5,0.9-0.6c0-0.1-0.1-0.2-0.1-0.3c0-0.1,0-0.2,0.1-0.2c-0.7,0.3-1.5,0.8-2.1,1.9l-0.1,0.1c-0.3,0.6-0.6,1-0.8,1.4
				c-0.2,0.4-0.3,0.9-0.5,1.3c-0.1,0.6-0.2,1.3-0.3,2.5c0,0,0.1,0,0.1,0l0,0.5c0,0-0.1,0-0.1,0c0,0.2,0,0.4,0,0.7
				c-0.1,3.5-0.4,6.4-0.9,8.6c-0.6,2.3-0.4,4.4,0,8c0.3,2.9,0.1,4.6-0.1,5.8c0,0.3-0.1,0.6-0.1,0.9c0,0.4,0,0.8,0,1.1l0.4,0.1
				c-0.1,0.1-0.1,0.3-0.1,0.4c0.3,0.3,0.8,0.5,1.6,0.6c0.1,0,0.2,0,0.3,0c0.5,0,0.8-0.1,1-0.3c0-0.1-0.1-0.2-0.1-0.2l0.4-0.2
				c0,0,0,0,0,0c0.2-0.4,0.2-1,0-1.8c-0.6-2-0.8-3.3-0.8-4.4c0-0.4,0.1-1.3,0.2-2.4c0.2-2.3,0.6-5.6,0.3-7.3
				c-0.2-1.4,0.3-2.4,0.7-3.4c0.3-0.6,0.5-1.2,0.6-1.8c0.1-1,0.3-3.9,0.5-5.7c0.6,1.4,1.3,3.4,1,5.1c-0.4,1.9-0.8,3.1-1.1,3.9
				c-0.2,0.5-0.3,0.9-0.4,1.3c0,0.2-0.2,0.4-0.3,0.7c-0.5,1-1.2,2.4-0.3,5.2c1.1,3.2,1.4,7.6,1.4,10.4c0,2.6-0.2,17.9-0.2,18l0,0.5
				l0.5,0l0.1,0l0-0.2L17.2,76.7z"/>
			<path class="st1" d="M41.7,48.5L41.7,48.5c-0.2,0-0.3,0-0.5,0C41.3,48.5,41.5,48.5,41.7,48.5z"/>
			<path class="st1" d="M41.3,48c0,0-0.1,0-0.1,0l0,0C41.2,48,41.3,48,41.3,48z"/>
			<path class="st1" d="M41.2,51.5l0,0.5c0.2,0,0.4,0.1,0.6,0.1l0-0.5C41.6,51.5,41.4,51.5,41.2,51.5z"/>
			<polygon class="st1" points="25.1,76.7 25.1,76.9 25.6,76.9 25.6,76.6 25.5,76.5 			"/>
			<polygon class="st1" points="22.4,76.6 22,76.8 22,76.9 22.6,76.9 			"/>
			
				<rect x="16.7" y="76.7" transform="matrix(1 -1.184284e-03 1.184284e-03 1 -9.091534e-02 2.012420e-02)" class="st1" width="0.5" height="0.2"/>
			
				<rect x="19.6" y="76.6" transform="matrix(1 -1.184284e-03 1.184284e-03 1 -9.088527e-02 2.357385e-02)" class="st1" width="0.5" height="0.2"/>
			
				<rect x="13" y="62.1" transform="matrix(1 -1.220516e-03 1.220516e-03 1 -7.631542e-02 1.676787e-02)" class="st1" width="1.4" height="0.8"/>
			
				<rect x="10.8" y="62.1" transform="matrix(1 -1.189967e-03 1.189967e-03 1 -7.441031e-02 1.368722e-02)" class="st1" width="1.4" height="0.8"/>
			
				<rect x="12.2" y="62.9" transform="matrix(1 -1.220516e-03 1.220516e-03 1 -7.854918e-02 1.540788e-02)" class="st1" width="0.8" height="2.8"/>
			<path class="st1" d="M12.4,60.9c-0.1,0-0.1,0-0.2-0.1l0,1.3l0.8,0l0-1.2c-0.1,0-0.1,0-0.2,0C12.6,61,12.5,60.9,12.4,60.9z"/>
			
				<rect x="12.2" y="62.1" transform="matrix(1 -1.190003e-03 1.190003e-03 1 -7.441019e-02 1.501759e-02)" class="st1" width="0.8" height="0.8"/>
			<path class="st1" d="M14.1,58.8c0.1,0.4,0,0.8-0.2,1.2c-0.3,0.4-0.9,0.6-1.4,0.4c-0.5-0.1-0.9-0.5-1.2-1c-0.1-0.3-0.2-0.7-0.1-1
				c-0.1-0.2-0.2-0.3-0.3-0.6l-0.1,0c-0.2,0.6-0.2,1.2,0,1.8c0.2,0.6,0.7,1,1.3,1.2l0-0.2l0.8,0l0,0.3c0.5-0.1,0.9-0.3,1.2-0.6
				c0.4-0.5,0.5-1.3,0.2-1.9c0,0.1-0.1,0.1-0.1,0.2C14.3,58.7,14.2,58.8,14.1,58.8z"/>
			<path class="st1" d="M14,58.6c0,0.1,0.1,0.2,0.1,0.2c0.1-0.1,0.2-0.1,0.2-0.2c0-0.1,0.1-0.1,0.1-0.2c0,0,0,0,0,0L14,58.6z"/>
			<path class="st1" d="M11.3,58.1l-0.4-0.1c0.1,0.2,0.1,0.4,0.3,0.6C11.2,58.4,11.2,58.2,11.3,58.1z"/>
			<path class="st1" d="M12.2,60.7l0,0.2c0.1,0,0.1,0,0.2,0.1c0.1,0,0.3,0,0.4,0c0.1,0,0.1,0,0.2,0l0-0.3L12.2,60.7z"/>
			<path class="st1" d="M22.9,15.9c0.2,0.1,0.6,0.4,1,0.8c0.1-0.1,0.2-0.1,0.3-0.1c0.1,0.1,0.2,0.2,0.1,0.3c0,0-0.1,0.1-0.1,0.1
				c0.2,0.4,0.4,0.8,0.4,1.4c0,0.9,0.1,2.1,1.1,2.8c-0.1,0.1-0.3,0.2-0.5,0.2c-0.3,0-0.3,0.5-0.3,0.8c-0.1,0-0.2,0.1-0.3,0.1
				c0,0,0,0,0,0c-0.1,0-0.2,0.1-0.3,0.2c0,0.1,0.1,0.2,0.2,0.3c0,0,0,0,0,0c0.2,0,0.3,0,0.3,0.1c0.1,0.2,0.3,0.7,0.1,0.9
				c-0.1,0.1-0.3,0.2-0.6,0.2c-0.4,0-0.7,0-1-0.1c-0.8-0.1-1.5-0.2-1.8,1.3c0,0,0,0,0,0l0-0.2l0.5,0.1c0.1-0.8,0.4-0.8,1.2-0.7
				c0.3,0,0.6,0.1,1.1,0.1c0.5,0,0.8-0.2,1-0.5c0.3-0.5,0-1.2-0.1-1.4c0.1-0.1,0.1-0.2,0.1-0.3c0-0.2,0-0.4,0-0.4
				c0.3-0.1,0.8-0.3,0.9-0.6c0-0.2,0-0.3-0.2-0.4c-0.7-0.5-1-1.3-1-2.5c0.1-2.1-2-3.1-2.1-3.1c0,0,0,0,0,0c0.1,0.1,0.2,0.1,0.2,0.2
				L22.9,15.9z M25.8,21.4L25.8,21.4L25.8,21.4z"/>
			<path class="st1" d="M21.6,25.4c0,0.1,0.1,0.2,0.2,0.2c0,0,0,0,0,0c0.1,0,0.2-0.1,0.2-0.2c0-0.1,0-0.1,0-0.2l-0.5-0.1L21.6,25.4z
				"/>
			<path class="st1" d="M19.9,27.7C19.8,27.7,19.8,27.7,19.9,27.7l-0.2,4.6c-0.6,0.2-1.3,0-2-0.1l0-6.7c0,0-0.1,0-0.2,0
				c-0.1,0-0.2,0-0.3,0l0,1.7c0.1,0.1,0.2,0.2,0.4,0.3c0.1,0.1,0.1,0.2,0.1,0.3c0,0.1-0.1,0.1-0.2,0.1c0,0-0.1,0-0.1,0
				c0,0-0.1,0-0.1-0.1l0,2.2c0.1,0.1,0.2,0.2,0.3,0.3c0.1,0.1,0.1,0.2,0.1,0.3c0,0.1-0.1,0.1-0.2,0.1c0,0-0.1,0-0.1,0c0,0,0,0-0.1,0
				l0,1.8c0,0.1,0.1,0.2,0.2,0.2c0.5,0.2,1.1,0.3,1.7,0.3c0.3,0,0.6,0,0.9-0.1c0.1,0,0.2-0.1,0.2-0.2l0-0.9c0,0-0.1,0-0.1,0l0.1-0.5
				c0,0,0.1,0,0.1,0l0.1-2.6c0,0-0.1,0-0.1,0l0.1-0.5c0,0,0.1,0,0.1,0l0-0.4c-0.1,0-0.2,0-0.3,0C20,27.7,19.9,27.7,19.9,27.7z"/>
			<path class="st1" d="M21.6,19.1c0-0.3-0.1-0.7-0.3-0.9c-0.4-0.4-1.1-0.5-1.6-0.3c-0.7,0.4-0.8,1.4-0.6,2.2
				c0.1,0.3,0.2,0.6,0.4,0.9c0.2,0.4,0.3,0.7,0.4,1.1C20,22.5,20,23,20,23.4l-0.1,3.8c0,0,0,0,0,0c0,0,0.1,0,0.2,0
				c0.1,0,0.2,0,0.3-0.1l0.1-3.7c0-0.5,0-1-0.1-1.4c-0.1-0.4-0.3-0.8-0.4-1.2c-0.1-0.3-0.3-0.6-0.3-0.8c-0.2-0.6-0.1-1.3,0.4-1.6
				c0.3-0.2,0.7-0.1,1,0.2c0.2,0.3,0.3,0.7,0.1,1c-0.1,0.1-0.1,0.2,0,0.3c0.1,0.1,0.2,0.1,0.3,0.1c1.2-0.6,2.2-1.6,2.9-2.8
				c-0.1-0.1-0.2-0.3-0.3-0.4c0,0,0,0,0,0C23.4,17.7,22.6,18.5,21.6,19.1z"/>
			<path class="st1" d="M17.5,24.9c0.1,0,0.1,0,0.2,0l0-0.7c0-0.1-0.1-0.2-0.2-0.2c-0.1,0-0.2,0.1-0.2,0.2l0,0.7
				C17.3,24.9,17.4,24.9,17.5,24.9L17.5,24.9z"/>
			<path class="st1" d="M19.9,27.2C19.8,27.2,19.8,27.2,19.9,27.2l-0.1,0.5c0,0,0,0,0.1,0c0.1,0,0.1,0,0.2,0c0.1,0,0.2,0,0.3,0
				l0-0.5c-0.1,0-0.2,0-0.3,0.1C20,27.2,19.9,27.2,19.9,27.2z"/>
			<path class="st1" d="M17.5,25.4c0.1,0,0.1,0,0.2,0l0-0.5c-0.1,0-0.1,0-0.2,0l0,0c-0.1,0-0.2,0-0.3,0l0,0.5
				C17.3,25.4,17.4,25.4,17.5,25.4z"/>
			<path class="st1" d="M24.3,17c0.1-0.1,0-0.3-0.1-0.3c-0.1-0.1-0.2,0-0.3,0.1c0.1,0.1,0.2,0.3,0.3,0.4C24.2,17.1,24.3,17,24.3,17z
				"/>
			<path class="st1" d="M11.9,32.1c-0.1-0.2,0-0.4,0-0.5c0.1-0.6,0.2-1.2,0.4-1.8c0.1-0.5,0.3-0.9,0.5-1.3c0.2-0.4,0.3-0.8,0.5-1.2
				c0.4-1,0.9-2,1.2-3c0.2-0.8,0.4-1.7,0.6-2.5c0.1-0.6,0.2-1.3,0.4-2c0.4-1.8,1.1-3,2.1-3.8c1.5-1.2,3.7-1.2,5.2-0.1l0,0
				c-0.1-0.1-0.2-0.1-0.2-0.1c-0.1-0.1-0.2-0.2-0.1-0.3c0.1-0.1,0.2-0.2,0.3-0.1c-1.7-1-4-0.9-5.6,0.3c-1.1,0.9-1.8,2.2-2.3,4.1
				c-0.2,0.7-0.3,1.3-0.4,2c-0.2,0.8-0.3,1.7-0.5,2.5c-0.3,1-0.7,2-1.2,2.9c-0.6,1.4-1.3,2.8-1.5,4.4c0,0.2-0.1,0.5,0,0.7
				c0.1,0.2,0.3,0.5,0.6,0.5c0-0.2,0-0.3,0-0.5C12,32.3,12,32.2,11.9,32.1z"/>
			<path class="st1" d="M12.2,32.4C12.2,32.4,12.1,32.3,12.2,32.4c-0.1,0.1-0.1,0.3-0.1,0.5c0,0,0.1,0,0.1,0L12.2,32.4z"/>
			<path class="st1" d="M12.9,28.6c-0.2,0.4-0.4,0.8-0.5,1.3C12.5,29.4,12.7,29,12.9,28.6z"/>
			<path class="st1" d="M22.6,15.5c-0.1,0.1,0,0.3,0.1,0.3c0,0,0.1,0,0.2,0.1l0.3-0.4c-0.1-0.1-0.2-0.1-0.2-0.2
				C22.8,15.3,22.7,15.4,22.6,15.5z"/>
			<path class="st1" d="M23.5,30.2c-0.9,0.7-2.2,1-3.4,0.8l0,0.5c0.2,0,0.4,0,0.7,0c1.1,0,2.1-0.3,3-1c1-0.7,1.7-1.8,1.9-3
				c-0.1-0.1-0.3-0.3-0.4-0.4C25.2,28.4,24.5,29.5,23.5,30.2z"/>
			<path class="st1" d="M25.7,27.6c0-0.1,0.1-0.2,0.1-0.4l-0.5-0.1c0,0,0,0,0,0C25.5,27.3,25.6,27.5,25.7,27.6z"/>
			<path class="st1" d="M20.1,31.1L20,31.5c0,0,0.1,0,0.1,0L20.1,31.1C20.1,31.1,20.1,31.1,20.1,31.1z"/>
			<path class="st1" d="M20.3,28l0,0.5c0.1,0,0.1,0,0.2,0c0.6,0,1.2-0.2,1.7-0.7c0.5-0.5,0.8-1.3,0.9-1.9c-0.2,0-0.3-0.1-0.5-0.1
				c-0.2,0.6-0.4,1.2-0.8,1.7C21.4,27.9,20.8,28.1,20.3,28z"/>
			<path class="st1" d="M23.1,25.7l-0.5-0.1c0,0.1,0,0.1-0.1,0.2c0.2,0,0.3,0.1,0.5,0.1C23.1,25.9,23.1,25.8,23.1,25.7z"/>
			<path class="st1" d="M20.2,28l-0.1,0.5c0,0,0.1,0,0.1,0L20.2,28C20.3,28,20.2,28,20.2,28z"/>
			<path class="st1" d="M28.3,35.4c-0.1-0.2-0.1-0.4-0.2-0.6c-0.7,0.9-1.9,1.5-3.1,1.2l0,0c0.1,0.1,0.1,0.3,0.2,0.5
				c0.1,0,0.2,0,0.3,0C26.6,36.6,27.7,36.2,28.3,35.4z"/>
			<path class="st1" d="M25,36.6c0.1,0,0.2,0,0.3,0c-0.1-0.2-0.2-0.4-0.2-0.5L25,36.6z"/>
			<path class="st1" d="M28.2,34.8c0.1,0.2,0.1,0.4,0.2,0.6c0.1-0.1,0.2-0.3,0.4-0.5c0-0.1,0-0.1-0.1-0.2l-0.3-0.2
				C28.3,34.7,28.2,34.7,28.2,34.8z"/>
			<path class="st1" d="M12.4,35.4c0,0.2,0,0.4,0,0.6c0.6,0.4,1.3,0.6,2.1,0.6c0.2,0,0.4,0,0.6-0.1c0-0.1,0-0.3,0-0.4l0-0.1
				C14.2,36.2,13.2,36,12.4,35.4z"/>
			<path class="st1" d="M15.2,36.5l-0.1-0.4c0,0.2,0,0.3,0,0.4C15.2,36.5,15.2,36.5,15.2,36.5z"/>
			<path class="st1" d="M12.3,35.3L12,35.7c0.1,0.1,0.3,0.2,0.4,0.3c0-0.2,0-0.4,0-0.6C12.4,35.4,12.4,35.4,12.3,35.3z"/>
			<path class="st1" d="M20.4,19.5C20.4,19.4,20.4,19.5,20.4,19.5c0.2,0.1,0.3,0.1,0.4,0c0.1-0.1,0.1-0.2,0-0.3
				C20.6,19,20.4,19,20.2,19c-0.2,0.1-0.3,0.2-0.3,0.4c0,0.2,0,0.3,0.2,0.5c0,0,0.1,0.1,0.1,0.1c0,0,0.1,0.1,0.1,0.1
				c0,0.1,0.1,0.1,0.1,0.2c0,0.1,0,0.2,0.2,0.3c0,0,0,0,0.1,0c0.1,0,0.2-0.1,0.2-0.2c0-0.2,0-0.4-0.1-0.5c0-0.1-0.1-0.1-0.2-0.2
				c0,0-0.1-0.1-0.1-0.1C20.3,19.6,20.3,19.6,20.4,19.5C20.3,19.5,20.3,19.5,20.4,19.5z"/>
			<path class="st1" d="M17.2,30.5l0-0.6c-1.3-1.1-2.3-2.5-2.3-3.5c0,0,0,0,0,0c-0.1,0.1-0.3,0.3-0.4,0.5
				C14.7,28.2,16,29.7,17.2,30.5z"/>
			<path class="st1" d="M14.6,26.2c-0.1,0-0.2,0.1-0.2,0.2c0,0.1,0,0.3,0,0.5c0.1-0.2,0.3-0.3,0.4-0.5
				C14.9,26.3,14.8,26.2,14.6,26.2z"/>
			<path class="st1" d="M17.4,30.6c0.1,0,0.1,0,0.2-0.1c0.1-0.1,0.1-0.3-0.1-0.3c-0.1-0.1-0.2-0.2-0.3-0.3l0,0.6c0,0,0,0,0.1,0
				C17.3,30.6,17.3,30.6,17.4,30.6z"/>
			<path class="st1" d="M17.2,27.7l0-0.6c-0.4-0.4-0.7-0.9-0.9-1.5c-0.1,0-0.3,0.1-0.5,0.2C16,26.5,16.5,27.2,17.2,27.7z"/>
			<path class="st1" d="M15.9,25.2c0,0-0.1,0-0.1,0.1C15.9,25.2,15.9,25.2,15.9,25.2C16,25.2,16,25.2,15.9,25.2z"/>
			<path class="st1" d="M16.2,25.4c0-0.1-0.1-0.2-0.2-0.2c-0.1,0-0.1,0-0.2,0.1c-0.1,0.1-0.1,0.1-0.1,0.2c0,0.1,0,0.2,0.1,0.3
				c0.2-0.1,0.3-0.1,0.5-0.2C16.3,25.5,16.2,25.4,16.2,25.4z"/>
			<path class="st1" d="M17.4,27.8c0.1,0,0.2,0,0.2-0.1c0.1-0.1,0.1-0.3-0.1-0.3c-0.1-0.1-0.2-0.2-0.4-0.3l0,0.6c0,0,0.1,0,0.1,0.1
				C17.3,27.8,17.3,27.8,17.4,27.8z"/>
			<path class="st1" d="M21,29.1c-0.1,0-0.2,0.1-0.2,0.3l0.1,0.7c0,0.1,0.1,0.2,0.2,0.2c0,0,0,0,0,0c0.1,0,0.2-0.1,0.2-0.3l-0.1-0.7
				C21.3,29.1,21.1,29,21,29.1z"/>
			<path class="st1" d="M22.7,29.2c0,0,0.1,0.1,0.2,0.1c0.1,0,0.1,0,0.2-0.1c0.1-0.1,0.1-0.2,0-0.3l-0.4-0.5c-0.1-0.1-0.2-0.1-0.3,0
				c-0.1,0.1-0.1,0.2,0,0.3L22.7,29.2z"/>
			<path class="st1" d="M23.3,27.6l0.6,0.4c0,0,0.1,0,0.1,0c0.1,0,0.2,0,0.2-0.1c0.1-0.1,0-0.3-0.1-0.3l-0.6-0.4
				c-0.1-0.1-0.3,0-0.3,0.1C23.2,27.4,23.2,27.5,23.3,27.6z"/>
			<path class="st1" d="M15.9,28.4c0,0,0.1,0.1,0.2,0.1c0.1,0,0.1,0,0.2-0.1l0.4-0.4c0.1-0.1,0.1-0.3,0-0.3c-0.1-0.1-0.3-0.1-0.3,0
				l-0.4,0.4C15.8,28.2,15.8,28.4,15.9,28.4z"/>
			<path class="st1" d="M15.4,27.3c0,0,0.1,0,0.1,0l0.2-0.1c0.1-0.1,0.2-0.2,0.1-0.3c-0.1-0.1-0.2-0.2-0.3-0.1l-0.2,0.1
				c-0.1,0.1-0.2,0.2-0.1,0.3C15.3,27.2,15.4,27.3,15.4,27.3z"/>
			<path class="st1" d="M22.8,19.6c0,0,0.8-0.4,1.5-0.4c0,0,0.1-0.2-0.3-0.4C23.5,18.7,22.5,19.6,22.8,19.6z"/>
			<path class="st1" d="M24,19.7c-0.1,0-0.2,0-0.3,0c-0.2,0.1-0.3,0.1-0.4,0.2c0,0-0.2,0.1-0.2,0.2c0,0.1,0.2,0.1,0.2,0.1
				c0.2,0,0.3,0.1,0.5,0c0,0,0.5-0.1,0.5-0.1C24.3,19.9,24.2,19.7,24,19.7z"/>
			<path class="st1" d="M40.2,50.8c0.2,0.2,0.5,0.4,1,0.4l0-0.5c-0.3,0-0.5-0.1-0.6-0.3c-0.2-0.2-0.3-0.6-0.1-1
				c0.2-0.4,0.5-0.9,0.7-1c0,0,0,0,0,0v0c-0.2,0-0.4,0-0.5,0c-0.1,0-0.2,0-0.3,0c-0.2,0.3-0.4,0.6-0.4,0.8
				C39.8,49.8,39.9,50.4,40.2,50.8z"/>
			<path class="st1" d="M43.1,48.5c-0.1,0-0.1,0-0.2,0c0.1,0,0.3,0.1,0.4,0.1C43.3,48.5,43.2,48.5,43.1,48.5z"/>
			<path class="st1" d="M42.1,48c0.2,0,0.4,0,0.6,0c-0.3,0-0.7,0-1,0l0,0C41.8,48,41.9,48,42.1,48z"/>
			<path class="st1" d="M41.8,50.6c-0.1,0-0.1,0-0.2,0l0,0.5c0.1,0,0.2,0,0.3-0.1L41.8,50.6z"/>
			<path class="st1" d="M41.7,48L41.7,48c-0.1,0-0.2,0-0.4,0C41.4,48,41.5,48,41.7,48z"/>
			<path class="st1" d="M41.2,50.7l0,0.5c0,0,0.1,0,0.1,0c0.1,0,0.3,0,0.4,0l0-0.5C41.5,50.7,41.3,50.7,41.2,50.7z"/>
			<path class="st1" d="M41.2,48.5L41.2,48.5C41.2,48.5,41.2,48.5,41.2,48.5C41.2,48.5,41.2,48.5,41.2,48.5z"/>
			<path class="st1" d="M41.2,48.5l0-0.5c-0.1,0-0.1,0-0.2,0c-0.2,0.1-0.4,0.2-0.6,0.4c0.1,0,0.2,0,0.3,0
				C40.8,48.5,41,48.5,41.2,48.5z"/>
			<path class="st1" d="M41.7,48l0,0.4c0.4,0,0.9,0,1.3,0.1c0.1,0,0.1,0,0.2,0c0.1,0,0.1,0,0.2,0.1c0,0,0,0,0.1,0l0.1-0.4
				C43.3,48.1,43,48,42.7,48c-0.2,0-0.4,0-0.6,0C41.9,48,41.8,48,41.7,48z"/>
			<path class="st1" d="M41.2,48.5c0.1,0,0.3-0.1,0.4-0.1l0-0.4c-0.1,0-0.3,0-0.4,0c0,0-0.1,0-0.1,0L41.2,48.5
				C41.2,48.5,41.2,48.5,41.2,48.5z"/>
			<path class="st1" d="M41.6,18.8l0,0.6l0.7,0c-0.1-0.3,0-0.7,0.2-1c0.2-0.2,0.6-0.3,0.9-0.2c0.2,0.1,0.4,0.2,0.6,0.3
				c0.2,0.1,0.5,0.1,0.6-0.1c0.1-0.1,0.1-0.3,0-0.4c-0.1-0.1-0.2-0.3-0.3-0.4c-0.8-0.7-1.9-1.2-2.9-1.3l0,0c0,0,0,0,0,0c0,0,0,0,0,0
				l0,0c-1.1,0.1-2.1,0.6-2.9,1.3c-0.1,0.1-0.2,0.2-0.3,0.4c-0.1,0.1-0.1,0.3,0,0.4c0.1,0.2,0.4,0.2,0.6,0.1
				c0.2-0.1,0.4-0.3,0.6-0.3c0.3-0.1,0.7,0,0.9,0.2c0.2,0.2,0.4,0.7,0.2,1l0.7,0l0-0.6L41.6,18.8z"/>
			<polygon class="st1" points="41.5,19.4 41.6,19.4 41.6,18.8 41.1,18.8 41.1,19.4 41.2,19.4 			"/>
		</g>
		
			<rect x="9" y="82.7" transform="matrix(-1 -1.224647e-16 1.224647e-16 -1 56.157 165.9485)" class="st1" width="38.2" height="0.6"/>
		<g>
			<path class="st1" d="M35.1,92.2H11.8C10.2,92.2,9,91,9,89.5c0-1.5,1.3-2.7,2.8-2.7h23.3c0.2,0,0.4,0.2,0.4,0.4
				c0,0.2-0.2,0.4-0.4,0.4H11.8c-1.1,0-2,0.8-2,1.8c0,1,0.9,1.8,2,1.8h23.3c0.2,0,0.4,0.2,0.4,0.4C35.5,92,35.4,92.2,35.1,92.2z"/>
		</g>
		<g>
			<path class="st1" d="M28.8,95.7c1.1,0,2.3,0.7,2.6,1.8l-0.5,0.3c-0.2,0.1-0.4,0.3-0.5,0.6c-0.2,0.3-0.6,0.8-0.6,1.2
				c-0.1,0.7,0.1,1.3,0.2,2c0.1,1.1-0.4,2.2-1.1,3.1c-0.7,0.9-1.5,1.5-2.2,2.4c-0.8,1-0.2,2.7-1.1,3.6c-0.3,0.3-0.7,0.4-1.1,0.6
				c-1.4,0.5-2.6,1-4,1.5c0.1-1.2,0.3-2.4,0.5-3.6c-2,2.1-3.9,4.1-5.9,6.2c-1.3-0.1-2.6-0.9-3.1-2.1c1.5-1.2,3.1-2.2,4.6-3.4
				l-4.4,2.3c-0.1-0.5,0.3-1,0.8-1.3c4.7-3.9,9-8.3,12.9-13.1c0.5-0.7,1.1-1.4,1.9-1.8C28.1,95.8,28.4,95.7,28.8,95.7 M28.8,95.2
				L28.8,95.2c-0.4,0-0.9,0.1-1.2,0.3c-0.9,0.4-1.6,1.2-2.1,1.9l0,0c-3.8,4.8-8.1,9.1-12.8,13c-0.3,0.3-1.2,1-0.9,1.9l0.1,0.4
				c-0.1,0-0.1,0.1-0.2,0.1l-0.3,0.3l0.2,0.4c0.6,1.4,2,2.4,3.6,2.5l0.3,0l0.2-0.2c1-1,2-2.1,2.9-3.1c0.6-0.6,1.2-1.2,1.8-1.9
				c0,0,0,0.1,0,0.1c-0.1,0.6-0.2,1.2-0.2,1.8l-0.1,0.9l0.8-0.3c0.7-0.2,1.4-0.5,2-0.8c0.6-0.3,1.3-0.5,2-0.8
				c0.4-0.1,0.9-0.3,1.3-0.7c0.6-0.6,0.7-1.5,0.8-2.2c0.1-0.6,0.1-1.1,0.4-1.5c0.3-0.4,0.7-0.8,1.1-1.2c0.4-0.4,0.8-0.8,1.1-1.3
				c0.6-0.8,1.2-2,1.2-3.5c0-0.3-0.1-0.5-0.1-0.8c-0.1-0.4-0.1-0.7-0.1-1.1c0-0.2,0.2-0.5,0.3-0.7c0.1-0.1,0.2-0.3,0.2-0.4
				c0.1-0.1,0.2-0.3,0.3-0.3l0.5-0.3l0.4-0.2l-0.1-0.4C31.5,96.1,30.2,95.2,28.8,95.2L28.8,95.2z"/>
			<path class="st1" d="M29.2,96.6c0.4,0,0.8,0.2,0.9,0.6c0.1,0.2-1.2,0.2-1.4,0.1C28.2,97,28.8,96.6,29.2,96.6z"/>
			<g>
				<path class="st1" d="M20.6,108.4c-0.3,0-0.5,0-0.8,0c-0.2,0-0.3-0.1-0.3-0.3c0-0.2,0.1-0.3,0.3-0.3c2.9,0.1,5.4-0.4,7.5-1.6
					c0.1-0.1,0.3,0,0.4,0.1c0.1,0.1,0,0.3-0.1,0.4C25.6,107.9,23.3,108.4,20.6,108.4z"/>
			</g>
			<g>
				<path class="st1" d="M30.1,101c-0.1,0-0.2-0.1-0.3-0.2c-0.1-0.5-0.3-0.6-0.8-0.8l-0.2-0.1c-0.5-0.3-1.2-0.3-1.9-0.1
					c-0.6,0.2-1.2,0.5-1.8,1c-0.1,0.1-0.3,0.1-0.4,0c-0.1-0.1-0.1-0.3,0-0.4c0.7-0.6,1.3-0.9,2-1.1c0.8-0.2,1.6-0.2,2.3,0.2l0.2,0.1
					c0.5,0.3,0.9,0.5,1.1,1.2C30.4,100.8,30.3,101,30.1,101C30.2,101,30.1,101,30.1,101z"/>
			</g>
			<g>
				<path class="st1" d="M23.7,114.9c-0.2,0-0.3-0.1-0.3-0.3v-2.5c0-0.2,0.1-0.3,0.3-0.3c0.2,0,0.3,0.1,0.3,0.3v2.5
					C24,114.8,23.9,114.9,23.7,114.9z"/>
			</g>
			<g>
				<path class="st1" d="M27.6,115c-0.1,0-0.2-0.1-0.2-0.1c-0.5-0.8-0.7-1.3-0.9-1.8c-0.2-0.5-0.4-0.9-0.9-1.8
					c-0.1-0.1,0-0.3,0.1-0.4c0.1-0.1,0.3,0,0.4,0.1c0.5,0.8,0.7,1.3,0.9,1.8c0.2,0.5,0.4,0.9,0.9,1.8c0.1,0.1,0,0.3-0.1,0.4
					C27.7,115,27.6,115,27.6,115z"/>
			</g>
			<g>
				<path class="st1" d="M24.9,115h-3.1c-0.2,0-0.3-0.1-0.3-0.3c0-0.2,0.1-0.3,0.3-0.3h3.1c0.2,0,0.3,0.1,0.3,0.3
					C25.1,114.9,25,115,24.9,115z"/>
			</g>
			<g>
				<path class="st1" d="M29.1,115H26c-0.2,0-0.3-0.1-0.3-0.3c0-0.2,0.1-0.3,0.3-0.3h3.1c0.2,0,0.3,0.1,0.3,0.3
					C29.4,114.9,29.3,115,29.1,115z"/>
			</g>
		</g>
		<g>
			<g>
				<path class="st1" d="M37,104.4c-2,0-3.6-1.6-3.6-3.6c0-2,1.6-3.6,3.6-3.6c2,0,3.6,1.6,3.6,3.6C40.6,102.8,39,104.4,37,104.4z
					 M37,97.9c-1.6,0-3,1.3-3,3c0,1.6,1.3,3,3,3c1.6,0,3-1.3,3-3C40,99.2,38.6,97.9,37,97.9z"/>
			</g>
			<g>
				<path class="st1" d="M37,109c-1.4,0-2.6-1.2-2.6-2.6c0-1.4,1.2-2.6,2.6-2.6s2.6,1.2,2.6,2.6C39.6,107.9,38.5,109,37,109z
					 M37,104.4c-1.1,0-2,0.9-2,2c0,1.1,0.9,2,2,2s2-0.9,2-2C39,105.3,38.1,104.4,37,104.4z"/>
			</g>
			<g>
				<path class="st1" d="M37,113c-1.3,0-2.3-1-2.3-2.3c0-1.3,1-2.3,2.3-2.3s2.3,1,2.3,2.3C39.3,112,38.3,113,37,113z M37,109
					c-0.9,0-1.7,0.7-1.7,1.7c0,0.9,0.7,1.7,1.7,1.7s1.7-0.7,1.7-1.7C38.7,109.8,37.9,109,37,109z"/>
			</g>
			<g>
				<path class="st1" d="M40.3,114.9C40.2,114.9,40.2,114.9,40.3,114.9c-0.2-0.1-3.7-1.1-4.9-2.6c-0.1-0.1-0.1-0.3,0.1-0.4
					c0.1-0.1,0.3-0.1,0.4,0.1c1.1,1.4,4.5,2.4,4.5,2.4c0.2,0,0.3,0.2,0.2,0.4C40.5,114.8,40.4,114.9,40.3,114.9z"/>
			</g>
			<g>
				<path class="st1" d="M33.7,114.9c-0.1,0-0.3-0.1-0.3-0.2c0-0.2,0-0.3,0.2-0.4c0,0,3.4-1,4.5-2.4c0.1-0.1,0.3-0.2,0.4-0.1
					c0.1,0.1,0.2,0.3,0.1,0.4C37.5,113.8,34,114.8,33.7,114.9C33.8,114.9,33.8,114.9,33.7,114.9z"/>
			</g>
		</g>
		<path class="st1" d="M37.9,86.8h11.2C49.2,86.8,43.4,98.9,37.9,86.8z"/>
		<rect x="10.4" y="97.4" class="st1" width="2.1" height="8.8"/>
		<g>
			<path class="st1" d="M45.8,115.1h-1.1c-0.1,0-0.2-0.1-0.2-0.2v-13.8c0-0.3-0.3-4.3,3.6-5.6c0.1,0,0.2,0,0.2,0
				c0.1,0,0.1,0.1,0.1,0.2V109c0,0.1-0.1,0.2-0.2,0.2c-0.1,0-2.2,0.2-2.2,2.2v3.5C46,115,45.9,115.1,45.8,115.1z M44.9,114.7h0.6
				v-3.2c0-2,1.8-2.5,2.4-2.6V96.1c-3.4,1.3-3,4.8-3,5c0,0,0,0,0,0V114.7z"/>
		</g>
		<g>
			<g>
				<path class="st1" d="M39.1,41.6h-0.8c-0.1,0-0.2-0.1-0.2-0.2v-9.2c0-0.4-0.3-0.8-0.8-0.8c-0.4,0-0.8,0.3-0.8,0.8v4
					c0,0.1-0.1,0.2-0.2,0.2h-0.8c-0.1,0-0.2-0.1-0.2-0.2v-4.5c0-1,0.8-1.8,1.8-1.8s1.8,0.8,1.8,1.8v9.8
					C39.2,41.5,39.2,41.6,39.1,41.6z M38.5,41.3h0.4v-9.6c0-0.8-0.7-1.5-1.5-1.5s-1.5,0.7-1.5,1.5V36h0.4v-3.8
					c0-0.6,0.5-1.1,1.1-1.1c0.6,0,1.1,0.5,1.1,1.1V41.3z"/>
			</g>
		</g>
		<g>
			<g>
				<path class="st1" d="M40.7,62.1h-7c-0.1,0-0.1-0.1-0.1-0.1s0.1-0.1,0.1-0.1h7c0.1,0,0.1,0.1,0.1,0.1S40.8,62.1,40.7,62.1z"/>
			</g>
			<g>
				<g>
					<path class="st1" d="M34.7,61.8c-0.1,0-0.2,0-0.3,0c0,0-0.1,0-0.1-0.1c0,0,0-0.1,0-0.1c0.1-0.2,0.2-0.3,0.4-0.5
						c-0.1,0.1-0.1,0.1-0.2,0.2c-0.1,0.1-0.2,0.2-0.3,0.3c-0.4,0.3-0.6,0.2-0.7,0.2c0,0-0.1,0-0.1-0.1c0,0,0-0.1,0-0.1
						c1.7-4.1,4-5,4.6-5.2C38,55.8,38.1,55,38.1,55c0-0.1,0.1-0.1,0.1-0.1l1.9,0c0,0,0.1,0,0.1,0c0,0,0,0.1,0,0.1v0.9
						c0,1.2-0.4,1.6-0.8,2c-0.1,0.2-0.3,0.3-0.4,0.5C38.8,59,39,60,39,60c0,0,0,0.1,0,0.1c0,0-0.1,0.1-0.1,0.1l-1.6,0.4
						c-0.1,0-0.1,0-0.1,0c0,0,0-0.1,0-0.1c0-0.1,0-0.2,0-0.2c0,0-0.1,0-0.1,0c-0.3,0-0.7,0.4-1.3,1.2C35.4,61.7,35,61.8,34.7,61.8z
						 M35.5,60.1c0,0,0.1,0,0.1,0.1c0.1,0.1,0.1,0.1-0.8,1.4c0.2,0,0.4-0.1,0.6-0.3c0.7-0.9,1.2-1.3,1.6-1.3c0.2,0,0.3,0.1,0.4,0.2
						c0.1,0.1,0.1,0.2,0.1,0.3l1.3-0.3c-0.1-0.3-0.2-1.2,0.2-1.7c0.1-0.2,0.3-0.4,0.4-0.5c0.4-0.4,0.7-0.8,0.7-1.8v-0.7l-1.7,0
						c0,0.3-0.1,0.9,0.1,1.2c0,0,0,0.1,0,0.1c0,0-0.1,0.1-0.1,0.1c0,0-2.5,0.4-4.5,4.8c0,0,0.1-0.1,0.2-0.1c0.1-0.1,0.2-0.2,0.3-0.3
						C34.9,60.5,35.3,60.1,35.5,60.1C35.5,60.1,35.5,60.1,35.5,60.1z"/>
				</g>
				<g>
					<path class="st1" d="M35.3,60.5c0,0-0.1,0-0.1-0.1c0-0.1,0-0.2,0-0.2c0,0,0.8-0.5,2.5-1.5c0.9-0.5,1-1.1,0.9-1.5
						c0-0.4-0.2-0.6-0.3-0.7c-0.1,0-0.1,0-0.2-0.1c0-0.1,0.1-0.2,0.1-0.2c0.2,0,0.4,0.3,0.5,0.5c0.2,0.6,0.1,1.5-1,2.1
						C36.2,59.9,35.4,60.5,35.3,60.5C35.4,60.5,35.3,60.5,35.3,60.5z"/>
				</g>
				<polygon class="st1" points="39,56.1 39.5,56.1 39.3,56.7 				"/>
				<g>
					<path class="st1" d="M38.6,61.7c-0.1,0-0.1,0-0.1-0.1l-0.3-1.3c0-0.1,0-0.2,0.1-0.2c0.1,0,0.2,0,0.2,0.1l0.3,1.2l0.4,0
						c0,0,0,0,0,0c0.1,0,0.1,0.1,0.1,0.1c0,0.1-0.1,0.1-0.1,0.1L38.6,61.7C38.6,61.7,38.6,61.7,38.6,61.7z"/>
				</g>
				<g>
					<path class="st1" d="M40.4,61.7h-0.7c-0.1,0-0.1,0-0.1-0.1l-0.8-1.4c0-0.1,0-0.2,0.1-0.2c0.1,0,0.2,0,0.2,0.1l0.8,1.3h0.7
						c0.1,0,0.1,0.1,0.1,0.1S40.4,61.7,40.4,61.7z"/>
				</g>
				<g>
					<path class="st1" d="M36.6,60.3c-0.1,0-0.1,0-0.1-0.1c0-0.1,0-0.2,0.1-0.2c0.5-0.3,1.1-0.4,1.6-0.2c0.1,0,0.1,0.1,0.1,0.2
						c0,0.1-0.1,0.1-0.2,0.1C37.7,60,37.1,60,36.6,60.3C36.7,60.3,36.7,60.3,36.6,60.3z"/>
				</g>
				<g>
					<path class="st1" d="M38.8,55.9C38.8,55.9,38.8,55.9,38.8,55.9l-0.2-0.1c0,0-0.1-0.1,0-0.1c0,0,0.1-0.1,0.1,0l0.2,0.1
						C38.9,55.7,38.9,55.8,38.8,55.9C38.9,55.8,38.8,55.9,38.8,55.9z"/>
				</g>
				<g>
					<path class="st1" d="M39.6,55.9C39.6,55.9,39.6,55.8,39.6,55.9c-0.1-0.1-0.1-0.1-0.1-0.2l0.2-0.1c0,0,0.1,0,0.1,0
						c0,0,0,0.1,0,0.1L39.6,55.9C39.7,55.9,39.7,55.9,39.6,55.9z"/>
				</g>
			</g>
		</g>
		<path class="st1" d="M35,23.6h4.7C39.8,23.6,37.7,27.2,35,23.6z"/>
		<g>
			<path class="st1" d="M32.7,80.1c-0.1,0-0.1-0.1-0.1-0.1V52.5c0-0.1,0.1-0.1,0.1-0.1c0.1,0,0.1,0.1,0.1,0.1V80
				C32.9,80.1,32.8,80.1,32.7,80.1z"/>
		</g>
		<g>
			<path class="st1" d="M32.7,40.9c-0.1,0-0.1-0.1-0.1-0.1V20.4c0-0.1,0.1-0.1,0.1-0.1c0.1,0,0.1,0.1,0.1,0.1v20.4
				C32.9,40.8,32.8,40.9,32.7,40.9z"/>
		</g>
		<g>
			<path class="st1" d="M34.8,77.5c-0.2,0-0.3,0-0.3,0c0,0-0.1,0-0.1-0.1c0,0,0-0.1,0-0.1l4.1-9.1c0,0,0.1-0.1,0.1-0.1
				c0,0,0.1,0,0.1,0c0,0,0.7,0.5,0.4,1.1c-0.2,0.5-0.7,4.1-0.7,5.4c0,0.5-0.4,0.6-1.1,0.8l-0.1,0c-0.7,0.2-1,0.4-1.4,1.3
				C35.6,77.4,35.1,77.5,34.8,77.5z M34.6,77.3L34.6,77.3L34.6,77.3z M34.8,77.2C34.8,77.2,34.8,77.2,34.8,77.2
				c0.2,0,0.6-0.1,0.8-0.6c0.5-1,0.8-1.2,1.6-1.4l0.1,0c0.7-0.2,0.9-0.2,0.9-0.5c0-1.2,0.5-4.9,0.7-5.5c0.1-0.3-0.1-0.5-0.2-0.6
				L34.8,77.2z"/>
		</g>
		<g>
			<path class="st1" d="M37.5,66.8c-0.9,0-1.9-0.2-3-0.9c0,0-0.1-0.1-0.1-0.1c0,0,0-0.1,0-0.1c0,0,2.5-2.3,5.8,0
				c0,0,0.1,0.1,0.1,0.1c0,0,0,0.1-0.1,0.1C40.3,65.9,39.2,66.8,37.5,66.8z M34.8,65.7c2.6,1.5,4.6,0.4,5.1,0
				C37.4,64.1,35.4,65.3,34.8,65.7z"/>
		</g>
	</g>
	
		<rect x="84.8" y="49.2" transform="matrix(-1.836970e-16 1 -1 -1.836970e-16 171.9929 -72.9173)" class="st1" width="75.3" height="0.7"/>
	
		<rect x="49.4" y="64.3" transform="matrix(-1.836970e-16 1 -1 -1.836970e-16 166.7413 -37.484)" class="st1" width="105.4" height="0.7"/>
	<g>
		<path class="st1" d="M123.1,93.8c0.2,0,0.6,0.5,0.6,1.2c0,0.8-0.3,1.5-0.5,1.7c-0.2-0.2-0.6-0.9-0.6-1.7c0-0.4,0.1-0.7,0.2-1
			C122.8,93.9,123,93.8,123.1,93.8L123.1,93.8 M123.1,93.2C123,93.2,123,93.2,123.1,93.2c-0.7,0-1.1,0.9-1.1,1.9
			c0,1,0.6,2.3,1.2,2.3c0,0,0,0,0,0c0.6,0,1.1-1.3,1.1-2.3C124.2,94,123.7,93.2,123.1,93.2L123.1,93.2z"/>
		<polygon class="st1" points="124.4,97.7 123.4,97.7 123.4,97.2 122.8,97.2 122.8,97.7 121.8,97.7 121.8,98.3 122.9,98.3 
			123,101.1 123.5,101 123.4,98.2 124.4,98.2 		"/>
		<g>
			<g>
				<path class="st3" d="M112.1,59.1c-0.7,0.5-1,1.4-0.8,2.2l0,0l0,0c0,0,0,0,0,0c0,0,0,0,0.1,0c0,0,0.1,0,0.1,0c0,0,0,0,0,0l0,0
					l0,0c0.1-0.1,0.2-0.3,0.4-0.4c0.1,0,0.2-0.1,0.3-0.1c0.1,0,0.2,0,0.3,0.1c0.2,0.1,0.2,0.3,0.1,0.5c-0.3,0.5,0.2,1.2,0.5,1.6l0,0
					c0.2,0.2,0.3,0.4,0.5,0.6c0.2,0.2,0.4,0.4,0.5,0.7c0.2,0.4,0.4,0.8,0.5,1.2l0,0.2l-0.2,0c-0.9,0.1-1.2,0.1-2.1,0.4
					c-1.1,0.3-2,0.9-2.6,1.7c-0.7,0.9-0.9,2-0.6,2.9l0,0.1l0,0.1c-1.2,2.5-2.2,5-2.9,7.9c-0.3,1.3-1.4,2-2.6,2.8
					c-0.5,0.3-1,0.7-1.5,1.1c-1.6,1.4-3.2,2.4-4.8,2.9l-0.1,0l-0.1,0c-0.9-0.3-1.8-0.3-2.6-0.4c-0.6,0-1.2,0-1.8-0.2l-0.1,0l0,0.1
					c0.2,0.4,0.5,0.7,0.9,0.9L94,86l-0.1,0.2c-0.1,0.3-0.3,0.5-0.2,1c0.1,0.5,0.3,0.9,0.5,1.3c0.2,0.3,0.3,0.6,0.6,0.8
					c0.1,0,0.2,0.1,0.3,0.1c0.2,0,0.4-0.1,0.6-0.1c0.9-0.3,1.7-0.8,2.4-1.4c1.2-1,2.7-1.7,4.1-2.3c1.5-0.7,3.1-1.5,4.4-2.6
					c2.9-2.7,4.7-6.4,5-10.4l0,0c0-0.3,0-0.5,0.1-0.7c0.1-0.2,0.3-0.4,0.5-0.4c0,0,0,0,0,0c0.3,0,0.5,0.3,0.6,0.9l1.6,9.6l0,0l0,0
					c0,1.4-0.4,3.6-0.8,4.8c-0.2,0.4-0.3,0.9-0.5,1.3c-0.3,0.8-0.7,1.7-0.9,2.6l-0.1,0.3c-0.4,1.5-0.8,2.9-0.7,4.4l0,0l0,0
					c0,0,0.1,0,0.1,0l0.1,0l0.2,0l0,0.2c-0.1,0.8-0.3,1.5-0.5,2.2c0,0.1-0.1,0.2-0.1,0.3l0,0c-0.2,0.5-0.3,1-0.4,1.4
					c-0.1,0.7,0,1.3,0.3,1.7l0,0l0,0.1c-0.4,4.4-1.5,8.8-3.4,13.5l0,0.1l-0.1,0c-1,0.4-1.9,0.8-2.9,1.1l0,0c-0.9,0.4-2,0.8-3,1.2
					c-0.1,0-0.3,0.1-0.4,0.2c-0.1,0.1-0.1,0.2-0.1,0.3c0,0.1,0.1,0.1,0.1,0.2l0,0h9.3c0.2,0,0.3-0.1,0.3-0.3c0-0.1,0-0.3-0.1-0.4
					l0,0l0,0c-0.5-0.7-0.6-1.7-0.4-2.7c0.2-0.9,0.6-1.8,1-2.7l2.3-4.7c0.4-0.8,0.8-1.6,0.9-2.5c0.2-0.9,0-1.7-0.5-2.3l0-0.1l0-0.1
					c0.1-1.2,0.7-2.3,1.2-3.4l0,0c0.1-0.2,0.2-0.4,0.3-0.6c0.2-0.5,0.5-1.2,0.7-1.9l0.2-0.7l0.1,0.7c0.2,1.2,0.6,2.4,1.1,3.4l0,0
					l0,0l1.5,14.6l0,0.1l-0.1,0.1c-0.3,0.2-0.4,0.4-0.6,0.7c-0.1,0.2-0.2,0.4-0.4,0.5c-0.3,0.3-0.8,0.5-1.5,0.7
					c-0.2,0-0.5,0.1-0.7,0.1l0,0c-0.3,0-0.6,0.1-0.9,0.1c-0.2,0-0.5,0.1-0.7,0.3c-0.2,0.2-0.3,0.5-0.2,0.8l0,0l8.1,0l0,0l0,0
					c0,0,0,0,0.1,0c0,0,0.1,0,0.1,0l0,0l0,0l0.1,0l0-0.1c-0.8-3.2-1.1-6.5-0.7-9.8c0-0.3,0.1-0.7,0.1-1l0,0c0.1-1.3,0.3-2.6,0.1-3.8
					c-0.1-0.7-0.3-1.3-0.5-1.9c-0.1-0.4-0.2-0.8-0.3-1.2c-0.1-0.6-0.2-1.3-0.3-1.9c-0.1-0.8-0.2-1.6-0.4-2.3l0-0.2l0,0l0-0.1
					c-0.7-3.5-0.9-6.2-0.7-9l0-0.1l0.1,0c0.7-0.6,0.9-1.7,0.6-2.5c-0.1-0.3-0.3-0.5-0.4-0.7c-0.1-0.2-0.3-0.4-0.4-0.6
					c-0.4-0.8-0.6-2.1-0.6-3.1l0-0.1l0,0l0,0l0,0l0,0l0-0.1l0,0l0-0.2c-0.5-2.7-0.2-5.4,0.9-8.1l0.3-0.7l0,0.7
					c0.1,1.3,0.2,2.6,0.3,3.9c0.1,1.6,0.3,3.2,0.4,4.8l0.2,3.4c0.1,2.8,0.3,5.7,0.8,8.6l0,0l0,0c-0.5,1.2-0.6,2.5-0.6,4.1l0,0.1
					l1.5-1.4c0.2-0.2,0.5-0.5,0.6-0.8c0.1-0.3,0.2-0.7,0.1-1.1c-0.1-0.4-0.2-0.7-0.4-1c-0.6-1.5-0.4-3.1-0.1-4.7
					c0.2-1.1,0.4-2.3,0.2-3.4c0-0.3-0.1-0.5-0.1-0.8c-0.2-1.7-0.3-3.4-0.3-5c0.1-3.2,0-4.6-0.2-6.8l-0.2-0.3l0-0.1l0-0.1
					c0.1-0.5,0.2-1.8,0-2.3c0-0.1-0.1-0.2-0.1-0.3c-0.2-0.7-0.6-2-3.4-2.3l-0.3,0.2v6.4v0.2h-0.2h-2h-0.2v-0.2V65
					c0-0.1-0.1-0.8-0.5-0.8l-0.3,0l0.2-0.2c0,0,0.2-0.2,0.2-0.5c0-0.1,0.1-0.2,0.3-0.5c0.5-0.5,1.2-1.3,0.9-2.4
					c-0.4-1.5-1.1-2.2-2-2.2c-0.2,0-0.4,0-0.6-0.1C113.1,57.9,112.4,58.9,112.1,59.1z"/>
				<path class="st3" d="M113.8,58.7C113.8,58.7,113.9,58.7,113.8,58.7L113.8,58.7z"/>
				<path class="st1" d="M124.2,70.8l0-1.9c0.1-0.8-0.1-1.6-0.6-2.6c-0.2-0.4-0.4-0.9-0.7-1.3c-0.2-0.3-0.4-0.6-0.5-1
					c-0.3-0.6-0.6-1.3-0.8-2c-0.2-0.4-0.4-0.9-0.5-1.3c-0.4-0.9-1-2.1-2-3c-1.1-0.9-2.5-1.4-3.9-1.2c-0.9,0.1-1.5,0.8-2.1,1.4
					c0,0.1-0.1,0.1-0.2,0.2c0,0.2,0.1,0.3,0.1,0.3l1,0.5c-0.1,0-0.3-0.4,0.9-0.7c1.5-0.4,2.3,0.6,2.8,2.2c0.5,1.6-1.2,2.7-1.2,3
					c0,0.3-0.2,0.6-0.2,0.6c0.6,0.1,0.7,1,0.7,1v7.2h2v-6.5l0.5-0.2c3.4,0.4,3.4,2,3.7,2.7c0.3,0.7,0,2.4,0,2.4l0.3,0.4c0,0,0,0,0,0
					H124.2z"/>
			</g>
			<g>
				<path class="st1" d="M124.2,68.9c0.1-0.8-0.1-1.6-0.6-2.6c-0.2-0.4-0.4-0.9-0.7-1.3c-0.2-0.3-0.4-0.6-0.5-1
					c-0.3-0.6-0.6-1.3-0.8-2c-0.2-0.4-0.4-0.9-0.5-1.3c-0.4-0.9-1-2.1-2-3c-1.1-0.9-2.5-1.4-3.9-1.2c-0.9,0.1-1.5,0.8-2.1,1.4
					c-0.3,0.4-0.6,0.7-1,1c-0.7,0.5-1.1,1.5-0.9,2.4l0,0.2l0.2,0c0,0,0,0,0.1,0c0,0,0.1,0,0.1,0l0.1,0l0.1-0.1
					c0.1-0.1,0.2-0.3,0.3-0.4c0.1-0.1,0.3-0.1,0.4,0c0.1,0.1,0.1,0.2,0.1,0.3c-0.4,0.6,0.2,1.3,0.5,1.8l0,0c0.2,0.2,0.3,0.4,0.5,0.6
					c0.2,0.2,0.4,0.4,0.5,0.7c0.2,0.4,0.4,0.7,0.5,1.2c-0.9,0.1-1.2,0.1-2.1,0.4c-1.2,0.4-2.1,0.9-2.7,1.7c-0.7,0.9-1,2.1-0.6,3
					c-1.2,2.5-2.2,5.1-2.9,7.9c-0.3,1.2-1.4,1.9-2.5,2.7c-0.5,0.3-1,0.7-1.5,1.1c-1.6,1.4-3.2,2.3-4.8,2.8c-0.9-0.3-1.8-0.3-2.7-0.4
					c-0.6,0-1.2,0-1.8-0.2l-0.4-0.1l0.2,0.4c0.2,0.4,0.6,0.8,1,1c-0.2,0.3-0.3,0.6-0.2,1.1c0.1,0.5,0.3,0.9,0.5,1.4
					c0.2,0.3,0.4,0.7,0.7,0.8c0.3,0.1,0.7,0,1-0.1c0.9-0.3,1.7-0.8,2.5-1.4c1.2-1,2.6-1.7,4-2.3c1.6-0.7,3.2-1.5,4.4-2.6
					c2.9-2.7,4.8-6.5,5-10.5l0,0c0-0.2,0-0.5,0.1-0.7c0.1-0.2,0.2-0.3,0.4-0.3c0.3,0,0.4,0.5,0.5,0.8l1.6,9.6c0,1.4-0.4,3.5-0.8,4.7
					c-0.2,0.4-0.3,0.9-0.5,1.3c-0.3,0.8-0.7,1.7-0.9,2.6l-0.1,0.3c-0.4,1.5-0.8,2.9-0.7,4.5l0,0.2l0.2,0c0.1,0,0.1,0,0.2,0
					c-0.1,0.7-0.3,1.5-0.5,2.2c0,0.1-0.1,0.2-0.1,0.3c-0.2,0.5-0.3,1-0.4,1.5c-0.1,0.7,0,1.4,0.3,1.8c-0.4,4.4-1.5,8.8-3.3,13.4
					c-1,0.4-2,0.8-2.9,1.2c-1,0.4-2,0.8-3,1.2c-0.1,0.1-0.3,0.1-0.4,0.3c-0.1,0.1-0.1,0.3-0.1,0.4c0,0.1,0.1,0.2,0.2,0.3l0,0h9.4
					c0.2,0,0.5-0.2,0.5-0.4c0-0.2,0-0.4-0.1-0.5c-0.4-0.7-0.6-1.6-0.4-2.6c0.2-0.9,0.6-1.8,1-2.6l2.3-4.7c0.4-0.8,0.8-1.6,1-2.6
					c0.2-0.9,0-1.7-0.5-2.4c0.1-1.2,0.7-2.2,1.2-3.3c0.1-0.2,0.2-0.4,0.3-0.6c0.2-0.5,0.6-1.2,0.8-2c0.2,1.2,0.6,2.4,1.1,3.5
					l1.5,14.6c-0.3,0.2-0.5,0.5-0.7,0.7c-0.1,0.2-0.2,0.3-0.4,0.5c-0.3,0.3-0.8,0.5-1.4,0.6c-0.2,0-0.5,0.1-0.7,0.1
					c-0.3,0-0.6,0.1-0.9,0.1c-0.3,0.1-0.6,0.1-0.8,0.4c-0.2,0.2-0.4,0.6-0.2,1l0.1,0.1l8.2,0c0.1,0,0.2,0,0.3,0c0,0,0,0,0,0l0.3,0
					l0-0.3c-0.8-3.2-1.1-6.5-0.7-9.7c0-0.3,0.1-0.7,0.1-1c0.1-1.3,0.3-2.6,0.1-3.9c-0.1-0.7-0.3-1.3-0.5-2c-0.1-0.4-0.2-0.8-0.3-1.2
					c-0.1-0.6-0.2-1.3-0.3-1.9c-0.1-0.8-0.2-1.5-0.4-2.3l0,0l0-0.2c-0.7-3.4-0.9-6.2-0.7-8.9c0.7-0.6,1-1.8,0.6-2.7
					c-0.1-0.3-0.3-0.5-0.5-0.7c-0.1-0.2-0.2-0.4-0.3-0.5c-0.3-0.7-0.6-3.5-0.6-3.5c-0.5-2.6-0.2-5.4,0.9-8c0.1,1.3,0.2,2.6,0.3,3.9
					c0.1,1.6,0.3,3.2,0.4,4.8l0.2,3.4c0.2,2.8,0.3,5.8,0.8,8.6c-0.5,1.2-0.7,2.5-0.6,4.2l0,0.5l1.8-1.7c0.2-0.2,0.5-0.5,0.7-0.8
					c0.2-0.3,0.2-0.8,0.1-1.2c-0.1-0.4-0.2-0.7-0.4-1.1c-0.6-1.5-0.4-3-0.1-4.6c0.2-1.1,0.4-2.3,0.2-3.4c0-0.3-0.1-0.5-0.1-0.8
					c-0.2-1.6-0.3-3.3-0.3-5c0.1-3.2,0-4.6-0.2-6.9h0.9L124.2,68.9z M115.5,98.1c-0.1,0.2-0.2,0.4-0.3,0.6c-0.6,1.1-1.1,2.3-1.2,3.5
					l0,0.1l0.1,0.1c0.5,0.6,0.7,1.3,0.5,2.2c-0.1,0.9-0.5,1.7-0.9,2.4l-2.3,4.7c-0.4,0.9-0.9,1.8-1.1,2.7c-0.2,1.1-0.1,2.2,0.4,3
					l0.1-0.1l-0.1,0.1c0,0,0.1,0.1,0,0.1c0,0-0.1,0.1-0.1,0.1h-9.2c0-0.1,0.2-0.1,0.2-0.1c1-0.4,2-0.8,3-1.2c1-0.4,2-0.8,3-1.2
					l0.1,0l0-0.1c1.9-4.7,3-9.2,3.4-13.7l0-0.1l0-0.1c-0.3-0.4-0.4-1-0.3-1.6c0.1-0.5,0.2-0.9,0.4-1.4c0-0.1,0.1-0.2,0.1-0.3
					c0.2-0.7,0.4-1.5,0.6-2.2c1.4,0.3,2.8,0.4,4.3,0.4C116.1,96.8,115.8,97.6,115.5,98.1z M121.1,97.9c0.1,0.6,0.2,1.3,0.3,1.9
					c0.1,0.4,0.2,0.8,0.3,1.3c0.2,0.6,0.4,1.3,0.4,1.9c0.2,1.2,0,2.5-0.1,3.8c0,0.3-0.1,0.7-0.1,1c-0.3,3.2-0.1,6.4,0.7,9.6l-8,0
					c0-0.1,0.1-0.2,0.1-0.3c0.2-0.1,0.4-0.2,0.6-0.3c0.3-0.1,0.6-0.1,0.9-0.1c0.2,0,0.5-0.1,0.8-0.1c0.7-0.1,1.2-0.4,1.6-0.7
					c0.2-0.2,0.3-0.4,0.4-0.6c0.2-0.3,0.3-0.5,0.6-0.6l0.2-0.1l-1.6-15l0,0l0,0c-0.6-1.1-0.9-2.3-1.2-3.6c1.2,0,2.4-0.2,3.6-0.4
					C120.9,96.4,121,97.2,121.1,97.9z M123.4,82.8c0,0.3,0.1,0.5,0.1,0.8c0.1,1.1-0.1,2.2-0.2,3.3c-0.3,1.6-0.5,3.3,0.2,4.9
					c0.1,0.3,0.3,0.6,0.3,1c0,0.2,0.1,0.6-0.1,0.9c-0.1,0.3-0.4,0.5-0.6,0.7l-1.1,1c0-1.4,0.2-2.5,0.6-3.6l0-0.1l0-0.1
					c-0.5-2.8-0.7-5.8-0.8-8.6l-0.2-3.4c-0.1-1.7-0.2-3.3-0.4-4.8c-0.1-1.6-0.3-3.2-0.4-4.8l0-0.9l-0.4,0.8c-1.4,3-1.8,6.3-1.2,9.3
					c-0.1,0.1-0.2,0.1-0.3,0.2c-1.8,1.1-3.6,1.8-4.3,2.1l-1.5-9.4c-0.1-0.9-0.6-1.1-0.9-1.2c-0.4,0-0.7,0.3-0.8,0.6
					c-0.1,0.3-0.1,0.5-0.2,0.8l0,0c-0.2,3.9-2,7.6-4.9,10.2c-1.2,1.1-2.8,1.9-4.3,2.6c-1.4,0.7-2.9,1.4-4.1,2.4
					c-0.7,0.6-1.5,1-2.3,1.3c-0.2,0.1-0.5,0.1-0.7,0.1c-0.2-0.1-0.4-0.3-0.5-0.6C94.2,87.9,94,87.5,94,87c-0.1-0.4,0-0.6,0.3-1
					l0.2-0.3l-0.3-0.1c-0.3-0.1-0.5-0.2-0.7-0.4c0.5,0.1,0.9,0.1,1.4,0.1c0.9,0,1.8,0.1,2.6,0.4l0.1,0l0.1,0c1.7-0.5,3.4-1.5,5-3
					c0.4-0.4,0.9-0.7,1.4-1c1.2-0.8,2.4-1.6,2.7-2.9c0.8-2.9,1.7-5.5,2.9-7.9l0-0.1l0-0.1c-0.3-0.8-0.1-1.9,0.5-2.7
					c0.6-0.7,1.4-1.2,2.5-1.6c0.9-0.3,1.2-0.3,2.1-0.4c0,0,0,0,0,0c0,0.5,0.3,0.8,0.6,1.1c0.3,0.3,0.8,0.5,1.2,0.5l0.1,0l0,0
					c0,0,0.1,0,0.2,0c0,0,0,0,0,0l0,4.9l2.3,0v-6.8c0.8-0.1,1.7,0,2.4,0.5c0.7,0.4,1.1,1.1,1.3,2.1v2.5h0c0.2,2.3,0.3,3.8,0.2,6.9
					C123,79.5,123.2,81.2,123.4,82.8z M123.8,68.9l0,1.5h-0.5v-2.1l0,0c-0.2-1.1-0.7-1.9-1.5-2.4c-0.8-0.5-1.9-0.7-2.9-0.5l-0.2,0
					v6.7l-1.5,0l0-7.5l0,0c-0.2-0.3-0.4-0.5-0.7-0.7c0.9-0.8,1.3-1.6,1.5-2.5c0.1-1.2-0.3-2.3-1.2-2.9c-1-0.7-2.3-0.5-3.1,0.3
					L114,59c0.6-0.7,1.7-0.7,2.5-0.2c0.7,0.5,1.1,1.5,1,2.5c-0.1,0.8-0.6,1.6-1.5,2.4l-0.1,0.1l0,0.4l0.1,0.1
					c0.3,0.2,0.6,0.3,0.7,0.6l0,2.5c0,0,0,0,0,0c-0.1,0-0.2,0-0.3,0c-0.3,0-0.7-0.1-0.9-0.4c-0.3-0.2-0.5-0.5-0.5-0.8
					c0-0.7-0.3-1.3-0.6-1.9c-0.2-0.3-0.4-0.5-0.6-0.7c-0.2-0.2-0.3-0.4-0.5-0.6l0,0c-0.3-0.4-0.7-1-0.5-1.3c0.2-0.3,0.1-0.7-0.2-0.9
					c-0.2-0.2-0.6-0.2-0.8,0c-0.1,0.1-0.2,0.2-0.3,0.3c0-0.6,0.2-1.3,0.8-1.6c0.4-0.3,0.8-0.7,1.1-1c0.5-0.6,1-1.1,1.8-1.2
					c1.2-0.1,2.5,0.3,3.5,1.1c0.7,0.6,1.3,1.5,1.9,2.9c0.2,0.4,0.4,0.9,0.5,1.3c0.3,0.7,0.5,1.3,0.9,2c0.2,0.3,0.4,0.7,0.5,1
					c0.2,0.4,0.5,0.8,0.7,1.2C123.7,67.4,123.8,68.2,123.8,68.9z"/>
			</g>
			<g>
				<path class="st1" d="M112.4,60.3c-0.1,0-0.2-0.1-0.2-0.1c-0.1-0.1,0-0.3,0.1-0.4l0.2-0.1c0.1-0.1,0.3,0,0.4,0.1
					c0.1,0.1,0,0.3-0.1,0.4l-0.2,0.1C112.5,60.2,112.5,60.3,112.4,60.3z"/>
			</g>
			<g>
				<circle class="st1" cx="115.1" cy="59.6" r="0.6"/>
				<path class="st1" d="M114.1,59.9c0,0,0.4-0.8,1.1-0.7c0.5,0,0.7,0.7,0.7,0.7s-0.5,0.3-0.8,0.2C114.7,60,114.5,59.7,114.1,59.9z"
					/>
			</g>
		</g>
		<g>
			<path class="st1" d="M95,88.7c-0.1,0-0.2-0.1-0.3-0.2c0-0.1,0.1-0.3,0.2-0.3c0.8-0.1,1.6-0.7,1.8-1.5c0.1-0.2,0.2-0.5,0-0.8
				c-0.1-0.2-0.5-0.3-1-0.2c-0.6,0.1-1.2,0.2-1.7,0.4c-0.1,0.1-0.3,0-0.3-0.2c-0.1-0.1,0-0.3,0.2-0.3c0.6-0.2,1.2-0.4,1.9-0.5
				c0.7-0.1,1.2,0.1,1.4,0.4c0.2,0.3,0.3,0.8,0.1,1.3C96.9,87.8,96,88.5,95,88.7C95,88.7,95,88.7,95,88.7z"/>
		</g>
		<g>
			<rect x="95.3" y="88.3" class="st1" width="0.5" height="29.1"/>
		</g>
		<g>
			<path class="st1" d="M95.8,85.4h-0.5V62.7c0-1-0.1-2.6-0.7-3c-0.1-0.1-0.2-0.1-0.5,0l-0.2-0.5c0.5-0.2,0.8-0.1,1,0
				c1,0.6,0.9,3.1,0.9,3.4V85.4z"/>
		</g>
		<g>
			<path class="st1" d="M91.9,63.8c0,0-0.1,0-0.1,0c-0.3,0-0.4,0-0.3-4.2c-0.1-0.5,0-1.4,0.9-1.9c1-0.5,3.7-2.7,4-4l0.1-0.4l0.3,0.3
				c0,0,0.6,0.5,0.6,1.1c0,0.3-0.1,0.6-0.4,0.9c-0.3,0.3-0.4,0.6-0.4,0.9c0,0.3,0,0.7-0.7,0.8c-0.3,0.1-0.3,0.2-0.4,0.5
				c-0.1,0.3-0.2,0.7-0.7,0.7c-0.1,0-0.1,0-0.2,0.2c-0.1,0.3-0.3,0.7-1,0.9c-0.6,0.1-0.7,1.7-0.5,2.8c0,0,0.1,0.6-0.3,1.1
				C92.7,63.7,92.4,63.8,91.9,63.8z"/>
			<path class="st1" d="M96.7,53.8c0,0,1.1,0.9,0.2,1.7c-0.9,0.8-0.1,1.5-0.9,1.6c-0.9,0.2-0.4,1.2-1,1.2c-0.7,0-0.2,0.9-1.2,1.1
				c-1.1,0.2-0.7,3-0.7,3s0.2,1.2-1.1,1.2c0,0-0.1,0-0.1,0c-0.1,0,0-3.9,0-3.9s-0.2-1.1,0.8-1.7C93.6,57.4,96.4,55.2,96.7,53.8
				 M96.4,52.8l-0.2,0.8c-0.3,1.1-2.8,3.3-3.8,3.8c-1.1,0.5-1.2,1.6-1.1,2.2c0,0.2,0,1.1,0,1.9c0,0.6,0,1,0,1.4c0,0.6,0,1.1,0.6,1.1
				c0.1,0,0.1,0,0.2,0c0.7,0,1-0.3,1.2-0.5c0.5-0.5,0.4-1.2,0.4-1.3c-0.1-1.2,0.1-2.4,0.3-2.5c0.9-0.2,1.1-0.7,1.2-1c0,0,0,0,0,0
				c0.7,0,0.8-0.7,0.9-0.9c0.1-0.3,0.1-0.3,0.2-0.3c0.8-0.2,0.9-0.8,0.9-1.1c0-0.3,0-0.4,0.3-0.7c0.4-0.4,0.5-0.8,0.5-1.1
				c0-0.7-0.7-1.3-0.7-1.3L96.4,52.8L96.4,52.8z"/>
		</g>
	</g>
	
		<rect x="35.5" y="99.7" transform="matrix(-1.836970e-16 1 -1 -1.836970e-16 153.2177 46.9632)" class="st1" width="35.3" height="0.7"/>
	
		<rect x="9" y="117.6" transform="matrix(-1 -1.224647e-16 1.224647e-16 -1 133.5156 235.8537)" class="st1" width="115.6" height="0.7"/>
	<g>
		<g>
			<path class="st1" d="M70.2,109.4c-0.1,0-0.2,0-0.3-0.1c-0.2-0.1-0.4-0.4-0.3-0.7c0-0.1,0.1-0.2,0.1-0.3c-1,0.6-1.9,0.9-2.8,0.9
				c-1.2-0.1-1.9-0.8-2.5-1.6c-0.1-0.1-0.1-0.2,0-0.3c0.3-0.5,0.8-0.7,1.4-0.7c2.1-3.3,4.9-6.2,8.2-8.4c0.2-0.2,0.4-0.4,0.5-0.6
				c0.1-0.1,0.1-0.3,0.2-0.4c-0.2-0.8,0-1.8,0.2-2.5c0.3-0.9,0.9-1.5,1.7-1.8c0.8-0.3,1.8,0,2.3,0.7c0.4,0.1,0.8,0.2,1.1,0.3
				c0.4,0.1,0.8,0.2,1.2,0.3c0.1,0,0.2,0.1,0.2,0.3s-0.1,0.3-0.3,0.3c-0.4,0.1-0.9,0.1-1.4,0.2c-0.4,0.1-0.8,0.1-1.2,0.2
				c-0.1,0.4-0.3,0.7-0.6,1L78,96.2c0,0.1-0.1,0.1-0.2,0.2c-0.2,0.2-0.3,0.4-0.4,0.7c-0.1,0.2,0,0.5,0.2,0.6c0.1,0,0.1,0.1,0.2,0.2
				c0.6,2.1-0.4,4.2-1.4,5.7c-0.3,0.5-0.7,1-1.1,1.5c-0.8,1-1.6,2.1-2.1,3.3c0,0.1-0.1,0.1-0.2,0.2c-0.1,0-0.2,0.1-0.4,0.2
				c-0.1,0.1-0.3,0.1-0.4,0.2c-0.1,0.1-0.3,0-0.4-0.1l-0.1-0.3l-1.3,0.8C70.4,109.3,70.3,109.4,70.2,109.4z M70.2,108.7
				C70.2,108.7,70.2,108.7,70.2,108.7l1.5-0.9c0.1,0,0.2-0.1,0.2,0c0.1,0,0.1,0.1,0.2,0.1l0.2,0.3c0,0,0.1,0,0.1-0.1
				c0.1,0,0.2-0.1,0.3-0.1c0.5-1.2,1.3-2.3,2.1-3.3c0.4-0.5,0.7-1,1-1.4c0.9-1.3,1.8-3.2,1.4-5.1c-0.4-0.3-0.5-0.8-0.4-1.3
				c0.1-0.3,0.3-0.6,0.5-0.8c0-0.1,0.1-0.1,0.1-0.2l0.1-0.1c0.2-0.2,0.5-0.6,0.4-0.8c0-0.1,0-0.2,0-0.2c0-0.1,0.1-0.1,0.2-0.1
				c0.4-0.1,0.9-0.1,1.4-0.2c-0.3-0.1-0.7-0.2-1-0.2c-0.1,0-0.2-0.1-0.2-0.1c-0.3-0.5-1-0.7-1.7-0.5c-0.6,0.2-1.1,0.7-1.3,1.4
				c-0.2,0.6-0.4,1.5-0.2,2.3c0,0.1,0,0.2,0,0.2c-0.1,0.1-0.2,0.3-0.3,0.4c-0.2,0.3-0.3,0.6-0.7,0.8c-3.3,2.2-6,5.1-8.1,8.4
				c-0.1,0.1-0.2,0.2-0.3,0.1c-0.3-0.1-0.6,0-0.8,0.2c0.6,0.7,1.1,1.1,2,1.2c0.8,0.1,1.7-0.2,2.7-0.9c0.1-0.1,0.3-0.1,0.5,0
				c0.2,0.1,0.3,0.4,0.2,0.6c0,0.1-0.1,0.2-0.1,0.3C70.2,108.6,70.2,108.7,70.2,108.7z"/>
		</g>
		<g>
			<path class="st1" d="M69.7,114.8C69.7,114.8,69.7,114.8,69.7,114.8c-0.2,0-0.3-0.1-0.3-0.3c0.1-1.7-0.4-3.5-0.7-4.7
				c0-0.2,0-0.3,0.2-0.4c0.2,0,0.3-0.1,0.5-0.1c0.8-0.2,1.5-0.4,1.7-1c0.1-0.2,0.2-0.2,0.4-0.2c0.2,0.1,0.2,0.2,0.2,0.4
				c-0.3,0.9-1.3,1.2-2.1,1.4c-0.1,0-0.1,0-0.2,0.1c0.3,1.2,0.7,3,0.7,4.6C70,114.7,69.9,114.8,69.7,114.8z"/>
		</g>
		<g>
			<path class="st1" d="M73.5,115c-0.1,0-0.2-0.1-0.3-0.2c-0.3-0.7-0.7-1.5-1-2.2c-0.3-0.8-0.7-1.6-1-2.2c-0.1-0.1,0-0.3,0.1-0.4
				c0.5-0.3,1-1,0.9-1.4c0-0.2,0.1-0.3,0.2-0.3c0.2,0,0.3,0.1,0.3,0.2c0.1,0.6-0.4,1.4-0.9,1.9c0.3,0.6,0.6,1.3,0.9,2
				c0.3,0.8,0.7,1.6,1,2.2c0.1,0.1,0,0.3-0.1,0.4C73.5,114.9,73.5,115,73.5,115z"/>
		</g>
		<g>
			<path class="st1" d="M78.2,115H67.3c-0.2,0-0.3-0.1-0.3-0.3s0.1-0.3,0.3-0.3h10.9c0.2,0,0.3,0.1,0.3,0.3S78.4,115,78.2,115z"/>
		</g>
		<path class="st1" d="M77,94.5c0,0,0.1-0.9,1-0.3L77,94.5z"/>
	</g>
	<g>
		<g>
			<path class="st1" d="M88.7,102.6h-7.6c-0.2,0-0.3-0.1-0.3-0.3s0.1-0.3,0.3-0.3h7.6c0.2,0,0.3,0.1,0.3,0.3S88.9,102.6,88.7,102.6z
				"/>
		</g>
		<g>
			<path class="st1" d="M83.1,106.6c-0.1,0-0.2,0-0.2-0.1c-1.9-2-1.2-5.4-1.2-5.5c0-0.2,0.2-0.3,0.3-0.2c0.2,0,0.3,0.2,0.2,0.3
				c0,0-0.7,3.3,1,5c0.1,0.1,0.1,0.3,0,0.4C83.2,106.6,83.2,106.6,83.1,106.6z"/>
		</g>
		<g>
			<path class="st1" d="M85.3,106.1c-0.1,0-0.2,0-0.2-0.1c-1.4-2.1,0.2-4.9,0.3-5.1c0.1-0.1,0.3-0.2,0.4-0.1
				c0.1,0.1,0.2,0.3,0.1,0.4c0,0-1.5,2.7-0.3,4.5c0.1,0.1,0.1,0.3-0.1,0.4C85.4,106.1,85.3,106.1,85.3,106.1z"/>
		</g>
		<ellipse class="st1" cx="84.7" cy="109" rx="2.4" ry="3.2"/>
	</g>
	<g>
		<path class="st1" d="M64.5,90c-0.2,0-0.3-0.1-0.3-0.3V79.6c0-1-0.8-1.7-1.7-1.7s-1.7,0.8-1.7,1.7v6c0,0.2-0.1,0.3-0.3,0.3
			s-0.3-0.1-0.3-0.3v-6c0-1.3,1-2.3,2.3-2.3s2.3,1,2.3,2.3v10.1C64.8,89.9,64.6,90,64.5,90z"/>
	</g>
	<g>
		<path class="st1" d="M92.8,99H90c-0.2,0-0.3-0.1-0.3-0.3s0.1-0.3,0.3-0.3h2.5v-6.3h-8.3v6.3h2.2c0.2,0,0.3,0.1,0.3,0.3
			S86.5,99,86.3,99h-2.5c-0.2,0-0.3-0.1-0.3-0.3v-6.9c0-0.2,0.1-0.3,0.3-0.3h8.9c0.2,0,0.3,0.1,0.3,0.3v6.9C93,98.8,92.9,99,92.8,99
			z"/>
	</g>
	<g>
		<g>
			<path class="st1" d="M118.5,35.8h-12.2c-1.2,0-2.1-1-2.1-2.1c0-1.2,1-2.1,2.1-2.1h12.2c0.1,0,0.3,0.1,0.3,0.3
				c0,0.1-0.1,0.3-0.3,0.3h-12.2c-0.9,0-1.6,0.7-1.6,1.6c0,0.9,0.7,1.6,1.6,1.6h12.2c0.1,0,0.3,0.1,0.3,0.3
				C118.8,35.7,118.7,35.8,118.5,35.8z"/>
		</g>
		<path class="st1" d="M120,31.7c0,0.4-0.3,0.8-0.8,0.8c-0.4,0-0.8-0.3-0.8-0.8c0-0.4,0.3-0.8,0.8-0.8C119.7,31,120,31.3,120,31.7z"
			/>
		<circle class="st1" cx="119.3" cy="35.6" r="0.8"/>
	</g>
	<g>
		<g>
			<g>
				<path class="st1" d="M108.2,52.4C108.2,52.4,108.1,52.4,108.2,52.4l-3.8-1c-0.1,0-0.2-0.2-0.2-0.3c0-0.1,0.2-0.2,0.3-0.2l3.7,1
					l3.7-1c0,0,0.1,0,0.1,0l3.7,1l3.7-1c0.1,0,0.3,0,0.3,0.2c0,0.1,0,0.3-0.2,0.3l-3.8,1c0,0-0.1,0-0.1,0l-3.7-1L108.2,52.4
					C108.2,52.4,108.2,52.4,108.2,52.4z"/>
			</g>
		</g>
		<g>
			<g>
				<path class="st1" d="M108.2,50.3C108.2,50.3,108.1,50.3,108.2,50.3l-3.8-1c-0.1,0-0.2-0.2-0.2-0.3c0-0.1,0.2-0.2,0.3-0.2l3.7,1
					l3.7-1c0,0,0.1,0,0.1,0l3.7,1l3.7-1c0.1,0,0.3,0,0.3,0.2c0,0.1,0,0.3-0.2,0.3l-3.8,1c0,0-0.1,0-0.1,0l-3.7-1L108.2,50.3
					C108.2,50.3,108.2,50.3,108.2,50.3z"/>
			</g>
		</g>
		<g>
			<g>
				<path class="st1" d="M108.2,48.3C108.2,48.3,108.1,48.3,108.2,48.3l-3.8-1c-0.1,0-0.2-0.2-0.2-0.3c0-0.1,0.2-0.2,0.3-0.2l3.7,1
					l3.7-1c0,0,0.1,0,0.1,0l3.7,1l3.7-1c0.1,0,0.3,0,0.3,0.2c0,0.1,0,0.3-0.2,0.3l-3.8,1c0,0-0.1,0-0.1,0l-3.7-1L108.2,48.3
					C108.2,48.3,108.2,48.3,108.2,48.3z"/>
			</g>
		</g>
	</g>
	<g>
		<g>
			<path class="st1" d="M112.9,29.4c-1.2,0-2.6-0.2-3.7-1c-1.9-1.3-0.7-4.8-0.2-5.9l-4.1,0.1c-0.1,0-0.2,0-0.2-0.1
				c0-0.1,0-0.2,0-0.2c0.7-1,2.3-3.5,2.9-3.6c0.5-0.1,2.2-0.1,2.8-0.1c0-0.3,0-0.9,0-1.5c-0.8-0.6-1.9-2-1-3.4
				c0.4-0.7,1.1-0.9,1.8-0.7c1.2,0.3,2.5,1.7,2.6,3.9c0,0.1,0,0.1-0.1,0.2c0,0-0.1,0.1-0.2,0.1h-0.4v1.1c0,0.1-0.1,0.2-0.2,0.2h-1.4
				v0.2h1.5c0.1,0,0.1,0,0.1,0.1l2.3,1.9c2-2.3,2.1-2.3,2.2-2.3c0,0,0.1,0,2.1,0c0.1,0,0.2,0,0.2,0.1c0,0.1,0,0.1,0,0.2
				c-0.2,0.5-0.8,1.2-1.8,0.9c-2.2,2.9-2.2,2.9-2.4,2.9c-0.1,0-0.1-0.1-0.1-0.1c-0.2-0.2-1.4-0.9-2.6-1.7c-0.1,0.5-0.4,1.5-1,1.8
				c-0.5,0.2-0.9,1.9-0.8,2.4c0.3-0.1,1-0.4,1.6-0.7c1.9-0.9,3-1.4,3.5-1.1c0.1,0.1,0.2,0.2,0.2,0.3c0.1,0.8-2.2,3.4-3.3,4.5
				c2.1,0.7,2.2,1,2.2,1.1c0,0.1,0,0.2-0.2,0.3C114.9,29.2,114,29.4,112.9,29.4z M109.4,22c0.1,0,0.2,0,0.2,0.1c0,0.1,0.1,0.2,0,0.2
				c0,0-2,4.4-0.1,5.7c1.7,1.2,4.3,0.9,5.1,0.7c-0.4-0.2-1.3-0.5-2-0.8c-0.1,0-0.1-0.1-0.2-0.2c0-0.1,0-0.2,0.1-0.2
				c1.6-1.7,3.4-3.9,3.4-4.4c-0.4-0.1-2.1,0.7-3,1.1c-1.6,0.7-2,0.9-2.1,0.6c-0.2-0.3,0-1.3,0.2-1.9c0.2-0.7,0.5-1.1,0.8-1.3
				c0.4-0.2,0.7-1.2,0.7-1.7c0-0.1,0.1-0.1,0.1-0.2c0.1,0,0.2,0,0.2,0c1.7,1.1,2.5,1.6,2.8,1.8c0.4-0.5,1.4-1.8,2.1-2.7
				c0.1-0.1,0.2-0.1,0.3-0.1c0.6,0.2,0.9,0,1.1-0.3c-0.7,0-1.3,0-1.5,0c-0.3,0.2-1.4,1.5-2.1,2.4c-0.1,0.1-0.2,0.1-0.3,0l-2.4-2
				h-1.6c-0.1,0-0.2-0.1-0.2-0.2v-0.7c0-0.1,0.1-0.2,0.2-0.2h1.4v-1.1c0-0.1,0.1-0.2,0.2-0.2h0.4c-0.2-1.7-1.2-3-2.2-3.2
				c-0.4-0.1-0.9-0.1-1.3,0.5c-0.9,1.5,0.9,2.8,1,2.9c0.1,0,0.1,0.1,0.1,0.2c0,0.3,0,1.7,0,1.9c0,0.1-0.1,0.2-0.2,0.2
				c0,0-2.4,0.1-3,0.1c-0.3,0.1-1.4,1.5-2.4,3L109.4,22C109.4,22,109.4,22,109.4,22z M114.9,28.9L114.9,28.9L114.9,28.9z
				 M115.6,21.9C115.6,21.9,115.6,21.9,115.6,21.9C115.6,21.9,115.6,21.9,115.6,21.9z M115.6,21.9C115.6,21.9,115.6,21.9,115.6,21.9
				C115.6,21.9,115.6,21.9,115.6,21.9z M110.8,18.7L110.8,18.7L110.8,18.7z"/>
		</g>
		<g>
			<path class="st1" d="M109.3,21.4h-2.5c-0.1,0-0.2,0-0.2-0.1c0-0.1,0-0.2,0-0.2c0-0.1,1-1.6,2.5-1.4c0.1,0,0.1,0,0.2,0.1
				c0,0.1,0,0.1,0,0.2c0,0-0.2,0.6,0.2,1.1c0.1,0.1,0.1,0.2,0,0.2C109.5,21.3,109.4,21.4,109.3,21.4z M107.3,20.9h1.7
				c-0.1-0.3-0.1-0.6-0.1-0.8C108.1,20.1,107.6,20.5,107.3,20.9z"/>
		</g>
		<g>
			<path class="st1" d="M111.8,27.7C111.7,27.7,111.7,27.7,111.8,27.7c-0.9-0.2-1.6-0.9-1.6-0.9c-0.1-0.1-0.1-0.1-0.1-0.2
				c0-0.1,0.1-0.1,0.1-0.2l3.1-1.4c0.1,0,0.2,0,0.3,0.1c0.1,0.1,0.1,0.2,0,0.3l-1.6,2.2C111.9,27.7,111.8,27.7,111.8,27.7z
				 M110.7,26.7c0.2,0.2,0.6,0.4,0.9,0.5l1-1.4L110.7,26.7z"/>
		</g>
	</g>
	<g>
		<g>
			<path class="st1" d="M112.5,43.5c-1.6,0-3.2-0.5-4.7-1.9l-4-0.7c-0.1,0-0.2-0.2-0.2-0.3c0-0.1,0.1-0.3,0.3-0.3h3.9
				c0.4-0.5,1.9-2.2,4.2-2.5c1.9-0.2,3.8,0.5,5.7,2.1h2c0.1,0,0.2,0.1,0.3,0.2c0,0.1,0,0.2-0.1,0.3
				C119.9,40.5,116.4,43.5,112.5,43.5z M107.3,41l0.7,0.1c0.1,0,0.1,0,0.2,0.1c3.9,3.8,9,0.7,10.8-0.6h-1.3c-0.1,0-0.1,0-0.2-0.1
				c-1.8-1.5-3.6-2.2-5.4-2c-2.5,0.3-3.9,2.4-4,2.4c-0.1,0.1-0.1,0.1-0.2,0.1H107.3z"/>
		</g>
		<g>
			<circle class="st1" cx="112.8" cy="40.7" r="1.7"/>
		</g>
	</g>
	<g>
		<g>
			<path class="st1" d="M62.2,98.3h-4.6c-0.2,0-0.3-0.1-0.3-0.3V85.7c0-0.2,0.1-0.3,0.3-0.3h4.6c0.2,0,0.3,0.1,0.3,0.3V98
				C62.5,98.2,62.3,98.3,62.2,98.3z M57.9,97.8h4V86h-4V97.8z"/>
		</g>
		<g>
			<path class="st1" d="M59.9,98.3c-0.2,0-0.3-0.1-0.3-0.3v-6.4h-2c-0.2,0-0.3-0.1-0.3-0.3s0.1-0.3,0.3-0.3h2.3
				c0.2,0,0.3,0.1,0.3,0.3V98C60.2,98.2,60,98.3,59.9,98.3z"/>
		</g>
		<g>
			<path class="st1" d="M62.4,115h-4.9c-0.2,0-0.3-0.1-0.3-0.3L56.9,103c0-0.1,0-0.2,0.1-0.2c0.1-0.1,0.1-0.1,0.2-0.1h2.6
				c0.1,0,0.2,0,0.2,0.1c0.1,0.1,0.1,0.1,0.1,0.2l-0.6,10.1l3,0.5c0.1,0,0.2,0.1,0.2,0.3v0.9C62.7,114.9,62.6,115,62.4,115z
				 M57.9,114.5h4.3v-0.4l-3-0.5c-0.1,0-0.2-0.2-0.2-0.3l0.6-10h-2L57.9,114.5z"/>
		</g>
	</g>
	<g>
		<g>
			<path class="st1" d="M71.2,86.2h-3.7c-0.2,0-0.3-0.1-0.3-0.3s0.1-0.3,0.3-0.3h3.7c0.2,0,0.3,0.1,0.3,0.3S71.3,86.2,71.2,86.2z"/>
		</g>
		<g>
			<path class="st1" d="M88.6,86.2h-4.1c-0.2,0-0.3-0.1-0.3-0.3s0.1-0.3,0.3-0.3h4.1c0.2,0,0.3,0.1,0.3,0.3S88.7,86.2,88.6,86.2z"/>
		</g>
		<g>
			<path class="st1" d="M84.5,86.2c-0.1,0-0.2,0-0.2-0.1c-2.4-3.8-4.5-4.3-6.4-4.3c-3.8,0-6.4,4.2-6.4,4.3c-0.1,0.1-0.3,0.2-0.4,0.1
				c-0.1-0.1-0.2-0.3-0.1-0.4c0.1-0.2,2.8-4.5,6.9-4.6c2,0,4.3,0.5,6.9,4.6c0.1,0.1,0,0.3-0.1,0.4C84.6,86.1,84.5,86.2,84.5,86.2z"
				/>
		</g>
		<g>
			<path class="st1" d="M77.9,90.6C77.9,90.6,77.8,90.6,77.9,90.6c-2.1,0-4.5-0.6-7-4.6c-0.1-0.1,0-0.3,0.1-0.4
				c0.1-0.1,0.3,0,0.4,0.1c2.4,3.7,4.6,4.3,6.4,4.3c0,0,0,0,0.1,0c3.7,0,6.3-4.2,6.3-4.3c0.1-0.1,0.3-0.2,0.4-0.1
				c0.1,0.1,0.2,0.3,0.1,0.4C84.6,86.2,81.9,90.6,77.9,90.6z"/>
		</g>
		<circle class="st1" cx="77.9" cy="85.7" r="2.9"/>
	</g>
</g>
</svg>
