<?xml version="1.0" encoding="utf-8"?>
<!-- Generator: Adobe Illustrator 25.1.0, SVG Export Plug-In . SVG Version: 6.00 Build 0)  -->
<svg version="1.1" id="Layer_1" xmlns="http://www.w3.org/2000/svg" xmlns:xlink="http://www.w3.org/1999/xlink" width="128" height="80"
	 viewBox="0 0 133.27 133.27" style="enable-background:new 0 0 80 80;" xml:space="preserve">
<style type="text/css">
	.st0{opacity:0.62;fill:#64938A;}
	.st1{fill:#64938A;}
	.st2{fill:#FEBE40;}
	.st3{opacity:0.52;}
</style>
<g>
	<g transform="translate(21.785 36.624)">
		<path class="st0" d="M-15.27,76.07l34.39-33.24l85.86,4.17L77.47,81.28L-15.27,76.07z"/>
		<g>
			<g>
				<g>
					<polygon class="st1" points="-7.46,75.43 -7.8,75.07 25.64,42.65 25.99,43.01 					"/>
				</g>
				<g>
					<polygon class="st1" points="0.21,75.87 -0.14,75.52 32.87,42.95 33.22,43.31 					"/>
				</g>
				<g>
					
						<rect x="0.96" y="59.54" transform="matrix(0.7061 -0.7081 0.7081 0.7061 -35.2709 34.5923)" class="st1" width="46.16" height="0.5"/>
				</g>
				<g>
					
						<rect x="8.61" y="59.92" transform="matrix(0.6993 -0.7149 0.7149 0.6993 -33.512 40.6793)" class="st1" width="45.95" height="0.5"/>
				</g>
				<g>
					
						<rect x="16.32" y="60.3" transform="matrix(0.6923 -0.7216 0.7216 0.6923 -31.633 46.9164)" class="st1" width="45.74" height="0.5"/>
				</g>
				<g>
					
						<rect x="24.09" y="60.68" transform="matrix(0.6863 -0.7273 0.7273 0.6863 -29.6201 53.1885)" class="st1" width="45.53" height="0.5"/>
				</g>
				<g>
					
						<rect x="31.9" y="61.07" transform="matrix(0.6793 -0.7339 0.7339 0.6793 -27.5023 59.7143)" class="st1" width="45.32" height="0.5"/>
				</g>
				<g>
					
						<rect x="39.78" y="61.46" transform="matrix(0.6721 -0.7405 0.7405 0.6721 -25.2559 66.3903)" class="st1" width="45.11" height="0.5"/>
				</g>
				<g>
					
						<rect x="47.7" y="61.85" transform="matrix(0.6639 -0.7478 0.7478 0.6639 -22.8635 73.3375)" class="st1" width="44.9" height="0.5"/>
				</g>
				<g>
					
						<rect x="63.72" y="62.65" transform="matrix(0.6482 -0.7615 0.7615 0.6482 -17.6529 87.5842)" class="st1" width="44.48" height="0.5"/>
				</g>
			</g>
			<g>
				<g>
					
						<rect x="61.2" y="3.45" transform="matrix(0.0429 -0.9991 0.9991 0.0429 12.4876 105.7719)" class="st1" width="0.5" height="85.83"/>
				</g>
				<g>
					
						<rect x="58.64" y="5.96" transform="matrix(0.0442 -0.999 0.999 0.0442 7.2386 105.7592)" class="st1" width="0.5" height="86.28"/>
				</g>
				<g>
					
						<rect x="56.05" y="8.49" transform="matrix(0.0455 -0.999 0.999 0.0455 1.9286 105.7381)" class="st1" width="0.5" height="86.73"/>
				</g>
				<g>
					
						<rect x="53.42" y="11.07" transform="matrix(0.0468 -0.9989 0.9989 0.0468 -3.4413 105.7099)" class="st1" width="0.5" height="87.19"/>
				</g>
				<g>
					
						<rect x="50.76" y="13.67" transform="matrix(0.0482 -0.9988 0.9988 0.0482 -8.8733 105.6737)" class="st1" width="0.5" height="87.65"/>
				</g>
				<g>
					
						<rect x="48.07" y="16.31" transform="matrix(0.0495 -0.9988 0.9988 0.0495 -14.3676 105.6295)" class="st1" width="0.5" height="88.11"/>
				</g>
				<g>
					
						<rect x="42.57" y="21.69" transform="matrix(0.0523 -0.9986 0.9986 0.0523 -25.5487 105.5159)" class="st1" width="0.5" height="89.06"/>
				</g>
				<g>
					
						<rect x="39.77" y="24.44" transform="matrix(0.0538 -0.9986 0.9986 0.0538 -31.2376 105.4454)" class="st1" width="0.5" height="89.54"/>
				</g>
				<g>
					
						<rect x="36.93" y="27.22" transform="matrix(0.0552 -0.9985 0.9985 0.0552 -36.9928 105.3647)" class="st1" width="0.5" height="90.02"/>
				</g>
				<g>
					
						<rect x="34.05" y="30.04" transform="matrix(0.0567 -0.9984 0.9984 0.0567 -42.8171 105.2755)" class="st1" width="0.5" height="90.51"/>
				</g>
			</g>
			<g>
				<g>
					
						<rect x="55.68" y="62.25" transform="matrix(0.6566 -0.7543 0.7543 0.6566 -20.3428 80.3201)" class="st2" width="44.69" height="0.5"/>
					<path class="st2" d="M63.57,79.7L63,79.21l0.08-0.09L92.49,45.3l0.57,0.49l-0.08,0.09L63.57,79.7z M63.35,79.18l0.19,0.16
						l29.17-33.53l-0.19-0.16L63.35,79.18z"/>
				</g>
			</g>
			<g>
				<g>
					
						<rect x="45.34" y="18.98" transform="matrix(0.0509 -0.9987 0.9987 0.0509 -19.9255 105.5774)" class="st2" width="0.5" height="88.58"/>
					<path class="st2" d="M89.92,65.91L89.8,65.9L1.21,61.39l0.04-0.75l0.12,0.01l88.59,4.52L89.92,65.91z M1.47,61.15l88.22,4.5
						l0.01-0.25L1.48,60.9L1.47,61.15z"/>
				</g>
			</g>
		</g>
		<g>
			<path class="st1" d="M77.47,82.78c-0.03,0-0.06,0-0.08,0l-92.74-5.21c-0.6-0.03-1.11-0.42-1.32-0.97
				c-0.21-0.56-0.07-1.19,0.36-1.6l34.39-33.24c0.3-0.29,0.7-0.44,1.12-0.42l85.86,4.17c0.56,0.03,1.06,0.37,1.29,0.88
				c0.23,0.51,0.16,1.12-0.2,1.55L78.64,82.22C78.35,82.57,77.92,82.78,77.47,82.78z M-11.76,74.76l88.54,4.97l25.18-31.39
				l-82.27-3.99L-11.76,74.76z"/>
		</g>
	</g>
	<g>
		<g class="st3">
			<polygon class="st2" points="23.82,98.08 98.97,101.88 23.82,8.79 			"/>
		</g>
		<g>
			<path class="st2" d="M26.82,17.28l65.6,81.27l-65.6-3.32V17.28 M23.82,8.79v89.3l75.15,3.8L23.82,8.79L23.82,8.79z"/>
		</g>
	</g>
</g>
</svg>
