<?xml version="1.0" encoding="utf-8"?>
<!-- Generator: Adobe Illustrator 25.1.0, SVG Export Plug-In . SVG Version: 6.00 Build 0)  -->
<svg version="1.1" id="Layer_1" width="128" height="80" xmlns="http://www.w3.org/2000/svg" xmlns:xlink="http://www.w3.org/1999/xlink"
	 viewBox="0 0 133.3 133.3" style="enable-background:new 0 0 133.3 133.3;" xml:space="preserve">
<style type="text/css">
	.st0{fill:#CC3C29;}
	.st1{fill:#E3482C;}
	.st2{fill:#BF3328;}
	.st3{fill:#2276BC;}
	.st4{fill:#1D5C87;}
	.st5{fill:#95C947;}
	.st6{fill:#579C43;}
	.st7{fill:#FFFFFF;}
	.st8{fill:#AABFD0;}
	.st9{fill:#D0E2EE;}
	.st10{fill:#7D8E9E;}
</style>
<g>
	<g>
		<g>
			<g>
				<path class="st0" d="M110,19.6c0,7.3-5.9,13.1-13.2,13.1c-4.4,0-8.3-2.1-10.6-5.4c-1.6-2.2-2.5-4.8-2.5-7.7
					c0-7.3,5.9-13.2,13.1-13.2c2.9,0,5.6,0.9,7.7,2.5C107.9,11.3,110,15.2,110,19.6z"/>
				<path class="st1" d="M107.1,16.7c0,7.3-5.9,13.1-13.2,13.1c-2.9,0-5.5-0.9-7.7-2.5c-1.6-2.2-2.5-4.8-2.5-7.7
					c0-7.3,5.9-13.2,13.1-13.2c2.9,0,5.6,0.9,7.7,2.5C106.2,11.1,107.1,13.8,107.1,16.7z"/>
			</g>
		</g>
		<circle class="st0" cx="88.2" cy="14.2" r="1.5"/>
		<circle class="st2" cx="103.8" cy="28.4" r="1.5"/>
		<circle class="st0" cx="103.6" cy="15.1" r="1.5"/>
		<circle class="st0" cx="92" cy="14.6" r="0.9"/>
		<circle class="st2" cx="101.3" cy="30.2" r="0.9"/>
		<circle class="st0" cx="99.3" cy="22.7" r="0.9"/>
		<circle class="st0" cx="87.6" cy="18.1" r="0.9"/>
		<circle class="st0" cx="101.3" cy="12.3" r="0.9"/>
	</g>
	<g>
		<path class="st3" d="M82.4,44.8c0,0.5,0,1-0.2,1.4c-0.5,1.1-1.2,1-2,0.2c-0.7-0.6-1.5-0.9-2.4-1.4c0-0.1,0-0.4,0.1-0.6
			c1.6-1.3,3.1-2.5,4.8-3.8H63.8l0,0c-0.3,0.3-0.6,0.7-0.9,1.1c-0.8,1.1-1.5,1.2-2.2,0c-0.2-0.4-0.3-0.7-0.5-1.1l0,0h-5.7
			c0,0.1-0.1,0.1-0.1,0.2c-1.2,1.2-1.4,1.2-2.7,0c0.1-0.1,0.2-0.1,0.3-0.2h-6.5c-1.4,0.7-2.7,1.5-4,2.3c-0.6,0.4-0.5,1.2,0.1,1.7
			c0.5,0.3,1.1,0.4,1.6,0.7c0.4,0.2,0.6,0.6,0.9,1c0.2,0.3,0.5,0.6,0.7,0.9c0.3-0.2,0.6-0.4,0.8-0.7c1-1,2.2-1.8,2.5-3.4
			c0.1-0.6,1.2-1.5,2.3-1c0.1,0,0.3,0,0.3,0.1c0.6,1.1,1.3,1.8,2.6,1c0.1,0.3,0.3,0.5,0.4,0.8c0.3,0.6,0.4,1.4,0.9,1.8
			c0.6,0.5,0.4,1-0.1,1.2c-0.8,0.4-1.6,0.7-2.5,0.8c-1.1,0.1-2.2,0.1-3.4,1c0.7,0.1,1.2,0.2,1.6,0.3c-0.3,1.5,0.8,0.9,1.8,1
			c-1,0.5-1.8,0.8-2.6,1.2c-0.2-1-0.9-0.8-1.4-0.4c-1.5,1.1-3,2.3-4.4,3.5c-0.9,0.8-1.7,1.8-2.8,2.5s-1.5,1.6-1.3,2.8
			c0.1,0.4-0.1,0.8-0.1,1.2c-0.1,0-0.3,0-0.4,0c-0.1-0.4-0.2-0.7-0.4-1.1c-0.4-1.3-1.6-1.7-2.8-1c-0.3,0.2-0.7,0.3-0.9,0.2
			c-2-0.4-3.3,0.4-3.9,2.2c-0.2,0.6-0.4,1.2-0.5,1.8c-0.2,1,0.2,1.7,1.1,2.1c0.9,0.4,1.6,0.2,2.2-0.5c0.1-0.1,0.2-0.4,0.4-0.5
			s0.5-0.2,0.8-0.3c0.1,0.3,0.3,0.6,0.2,0.8c-0.1,0.6-0.3,1.1-0.5,1.7c0.3,0.1,0.6,0.1,0.8,0.1c0.9,0,1.3,0.4,1.1,1.4
			c-0.2,1.1,0,2.1,1.2,2.9c-1.2-0.2-1.7-0.8-2.2-1.7c-0.3-0.6-1.1-1-1.7-1.4c-0.4-0.3-1-0.5-1.5-0.7c-0.4-0.2-0.9-0.4-1.3-0.4
			c-1.6,0.1-2.7-0.7-3.9-1.6c-0.1-0.1-0.3-0.3-0.4-0.4c-0.7-1.5-1.4-3.1-2.1-4.6c-0.3-0.6-0.5-1.2-0.9-1.8c-0.8,1.1,0.5,2,0.2,3.2
			c-0.9-2.5-1.8-4.8-2.5-7.1c-0.1-0.4,0.2-1.1,0.4-1.6c0.4-0.7,1-1.3,1.4-2c0.8-1.2,1.6-2.2,1.1-3.8c-0.1-0.4,0-1,0.1-1.5
			c0.2-1.2-0.4-2-1.4-2.4c-1.4-0.5-2.8-0.6-4.2-0.2v55.7h26.9c0-0.1-0.1-0.2-0.1-0.3c-0.2-0.6-0.6-1.2-0.6-1.9
			c-0.2-3.1-0.4-6.2-0.5-9.3c0-0.8-0.3-1.4-1-1.8c-1.8-1.1-3.4-2.3-4-4.4c-0.1-0.3-0.3-0.7-0.5-0.9c-1.4-1.7-1-3.3,0-5.1
			c0.6-1,1.3-1.9,1.1-3.3c-0.2-1.2,1.2-1.7,2.2-2.4c0.2,0.4,0.4,0.8,0.6,1.2c0.4-0.3,0.8-0.9,1.1-0.9c1.1,0.2,2.3,0.4,3.3,0.9
			C49,71,50.5,72,52,72.8c0.9,0.5,1.3,1.4,1,2.6c1,0.4,1.9,0.8,2.8,1.2c0.3,0.1,0.7,0.2,1,0.3c1.1,0.4,2.2,0.7,3.3,1.2
			c1,0.4,1.1,1.2,0.5,2c-1.1,1.4-1.4,2.9-1.6,4.6c-0.2,1.9-0.8,3.5-3,3.8c-0.6,0.1-0.8,0.5-1,1.2c-0.5,1.4-1.1,2.9-1.9,4.2
			c-0.2,0.4-1.1,0.4-1.8,0.6c0,0,0.1,0.3,0.2,0.4c0.6,0.7,0.6,1.4-0.2,1.7c-0.8,0.2-1.2,0.5-1.5,1.2c-0.1,0.2-0.4,0.2-0.6,0.3
			c0,0.1,0,0.3,0,0.4h34.9v-2.2c-0.3-0.1-0.5-0.4-0.7-0.9c-1-2.7-2-5.3-2.9-7.9c-0.2-0.5-0.2-1.3,0.1-1.8c1.2-2.4,0.4-4.6-0.9-6.6
			c-0.4-0.7-0.7-1.2-0.5-2c0.3-1.2-0.1-1.8-1.3-2.2c-0.3-0.1-0.5-0.4-0.8-0.4c-0.7-0.2-1.5-0.5-2.2-0.5c-1,0-2,0.2-2.8,0.6
			c-1.8,0.7-2.9-0.1-3.9-1.4c-0.6-0.8-1.3-1.6-1.8-2.5c-0.3-0.5-0.3-1.2-0.3-1.8c0-1,0.1-1.9,0.2-2.9c0.1-0.7,0.4-1.6,0.8-2.2
			c1.3-1.8,2.7-3.4,4.2-5.1c0.3-0.3,0.8-0.5,1.3-0.6c2.2-0.4,4.5-0.7,6.6-1c0.2,0.7,0.3,1.6,0.7,1.9c1,0.7,2.2,1.1,3.4,1.5
			c0.2,0.1,0.7-0.1,0.7-0.2c0.1-0.1,0.1-0.3,0.2-0.4V56c-0.9-1.4-1.9-2.8-3.7-3.2c-0.1,0.1-0.2,0.2-0.3,0.3c0.8,0.8,1.6,1.6,2.4,2.4
			c-0.1,0.1-0.2,0.2-0.3,0.3c-0.9-0.6-1.8-1.1-2.5-1.7c-0.7-0.5-1.1-0.5-1.9-0.3c-1.1,0.2-1.7,0.8-2.5,1.4c-0.3,0.2-0.5,0.5-0.6,0.8
			c-0.6,1.2-1.5,1.7-2.7,1.4c-1.3-0.3-1.5-0.8-1.1-2.6c0.3-1.1,0.9-0.9,1.8-0.8c0.4,0.1,1.1,0,1.3-0.3c0.2-0.3,0.1-1-0.1-1.4
			c-0.4-0.8-0.1-1.2,0.6-1.6c0.8-0.5,1.7-0.9,2.5-1.5c1.1-0.9,2.2-1.3,3.6-1.2c0.6,0.1,1.2-0.1,1.8,0c0.8,0.1,1.3-0.4,1.7-0.9v-4.3
			C83.1,42.9,82.4,43.6,82.4,44.8z"/>
		<path class="st4" d="M28.1,38.6c0.5,0.4,1.4,0.6,2,0.4c2.2-0.8,4.4-0.3,6.6-0.2c0.3,0,0.6,0.2,0.9,0.3c0.9,0.3,1.7,0.6,2.8,0.2
			c0.8-0.3,1.9-0.2,2.7,0c1.1,0.3,1.8,0,2.4-0.9c0.7-1,0.8-1,1.4,0c0.4,0.6,0.8,0.8,1.4,0.5c0.3-0.1,0.6-0.2,0.9-0.3
			c0.1,0.1,0.1,0.3,0.2,0.4c-1,0.4-2,0.6-2.9,1.1c-0.3,0.1-0.6,0.3-0.9,0.5H52c0.8-0.6,1.4-1.5,0.4-2.3c-0.8-0.6-2-0.6-3.1-1
			c0-0.1,0.1-0.4,0.2-0.4c0.8-0.5,3.9-0.1,4.7,0.6c0.8,0.7,0.9,2.3,0.3,3.2h5.7c-0.1-0.4-0.2-0.7-0.3-0.9c0.7-0.7,1.5-1.2,1.5-1.7
			c0-1.3-0.7-2.4-2-3c-0.4-0.2-0.9-0.3-1.5-0.4c0.8-0.3,1.9,0.2,2.3-1.2c-0.5,0.1-0.9,0-1.2,0.1c-1.6,0.5-3.3,0.9-4.9,1.5
			c-1,0.4-1.8,0.1-2.7-0.2c-0.2-0.1-0.4-0.3-0.4-0.5s0.2-0.4,0.4-0.5c0.4-0.1,0.9-0.2,1.4-0.3c1.3-0.4,2.6-0.9,4-1.3
			c0.5,0,0.9,0,1.4,0c1.9,0.2,3.8,0.4,5.8,0.6c1.1,0.1,2.2,0.1,3.2,0.1c1.4,0,2.7,0,4.1,0l0,0l-1.1-0.7H32.6l-9.9,6
			c1-0.1,2-0.3,3.1-0.5C26.6,37.8,27.3,38,28.1,38.6z M39,36.6c1.3,0.7,2.5,1,3.9,0.5c0.1,1.1-0.5,1.4-1.2,1.4
			c-0.9,0.1-1.8,0.1-2.7,0.1c-0.2,0-0.5-0.1-0.7-0.3c-0.5-0.4-0.9-0.8-1.4-1.2c0-0.1-0.1-0.2-0.1-0.4C37.6,36.7,38.5,36.3,39,36.6z"
			/>
		<path class="st4" d="M71.9,36.2c-0.2,0-0.5,0.7-0.5,1.1c-0.1,0.7-0.5,1-1.2,1.2c-1.9,0.6-3.9,1.2-5.7,1.9
			c-0.2,0.1-0.4,0.2-0.6,0.4h18.8c0.1,0,0.1-0.1,0.2-0.1c0.2-0.1,0.4-0.2,0.6-0.3L74,34.6l-1.6-0.9l1.6,0.9
			C73.4,35.4,72.9,36.1,71.9,36.2z"/>
		<path class="st5" d="M23,43.2c1.1,0.4,1.7,1.2,1.4,2.4c-0.1,0.5-0.2,1.1-0.1,1.5c0.5,1.5-0.3,2.6-1.1,3.8c-0.4,0.7-1,1.3-1.4,2
			c-0.3,0.5-0.6,1.1-0.4,1.6c0.7,2.3,1.6,4.6,2.5,7.1c0.3-1.2-0.9-2.1-0.2-3.2c0.4,0.6,0.7,1.2,0.9,1.8c0.7,1.5,1.4,3.1,2.1,4.6
			c0.1,0.2,0.2,0.3,0.4,0.4c1.2,0.9,2.3,1.7,3.9,1.6c0.4,0,0.9,0.3,1.3,0.4c0.5,0.2,1,0.4,1.5,0.7c0.6,0.4,1.4,0.8,1.7,1.4
			c0.5,0.9,1,1.4,2.2,1.7c-1.2-0.8-1.4-1.8-1.2-2.9c0.2-0.9-0.2-1.3-1.1-1.4c-0.2,0-0.4-0.1-0.8-0.1c0.2-0.6,0.4-1.2,0.5-1.7
			c0.1-0.3-0.1-0.5-0.2-0.8c-0.3,0.1-0.6,0.2-0.8,0.3c-0.2,0.1-0.2,0.3-0.4,0.5c-0.6,0.7-1.3,0.9-2.2,0.5c-0.9-0.4-1.3-1.1-1.1-2.1
			c0.1-0.6,0.3-1.2,0.5-1.8c0.7-1.8,2-2.5,3.9-2.2c0.3,0.1,0.7-0.1,0.9-0.2c1.2-0.7,2.3-0.3,2.8,1c0.1,0.4,0.3,0.8,0.4,1.1
			c0.1,0,0.3,0,0.4,0c0-0.4,0.2-0.8,0.1-1.2c-0.2-1.3,0.3-2.1,1.3-2.8s1.8-1.7,2.8-2.5c1.5-1.2,2.9-2.4,4.4-3.5
			c0.5-0.4,1.2-0.7,1.4,0.4c0.8-0.4,1.6-0.7,2.6-1.2c-1-0.1-2.1,0.4-1.8-1c-0.5-0.1-0.9-0.2-1.6-0.3c1.2-0.9,2.3-0.8,3.4-1
			c0.9-0.1,1.7-0.4,2.5-0.8c0.5-0.2,0.6-0.7,0.1-1.2c-0.4-0.4-0.6-1.2-0.9-1.8c-0.1-0.2-0.2-0.5-0.4-0.8c-1.3,0.9-2,0.1-2.6-1
			c0-0.1-0.2-0.1-0.3-0.1c-1.2-0.5-2.2,0.4-2.3,1c-0.3,1.6-1.5,2.4-2.5,3.4c-0.3,0.2-0.6,0.4-0.8,0.7c-0.2-0.3-0.5-0.6-0.7-0.9
			c-0.3-0.4-0.5-0.8-0.9-1c-0.5-0.3-1.1-0.4-1.6-0.7c-0.7-0.4-0.8-1.3-0.1-1.7c1.3-0.9,2.7-1.6,4-2.3H18.8V43
			C20.2,42.7,21.6,42.8,23,43.2z"/>
		<path class="st6" d="M46.5,40.3c0.9-0.5,1.9-0.7,2.9-1.1c-0.1-0.1-0.1-0.3-0.2-0.4c-0.3,0.1-0.7,0.1-0.9,0.3
			c-0.7,0.3-1.1,0.1-1.4-0.5c-0.7-1.1-0.8-1.1-1.4,0c-0.6,0.9-1.2,1.2-2.4,0.9c-0.9-0.2-2-0.4-2.7,0c-1.1,0.4-1.9,0.1-2.8-0.2
			C37.3,39.2,37,39,36.7,39c-2.2-0.1-4.4-0.6-6.6,0.2c-0.6,0.2-1.5,0-2-0.4c-0.7-0.7-1.5-0.8-2.4-0.7c-1,0.1-2,0.3-3.1,0.5l-3.9,2.3
			h26.8C45.9,40.6,46.2,40.4,46.5,40.3z"/>
		<path class="st5" d="M49.8,98c0.3-0.7,0.7-1,1.5-1.2s0.9-1,0.2-1.7c-0.1-0.1-0.2-0.4-0.2-0.4c0.7-0.2,1.6-0.2,1.8-0.6
			c0.8-1.3,1.4-2.7,1.9-4.2c0.2-0.7,0.4-1.1,1-1.2c2.3-0.3,2.9-1.9,3-3.8c0.1-1.7,0.5-3.2,1.6-4.6c0.6-0.8,0.4-1.6-0.5-2
			c-1.1-0.5-2.2-0.8-3.3-1.2c-0.3-0.1-0.7-0.2-1-0.3c-0.9-0.4-1.9-0.7-2.8-1.2c0.3-1.2-0.1-2.1-1-2.6c-1.6-0.9-3-1.9-4.6-2.6
			c-1-0.5-2.2-0.7-3.3-0.9c-0.3-0.1-0.7,0.5-1.1,0.9c-0.2-0.4-0.4-0.7-0.6-1.2c-1,0.7-2.4,1.2-2.2,2.4c0.2,1.4-0.4,2.3-1.1,3.3
			c-1,1.7-1.4,3.4,0,5.1c0.2,0.3,0.4,0.6,0.5,0.9c0.7,2.1,2.2,3.3,4,4.4c0.7,0.4,1,1,1,1.8c0.1,3.1,0.3,6.2,0.5,9.3
			c0,0.6,0.4,1.2,0.6,1.9c0,0.1,0.1,0.2,0.1,0.3h3.5c0-0.1,0-0.3,0-0.4C49.3,98.2,49.7,98.1,49.8,98z"/>
		<path class="st7" d="M71.4,33.1l1,0.6L71.4,33.1L71.4,33.1L71.4,33.1L71.4,33.1z"/>
		<path class="st7" d="M60.3,40.7c0.1,0.4,0.3,0.7,0.5,1.1c0.7,1.2,1.4,1.1,2.2,0c0.3-0.4,0.5-0.8,0.9-1.1l0,0H60.3L60.3,40.7z"/>
		<path class="st8" d="M67.3,33.1c-1.1,0-2.2-0.1-3.2-0.1c-1.9-0.2-3.8-0.4-5.8-0.6c-0.5,0-0.9,0-1.4,0c-1.3,0.4-2.6,0.9-4,1.3
			c-0.4,0.1-0.9,0.1-1.4,0.3c-0.2,0.1-0.4,0.3-0.4,0.5s0.2,0.4,0.4,0.5c0.9,0.4,1.7,0.6,2.7,0.2c1.6-0.6,3.3-1,4.9-1.5
			c0.4-0.1,0.7-0.1,1.2-0.1c-0.4,1.3-1.5,0.8-2.3,1.2c0.6,0.2,1.1,0.3,1.5,0.4c1.3,0.6,2,1.6,2,3c0,0.5-0.8,0.9-1.5,1.7
			c0.1,0.2,0.2,0.6,0.3,0.9h3.5c0.2-0.2,0.4-0.3,0.6-0.4c1.9-0.7,3.8-1.3,5.7-1.9c0.7-0.2,1.1-0.5,1.2-1.2c0.1-0.4,0.3-1,0.5-1.1
			c1.1-0.1,1.6-0.8,2.1-1.6l-1.6-0.9l-1-0.6l0,0l0,0l0,0C70,33.1,68.6,33.1,67.3,33.1z"/>
		<path class="st5" d="M82.6,40.7c-1.6,1.2-3.2,2.5-4.8,3.8c-0.1,0.1-0.1,0.5-0.1,0.6c0.9,0.5,1.7,0.9,2.4,1.4
			c0.9,0.8,1.5,0.8,2-0.2c0.2-0.4,0.2-1,0.2-1.4c0-1.2,0.7-1.9,1.7-1.9v-2.2L82.6,40.7L82.6,40.7z"/>
		<path class="st6" d="M82.6,40.7H84l-0.7-0.4c-0.2,0.1-0.4,0.2-0.6,0.3C82.7,40.7,82.7,40.7,82.6,40.7z"/>
		<path class="st5" d="M82.3,48.1c-0.6-0.1-1.2,0.1-1.8,0c-1.4-0.1-2.6,0.2-3.6,1.2c-0.7,0.6-1.6,1-2.5,1.5c-0.7,0.4-1,0.8-0.6,1.6
			c0.2,0.4,0.3,1.1,0.1,1.4C73.7,54,73,54.1,72.6,54c-0.9-0.2-1.5-0.4-1.8,0.8c-0.4,1.8-0.2,2.3,1.1,2.6c1.2,0.3,2.1-0.2,2.7-1.4
			c0.1-0.3,0.4-0.6,0.6-0.8c0.7-0.6,1.4-1.2,2.5-1.4c0.8-0.2,1.2-0.2,1.9,0.3c0.8,0.7,1.7,1.2,2.5,1.7c0.1-0.1,0.2-0.2,0.3-0.3
			c-0.8-0.8-1.6-1.6-2.4-2.4c0.1-0.1,0.2-0.2,0.3-0.3c1.9,0.4,2.8,1.7,3.7,3.2v-8.7C83.6,47.7,83.1,48.2,82.3,48.1z"/>
		<path class="st5" d="M83.1,60.9c-1.1-0.5-2.4-0.9-3.4-1.5c-0.4-0.3-0.5-1.2-0.7-1.9c-2.1,0.3-4.3,0.6-6.6,1
			c-0.5,0.1-1,0.3-1.3,0.6c-1.4,1.7-2.9,3.3-4.2,5.1c-0.4,0.6-0.6,1.4-0.8,2.2C66,67.2,66,68.2,66,69.2c0,0.6,0,1.3,0.3,1.8
			c0.5,0.9,1.2,1.7,1.8,2.5c1,1.3,2.1,2.2,3.9,1.4c0.9-0.4,1.9-0.6,2.8-0.6c0.7,0,1.4,0.3,2.2,0.5c0.3,0.1,0.5,0.3,0.8,0.4
			c1.2,0.4,1.6,1,1.3,2.2c-0.2,0.8,0.1,1.3,0.5,2c1.3,2,2.2,4.1,0.9,6.6c-0.3,0.5-0.2,1.2-0.1,1.8c0.9,2.7,2,5.3,2.9,7.9
			c0.2,0.5,0.4,0.7,0.7,0.9V60.4c-0.1,0.1-0.1,0.2-0.2,0.4C83.8,60.9,83.3,61,83.1,60.9z"/>
		<path class="st5" d="M51.7,41c1.3,1.2,1.5,1.2,2.7,0c0.1-0.1,0.1-0.1,0.1-0.2H52C51.9,40.8,51.8,40.9,51.7,41z"/>
		<path class="st6" d="M54.3,37.6c-0.8-0.6-3.9-1-4.7-0.6c-0.1,0.1-0.2,0.4-0.2,0.4c1.1,0.3,2.3,0.4,3.1,1c1,0.8,0.5,1.7-0.4,2.3
			h2.5C55.2,39.9,55.1,38.3,54.3,37.6z"/>
		<path class="st6" d="M38.4,38.3c0.2,0.2,0.5,0.3,0.7,0.3c0.9,0,1.8,0,2.7-0.1c0.7-0.1,1.3-0.3,1.2-1.4c-1.4,0.5-2.6,0.3-3.9-0.5
			c-0.5-0.3-1.4,0-2.1,0.1c0,0.1,0.1,0.2,0.1,0.4C37.5,37.5,37.9,37.9,38.4,38.3z"/>
	</g>
	<g>
		<g>
			<polygon class="st9" points="106.8,86.7 87.1,120.2 119.2,120.2 			"/>
			<polygon class="st8" points="106.8,86.7 127.1,120.2 119.2,120.2 			"/>
		</g>
		<circle class="st10" cx="122.9" cy="117.9" r="1.5"/>
		<circle class="st10" cx="120.9" cy="114.9" r="0.7"/>
		<circle class="st10" cx="115.1" cy="104" r="0.7"/>
		<circle class="st8" cx="106.6" cy="93.3" r="1"/>
		<circle class="st8" cx="107.1" cy="115.5" r="1"/>
		<circle class="st8" cx="94.4" cy="116.8" r="1"/>
		<circle class="st8" cx="97.9" cy="114.5" r="1"/>
		<circle class="st8" cx="101.3" cy="102.3" r="1"/>
		<circle class="st8" cx="103.3" cy="106.7" r="2"/>
		<circle class="st8" cx="111.7" cy="114.7" r="2"/>
	</g>
	<g>
		<circle class="st9" cx="21.9" cy="114.9" r="1"/>
		<circle class="st9" cx="39.9" cy="24.3" r="1"/>
		<circle class="st9" cx="23.5" cy="14.9" r="1"/>
		<circle class="st9" cx="121.2" cy="84" r="1"/>
		<circle class="st9" cx="39.9" cy="7.1" r="1"/>
		<circle class="st9" cx="58.4" cy="15" r="1"/>
		<circle class="st9" cx="100.9" cy="46" r="1"/>
		<circle class="st9" cx="13" cy="25.2" r="1"/>
		<circle class="st9" cx="69.3" cy="118.2" r="1"/>
		<circle class="st9" cx="14" cy="120.5" r="1"/>
		<circle class="st9" cx="35.3" cy="114.9" r="1"/>
		<circle class="st9" cx="117.7" cy="53.9" r="1"/>
		<circle class="st9" cx="122.7" cy="41.8" r="1"/>
	</g>
</g>
</svg>
