<?xml version="1.0" encoding="utf-8"?>
<!-- Generator: Adobe Illustrator 25.3.1, SVG Export Plug-In . SVG Version: 6.00 Build 0)  -->
<svg version="1.1" id="Layer_1" xmlns="http://www.w3.org/2000/svg" xmlns:xlink="http://www.w3.org/1999/xlink" width="128" height="80"
	 viewBox="0 0 133.3 133.3" style="enable-background:new 0 0 133.3 133.3;" xml:space="preserve">
<style type="text/css">
	.st0{fill:#57962A;}
	.st1{opacity:0.55;fill:#57962A;}
	.st2{fill:#1E5905;}
	.st3{fill:url(#SVGID_1_);}
	.st4{fill:url(#SVGID_2_);}
	.st5{fill:url(#SVGID_3_);}
	.st6{fill:url(#SVGID_4_);}
	.st7{opacity:0.55;fill:#A47D61;}
	.st8{fill:#7A4026;}
	.st9{fill:url(#SVGID_5_);}
	.st10{fill:url(#SVGID_6_);}
	.st11{fill:url(#SVGID_7_);}
	.st12{fill:#ECAF59;}
	.st13{fill:url(#SVGID_8_);}
	.st14{fill:url(#SVGID_9_);}
</style>
<g>
	<g>
		<path class="st0" d="M15.4,15.6c0.2,7.1,7.3,10.9,13.4,13C27.5,22.5,21.7,17.4,15.4,15.6z"/>
		<path class="st1" d="M23,24.3c-1.4-1.3-2-2.8-2.8-4.2c4,1.2,7.5,4.4,8.4,8.3C26.9,26.9,24.7,25.8,23,24.3z"/>
		<path class="st2" d="M18.1,18c2.1,3.9,7.3,6.6,10.1,10C26.3,24.2,21.1,21.5,18.1,18z"/>
		
			<linearGradient id="SVGID_1_" gradientUnits="userSpaceOnUse" x1="-2823.4062" y1="2154.7244" x2="-2826.8284" y2="2157.8728" gradientTransform="matrix(-0.4604 0.8877 0.8877 0.4604 -3186.0591 1543.6426)">
			<stop  offset="0.107" style="stop-color:#95542D"/>
			<stop  offset="0.5722" style="stop-color:#9D613C"/>
			<stop  offset="1" style="stop-color:#94532B"/>
		</linearGradient>
		<path class="st3" d="M33.3,33.1c-2.9-3.2-5.8-6.5-9-9.5c2,3.5,5.8,6.7,7.9,10.3C32.3,33.4,32.9,33.3,33.3,33.1z"/>
		<path class="st0" d="M14.2,29.5c4.8,1.9,11.3,4.7,15.4,0.2C24.8,27,18.9,26.9,14.2,29.5z"/>
		<path class="st1" d="M18.4,29.5c3.2,1.3,7.4,3.1,10.1,0.1C25.4,27.8,21.5,27.8,18.4,29.5z"/>
		<path class="st2" d="M27.7,29.7c-3.9-0.6-7.5-0.5-10.6,0.3C20.8,30.3,24,29.5,27.7,29.7z"/>
	</g>
	<g>
		<path class="st0" d="M68.7,33.9c-1.1,1-4.6,0.1-5-0.4c0,0,0.3-6.3,1.6-8.1c2.1-2.8,3.8-3.2,6.4-4.5C71.9,26.2,71.1,31.8,68.7,33.9
			z"/>
		<path class="st1" d="M67.7,29.4c0.6-0.3,2.6-4,2.5-6.3c-2.3,0-3.7,1.6-5.4,4.7c-0.8,1.6-1.2,5.8-1.2,5.8
			C64.1,33.3,65.5,30.5,67.7,29.4z"/>
		<path class="st2" d="M64.2,32.5c0.5-2.5,1.8-4,3-5.1c1.3-1.1,2.6-2.1,3.5-4.1c-0.6,2.4-1.8,3.9-3.1,5.1
			C66.5,29.6,65.2,30.7,64.2,32.5z"/>
		
			<linearGradient id="SVGID_2_" gradientUnits="userSpaceOnUse" x1="-227.2132" y1="2021.1194" x2="-237.2712" y2="2030.3727" gradientTransform="matrix(-0.9955 9.444465e-02 -9.444465e-02 -0.9955 22.7524 2075.7537)">
			<stop  offset="0.107" style="stop-color:#95542D"/>
			<stop  offset="0.5722" style="stop-color:#9D613C"/>
			<stop  offset="1" style="stop-color:#94532B"/>
		</linearGradient>
		<path class="st4" d="M59.8,44c1.2-2.8,2.4-5.9,3.7-8.6c0.8-1.7,2-3.5,2.7-5.5c-1.5,0.6-3.3,4.7-4.4,6.8c-0.5,1.1-1,2.5-1.6,3.6
			c-0.5,1-1.4,1.8-1.6,3.2C59.2,43.9,59.4,43.3,59.8,44z"/>
	</g>
	<g>
		<path class="st0" d="M106.9,105.4c-1.1,1-4.6,0.1-5-0.4c0,0,0.3-6.3,1.6-8.1c2.1-2.8,3.8-3.2,6.4-4.5
			C110.2,97.7,109.3,103.4,106.9,105.4z"/>
		<path class="st1" d="M106,100.9c0.6-0.3,2.6-4,2.5-6.3c-2.3,0-3.7,1.6-5.4,4.7c-0.8,1.6-1.2,5.8-1.2,5.8
			C102.3,104.8,103.7,102,106,100.9z"/>
		<path class="st2" d="M102.4,104c0.5-2.5,1.8-4,3-5.1c1.3-1.1,2.6-2.1,3.5-4.1c-0.6,2.4-1.8,3.9-3.1,5.1
			C104.7,101.1,103.4,102.2,102.4,104z"/>
		
			<linearGradient id="SVGID_3_" gradientUnits="userSpaceOnUse" x1="-258.5317" y1="1946.3019" x2="-268.5897" y2="1955.5553" gradientTransform="matrix(-0.9955 9.444465e-02 -9.444465e-02 -0.9955 22.7524 2075.7537)">
			<stop  offset="0.107" style="stop-color:#95542D"/>
			<stop  offset="0.5722" style="stop-color:#9D613C"/>
			<stop  offset="1" style="stop-color:#94532B"/>
		</linearGradient>
		<path class="st5" d="M98,115.6c1.2-2.8,2.4-5.9,3.7-8.6c0.8-1.7,2-3.5,2.7-5.5c-1.5,0.6-3.3,4.7-4.4,6.8c-0.5,1.1-1,2.5-1.6,3.6
			c-0.5,1-1.4,1.8-1.6,3.2C97.4,115.4,97.6,114.8,98,115.6z"/>
	</g>
	<g>
		
			<linearGradient id="SVGID_4_" gradientUnits="userSpaceOnUse" x1="473.3079" y1="492.5419" x2="442.3196" y2="521.0511" gradientTransform="matrix(0.1809 -0.9835 -0.9835 -0.1809 489.2442 594.9234)">
			<stop  offset="0.107" style="stop-color:#95542D"/>
			<stop  offset="0.5722" style="stop-color:#9D613C"/>
			<stop  offset="1" style="stop-color:#94532B"/>
		</linearGradient>
		<path class="st6" d="M90.5,95.5c0.2-3.3,0.3-6.6,0.2-9.9c-0.3-0.6-0.7-1.2-1-1.8c-0.4-0.8-0.8-1.5-1.1-2.2c-0.3-0.7-0.6-1.3-0.9-2
			l-5.6-8.7c-0.8-1.8-5.1-5.8-6.6-7.7c-7.5-10.2-11.7-19.4-17.5-29.5c-0.8-1.4-1.6-2.8-2.5-4.2c-6.8-3.5-12.8-7.3-19.7-6
			c0.5,2.8,0.8,5.7,0.3,8.7c-0.1,0.4-0.1,0.7-0.2,1c1.6,2.9,3.2,5.9,4.8,8.8c1.5-0.1,2.7,0.4,2.8,2c0.3,4.2,2.7,7.4,4.8,10.5
			c1.8,2.5,4.2,4.4,4.4,7.6c0.3-0.3,0.5-0.6,0.8-1c3.2,4.5,6.2,9.2,9.3,13.8c6.2,9.3,12.1,18.6,18.4,27.8c1.9-0.6,6-2.9,9.5-5.1
			C90.6,97.1,90.5,96.3,90.5,95.5z"/>
		<path class="st7" d="M88.6,81.7c-0.3-0.7-0.6-1.3-0.9-2l-5.6-8.7c-0.8-1.8-5.1-5.8-6.6-7.7c-5.6-7.7-9.4-14.8-13.4-22.1
			c1.5,3.6,3.3,7.2,4.9,10.8c0.9,2.1,1.7,4.3,2.5,6.4c1.1,1.7,2.2,3.4,3.2,5.2c3.1,5.5,6.7,10.4,11.5,14.6c1.9,1.7,3.7,3.6,5.4,5.5
			C89.2,83,88.9,82.3,88.6,81.7z"/>
		<path class="st7" d="M47.4,43.2c0-1.2-0.6-2.6-1.1-3.6c-1.2-2.6-3.9-4.2-5.8-6.4c-1.9-2.1-3.1-5.3-3.7-8.1
			c-0.1-0.6-0.3-1.1-0.5-1.6c-0.1,0-0.2,0-0.3,0.1c0.5,2.8,0.8,5.7,0.3,8.7c-0.1,0.4-0.1,0.7-0.2,1c1.6,2.9,3.2,5.9,4.8,8.8
			c1.5-0.1,2.7,0.4,2.8,2c0.2,3.3,1.8,6,3.5,8.6C47.6,49.4,47.4,46.2,47.4,43.2z"/>
		<path class="st7" d="M52.9,62.3c-0.1-0.9-0.3-1.7-0.7-2.5c1.6-2.5,2.9-1.6,4.4-0.8c1.9,1,5,3.6,7.6,10.1
			c2.9,7.4,7.9,13.1,13.2,18.9c3.3,3.6,3.5,9.3,8.1,12.1c-2.4,1.4-2.9,2.3-4.2,2.7C75.1,93.7,69.1,84.5,63,75.1
			c-3.1-4.6-6.1-9.3-9.3-13.8C53.4,61.6,53.1,61.9,52.9,62.3z"/>
		<path class="st7" d="M55.7,29.7c-1.9-1-3.8-2-5.6-2.9c1.8,2.5,5.8,4.6,6.9,4.8c-0.4-0.6-0.8-1.2-1.2-1.9
			C55.8,29.7,55.7,29.7,55.7,29.7z"/>
		<path class="st8" d="M42.7,23.9c-0.7-0.2-1.4-0.3-2.1-0.4c2.1,3.5,4.8,6.7,7.1,10.2c-1.3-2.3-2.3-5.1-3.6-7.4
			C43.7,25.4,43.2,24.6,42.7,23.9z"/>
		<path class="st8" d="M49.7,28.7c1.3,2.4,3.9,5.3,3.3,8.4C51.3,34.9,49.2,32.1,49.7,28.7z"/>
		<path class="st8" d="M58.3,39.7c1.3,2.3,2.6,4.7,3.9,7c1.1,2,3.4,4.3,3.4,6.9c-2.2-1.9-3.6-4.5-5.1-7
			C59.2,44.1,59.3,42.4,58.3,39.7z"/>
		<path class="st8" d="M68.5,59.8c1.3,2.3,2.6,4.7,3.9,7c1.1,2,3.4,4.3,3.4,6.9c-2.2-1.9-3.6-4.5-5.1-7
			C69.3,64.2,69.5,62.5,68.5,59.8z"/>
		<path class="st8" d="M49.4,55.9c0.3-2.1,0.1-4,1-6.2c0.2,2.3,0.1,4.6-0.3,7C49.8,56.4,49.6,56.1,49.4,55.9z"/>
		<path class="st8" d="M61.9,56.9c1.6,2.4,2.7,5.2,4.4,7.6c1.4,1.9,2.7,3.7,3.9,5.7c-2-1.2-3.7-3.6-4.9-5.5
			C63.7,62.4,62.4,59.8,61.9,56.9z"/>
		<path class="st8" d="M76.2,75.6c0.7,1.2,1.1,2.6,1.8,3.8c0.5,0.9,1.4,1.8,1.5,2.9c-1-1-2-2.2-2.6-3.5
			C76.4,77.7,76.5,76.7,76.2,75.6z"/>
		<path class="st8" d="M70.4,73.4c2.1,1.6,3.1,4.3,4.5,6.4c1.4,2.2,3.9,3.8,4.9,6.2c-2.5-1.5-4.4-3.8-6.1-5.9
			c-0.8-1-1.4-2.3-1.8-3.5C71.5,75.5,70.5,74.7,70.4,73.4z"/>
		<path class="st8" d="M51.8,40.4c2.1,1.6,3.1,4.3,4.5,6.4c1.4,2.2,3.9,3.8,4.9,6.2c-2.5-1.5-4.4-3.8-6.1-5.9
			c-0.8-1-1.4-2.3-1.8-3.5C52.9,42.4,51.9,41.6,51.8,40.4z"/>
		<path class="st8" d="M90.1,92.1c-1.5-3.1-5.7-4.4-6.8-7.7C85.3,87,85.6,91.6,90.1,92.1z"/>
		<path class="st8" d="M81.5,84.6c1,1.6,1.5,3.6,2.1,5.5c0.4,1.4,1.9,3.1,1.6,4.6C81.7,93,81.5,88.3,81.5,84.6z"/>
		<path class="st8" d="M42.1,29.4c0.6,2.5,2.5,4.2,4.4,5.9c1,0.9,3.1,2,3,3.6c-1.2-1.6-3.4-2.6-5-3.9C42.8,33.5,42.7,31.6,42.1,29.4
			z"/>
		<path class="st8" d="M54.8,52.9c2.3,1,5.1,3.1,6,5.3C57.8,56.7,56.3,55.7,54.8,52.9z"/>
		<path class="st8" d="M49.9,42.1c-0.3,2.1,0.6,4.3-0.5,6.5C48.1,46.7,49.3,44.7,49.9,42.1z"/>
	</g>
	<g>
		<path class="st0" d="M21.3,71.3c0.8,1.3-0.5,4.6-1,4.9c0,0-6.2-1.1-7.8-2.7c-2.5-2.5-2.6-4.2-3.6-7C14.1,67,19.6,68.6,21.3,71.3z"
			/>
		<path class="st1" d="M16.7,71.6c-0.2-0.7-3.6-3.1-5.9-3.3c-0.3,2.3,1.1,3.9,4,6c1.4,1,5.6,1.9,5.6,1.9
			C20.1,75.8,17.5,74,16.7,71.6z"/>
		<path class="st2" d="M19.3,75.6c-2.4-0.8-3.7-2.3-4.7-3.7c-1-1.4-1.8-2.9-3.6-4.1c2.2,0.9,3.6,2.3,4.6,3.7
			C16.7,72.9,17.6,74.4,19.3,75.6z"/>
		
			<linearGradient id="SVGID_5_" gradientUnits="userSpaceOnUse" x1="-287.5042" y1="-394.739" x2="-297.5622" y2="-385.4856" gradientTransform="matrix(-3.874547e-02 0.9992 -0.9992 -3.874547e-02 -377.4542 354.9116)">
			<stop  offset="0.107" style="stop-color:#95542D"/>
			<stop  offset="0.5722" style="stop-color:#9D613C"/>
			<stop  offset="1" style="stop-color:#94532B"/>
		</linearGradient>
		<path class="st9" d="M30.2,81.5c-2.6-1.6-5.5-3.1-8.1-4.8c-1.6-1.1-3.2-2.5-5.1-3.4c0.3,1.6,4.2,3.9,6.2,5.2
			c1.1,0.7,2.3,1.3,3.4,2.1c0.9,0.6,1.6,1.7,3,2C29.9,82,29.4,81.7,30.2,81.5z"/>
		<g>
			<path class="st0" d="M25.4,105.5c0.6-0.8-0.4-3-0.8-3.2c0,0-4.7,0.7-5.9,1.7c-1.9,1.6-2,2.7-2.7,4.5
				C20,108.2,24.1,107.2,25.4,105.5z"/>
			<path class="st1" d="M22,105.3c-0.2,0.4-2.7,2-4.5,2.2c-0.2-1.5,0.8-2.5,3-3.9c1.1-0.7,4.2-1.2,4.2-1.2
				C24.5,102.6,22.6,103.7,22,105.3z"/>
			<path class="st2" d="M23.9,102.7c-1.8,0.5-2.8,1.5-3.5,2.4c-0.7,0.9-1.3,1.9-2.7,2.6c1.7-0.6,2.7-1.5,3.5-2.4
				C22,104.4,22.7,103.5,23.9,102.7z"/>
			
				<linearGradient id="SVGID_6_" gradientUnits="userSpaceOnUse" x1="2607.5796" y1="-509.2935" x2="2600.3179" y2="-502.6125" gradientTransform="matrix(-3.874547e-02 -0.9473 -0.9992 3.673298e-02 -377.4542 2586.749)">
				<stop  offset="0.107" style="stop-color:#95542D"/>
				<stop  offset="0.5722" style="stop-color:#9D613C"/>
				<stop  offset="1" style="stop-color:#94532B"/>
			</linearGradient>
			<path class="st10" d="M32.1,98.9c-2,1-4.2,2-6.1,3.1c-1.2,0.7-2.4,1.6-3.9,2.2c0.3-1,3.1-2.6,4.7-3.4c0.8-0.5,1.8-0.9,2.5-1.3
				c0.7-0.4,1.2-1.1,2.2-1.3C31.9,98.5,31.5,98.7,32.1,98.9z"/>
		</g>
		
			<linearGradient id="SVGID_7_" gradientUnits="userSpaceOnUse" x1="-272.2349" y1="-431.9087" x2="-332.1463" y2="-376.7902" gradientTransform="matrix(-3.874547e-02 0.9992 -0.9992 -3.874547e-02 -377.4542 354.9116)">
			<stop  offset="0.107" style="stop-color:#95542D"/>
			<stop  offset="0.5722" style="stop-color:#9D613C"/>
			<stop  offset="1" style="stop-color:#94532B"/>
		</linearGradient>
		<path class="st11" d="M49.1,34c1.1-1.2,2.7-2.3,4.5-3.4c0-0.5,0.1-1.1,0.1-1.6c-0.5-0.4-0.9-0.9-1.2-1.5c-0.4-0.6-0.6-1.3-0.7-1.9
			c-0.6,0-1.2,0-1.9-0.1c0-0.6-0.1-1.1-0.1-1.8c-0.1-3.1,0.4-8.3,0.8-11.5c-2.6-1.2-13.2-1.4-16.4-0.8c-1.3,9.1-2.3,18.2-3.5,27.4
			c-0.6,4.5-1.1,9.1-1.8,13.7c-1.5-0.5-2.8-1.1-3.7-1.7c-3.4-2.1-6.2-5.3-8.5-7.7c-1.8,1.2-3.3,2.3-5.8,3c5.7,4.3,8.7,9.9,11.7,14.9
			c1.2,2,2.7,4.3,4,6.5c-0.3,4.6-0.3,9.3-0.4,14c-0.3,8.2,1.4,16.3,1.1,24.4c-0.2,5.4,0.6,11.9-3.7,16.6c7.1,2.4,15.4,0.6,21.4-1.3
			c-0.1-0.5-0.3-1-0.3-1.5c0.1-5.4-1.5-11.1-1.3-16.6c0-0.9,0.8-5.5,0.9-6.9c-0.3-0.8-0.5-1.6-0.4-2.4c0.3-3.2,0.6-6-0.1-9.2
			c-0.3-1.3-0.9-2.8-0.6-4.1c0.2-0.6,0.6-1.1,1.1-1.6c0,0-0.1,0-0.1,0c0-0.4,0.1-0.7,0.1-1.1c1.3-12.9,0.1-22.7,2.4-35.6
			C47.3,40.2,49.2,35.7,49.1,34z"/>
		<path class="st7" d="M39.5,55.7c-0.8,5.8-3.6,12.2,5.5,16.4c0.6-10.3,0-18.9,2-29.8c0.2-1.4,1.2-4,1.8-6
			C40.5,40.9,40.3,49.7,39.5,55.7z"/>
		<path class="st7" d="M16.9,43.2c-0.3,0.2-0.5,0.4-0.8,0.5c1.7,1.4,3.4,2.7,5.3,4C19.7,46.2,18.2,44.5,16.9,43.2z"/>
		<path class="st7" d="M32.3,120.1c-0.1-1-0.3-2-0.3-3c0-0.9-0.4-1.7-0.6-2.6c-0.2-1-0.3-2,0.1-3.1c0.3-0.7,0.6-1.4,0.4-2.1
			c-0.2-0.7-1.1-1.1-1.5-1.8c-0.4-0.6-0.4-1.3-0.6-1.9c-0.4-1.4-0.6-2.8-0.5-4.2c0.1-1.3,0.6-2.7,0.6-4c0-0.8-0.8-1.6-1-2.4
			c-0.3-1.2-0.1-2.5,0.5-3.6c1.2-2.1,2-3.8,1.3-6.1c-0.7-2.3-1-5.1-0.4-7.3c0.7-2.3,2.3-4.5,2.1-6.9c-0.1-0.9-0.1-2.2-0.6-3
			c-2.1-3.4-3.8-7.5-8.6-10.3c-1.9-1.1-2.7-7.8-4.7-9c-1.8-1-3.3-2.3-4.7-3.6c-0.7,0.4-1.6,0.7-2.5,1c5.7,4.3,8.7,9.9,11.7,14.9
			c1.2,2,2.7,4.3,4,6.5c-0.3,4.6-0.3,9.3-0.4,14c-0.3,8.2,1.4,16.3,1.1,24.4c-0.2,5.4,0.6,11.9-3.7,16.6c-0.5,0.5,7.5,1.2,8.3,1.1
			c0-0.7,0.4-1.4,0.4-2.1C32.4,121.1,32.3,120.6,32.3,120.1z"/>
		<path class="st7" d="M51.9,25.6c-0.6,0-1.2,0-1.9-0.1c0-0.6-0.1-1.1-0.1-1.8c-0.1-1.4,0-3.3,0.2-5.2c-2.1,1.2-2.6,2.6-3.5,4.2
			c-1.5,2.5-1.6,6.3,5.4,4.9c0.2-0.1,0.4-0.1,0.6-0.2C52.2,26.9,52,26.3,51.9,25.6z"/>
		<path class="st7" d="M27.5,53.6c3.4,2.1,4.1,0.7,5.2-0.7c1.2-1.5,2.7-4.6,2-10.3c-0.8-6.5,1-12.6,2.9-18.9c1.2-4-1.2-8.1,1.6-12
			c-2.7,0-3.5-0.5-4.8-0.3c-1.3,9.1-2.3,18.2-3.5,27.4c-0.6,4.5-1.1,9.1-1.8,13.7c-1.5-0.5-2.8-1.1-3.7-1.7
			c-3.4-2.1-6.2-5.3-8.5-7.7c-0.8,0.5-1.6,1.1-2.4,1.6c0.6,0.3,1.2,0.5,1.7,0.8c0.4,0.3,0.8,0.5,1.1,0.8c1.3,1.2,5,3.4,5.2,3.5
			C23.1,50.2,25.5,52.4,27.5,53.6z"/>
		<path class="st7" d="M43.4,80.5c0.2-0.7,0.6-1.2,1.2-1.7c-0.1-0.1-0.1-0.1-0.2-0.2c0.2-2,0.4-4,0.7-6c-1,0.7-4.7,5.4-3.6,7.9
			c0.2,0.5,1,0.8,1.9,1.1C43.3,81.2,43.4,80.9,43.4,80.5z"/>
		<path class="st12" d="M11.1,46.2c0,0,2.2,0.5,4.3-0.6c2.3-1.2,1.5-2.4,1.5-2.4s-1.5-0.9-4.5,0.5C10.4,44.6,10.3,45.8,11.1,46.2z"
			/>
		<path class="st12" d="M50.8,12.3c0,0-1-2.5-7.9-2.8c-7.3-0.3-8.5,1.9-8.5,1.9s1.1,2.4,7.7,2.8C47.5,14.5,50.9,13.6,50.8,12.3z"/>
		<path class="st8" d="M42.5,115.6c0.2-1.3-0.3-2.7-0.4-4c-0.3-2-0.2-4-0.2-6c0.1-1.9,0.1-3.8,0.2-5.8c0-1.3,0.7-3-0.4-4.2
			c0,3.9-1.1,7.7-1.5,11.6C39.7,110.3,41.6,112.6,42.5,115.6z"/>
		<path class="st8" d="M39.1,120.5c0.1-2.4,0-4.8-0.3-7.2c-0.3-2.4-0.1-5-1.1-7.3c0.1,2.7-0.2,6-0.3,8.9
			C37.3,117.2,38.4,118.3,39.1,120.5z"/>
		<path class="st8" d="M35.7,92.2c0.1-3.6,0.6-7.1,0.8-10.6c0.1-2.6-0.4-5.7-0.1-8.1C36,79.9,33.1,85.8,35.7,92.2z"/>
		<path class="st8" d="M44.4,90.4c-0.7,1-1.3,2-2.1,3c0.7-0.6,1.3-1.4,2-2.1C44.4,91,44.4,90.7,44.4,90.4z"/>
		<path class="st8" d="M35.8,103.7c0.1-2.1,0.7-4.4,1.5-6.4c0.7-2,2-4,2.1-6c0.1,1-1.5,2.4-2.1,3.3c-0.7,1.1-1.4,2.3-1.8,3.4
			C34.7,100.2,35.1,101.4,35.8,103.7z"/>
		<path class="st8" d="M35.6,115.7c0.1-2.4-0.1-4.8-0.5-7.2c-0.3-1.9-1.4-3.6-2.2-5.4c-1,1.6,1,4.3,1.4,6
			C34.7,111.2,35.1,113.7,35.6,115.7z"/>
		<path class="st8" d="M33.3,98.1c0.1-2.8,0.1-5.5,0.3-8.3C32.1,92.6,31.1,95.4,33.3,98.1z"/>
		<path class="st8" d="M40.1,77.5c0.1-2.2,0.9-5.4-0.9-7.4C38.8,72.5,38.2,75.3,40.1,77.5z"/>
		<path class="st8" d="M35.7,69c0.1-2.2,0.2-4.4,0.2-6.6c0.1-1.9,1-4.5-0.2-6.3c-1.1,2.3-1.1,4.7-1.2,7.1
			C34.5,65.5,35.4,66.6,35.7,69z"/>
		<path class="st8" d="M31.4,62.2c-1.7-3.4-4.5-6.5-8.1-9.4c0.4,1.9,3,3.6,4.4,5.3C29,59.5,29.7,61,31.4,62.2z"/>
		<path class="st8" d="M38.1,52.3c0.3-2.4,0-4.8,0.5-7.2c0.3-1.9,0.7-3.7,0.8-5.7c-1.2,1.7-1.6,4.1-1.8,5.9
			C37.2,47.7,37.3,50.1,38.1,52.3z"/>
		<path class="st8" d="M53,28.2c-4.7,1.2-8,4.5-7.9,7.2c1.8-1.2,2.9-3.1,4.4-4.5c1.1-1,2.2-1.8,3.5-2.7C53.1,28.3,53,28.2,53,28.2z"
			/>
		<path class="st8" d="M42.4,39.4c0.1-1.8-0.3-3.6-0.2-5.4c0-1.3,0.6-2.9-0.1-4.1c-0.7,1.7-1.1,3.7-1,5.5
			C41.3,36.9,42.2,38,42.4,39.4z"/>
		<path class="st8" d="M38,37.1c1-2,0.7-4.3,1-6.4c0.3-2.1,1.7-4.3,1.4-6.4c-1.4,2-2.1,4.5-2.6,6.7c-0.2,1-0.2,2.2,0,3.2
			C38.1,35.1,37.6,36.1,38,37.1z"/>
		<path class="st8" d="M46.6,15.8c0.1,2.8-2.9,5.5-2.5,8.3C44.8,21.3,43,17.9,46.6,15.8z"/>
		<path class="st8" d="M42.6,24.6c0.1-1.6-0.3-3.2-0.7-4.8c-0.3-1.1,0.2-3-0.6-3.9C39,18.5,41,22,42.6,24.6z"/>
		<path class="st8" d="M33.4,80.1c-0.6-2,0.3-4.1,1.1-6c0.5-1.1,1.7-2.7,1-3.8c-0.3,1.7-1.7,3.2-2.5,4.8
			C32.1,76.9,32.9,78.3,33.4,80.1z"/>
		<path class="st8" d="M40.3,89.1c0.1-2.4,0.7-4.7,0.9-7.1c-1.3,1.3-1.6,2.9-1.9,4.4C38.9,87.8,40.3,87.5,40.3,89.1z"/>
		<path class="st8" d="M33.7,58.1c1.6-1.6,3-4.3,2.8-6.2C34.7,54.2,33.8,55.5,33.7,58.1z"/>
		<path class="st8" d="M34.4,67.9c-1.2-1.4-1.4-3.3-3.3-4.5C30.8,65.3,32.8,66.2,34.4,67.9z"/>
	</g>
	<g>
		<path class="st0" d="M124.4,33.6c-1.4,1.6-2.9,3.3-5.5,4.4c-2.2,0.9-5,1.4-7.8,1.5c-2.8,0.1-5.7,0-8.5-0.2
			c-0.1-0.3,0.3-0.6,0.7-0.8c2-1.3,4.1-2.7,6.7-3.7C114.1,33.3,119.5,32.9,124.4,33.6z"/>
		<path class="st1" d="M111.3,38c2.3-0.5,3.7-1.6,5.4-2.6c-3.1-0.4-6.4-0.1-9,0.9c-1.7,0.6-3,1.5-4.4,2.4c-0.2,0.1-0.4,0.3-0.4,0.5
			C105.6,38.6,108.5,38.6,111.3,38z"/>
		<path class="st2" d="M120.1,34.5c-2.1,1.3-5.1,1.9-8,2.5c-2.9,0.6-6,1-8.6,2C107.7,36.5,114.9,36.3,120.1,34.5z"/>
		
			<linearGradient id="SVGID_8_" gradientUnits="userSpaceOnUse" x1="-2375.3367" y1="459.3934" x2="-2380.04" y2="463.7206" gradientTransform="matrix(2.027426e-02 0.9998 -0.9998 2.027426e-02 612.2925 2407.0444)">
			<stop  offset="0.107" style="stop-color:#95542D"/>
			<stop  offset="0.5722" style="stop-color:#9D613C"/>
			<stop  offset="1" style="stop-color:#94532B"/>
		</linearGradient>
		<path class="st13" d="M95.2,41.3c2.8-0.8,5.1-1.7,7.9-2.6c2.3-0.7,4.9-1.4,7.1-2c-2.1,1.5-4.8,2-7.8,2.9c-2.5,0.8-4.1,2.1-6.5,2.9
			C96.1,42,95.5,41.7,95.2,41.3z"/>
		
			<linearGradient id="SVGID_9_" gradientUnits="userSpaceOnUse" x1="-2319.7542" y1="444.1258" x2="-2381.0251" y2="500.4951" gradientTransform="matrix(2.027426e-02 0.9998 -0.9998 2.027426e-02 612.2925 2407.0444)">
			<stop  offset="0.107" style="stop-color:#95542D"/>
			<stop  offset="0.5722" style="stop-color:#9D613C"/>
			<stop  offset="1" style="stop-color:#94532B"/>
		</linearGradient>
		<path class="st14" d="M102.3,120.3c-0.1-0.5-0.4-1-0.4-1.5c-0.4-5.3-2.6-10.8-2.9-16.3c-0.1-1,0.3-6.1,0.3-7.1
			c1.3-3.7,3.2-3.1,5.3-6.3c3.9-5.6,8.3-10.5,16.3-14.9c-2.8-0.6-4.7-1.9-6.1-3.2c-2.3,2.5-5.6,6.2-10.9,7.6c-3,0.8-4.9,0.6-6.3,0
			c0-0.3,0-0.7,0-1c0.1-12.8-2.1-22.3-0.9-35.1c0.2-2,1.7-6.5,1.5-8.2c3.6-4.1,12.7-8.2,19.7-9.7c-1.3-0.9-2.2-1.9-2.8-2.9
			c-4.8,2.3-10.6,4.6-16.7,4.3c-0.1-0.6-0.2-1.1-0.3-1.7c-0.4-3-0.4-8.2-0.2-11.4c-2.8-1-13.8-0.8-17.1-0.2c-0.5,9-0.7,18-1,27.1
			c-0.2,4.5-0.2,9-0.6,13.5c-0.4-0.1-0.8-0.2-1.2-0.3c1.5,2.3,0.4,4.7,0.3,7.2c-0.2,3.1-0.5,6.3,1.4,9.3c0.8,1.1,0.1,2-1.3,2.6
			c0.2,3.3,0.5,6.7,0.7,10c0.5,8.1,3,15.9,3.5,24c0.3,5.4,1.8,11.6-2.2,16.4C87.9,124.6,96.3,122.5,102.3,120.3z"/>
		<path class="st7" d="M90.1,56c-0.3,5.7-2.6,12.2,7.3,15.9c-0.4-10.1-1.8-18.6-0.8-29.4c0.1-1.4,0.9-3.9,1.3-6
			C89.8,41.5,90.4,50.1,90.1,56z"/>
		<path class="st7" d="M89,123.3c-0.1-0.7,0.3-1.4,0.2-2.1c-0.1-0.5-0.2-1-0.3-1.5c-0.2-1-0.5-2-0.6-3c-0.1-0.9-0.6-1.7-0.8-2.5
			c-0.3-1-0.5-2-0.2-3c0.2-0.7,0.5-1.4,0.2-2.1c-0.3-0.7-1.2-1-1.7-1.7c-0.4-0.5-0.6-1.3-0.8-1.8c-0.6-1.4-0.9-2.7-0.9-4.1
			c-0.1-1.3,0.4-2.7,0.2-4c-0.1-0.8-1-1.5-1.3-2.3c-0.4-1.1-0.4-2.4,0.2-3.5c1.1-2.1,1.7-3.8,0.7-6c-1-2.2-1.6-4.9-1.1-7.2
			c0.5-2.3,1.9-4.5,1.5-6.9c-0.1-0.9-0.3-2.1-1-3c-1.6-2.1-3-4.4-5.2-6.5c-0.1,2.5,0,5,1.5,7.4c0.8,1.1,0.1,2-1.3,2.6
			c0.2,3.3,0.5,6.7,0.7,10c0.5,8.1,3,15.9,3.5,24c0.3,5.4,1.8,11.6-2.2,16.4C79.8,123,88.2,123.4,89,123.3z"/>
		<path class="st7" d="M118.4,74.4c-0.7,0.7-1,1.4-1.3,2.2c1.2-0.8,2.4-1.6,3.8-2.3c-0.6-0.1-1.2-0.3-1.7-0.5
			C118.9,74,118.6,74.2,118.4,74.4z"/>
		<path class="st7" d="M97.9,24.3c-0.2-1.4-0.3-3.3-0.3-5.2c-2.1,1.3-2.4,2.6-3.3,4.3c-1.3,2.5-1.1,6.2,6.1,4.6c2.5-1,6-1,9.5-2.2
			c2.2-0.7,4.3-1.5,6.4-2.3c-0.6-0.6-1.1-1.2-1.4-1.8c-4.8,2.3-10.6,4.6-16.7,4.3C98.1,25.4,98,24.9,97.9,24.3z"/>
		<path class="st7" d="M77.9,53c0.4,0.7,0.6,1.3,0.7,2c2.7,1.1,3.3-0.2,4.2-1.4c1.1-1.5,2.4-4.7,1.1-10.3C82.4,37,83.7,31,85.1,24.7
			c0.9-3.9-2-7.9,0.5-11.8c-2.8,0.1-3.7-0.4-5-0.1c-0.5,9-0.7,18-1,27.1c-0.2,4.5-0.2,9-0.6,13.5C78.7,53.2,78.3,53.1,77.9,53z"/>
		<path class="st7" d="M103.8,78.6c-2.7,0.7-4.6,0.7-5.9,0.2c-0.2-0.2-0.3-0.3-0.4-0.4c0-2,0.1-4,0.1-6c-1,0.7-4.4,5.5-3,8
			c0.3,0.6,1.3,0.9,2.5,1.1c1.8,0.3,3.6,0.2,5.3-0.2c2.3-0.5,4.7-0.8,6.7-1.5c4.1-1.4,4.2-2.9,5.3-5.1c0.4-0.8,1.4-1.5,2.4-2.2
			c-0.7-0.5-1.4-1-2-1.5C112.4,73.6,109.2,77.3,103.8,78.6z"/>
		<path class="st12" d="M117.7,24.6c0,0,0.9-0.4-0.4-1.9c-1-1.1-2.4-1-2.4-1s-1.1,0.5,0.1,1.8C116.3,24.8,117.7,24.6,117.7,24.6z"/>
		<path class="st12" d="M120.9,74.3c0,0,0.1-0.9-1.9-2.2c-2-1.3-4.2-1-4.2-1s-1,1,1.5,2.4C119.2,75.1,120.9,74.3,120.9,74.3z"/>
		<path class="st12" d="M97.7,12.9c0,0-1.3-2.4-8.4-2.4c-7.6,0-8.6,2.2-8.6,2.2s1.4,2.3,8.2,2.4C94.5,15.3,97.9,14.2,97.7,12.9z"/>
		<path class="st0" d="M118.2,46.6c-1.9-0.2-3.9-0.3-5.8-0.5c-0.9-0.1-1.9-0.2-2.8-0.3c-2.4-0.4-4.4-1.3-5.7-2.3
			c-1.4-1.1-2.1-2.3-2.7-3.5c0.7-0.2,1.6-0.1,2.4,0c1,0.2,2.1,0.3,3.1,0.5c1,0.2,2,0.3,2.9,0.5c2.1,0.5,3.8,1.5,5.1,2.5
			C115.9,44.5,116.9,45.5,118.2,46.6z"/>
		<path class="st1" d="M113.6,44.7c-1.3-0.1-2.6-0.2-3.8-0.3c-0.6-0.1-1.2-0.1-1.8-0.2c-1.6-0.3-2.9-0.9-3.8-1.5
			c-0.9-0.7-1.4-1.5-1.8-2.3c0.5-0.1,1.1-0.1,1.6,0c0.7,0.1,1.4,0.2,2.1,0.3c0.7,0.1,1.3,0.2,1.9,0.4c1.4,0.4,2.5,1,3.3,1.6
			C112.1,43.3,112.8,44,113.6,44.7z"/>
		<path class="st2" d="M103.2,40.8c4.6,1.2,8.6,2.9,11.5,5c-2.4-0.4-3.6-1.7-5.5-2.5c-0.8-0.3-1.8-0.6-2.6-0.9
			C105.4,41.8,104.5,41.1,103.2,40.8z"/>
		<path class="st8" d="M99,114.8c0.1-1.3-0.5-2.6-0.8-3.9c-0.5-2-0.6-3.9-0.8-5.9c-0.1-1.9-0.2-3.8-0.3-5.7c-0.1-1.3,0.4-3-0.9-4.2
			c0.4,3.8-0.4,7.6-0.5,11.4C95.6,109.8,97.8,111.9,99,114.8z"/>
		<path class="st8" d="M96,119.7c-0.1-2.3-0.5-4.7-1-7c-0.6-2.3-0.5-4.9-1.9-7.2c0.3,2.7,0.4,5.9,0.5,8.8
			C93.8,116.7,95,117.6,96,119.7z"/>
		<path class="st8" d="M89.7,92.1c-0.2-3.5,0-7-0.2-10.5c-0.2-2.6-1-5.6-0.9-8C88.8,80,86.4,85.9,89.7,92.1z"/>
		<path class="st8" d="M106,82.7c-1,0.7-1.6,2-2.3,2.9c-0.9,1.1-2.1,2.1-3.2,3.1c-1.4,1.4-2.6,3-3.8,4.3c1.4-1.9,2.2-3.9,3.9-5.8
			c0.8-0.8,2.2-1.4,3-2.3C104.5,84.1,105,83.5,106,82.7z"/>
		<path class="st8" d="M90.9,103.4c-0.1-2.1,0.3-4.3,0.9-6.4c0.5-1.9,1.7-4.1,1.6-6c0.2,1-1.4,2.4-1.9,3.4c-0.6,1.1-1.3,2.3-1.6,3.4
			C89.4,100.1,89.9,101.2,90.9,103.4z"/>
		<path class="st8" d="M91.9,115.3c-0.2-2.3-0.6-4.7-1.2-7c-0.5-1.8-1.8-3.4-2.9-5.2c-0.9,1.6,1.4,4.2,2,5.8
			C90.4,110.8,91.1,113.3,91.9,115.3z"/>
		<path class="st8" d="M87.8,98c-0.2-2.7-0.4-5.4-0.5-8.1C86,92.6,85.2,95.5,87.8,98z"/>
		<path class="st8" d="M92.9,77.5c-0.1-2.2,0.5-5.3-1.6-7.2C91,72.6,90.7,75.4,92.9,77.5z"/>
		<path class="st8" d="M87.5,69.3c-0.1-2.2-0.3-4.3-0.4-6.5c-0.1-1.9,0.6-4.4-0.8-6.2c-0.9,2.3-0.7,4.6-0.6,7
			C85.8,65.9,86.9,67,87.5,69.3z"/>
		<path class="st8" d="M78.3,58.9c1.3,1.3,2.2,2.7,4.1,3.9c-1-1.6-2.4-3.2-4-4.7C78.4,58.4,78.4,58.7,78.3,58.9z"/>
		<path class="st8" d="M88.3,52.8c0-2.4-0.5-4.7-0.2-7.1c0.2-1.9,0.3-3.7,0.3-5.6c-1.1,1.7-1.2,4.1-1.3,5.9
			C87,48.3,87.3,50.6,88.3,52.8z"/>
		<path class="st8" d="M94,35.9c1.7-1.3,2.7-3.1,4.2-4.6c1.1-1.1,2.3-2,3.7-3C96.9,29.6,93.7,33.1,94,35.9z"/>
		<path class="st8" d="M91.6,40c0-1.7-0.6-3.5-0.7-5.3c-0.1-1.3,0.3-2.8-0.5-4c-0.5,1.7-0.8,3.7-0.5,5.5
			C90.2,37.5,91.2,38.5,91.6,40z"/>
		<path class="st8" d="M86.8,37.8c0.9-2,0.4-4.3,0.4-6.3c0.1-2.1,1.3-4.3,0.9-6.4c-1.3,2.1-1.8,4.5-2,6.7c-0.1,1,0,2.2,0.3,3.2
			C86.7,35.9,86.2,36.9,86.8,37.8z"/>
		<path class="st8" d="M93.7,16.5c0.4,2.7-2.5,5.5-1.7,8.2C92.3,22.1,90.1,18.7,93.7,16.5z"/>
		<path class="st8" d="M90.4,25.4c0-1.6-0.6-3.2-1.1-4.7c-0.4-1.1,0-2.9-1-3.8C86.1,19.5,88.4,22.8,90.4,25.4z"/>
		<path class="st8" d="M86.1,80.3c-0.8-1.9-0.1-4,0.6-5.9c0.4-1.1,1.5-2.7,0.6-3.7c-0.2,1.6-1.5,3.2-2.2,4.9
			C84.5,77.2,85.5,78.5,86.1,80.3z"/>
		<path class="st8" d="M94.1,88.8c-0.1-2.4,0.2-4.7,0.2-7c-1.3,1.3-1.4,2.9-1.5,4.4C92.6,87.7,94,87.3,94.1,88.8z"/>
		<path class="st8" d="M97.8,88c0.2-1.9,2.7-3.8,3.2-5.7c0.1,0,0.1,0,0,0C97.4,83.9,98.6,85.9,97.8,88z"/>
		<path class="st8" d="M84.4,58.6c1.5-1.7,2.7-4.3,2.3-6.2C85,54.8,84.2,56.1,84.4,58.6z"/>
		<path class="st8" d="M86,68.2c-1.4-1.3-1.8-3.2-3.9-4.3C82,65.8,84.1,66.7,86,68.2z"/>
	</g>
</g>
</svg>
