<svg xmlns="http://www.w3.org/2000/svg" width="128" height="80" viewBox="0 0 128 80"><defs><style>.a{fill:#fff;opacity:0;}.b{fill:#7f557d;}.c{fill:#b47dcb;}</style></defs><g transform="translate(-16 -16)"><path class="a" d="M0,0H128V80H0Z" transform="translate(16 16)"/><g transform="translate(50.03 26.392)"><path class="b" d="M73.984,67.124,64.8,65.314l1.432,1.4-43.038-.269L22.877,23.7l1.747,1.283L22.607,16.36l-1.747,8.774,1.443-1.38.452,42.689L16.05,66.4v.4l6.712.057.052,4.725h.412l-.034-4.719,43.1.4L64.924,68.9Z" transform="translate(-16.05 -15.547)"/><path class="b" d="M114.677,113.461l-1.122-2.772c.43-.893.819-1.8,1.157-2.726l-.55-.183c-.269.733-.578,1.46-.9,2.176l-.8-1.97-.544.2,1.014,2.5a31.508,31.508,0,0,1-1.581,2.858l.5.286c.493-.79.945-1.6,1.369-2.434l.922,2.274Z" transform="translate(-56.772 -54.611)"/><path class="b" d="M19.393,22.374l.561.143,2.067-7.428-.567-.149-.9,3.236-1.821-2.938-.5.286,2.119,3.408Z" transform="translate(-16.982 -14.94)"/><g transform="translate(9.346 9.248)"><path class="c" d="M71.085,52.71l-17.1,17.1c-.069.069-.132.132-.206.195-.069-.063-.137-.132-.206-.195L36.477,52.71c-.069-.069-.132-.132-.195-.206A12.379,12.379,0,0,1,53.784,35a12.379,12.379,0,0,1,17.5,17.5C71.217,52.578,71.154,52.641,71.085,52.71Z" transform="translate(-32.582 -31.302)"/><path class="b" d="M53.565,70.182,53.37,70c-.063-.057-.132-.126-.212-.206L36.063,52.7c-.08-.08-.143-.149-.206-.212a12.65,12.65,0,0,1,9.157-21.4h.006a12.589,12.589,0,0,1,8.545,3.31A12.663,12.663,0,0,1,71.273,52.485c-.057.063-.126.132-.2.206L53.972,69.8c-.08.08-.149.143-.212.206Zm-8.55-38.519a12,12,0,0,0-8.55,3.528A12.165,12.165,0,0,0,36.27,52.1c.057.063.12.126.195.2l17.1,17.1h0l17.1-17.1c.074-.074.132-.137.189-.195A12.125,12.125,0,0,0,70.666,35.2,12.165,12.165,0,0,0,53.76,35l-.195.189L53.37,35a12.016,12.016,0,0,0-8.35-3.333A.006.006,0,0,0,45.015,31.662Z" transform="translate(-32.369 -31.089)"/></g></g></g></svg>