<?xml version="1.0" encoding="utf-8"?>
<!-- Generator: Adobe Illustrator 26.0.3, SVG Export Plug-In . SVG Version: 6.00 Build 0)  -->
<svg version="1.1" id="Layer_1" xmlns="http://www.w3.org/2000/svg" xmlns:xlink="http://www.w3.org/1999/xlink"  width="128" height="80"
	 viewBox="0 0 133.3 133.3" style="enable-background:new 0 0 133.3 133.3;" xml:space="preserve">
<style type="text/css">
	.st0{fill:#612D82;}
	.st1{fill:#2276BC;}
	.st2{fill:#2BB3CD;}
	.st3{fill:#FFB34C;}
	.st4{fill:#FED883;}
</style>
<rect x="0" y="0" class="st0" width="133.3" height="133.3"/>
<g>
	<g>
		<g>
			<path class="st1" d="M13.3,53.1c0-13.1,0-26.2,0-39.2c0-0.5,0.1-0.6,0.6-0.6c9.5,0,14.5,0,24,0c0.4,0,0.5,0.1,0.5,0.5
				c0,26.1,0,54.2,0,80.3c0,1.1,0.2,0.9-0.9,0.9c-9.4,0-14.4,0-23.8,0c-0.5,0-0.5-0.2-0.5-0.6c0-12,0-26,0-37.9
				C13.3,55.3,13.3,54.2,13.3,53.1z"/>
			<path class="st2" d="M68.7,94.9c7.1,0,14.2,0,21.3,0c7,0,14.1,0,21.1,0c4.2,0,4.3,0,8.5,0c0.4,0,0.5,0.1,0.5,0.5
				c0,7.1,0,12.1,0,19.2c0,2.3,0,2.5,0,4.8c0,0.5-0.2,0.6-0.6,0.6c-23,0-42,0-64.9,0c-13.5,0-27,0-40.5,0c-0.8,0-0.7,0.1-0.7-0.7
				c0-9.4,0-14.4,0-23.8c0-0.4,0.1-0.6,0.6-0.6c5.3,0,10.5,0,15.8,0c5.5,0,11,0,16.4,0c5.2,0,10.3,0,15.5,0
				C63.9,94.9,66.3,94.9,68.7,94.9C68.7,94.9,68.7,94.9,68.7,94.9z M28,113.2c3.2,0,5.7-2.6,5.7-5.7c0-3.1-2.6-5.7-5.7-5.7
				c-3.2,0-5.8,2.6-5.7,5.8C22.3,110.7,24.9,113.2,28,113.2z"/>
			<g>
				<path class="st2" d="M22.7,61.3c2,0,4,0,6.1,0c0.4,0,0.7,0.2,0.9,0.6c0.1,0.3,0,0.6-0.2,0.9C29.3,62.9,29,63,28.8,63
					c-4.1,0-8.2,0-12.2,0c-0.6,0-0.9-0.4-0.9-0.9c0-0.5,0.4-0.8,0.9-0.8C18.6,61.3,20.6,61.3,22.7,61.3z"/>
				<path class="st2" d="M22.7,63.5c-2,0-4.1,0-6.1,0c-0.4,0-0.8-0.2-1.1-0.4c-0.3-0.3-0.4-0.6-0.4-1c0-0.8,0.6-1.3,1.5-1.3
					c1.5,0,10.7,0,12.2,0c0.9,0,1.3,0.5,1.4,0.9c0.1,0.3,0.2,0.9-0.3,1.4c-0.4,0.4-0.9,0.4-1.1,0.4h-1.5
					C25.7,63.5,24.2,63.5,22.7,63.5z M19.6,61.9c-1,0-2,0-3.1,0c-0.4,0-0.4,0.2-0.4,0.3c0,0.1,0,0.2,0.1,0.2
					c0.1,0.1,0.2,0.1,0.3,0.1c3.6,0,7.1,0,10.7,0h1.5c0.2,0,0.2,0,0.3-0.1c0.2-0.2,0.1-0.2,0.1-0.3c-0.1-0.1-0.1-0.2-0.4-0.2
					c0,0,0,0,0,0c-1.4,0-2.9,0-4.3,0l-3.3,0C20.6,61.9,20.1,61.9,19.6,61.9z"/>
			</g>
			<g>
				<path class="st2" d="M22.7,48c2,0,4,0,6,0c0.6,0,1,0.4,1,0.8c0,0.5-0.4,0.8-1,0.8c-4,0-8.1,0-12.1,0c-0.5,0-0.8-0.2-0.9-0.6
					c-0.1-0.4,0.1-0.7,0.4-0.9c0.2-0.1,0.4-0.1,0.6-0.1C18.7,48,20.7,48,22.7,48z"/>
				<path class="st2" d="M16.6,50.2c-1,0-1.4-0.7-1.5-1c-0.2-0.6,0.1-1.2,0.6-1.5c0.3-0.2,0.6-0.2,0.8-0.2h12.1
					c0.5,0,0.9,0.2,1.2,0.5c0.2,0.3,0.4,0.6,0.4,0.9c0,0.8-0.7,1.4-1.5,1.4L16.6,50.2C16.6,50.2,16.6,50.2,16.6,50.2z M16.5,48.6
					c-0.1,0-0.1,0-0.1,0c-0.2,0.2-0.2,0.3-0.2,0.3c0,0.1,0.1,0.2,0.4,0.2c0,0,0,0,0,0l12.1,0c0.1,0,0.4,0,0.4-0.3
					c0-0.1,0-0.1-0.1-0.2c-0.1-0.1-0.2-0.1-0.4-0.1l-12,0C16.6,48.6,16.5,48.6,16.5,48.6z"/>
			</g>
			<g>
				<path class="st2" d="M22.7,34.6c2,0,4,0,6,0c0.6,0,1,0.3,1,0.8c0,0.5-0.4,0.8-1,0.8c-4,0-8.1,0-12.1,0c-0.6,0-1-0.3-1-0.8
					c0-0.5,0.4-0.8,1-0.8C18.6,34.6,20.6,34.7,22.7,34.6C22.7,34.6,22.7,34.6,22.7,34.6z"/>
				<path class="st2" d="M20.6,36.9c-1.3,0-2.7,0-4,0c-0.5,0-0.9-0.2-1.2-0.4c-0.2-0.3-0.4-0.6-0.4-1c0-0.8,0.6-1.4,1.6-1.4l12,0
					c0.9,0,1.6,0.6,1.6,1.4c0,0.4-0.1,0.7-0.4,1c-0.3,0.3-0.7,0.4-1.2,0.4C26,36.9,23.3,36.9,20.6,36.9z M22.7,35.2l-6,0
					c-0.5,0-0.5,0.2-0.5,0.3c0,0.1,0,0.2,0.1,0.2c0.1,0.1,0.2,0.1,0.4,0.1c4,0,8.1,0,12.1,0c0.2,0,0.3,0,0.4-0.1
					c0,0,0.1-0.1,0.1-0.2c0-0.2-0.3-0.3-0.5-0.3H22.7z"/>
			</g>
			<g>
				<path class="st2" d="M22.7,74.3c2,0,4,0,6,0c0.6,0,1.1,0.3,1,0.8c0,0.5-0.4,0.8-1,0.8c-4,0-8,0-12,0c-0.6,0-1-0.3-1-0.8
					c0-0.5,0.4-0.8,1-0.8C18.6,74.3,20.7,74.3,22.7,74.3C22.7,74.3,22.7,74.3,22.7,74.3z"/>
				<path class="st2" d="M21.4,76.5c-1.6,0-3.2,0-4.8,0c-0.9,0-1.5-0.6-1.6-1.4c0-0.4,0.1-0.7,0.4-1c0.2-0.2,0.6-0.4,1.2-0.4l6.1,0
					c0,0,0,0,0.1,0h5.9c0.5,0,0.9,0.2,1.2,0.5c0.2,0.3,0.4,0.6,0.4,1c0,0.8-0.7,1.4-1.6,1.4C26.2,76.5,23.8,76.5,21.4,76.5z
					 M21.2,74.8l-4.5,0c-0.2,0-0.3,0-0.4,0.1c0,0-0.1,0.1-0.1,0.2c0,0.1,0,0.3,0.5,0.3c4,0,8,0,12,0c0.1,0,0.5,0,0.5-0.3
					c0-0.1,0-0.1-0.1-0.2c-0.1-0.1-0.2-0.1-0.4-0.1h-6c0,0,0,0-0.1,0H21.2z"/>
			</g>
			<g>
				<path class="st2" d="M22.6,22.9c-2,0-4,0-6.1,0c-0.6,0-0.9-0.3-0.9-0.8c0-0.5,0.3-0.8,0.9-0.8c0,0,0,0,0,0c4,0,8.1,0,12.1,0
					c0.6,0,1,0.3,1,0.8c0,0.5-0.4,0.8-1,0.8C26.7,22.9,24.7,22.9,22.6,22.9C22.6,22.9,22.6,22.9,22.6,22.9z"/>
				<path class="st2" d="M24.4,23.4l-3.4,0c-1.5,0-2.9,0-4.4,0c-0.9,0-1.5-0.6-1.5-1.3c0-0.8,0.6-1.4,1.5-1.4l12.2,0
					c0.5,0,0.9,0.2,1.1,0.4c0.2,0.2,0.4,0.6,0.4,0.9c0,0.8-0.6,1.4-1.5,1.4L24.4,23.4z M22.6,22.3L22.6,22.3c2,0,4.1,0,6.1,0
					c0.1,0,0.4,0,0.4-0.3c0-0.1,0-0.1-0.1-0.2c-0.1-0.1-0.2-0.1-0.4-0.1l-12.1,0c-0.4,0-0.4,0.2-0.4,0.3c0,0.1,0,0.3,0.4,0.3
					c1.5,0,2.9,0,4.4,0H22.6z"/>
			</g>
			<g>
				<path class="st2" d="M21.1,69.5c-1.5,0-3,0-4.5,0c-0.6,0-1-0.3-1-0.8c0-0.5,0.4-0.8,1-0.8c3,0,6,0,8.9,0c0.1,0,0.2,0,0.2,0
					c0.5,0,0.9,0.4,0.8,0.9c0,0.4-0.4,0.8-0.8,0.8c-0.9,0-1.8,0-2.6,0C22.5,69.5,21.8,69.5,21.1,69.5z"/>
				<path class="st2" d="M24.6,70.1c-0.2,0-0.4,0-0.7,0l-7.3,0c-0.5,0-0.9-0.2-1.2-0.4c-0.2-0.2-0.4-0.6-0.4-1
					c0-0.8,0.6-1.4,1.6-1.4l8.9,0c0.1,0,0.2,0,0.3,0c0.8,0.1,1.4,0.7,1.4,1.4c0,0.7-0.6,1.3-1.4,1.3C25.4,70.1,25,70.1,24.6,70.1z
					 M23.2,69l0.8,0c0.6,0,1.2,0,1.8,0c0.2,0,0.3-0.1,0.3-0.3c0-0.2-0.2-0.3-0.3-0.3c-0.1,0-0.1,0-0.2,0l-8.9,0
					c-0.5,0-0.5,0.2-0.5,0.3c0,0.1,0,0.2,0.1,0.2c0.1,0.1,0.2,0.1,0.4,0.1H23.2z"/>
			</g>
			<g>
				<path class="st2" d="M21.2,54.9c1.5,0,3,0,4.4,0c0.6,0,1,0.3,1,0.8c0,0.5-0.4,0.8-1,0.8c-3,0-6,0-8.9,0c-0.1,0-0.2,0-0.2,0
					c-0.5,0-0.9-0.4-0.9-0.8c0-0.5,0.3-0.8,0.9-0.8c1.3,0,2.6,0,3.9,0C20.6,54.9,20.9,54.9,21.2,54.9z"/>
				<path class="st2" d="M22.3,57.1c-1.2,0-2.4,0-3.6,0l-2,0c-0.1,0-0.2,0-0.3,0c-0.8-0.1-1.4-0.6-1.4-1.4c0-0.8,0.6-1.3,1.4-1.4
					c0.9,0,1.8,0,2.7,0h1.9c0,0,0,0,0,0l4.4,0c0.9,0,1.5,0.5,1.6,1.4c0,0.4-0.1,0.7-0.4,1c-0.3,0.3-0.7,0.4-1.2,0.4
					C24.5,57.1,23.4,57.1,22.3,57.1z M18.4,55.4c-0.6,0-1.3,0-1.9,0c-0.3,0-0.3,0.2-0.3,0.3c0,0.1,0,0.3,0.3,0.3c0.1,0,0.1,0,0.2,0
					l2,0c2.3,0,4.6,0,6.9,0c0.2,0,0.3,0,0.4-0.1c0,0,0.1-0.1,0.1-0.2c0-0.1,0-0.3-0.5-0.3l-6.4,0C19,55.4,18.7,55.4,18.4,55.4z"/>
			</g>
			<g>
				<path class="st2" d="M21.1,43.2c-1.5,0-3,0-4.5,0c-0.6,0-1-0.3-1-0.8c0-0.5,0.4-0.9,1-0.9c3,0,6,0,9,0c0.6,0,1,0.3,1,0.8
					c0,0.5-0.4,0.8-1,0.8C24.1,43.2,22.6,43.2,21.1,43.2z"/>
				<path class="st2" d="M22.4,43.8l-5.8,0c-0.9,0-1.5-0.5-1.5-1.3c0-0.4,0.1-0.7,0.4-1c0.3-0.3,0.7-0.4,1.2-0.4c3,0,6,0,9,0
					c0.9,0,1.6,0.6,1.6,1.4c0,0.4-0.2,0.8-0.5,1c-0.3,0.2-0.7,0.3-1.1,0.3L22.4,43.8z M21.1,42.7l4.5,0c0.2,0,0.3,0,0.4-0.1
					c0,0,0.1-0.1,0.1-0.2c0-0.2-0.3-0.3-0.5-0.3c-3,0-6,0-9,0c-0.2,0-0.3,0-0.4,0.1c0,0-0.1,0.1-0.1,0.2c0,0.1,0,0.3,0.4,0.3
					L21.1,42.7z"/>
			</g>
			<g>
				<path class="st2" d="M21.1,29.9c-1.5,0-3,0-4.5,0c-0.6,0-1-0.3-1-0.8c0-0.5,0.4-0.8,1-0.8c3,0,6,0,9,0c0.6,0,1,0.3,1,0.8
					c0,0.5-0.4,0.8-1,0.8C24.1,29.9,22.6,29.9,21.1,29.9C21.1,29.9,21.1,29.9,21.1,29.9z"/>
				<path class="st2" d="M19.8,30.4l-3.2,0c-0.5,0-0.9-0.1-1.2-0.4c-0.2-0.2-0.4-0.6-0.4-1c0-0.8,0.6-1.4,1.6-1.4c3,0,6,0,9,0
					c0.9,0,1.6,0.6,1.6,1.4c0,0.4-0.1,0.7-0.4,1c-0.3,0.3-0.7,0.4-1.2,0.4L19.8,30.4z M21.1,28.8c-1.5,0-3,0-4.5,0
					c-0.5,0-0.5,0.2-0.5,0.3c0,0.1,0,0.2,0.1,0.2c0.1,0.1,0.2,0.1,0.4,0.1l4.5,0l4.5,0c0.2,0,0.3,0,0.4-0.1c0,0,0.1-0.1,0.1-0.2
					c0-0.2-0.3-0.3-0.5-0.3C24.1,28.8,22.6,28.8,21.1,28.8z"/>
			</g>
			<g>
				<path class="st1" d="M78.1,111c0,2,0,4,0,6c0,0.6-0.3,1.1-0.8,1c-0.5,0-0.8-0.4-0.8-1.1c0-4,0-8,0-12c0-0.6,0.3-1,0.8-1
					c0.5,0,0.8,0.3,0.8,1C78.1,107,78.1,109,78.1,111C78.1,111,78.1,111,78.1,111z"/>
				<path class="st1" d="M77.3,118.6C77.3,118.6,77.3,118.6,77.3,118.6c-0.8,0-1.4-0.7-1.4-1.6l0-12c0-0.9,0.5-1.5,1.4-1.6
					c0.4,0,0.7,0.1,1,0.4c0.2,0.2,0.4,0.5,0.4,1.2l0,6c0,0,0,0.1,0,0.1v6c0,0.5-0.2,0.9-0.5,1.2C77.9,118.5,77.6,118.6,77.3,118.6z
					 M77.3,104.5C77.3,104.5,77.3,104.5,77.3,104.5c-0.1,0-0.3,0-0.3,0.5l0,12c0,0.3,0.1,0.5,0.3,0.5c0.1,0,0.1,0,0.2-0.1
					c0.1-0.1,0.1-0.2,0.1-0.4v-5.9c0,0,0-0.1,0-0.1l0-6.1c0-0.2,0-0.3-0.1-0.4C77.4,104.5,77.3,104.5,77.3,104.5z"/>
			</g>
			<g>
				<path class="st1" d="M49.6,111c0-2,0-4,0-6c0-0.6,0.3-1,0.8-1c0.5,0,0.8,0.4,0.8,1c0,4,0,8.1,0,12.1c0,0.6-0.3,1-0.8,1
					c-0.5,0-0.8-0.4-0.8-1.1C49.6,115,49.6,113,49.6,111C49.6,111,49.6,111,49.6,111z"/>
				<path class="st1" d="M50.5,118.6c-0.4,0-0.7-0.1-0.9-0.4c-0.3-0.3-0.5-0.7-0.5-1.2l0-4.2l0-1.8c0,0,0,0,0-0.1l0-6
					c0-0.5,0.2-0.9,0.4-1.2c0.3-0.2,0.5-0.4,1-0.4c0.8,0,1.4,0.6,1.4,1.5c0,4,0,8.1,0,12.1C51.8,117.9,51.3,118.6,50.5,118.6
					C50.5,118.6,50.5,118.6,50.5,118.6z M50.2,111l0,1.8l0,4.2c0,0.2,0,0.4,0.1,0.4c0,0,0.1,0.1,0.2,0.1c0,0,0,0,0,0
					c0.3,0,0.3-0.4,0.3-0.5c0-4,0-8.1,0-12.1c0-0.3-0.1-0.4-0.3-0.4c-0.1,0-0.2,0-0.2,0.1c-0.1,0.1-0.1,0.2-0.1,0.4L50.2,111
					C50.2,111,50.2,111,50.2,111z M49.6,111L49.6,111L49.6,111z"/>
			</g>
			<g>
				<path class="st1" d="M91.4,111c0,2,0,4,0,6c0,0.6-0.3,1-0.8,1c-0.5,0-0.8-0.4-0.8-1c0-4.1,0-8.1,0-12.2c0-0.6,0.4-0.9,0.9-0.9
					c0.5,0,0.8,0.4,0.8,0.9C91.4,106.9,91.4,109,91.4,111C91.4,111,91.4,111,91.4,111z"/>
				<path class="st1" d="M90.6,118.6C90.6,118.6,90.6,118.6,90.6,118.6c-0.8,0-1.4-0.6-1.4-1.5c0-4.1,0-8.1,0-12.2
					c0-0.4,0.2-0.8,0.4-1.1c0.3-0.3,0.6-0.4,1-0.4c0.8,0,1.3,0.6,1.3,1.5l0,4.4l0,1.7c0,0,0,0,0,0.1l0,6c0,0.5-0.2,0.9-0.4,1.2
					C91.3,118.4,90.9,118.6,90.6,118.6z M90.6,104.5c-0.1,0-0.1,0-0.2,0.1c-0.1,0.1-0.1,0.2-0.1,0.3c0,4.1,0,8.1,0,12.2
					c0,0.2,0,0.4,0.3,0.4c0.1,0,0.1,0,0.2-0.1c0.1-0.1,0.1-0.2,0.1-0.4l0-6c0,0,0,0,0-0.1l0-1.7l0-4.4
					C90.8,104.7,90.8,104.5,90.6,104.5C90.6,104.5,90.6,104.5,90.6,104.5z"/>
			</g>
			<g>
				<path class="st1" d="M64.7,110.9c0,1.9,0,3.9,0,5.8c0,0.2,0,0.4,0,0.5c0,0.4-0.3,0.6-0.7,0.7c-0.4,0.1-0.7-0.1-0.9-0.4
					c-0.1-0.2-0.1-0.4-0.1-0.6c0-4,0-8.1,0-12.1c0-0.4,0.2-0.8,0.6-0.9c0.4-0.1,0.7,0,0.9,0.3c0.2,0.2,0.2,0.4,0.2,0.6
					C64.7,106.9,64.7,108.9,64.7,110.9z"/>
				<path class="st1" d="M63.9,118.6c-0.5,0-0.9-0.2-1.2-0.7c-0.2-0.3-0.2-0.6-0.2-0.8c0-4,0-8.1,0-12.1c0-0.7,0.3-1.2,0.9-1.4
					c0.6-0.2,1.1,0,1.5,0.5c0.3,0.3,0.3,0.7,0.3,1v6h-0.5l0.5,0l0,5.8c0,0.3,0,0.4,0,0.6c-0.1,0.6-0.5,1.1-1.1,1.2
					C64.1,118.6,64,118.6,63.9,118.6z M63.9,104.5c0,0-0.1,0-0.1,0c-0.1,0-0.2,0.1-0.2,0.4c0,4,0,8.1,0,12.1c0,0.1,0,0.2,0,0.3
					c0.1,0.2,0.2,0.2,0.3,0.2c0.2,0,0.2-0.1,0.2-0.2c0-0.1,0-0.2,0-0.4c0,0,0-0.1,0-0.1l0-5.8v0v-6c0-0.1,0-0.2,0-0.3
					C64.1,104.5,64,104.5,63.9,104.5z"/>
			</g>
			<g>
				<path class="st1" d="M104.3,110.9c0,2,0,4,0,6.1c0,0.3,0,0.5-0.2,0.8c-0.4,0.5-1.2,0.3-1.4-0.3c-0.1-0.2-0.1-0.3-0.1-0.5
					c0-4,0-8,0-12c0-0.6,0.4-1,0.9-0.9c0.5,0.1,0.7,0.4,0.7,0.9C104.3,106.9,104.3,108.9,104.3,110.9
					C104.3,110.9,104.3,110.9,104.3,110.9z"/>
				<path class="st1" d="M103.5,118.6c-0.1,0-0.2,0-0.3,0c-0.5-0.1-0.9-0.4-1-0.9c-0.1-0.2-0.1-0.5-0.1-0.7c0-4,0-8,0-12
					c0-0.5,0.2-0.9,0.5-1.2c0.3-0.3,0.7-0.4,1.1-0.3c0.7,0.1,1.2,0.6,1.2,1.5l0,4.3l0,1.7h0l0,6.1c0,0.3,0,0.7-0.4,1.1
					C104.3,118.4,103.9,118.6,103.5,118.6z M103.5,104.5c-0.1,0-0.1,0-0.2,0c-0.1,0.1-0.1,0.2-0.1,0.3c0,4,0,8,0,12
					c0,0.1,0,0.3,0,0.3c0,0.1,0.2,0.2,0.2,0.2c0.1,0,0.2,0,0.2-0.1c0.1-0.1,0.1-0.2,0.1-0.4l0-12.1
					C103.8,104.5,103.7,104.5,103.5,104.5C103.5,104.5,103.5,104.5,103.5,104.5z"/>
			</g>
			<g>
				<path class="st1" d="M58.3,112.5c0,1.5,0,3.1,0,4.6c0,0.4-0.1,0.6-0.5,0.8c-0.3,0.2-0.6,0.1-0.8,0c-0.3-0.2-0.4-0.5-0.4-0.9
					c0-1.8,0-3.7,0-5.5c0-1.2,0-2.4,0-3.5c0-0.7,0.7-1.1,1.3-0.8c0.3,0.2,0.4,0.5,0.4,0.9C58.3,109.5,58.3,111,58.3,112.5z"/>
				<path class="st1" d="M57.5,118.6c-0.2,0-0.5-0.1-0.7-0.2c-0.7-0.4-0.7-1.1-0.7-1.4c0-1.3,0-2.6,0-3.8l0-2.7c0-0.9,0-1.7,0-2.6
					c0-0.6,0.3-1,0.7-1.3c0.4-0.2,0.9-0.2,1.4,0c0.5,0.3,0.7,0.7,0.7,1.3c0,1.1,0,2.1,0,3.2v1.4h-0.5h0.5l0,0.8l0,3.8
					c0,0.7-0.4,1.1-0.7,1.3C57.9,118.5,57.7,118.6,57.5,118.6z M57.4,107.5c0,0-0.1,0-0.1,0c-0.1,0.1-0.2,0.2-0.2,0.3
					c0,0.8,0,1.7,0,2.5l0,2.7c0,1.3,0,2.6,0,3.8c0,0.4,0.1,0.4,0.1,0.4c0.1,0.1,0.2,0.1,0.3,0c0.1-0.1,0.2-0.1,0.2-0.4l0-3.8l0-2.1
					c0-1.1,0-2.1,0-3.2c0-0.3-0.1-0.3-0.1-0.4C57.5,107.6,57.5,107.5,57.4,107.5z"/>
			</g>
			<g>
				<path class="st1" d="M97.9,112.5c0,1.5,0,3.1,0,4.6c0,0.5-0.3,0.9-0.8,0.9c-0.5,0-0.8-0.4-0.8-0.9c0-0.3,0-0.6,0-0.9
					c0-2.7,0-5.5,0-8.2c0-0.5,0.2-0.8,0.6-1c0.4-0.1,0.7,0,0.9,0.3c0.2,0.2,0.1,0.4,0.1,0.6C97.9,109.5,97.9,111,97.9,112.5
					C97.9,112.5,97.9,112.5,97.9,112.5z"/>
				<path class="st1" d="M97.1,118.6C97.1,118.6,97.1,118.6,97.1,118.6c-0.8,0-1.4-0.6-1.4-1.4c0-0.2,0-0.4,0-0.7l0-0.3l0-8.2
					c0-1,0.6-1.4,1-1.5c0.3-0.1,1-0.2,1.5,0.5c0.3,0.3,0.2,0.7,0.2,0.9l0,4.6c0,0,0,0.1,0,0.1l0,1.2l0,3.3c0,0.4-0.2,0.8-0.4,1.1
					C97.8,118.4,97.4,118.6,97.1,118.6z M97.1,107.5C97.1,107.5,97,107.5,97.1,107.5c-0.2,0.1-0.3,0.1-0.3,0.4l0,8.2l0,0.3
					c0,0.2,0,0.4,0,0.6c0,0.3,0.1,0.4,0.3,0.4c0,0,0,0,0,0c0.1,0,0.1,0,0.1-0.1c0.1-0.1,0.1-0.2,0.1-0.3l0-3.3l0-1.3
					c0,0,0-0.1,0-0.1l0-4.4c0-0.2,0-0.3,0-0.3C97.2,107.6,97.2,107.5,97.1,107.5z"/>
			</g>
			<g>
				<path class="st1" d="M83.3,112.5c0-1.5,0-3.1,0-4.6c0-0.5,0.3-0.8,0.7-0.9c0.4-0.1,0.8,0.1,0.9,0.5c0.1,0.1,0.1,0.3,0.1,0.4
					c0,3,0,6.1,0,9.1c0,0.6-0.3,1-0.8,1c-0.5,0-0.8-0.4-0.8-0.9C83.3,115.6,83.3,114,83.3,112.5C83.3,112.5,83.3,112.5,83.3,112.5z"
					/>
				<path class="st1" d="M84.1,118.6C84.1,118.6,84.1,118.6,84.1,118.6c-0.8,0-1.4-0.6-1.4-1.5c0-1.1,0-2.2,0-3.3l0-1.2
					c0,0,0,0,0-0.1l0-1.3c0-1.1,0-2.2,0-3.3c0-0.7,0.4-1.3,1.1-1.5c0.6-0.1,1.3,0.2,1.5,0.9c0.1,0.2,0.1,0.4,0.1,0.6
					c0,3,0,6.1,0,9.1c0,0.4-0.2,0.8-0.4,1.1C84.8,118.4,84.5,118.6,84.1,118.6z M83.8,112.5C83.8,112.5,83.8,112.5,83.8,112.5l0,1.3
					c0,1.1,0,2.2,0,3.3c0,0.2,0.1,0.4,0.3,0.4c0.1,0,0.1,0,0.2-0.1c0.1-0.1,0.1-0.2,0.1-0.3c0-3,0-6.1,0-9.1c0-0.1,0-0.2,0-0.2
					c-0.1-0.1-0.2-0.2-0.3-0.2c-0.2,0-0.2,0.2-0.2,0.4c0,1.1,0,2.2,0,3.3L83.8,112.5z M83.8,112.5L83.8,112.5L83.8,112.5z"/>
			</g>
			<g>
				<path class="st1" d="M70,112.5c0-1.5,0-3,0-4.5c0-0.7,0.6-1.1,1.2-0.8c0.4,0.2,0.4,0.5,0.4,0.9c0,2.1,0,4.3,0,6.4
					c0,0.9,0,1.8,0,2.7c0,0.6-0.3,1-0.8,1c-0.5,0-0.8-0.4-0.8-1C70,115.5,70,114,70,112.5C70,112.5,70,112.5,70,112.5z"/>
				<path class="st1" d="M70.8,118.6C70.8,118.6,70.8,118.6,70.8,118.6c-0.8,0-1.4-0.7-1.4-1.5l0-3.2l0-1.4l0-1.3c0-1.1,0-2.1,0-3.2
					c0-0.6,0.3-1,0.7-1.3c0.4-0.2,0.9-0.2,1.3,0c0.7,0.4,0.7,1.1,0.7,1.4c0,1.6,0,3.3,0,4.9l0,2.3c0,0.6,0,1.2,0,1.9
					c0,0.5-0.2,0.9-0.4,1.1C71.5,118.4,71.2,118.6,70.8,118.6z M70.8,107.5c0,0-0.1,0-0.1,0c-0.1,0.1-0.2,0.2-0.2,0.4
					c0,1.1,0,2.1,0,3.2l0,1.3c0,0,0,0,0,0c0,1.5,0,3.1,0,4.6c0,0.1,0,0.4,0.3,0.4c0.1,0,0.1,0,0.2-0.1c0.1-0.1,0.1-0.2,0.1-0.4
					c0-0.6,0-1.2,0-1.9l0-2.3c0-1.6,0-3.3,0-4.9c0-0.3-0.1-0.4-0.1-0.4C70.9,107.6,70.9,107.5,70.8,107.5z"/>
			</g>
		</g>
	</g>
	<g>
		<polygon class="st3" points="46.3,13.3 46.3,87 120,87 		"/>
		<polygon class="st4" points="83.2,50.1 46.3,87 120,87 		"/>
		
			<rect x="80.6" y="51.2" transform="matrix(-0.7071 -0.7071 0.7071 -0.7071 103.9835 150.5223)" class="st3" width="5.1" height="5.1"/>
		
			<rect x="77.1" y="47.6" transform="matrix(-0.7071 -0.7071 0.7071 -0.7071 100.4028 141.8777)" class="st4" width="5.1" height="5.1"/>
	</g>
</g>
</svg>
