<svg xmlns="http://www.w3.org/2000/svg" xmlns:xlink="http://www.w3.org/1999/xlink" width="128" height="80" viewBox="0 0 128 80"><defs><style>.a{fill:#fff;opacity:0;}.b{fill:#245429;}.c{fill:#2a783b;}.d{opacity:0.35;}.e{fill:#52b76b;}.f{fill:#cadc54;}.g{fill:#fdf5a0;}.h{fill:#ed6a5a;}.i{clip-path:url(#a);}.j{fill:#231416;}</style><clipPath id="a"><path d="M30.741,86.875A20.825,20.825,0,0,0,55.76,70.6L14.467,61.85A20.83,20.83,0,0,0,30.741,86.875Z" transform="translate(-13.977 -61.85)"/></clipPath></defs><g transform="translate(-16 -16)"><path class="a" d="M0,0H128V80H0Z" transform="translate(16 16)"/><g transform="translate(40.165 10.994)"><g transform="translate(4.67 16.51)"><g transform="translate(19.486)"><path class="b" d="M89.854,41.932A25.4,25.4,0,0,1,64.721,67.354h-.579a25.423,25.423,0,0,1,0-50.844h.579a25.7,25.7,0,0,1,4.21.392A25.436,25.436,0,0,1,89.854,41.932Z" transform="translate(-39.01 -16.51)"/><path class="c" d="M89.087,41.932c0,12.353-7.695,22.641-17.9,24.94a19.317,19.317,0,0,1-4.029.477h-.573a19.7,19.7,0,0,1-3.984-.465h0C52.373,64.607,44.65,54.3,44.65,41.932c0-12.314,7.649-22.579,17.807-24.923a19.842,19.842,0,0,1,3.864-.494h.1c.051,0,.108-.006.159-.006h.579c.057,0,.119.006.176.006h.079a19.576,19.576,0,0,1,3.927.505C81.466,19.387,89.087,29.641,89.087,41.932Z" transform="translate(-41.45 -16.51)"/><ellipse class="b" cx="20.133" cy="25.422" rx="20.133" ry="25.422" transform="translate(5.289 0)"/><ellipse class="c" cx="17.375" cy="25.422" rx="17.375" ry="25.422" transform="translate(8.046 0)"/><ellipse class="b" cx="15.032" cy="25.422" rx="15.032" ry="25.422" transform="translate(10.39 0)"/><ellipse class="c" cx="12.058" cy="25.422" rx="12.058" ry="25.422" transform="translate(13.364 0)"/><ellipse class="b" cx="9.681" cy="25.422" rx="9.681" ry="25.422" transform="translate(15.741 0)"/><ellipse class="c" cx="7.093" cy="25.422" rx="7.093" ry="25.422" transform="translate(18.329 0)"/><ellipse class="b" cx="4.432" cy="25.422" rx="4.432" ry="25.422" transform="translate(20.99 0)"/><ellipse class="c" cx="1.351" cy="25.422" rx="1.351" ry="25.422" transform="translate(24.071 0)"/><path class="b" d="M84.943,16.951a.106.106,0,0,1-.045.074.375.375,0,0,1-.136.074,2.629,2.629,0,0,1-.312.1c-.108.023-.233.051-.369.074-.17.028-.363.051-.579.079-.165.017-.346.034-.533.051s-.414.028-.636.045-.454.023-.692.028c-.267.011-.55.017-.84.017h-.738c-.289,0-.567-.011-.834-.017-.238-.006-.471-.017-.692-.028s-.431-.028-.63-.045-.363-.034-.528-.051c-.21-.023-.4-.051-.573-.079a3.557,3.557,0,0,1-.357-.074,1.5,1.5,0,0,1-.3-.1.364.364,0,0,1-.125-.079A.079.079,0,0,1,76,16.957a.081.081,0,0,1,.023-.057,25.4,25.4,0,0,1,4.125-.38h.579a25.7,25.7,0,0,1,4.21.392C84.937,16.923,84.943,16.94,84.943,16.951Z" transform="translate(-55.01 -16.514)"/><path class="b" d="M84.916,105.07a25.413,25.413,0,0,1-4.182.392h-.579a25.286,25.286,0,0,1-4.125-.38.44.44,0,0,1,.142-.085.851.851,0,0,1,.17-.057,2.789,2.789,0,0,1,.323-.074c.108-.023.227-.04.357-.057q.247-.034.545-.068c.159-.017.323-.028.5-.045s.386-.028.6-.04.426-.023.653-.028l.783-.017h.7c.267,0,.533.006.789.017.227.006.443.017.653.028l.6.034c.176.011.346.028.505.045.2.017.386.04.55.068.131.017.255.04.363.057h0c.125.023.238.051.329.074a1.623,1.623,0,0,1,.176.057A.321.321,0,0,1,84.916,105.07Z" transform="translate(-55.023 -54.617)"/><g class="d" transform="translate(0.737 1.042)"><ellipse class="e" cx="12.739" cy="8.881" rx="12.739" ry="8.881" transform="matrix(0.5, -0.866, 0.866, 0.5, 0, 22.065)"/></g></g><g transform="translate(0 24.684)"><g transform="translate(0.217)"><path class="c" d="M25.831,91.027A25.835,25.835,0,0,0,56.848,70.848L5.658,60.01A25.833,25.833,0,0,0,25.831,91.027Z" transform="translate(-5.053 -60.01)"/><path class="f" d="M28.795,88.517a22.807,22.807,0,0,0,27.4-17.824L10.971,61.12A22.8,22.8,0,0,0,28.795,88.517Z" transform="translate(-7.381 -60.49)"/><path class="g" d="M29.8,87.671A21.776,21.776,0,0,0,55.97,70.647L12.77,61.5A21.776,21.776,0,0,0,29.8,87.671Z" transform="translate(-8.169 -60.654)"/><path class="h" d="M30.741,86.875A20.825,20.825,0,0,0,55.76,70.6L14.467,61.85A20.83,20.83,0,0,0,30.741,86.875Z" transform="translate(-8.913 -60.806)"/><g transform="translate(5.064 1.044)"><g class="i"><g transform="translate(1.624 2.107)"><path class="j" d="M52.51,73.841c-.085.392-.346.67-.59.619s-.375-.414-.289-.806.346-.67.59-.619S52.589,73.444,52.51,73.841Z" transform="translate(-31.876 -68.793)"/><ellipse class="j" cx="0.726" cy="0.448" rx="0.726" ry="0.448" transform="translate(23.522 6.402) rotate(-78.042)"/><path class="j" d="M66.32,76.761c-.085.392-.346.67-.59.619s-.375-.414-.289-.806.346-.67.59-.619S66.4,76.37,66.32,76.761Z" transform="translate(-37.849 -70.056)"/><ellipse class="j" cx="0.726" cy="0.448" rx="0.726" ry="0.448" transform="translate(31.366 8.063) rotate(-78.042)"/><path class="j" d="M80.14,79.691c-.085.392-.346.67-.59.619s-.375-.414-.289-.806.346-.67.59-.619S80.225,79.3,80.14,79.691Z" transform="translate(-43.827 -71.323)"/><path class="j" d="M87.05,81.151c-.085.392-.346.67-.59.619s-.375-.414-.289-.806.346-.67.59-.619S87.135,80.76,87.05,81.151Z" transform="translate(-46.816 -71.955)"/><path class="j" d="M44.72,72.184c-.085.392.045.755.289.806s.505-.227.59-.619-.045-.755-.289-.806S44.8,71.792,44.72,72.184Z" transform="translate(-28.887 -68.157)"/><path class="j" d="M37.81,70.724c-.085.392.045.755.289.806s.505-.227.59-.619-.045-.755-.289-.806S37.89,70.332,37.81,70.724Z" transform="translate(-25.898 -67.526)"/><path class="j" d="M30.9,69.264c-.085.392.045.755.289.806s.505-.227.59-.619-.045-.755-.289-.806S30.98,68.872,30.9,69.264Z" transform="translate(-22.909 -66.894)"/><path class="j" d="M23.99,67.794c-.085.392.045.755.289.806s.505-.227.59-.619-.045-.755-.289-.806S24.07,67.4,23.99,67.794Z" transform="translate(-19.92 -66.258)"/><ellipse class="j" cx="0.726" cy="0.448" rx="0.726" ry="0.448" transform="translate(0 1.421) rotate(-78.042)"/></g><g transform="translate(-1.176 5.254)"><path class="j" d="M47.36,79.231c-.085.392-.346.67-.59.619s-.375-.414-.289-.806.346-.67.59-.619S47.445,78.84,47.36,79.231Z" transform="translate(-26.849 -74.271)"/><path class="j" d="M54.27,80.7c-.085.392-.346.67-.59.619s-.375-.414-.289-.806.346-.67.59-.619S54.355,80.3,54.27,80.7Z" transform="translate(-29.837 -74.907)"/><path class="j" d="M61.18,82.161c-.085.392-.346.67-.59.619s-.375-.414-.289-.806.346-.67.59-.619S61.265,81.77,61.18,82.161Z" transform="translate(-32.826 -75.539)"/><path class="j" d="M68.09,83.621c-.085.392-.346.67-.59.619s-.375-.414-.289-.806.346-.67.59-.619S68.169,83.23,68.09,83.621Z" transform="translate(-35.815 -76.17)"/><path class="j" d="M75,85.091c-.085.392-.346.67-.59.619s-.375-.414-.289-.806.346-.67.59-.619S75.079,84.694,75,85.091Z" transform="translate(-38.804 -76.806)"/><path class="j" d="M81.91,86.551c-.085.392-.346.67-.59.619s-.375-.414-.289-.806.346-.67.59-.619S81.989,86.16,81.91,86.551Z" transform="translate(-41.793 -77.438)"/><path class="j" d="M39.57,77.584c-.085.392.045.755.289.806s.505-.227.59-.619-.045-.755-.289-.806S39.655,77.192,39.57,77.584Z" transform="translate(-23.86 -73.64)"/><path class="j" d="M32.66,76.124c-.085.392.045.755.289.806s.505-.227.59-.619-.045-.755-.289-.806S32.745,75.732,32.66,76.124Z" transform="translate(-20.871 -73.008)"/><path class="j" d="M25.75,74.664c-.085.392.045.755.289.806s.505-.227.59-.619-.045-.755-.289-.806S25.835,74.267,25.75,74.664Z" transform="translate(-17.882 -72.377)"/><path class="j" d="M18.84,73.194c-.085.392.045.755.289.806s.505-.227.59-.619-.045-.755-.289-.806S18.925,72.8,18.84,73.194Z" transform="translate(-14.893 -71.741)"/><path class="j" d="M11.93,71.734c-.085.392.045.755.289.806s.505-.227.59-.619-.045-.755-.289-.806S12.015,71.342,11.93,71.734Z" transform="translate(-11.904 -71.109)"/></g><g transform="translate(0.126 9.154)"><path class="j" d="M49.88,86.251c-.085.392-.346.67-.59.619s-.375-.414-.289-.806.346-.67.59-.619S49.959,85.86,49.88,86.251Z" transform="translate(-29.241 -81.207)"/><ellipse class="j" cx="0.726" cy="0.448" rx="0.726" ry="0.448" transform="translate(23.527 6.403) rotate(-78.042)"/><path class="j" d="M63.7,89.181c-.085.392-.346.67-.59.619s-.375-.414-.289-.806.346-.67.59-.619S63.779,88.79,63.7,89.181Z" transform="translate(-35.219 -82.475)"/><ellipse class="j" cx="0.726" cy="0.448" rx="0.726" ry="0.448" transform="translate(31.372 8.064) rotate(-78.042)"/><path class="j" d="M77.51,92.111c-.085.392-.346.67-.59.619s-.375-.414-.289-.806.346-.67.59-.619S77.595,91.714,77.51,92.111Z" transform="translate(-41.192 -83.742)"/><path class="j" d="M84.42,93.571c-.085.392-.346.67-.59.619s-.375-.414-.289-.806.346-.67.59-.619S84.5,93.18,84.42,93.571Z" transform="translate(-44.181 -84.374)"/><path class="j" d="M42.09,84.6c-.085.392.045.755.289.806s.505-.227.59-.619-.045-.755-.289-.806S42.17,84.212,42.09,84.6Z" transform="translate(-26.252 -80.576)"/><path class="j" d="M35.18,83.144c-.085.392.045.755.289.806s.505-.227.59-.619-.045-.755-.289-.806S35.26,82.752,35.18,83.144Z" transform="translate(-23.263 -79.944)"/><path class="j" d="M28.27,81.684c-.085.392.045.755.289.806s.505-.227.59-.619-.045-.755-.289-.806S28.35,81.287,28.27,81.684Z" transform="translate(-20.274 -79.313)"/><path class="j" d="M21.36,80.214c-.085.392.045.755.289.806s.505-.227.59-.619-.045-.755-.289-.806S21.44,79.822,21.36,80.214Z" transform="translate(-17.285 -78.677)"/><ellipse class="j" cx="0.726" cy="0.448" rx="0.726" ry="0.448" transform="translate(0 1.421) rotate(-78.042)"/></g><g transform="translate(-2.812 12.32)"><ellipse class="j" cx="0.726" cy="0.448" rx="0.726" ry="0.448" transform="translate(19.601 5.577) rotate(-78.042)"/><ellipse class="j" cx="0.726" cy="0.448" rx="0.726" ry="0.448" transform="translate(23.526 6.408) rotate(-78.042)"/><path class="j" d="M58.51,94.761c-.085.392-.346.67-.59.619s-.375-.414-.289-.806.346-.67.59-.619S58.595,94.37,58.51,94.761Z" transform="translate(-30.035 -88.055)"/><path class="j" d="M65.42,96.231c-.085.392-.346.67-.59.619s-.375-.414-.289-.806.346-.67.59-.619S65.5,95.84,65.42,96.231Z" transform="translate(-33.024 -88.69)"/><path class="j" d="M72.33,97.691c-.085.392-.346.67-.59.619s-.375-.414-.289-.806.346-.67.59-.619S72.415,97.3,72.33,97.691Z" transform="translate(-36.013 -89.322)"/><path class="j" d="M79.24,99.151c-.085.392-.346.67-.59.619s-.375-.414-.289-.806.346-.67.59-.619S79.325,98.76,79.24,99.151Z" transform="translate(-39.002 -89.954)"/><path class="j" d="M36.9,90.194c-.085.392.045.755.289.806s.505-.227.59-.619-.045-.755-.289-.806S36.985,89.8,36.9,90.194Z" transform="translate(-21.068 -86.16)"/><path class="j" d="M29.99,88.724c-.085.392.045.755.289.806s.505-.227.59-.619-.045-.755-.289-.806S30.075,88.332,29.99,88.724Z" transform="translate(-18.08 -85.524)"/><path class="j" d="M23.08,87.264c-.085.392.045.755.289.806s.505-.227.59-.619-.045-.755-.289-.806S23.165,86.872,23.08,87.264Z" transform="translate(-15.091 -84.893)"/><path class="j" d="M16.17,85.8c-.085.392.045.755.289.806s.505-.227.59-.619-.045-.755-.289-.806S16.255,85.407,16.17,85.8Z" transform="translate(-12.102 -84.261)"/><ellipse class="j" cx="0.726" cy="0.448" rx="0.726" ry="0.448" transform="translate(0 1.421) rotate(-78.042)"/></g><g transform="translate(-1.366 16.202)"><path class="j" d="M47.25,98.671c-.085.392-.346.67-.59.619s-.375-.414-.289-.806.346-.67.59-.619S47.329,98.28,47.25,98.671Z" transform="translate(-26.611 -93.627)"/><ellipse class="j" cx="0.726" cy="0.448" rx="0.726" ry="0.448" transform="translate(23.527 6.403) rotate(-78.042)"/><path class="j" d="M61.07,101.6c-.085.392-.346.67-.59.619s-.375-.414-.289-.806.346-.67.59-.619S61.149,101.21,61.07,101.6Z" transform="translate(-32.589 -94.895)"/><ellipse class="j" cx="0.726" cy="0.448" rx="0.726" ry="0.448" transform="translate(31.372 8.064) rotate(-78.042)"/><path class="j" d="M74.88,104.531c-.085.392-.346.67-.59.619s-.375-.414-.289-.806.346-.67.59-.619S74.965,104.134,74.88,104.531Z" transform="translate(-38.563 -96.162)"/><path class="j" d="M81.79,105.991c-.085.392-.346.67-.59.619s-.375-.414-.289-.806.346-.67.59-.619S81.875,105.6,81.79,105.991Z" transform="translate(-41.551 -96.794)"/><path class="j" d="M39.46,97.024c-.085.392.045.755.289.806s.505-.227.59-.619-.045-.755-.289-.806S39.54,96.632,39.46,97.024Z" transform="translate(-23.622 -92.996)"/><path class="j" d="M32.55,95.564c-.085.392.045.755.289.806s.505-.227.59-.619-.045-.755-.289-.806S32.63,95.172,32.55,95.564Z" transform="translate(-20.633 -92.364)"/><path class="j" d="M25.64,94.1c-.085.392.045.755.289.806s.505-.227.59-.619-.045-.755-.289-.806S25.72,93.707,25.64,94.1Z" transform="translate(-17.645 -91.733)"/><path class="j" d="M18.73,92.634c-.085.392.045.755.289.806s.505-.227.59-.619-.045-.755-.289-.806S18.81,92.242,18.73,92.634Z" transform="translate(-14.656 -91.097)"/><ellipse class="j" cx="0.726" cy="0.448" rx="0.726" ry="0.448" transform="translate(0 1.421) rotate(-78.042)"/></g><g transform="translate(-4.284 19.262)"><ellipse class="j" cx="0.726" cy="0.448" rx="0.726" ry="0.448" transform="translate(19.607 5.579) rotate(-78.042)"/><ellipse class="j" cx="0.726" cy="0.448" rx="0.726" ry="0.448" transform="translate(23.526 6.408) rotate(-78.042)"/><path class="j" d="M55.92,107c-.085.392-.346.67-.59.619s-.375-.414-.289-.806.346-.67.59-.619S56,106.61,55.92,107Z" transform="translate(-27.443 -100.291)"/><path class="j" d="M62.83,108.461c-.085.392-.346.67-.59.619s-.375-.414-.289-.806.346-.67.59-.619S62.915,108.07,62.83,108.461Z" transform="translate(-30.432 -100.922)"/><path class="j" d="M69.74,109.921c-.085.392-.346.67-.59.619s-.375-.414-.289-.806.346-.67.59-.619S69.825,109.53,69.74,109.921Z" transform="translate(-33.421 -101.554)"/><path class="j" d="M76.65,111.391c-.085.392-.346.67-.59.619s-.375-.414-.289-.806.346-.67.59-.619S76.735,111,76.65,111.391Z" transform="translate(-36.409 -102.189)"/><path class="j" d="M34.31,102.424c-.085.392.045.755.289.806s.505-.227.59-.619-.045-.755-.289-.806S34.4,102.032,34.31,102.424Z" transform="translate(-18.476 -98.392)"/><path class="j" d="M27.4,100.964c-.085.392.045.755.289.806s.505-.227.59-.619-.045-.755-.289-.806S27.485,100.567,27.4,100.964Z" transform="translate(-15.487 -97.76)"/><path class="j" d="M20.49,99.494c-.085.392.045.755.289.806s.505-.227.59-.619-.045-.755-.289-.806S20.575,99.1,20.49,99.494Z" transform="translate(-12.498 -97.124)"/><path class="j" d="M13.58,98.034c-.085.392.045.755.289.806s.505-.227.59-.619-.045-.755-.289-.806S13.665,97.642,13.58,98.034Z" transform="translate(-9.509 -96.493)"/><ellipse class="j" cx="0.726" cy="0.448" rx="0.726" ry="0.448" transform="translate(0 1.421) rotate(-78.042)"/></g></g></g></g><path class="b" d="M5.493,60.01c-.057.426-.119.851-.182,1.277-.017.108-.023.216-.034.318l-.028.318-.062.641c-.023.21-.028.426-.04.641l-.034.641a3.027,3.027,0,0,0-.011.318v.959c.011.851.057,1.7.148,2.548l.028.318c.011.108.028.21.045.318l.091.63.045.312c.017.1.04.21.057.312l.119.624A25.661,25.661,0,0,0,9.51,79.462c.028.045.057.091.085.131l.091.131.182.255.369.511c.057.085.125.165.193.25l.2.244.392.494c.272.318.55.63.823.948l.874.908a25.692,25.692,0,0,0,3.893,3.161,26.454,26.454,0,0,0,4.426,2.355,27.063,27.063,0,0,0,4.789,1.487,26.765,26.765,0,0,0,4.977.579,26.006,26.006,0,0,0,9.84-1.668l1.163-.477c.38-.176.76-.352,1.141-.533l.556-.289.278-.148c.091-.051.187-.1.278-.148l.545-.318.272-.159.136-.079c.045-.028.091-.057.131-.085a25.676,25.676,0,0,0,7.3-6.912l.363-.522c.062-.085.125-.17.182-.261l.17-.272.34-.539.17-.272.153-.278c.426-.738.806-1.5,1.163-2.27l.261-.584.113-.289c.045-.1.079-.2.119-.3l.227-.6c.074-.2.159-.4.221-.6l.2-.607.1-.306c.034-.1.068-.2.1-.306.113-.414.233-.828.352-1.237-.079.42-.159.846-.244,1.265a2.779,2.779,0,0,1-.074.312l-.079.312-.153.63c-.045.21-.119.414-.182.619l-.187.619c-.034.1-.062.21-.1.306l-.108.306-.221.613a25.357,25.357,0,0,1-1.044,2.378l-.142.3c-.051.1-.1.193-.153.284l-.312.573-.159.284c-.051.1-.113.187-.17.278l-.34.556a25.443,25.443,0,0,1-7.275,7.456,25.727,25.727,0,0,1-9.709,3.938,26.766,26.766,0,0,1-5.26.431A27.583,27.583,0,0,1,20.5,90.136a26.545,26.545,0,0,1-4.63-2.531,25.738,25.738,0,0,1-7.28-7.536,25.455,25.455,0,0,1-3.632-9.76A25.885,25.885,0,0,1,5.493,60.01Z" transform="translate(-4.67 -60.01)"/></g></g></g></g></svg>