<svg xmlns="http://www.w3.org/2000/svg" width="128" height="80" viewBox="0 0 128 80"><defs><style>.a{fill:#fff;opacity:0;}.b{fill:#10141f;}.c{fill:#222633;}.d{fill:#9a7169;}.e{fill:#4a4b52;}.f{fill:#ee964a;}.g{fill:#f0974a;}.h{fill:#f8dec6;}.i{fill:#cd792e;}.j{fill:#f7b572;}.k{fill:#f9ac65;}.l{fill:#fdc99d;}.m{fill:#2e2824;}.n{fill:#e2777f;}.o{fill:#fee4d2;}.p{fill:#b86829;}</style></defs><g transform="translate(-16 -16)"><path class="a" d="M0,0H128V80H0Z" transform="translate(16 16)"/><g transform="translate(39.942 17.135)"><g transform="translate(7.52 3.739)"><path class="b" d="M101.454,91.965a38.294,38.294,0,0,0-2.689-5.24,2.367,2.367,0,0,1,.8.5c-.549-1.362-2.6-4.542-2.763-4.9a5.147,5.147,0,0,1,.921.183,20.4,20.4,0,0,1-1.716-4.359,1.708,1.708,0,0,1,.486.784c.063-1.4.263-5.492.36-5.772l.343.555a9.247,9.247,0,0,0,.069-4.491l-16.2.366.069,3.112a7.023,7.023,0,0,1,2.18.114c-.034.292-.046.566-.069.852a10.15,10.15,0,0,0-.864,6.453c.246-.566.492-1.138.738-1.7a4.792,4.792,0,0,0,.017,3.009,12.947,12.947,0,0,0,1.281,2.695,6.11,6.11,0,0,1-.1-1.676,14.664,14.664,0,0,0,4.806,6c-.1-.441-.189-.881-.286-1.327.074.046.154.1.235.143.915,1.356,2.529,2.111,3.141,3.7-.034-.463-.063-.933-.1-1.4.366.309.721.624,1.053.921a5.872,5.872,0,0,1,1,2.145c.183-.212.366-.429.549-.641a3.754,3.754,0,0,1,.584.732c.263.669-.252.812-.252.812a2.737,2.737,0,0,0-2.809,3.621c.126.463.95.761,1.287.755,1.917-.046,6.608-.149,6.608-.149,1.31-1.2,1.035-3.827.2-6.671A1.944,1.944,0,0,1,101.454,91.965Z" transform="translate(-38.992 -31.763)"/><path class="b" d="M39.688,79.214c.732-2.632,1.447-5.406.9-7.786.395-4.554-.12-8.919-.772-10.549,0,0-2.523-3.885-6.081-1.59s-4.977,5.252-4.754,10.321S27.5,88.482,26.209,89.271c-.629.383-4.279-.343-4.972,3.118a1.426,1.426,0,0,0,1.579,1.665l4.062-.092a4.031,4.031,0,0,0,2.941-1.522c.051-.057.1-.132.154-.195a.674.674,0,0,1,.463.675,15.359,15.359,0,0,0,.807-2.271c.223-.286.458-.584.692-.892a2.414,2.414,0,0,1,.263,1.379,18.331,18.331,0,0,0,1.482-3.719c.069-.092.132-.183.2-.28a5.17,5.17,0,0,1,.3,1.819,11.522,11.522,0,0,0,2.265-5.618c.092-.149.183-.292.275-.441a1.914,1.914,0,0,1,.223,1.322A9.98,9.98,0,0,0,38.9,78.813c.149-.349.286-.7.406-1.024A2.1,2.1,0,0,1,39.688,79.214Z" transform="translate(-13.377 -27.198)"/><path class="c" d="M101.194,51.522s2.923-6.814,5.429-6.247.441,5.6-.927,8.044S100.771,52.432,101.194,51.522Z" transform="translate(-47.589 -21.498)"/><path class="c" d="M43.378,81.554c.732-2.632,1.447-5.406.9-7.786.395-4.554-.12-8.919-.772-10.549,0,0-2.523-3.885-6.081-1.59s-4.977,5.252-4.754,10.321S31.192,90.822,29.9,91.611c-.629.383-4.279-.343-4.972,3.118a1.426,1.426,0,0,0,1.579,1.665l4.062-.092a4.031,4.031,0,0,0,2.941-1.522c.051-.057.1-.132.154-.195a.674.674,0,0,1,.463.675,15.359,15.359,0,0,0,.807-2.271c.223-.286.458-.584.692-.892a2.414,2.414,0,0,1,.263,1.379,18.2,18.2,0,0,0,1.482-3.719c.069-.092.132-.183.2-.28a5.17,5.17,0,0,1,.3,1.819,11.522,11.522,0,0,0,2.265-5.618c.092-.149.183-.292.275-.441a1.914,1.914,0,0,1,.223,1.322,9.98,9.98,0,0,0,1.957-5.406c.149-.349.286-.7.4-1.024A2.036,2.036,0,0,1,43.378,81.554Z" transform="translate(-14.956 -28.2)"/><path class="c" d="M73.037,69.488a38.293,38.293,0,0,0-2.689-5.24,2.367,2.367,0,0,1,.8.5c-.549-1.362-2.6-4.542-2.763-4.9a5.147,5.147,0,0,1,.921.183,20.4,20.4,0,0,1-1.716-4.359,1.708,1.708,0,0,1,.486.784c.063-1.4.263-5.492.36-5.772.114.183.229.372.343.555a9.445,9.445,0,0,0-.412-6.007,14.041,14.041,0,0,0-.618-2.317,3.992,3.992,0,0,1,1.138.7,5.563,5.563,0,0,0-3-3.885,7.4,7.4,0,0,0-4.119-2.288C53.6,35.8,35.616,35.911,33.162,30.785c-.029-.029-.051-.063-.08-.092-.83-1.39-3.633-6.133-5.092-9.079-1.728-3.484-5.933-7.895-8.427-7.226S16.222,17.2,14.026,17.4s-1.144,3.959-2.094,4.491S8.139,23.3,8.6,24.412s.789,3.81,1.51,4.663,1.585,3.9,2.563,4.434,5.406-4,5.286-7.317A19.683,19.683,0,0,1,19.455,28.1a14.684,14.684,0,0,1,1.4,3.044c.1,1.064.172,2.077.217,3.044a10.32,10.32,0,0,1-1.442,4.085c.338-.029.669-.063,1.007-.092a65.624,65.624,0,0,1-1.7,6.516,7.69,7.69,0,0,0,1.751-1.516,10.108,10.108,0,0,0,.509,7.329,3.578,3.578,0,0,1,.492-1.676c.051.1.1.195.154.292A7.217,7.217,0,0,0,25,54.791a10.091,10.091,0,0,1-.16-1.5,14.786,14.786,0,0,0,2.586,2.563c.858.395-.961-2.935,4.262-1.322s13.038-1.058,16.745-3.009A9.468,9.468,0,0,1,54.9,50.34c-.034.292-.046.566-.069.852a10.15,10.15,0,0,0-.864,6.453c.246-.566.492-1.138.738-1.7a4.792,4.792,0,0,0,.017,3.009,13.243,13.243,0,0,0,1.281,2.695,6.11,6.11,0,0,1-.1-1.676,14.664,14.664,0,0,0,4.806,6c-.1-.441-.189-.881-.286-1.327.074.046.154.1.235.143.915,1.356,2.529,2.111,3.141,3.7-.034-.463-.063-.933-.1-1.4.366.309.721.624,1.053.921a5.872,5.872,0,0,1,1,2.145c.183-.212.366-.429.549-.641a3.754,3.754,0,0,1,.584.732c.263.669-.252.812-.252.812a2.745,2.745,0,0,0-2.8,3.667c.126.435.933.715,1.27.7,1.917-.046,6.608-.149,6.608-.149,1.31-1.2,1.035-3.827.2-6.671A2.011,2.011,0,0,1,73.037,69.488Z" transform="translate(-7.961 -8.267)"/><path class="c" d="M28.5,4.3s-.973,2.22-.584,3.587-.561,2.414-.681,3.69,1.659,5.681,2.912,4.577a5.494,5.494,0,0,0,1.384-6.436C30.245,6.817,29.129,2.115,28.5,4.3Z" transform="translate(-15.954 -3.739)"/><path class="d" d="M28,13.688a.31.31,0,0,0-.017.315c.315.584.543,1.27.824,1.922a1.168,1.168,0,0,0,.973.681.307.307,0,0,0,.355-.263c.332-2.6,1.15-5.029,0-7.649-.229-.526-.446-2.025-.7-1.5-.372,1.339.172,2.878-.3,4.422A7.971,7.971,0,0,1,28,13.688Z" transform="translate(-16.262 -5.169)"/><path class="e" d="M16.918,18.036a2.734,2.734,0,0,0-1.791,1.19,8.171,8.171,0,0,0-.938,2,15.615,15.615,0,0,1,1.779-.749c-.418.046-.687.441-.9.8-.315.515-.629,1.03-.944,1.55a2.416,2.416,0,0,0,2.094-.915,8,8,0,0,0-.669,2.723l-.195.195a4.46,4.46,0,0,0,2.237-2.546c-.023.83-.04,1.653-.063,2.483a2.744,2.744,0,0,0,1.487-2.918,4.77,4.77,0,0,1,.481,2.6,2.309,2.309,0,0,0,.646-3.307,3.319,3.319,0,0,1,1.5,1.453,4.691,4.691,0,0,0-3.673-4.474A2.942,2.942,0,0,0,16.918,18.036Z" transform="translate(-10.344 -9.849)"/><path class="e" d="M12.663,39.663a4.244,4.244,0,0,0,.509-1.35,8.075,8.075,0,0,1,.309,1.922,3.358,3.358,0,0,0,1.825-2.6,4.3,4.3,0,0,1-.4,1.642A2.571,2.571,0,0,0,16.92,35.9a2.515,2.515,0,0,1,.406,1.608,3.2,3.2,0,0,0,.881-2.849l.687.7c.137-.864.269-1.728.406-2.6a1.946,1.946,0,0,0-.092-1.253,1.594,1.594,0,0,0-1.11-.641,2.711,2.711,0,0,0-2.9.973,3.149,3.149,0,0,0-1.276-3.467,5.113,5.113,0,0,0-4.079-.246A7.48,7.48,0,0,0,7.52,29.159a6.2,6.2,0,0,1,1.762.584,3.632,3.632,0,0,0-1.236,3.5,1.542,1.542,0,0,1,.727-.818,1.582,1.582,0,0,0-.011,1.31c.252.858.5,1.722.749,2.58a3.31,3.31,0,0,0,.9-1.63c.034.967.069,1.934.1,2.906a5.332,5.332,0,0,0,.9-.967C11.839,37.638,12.251,38.65,12.663,39.663Z" transform="translate(-7.52 -14.05)"/></g><g transform="translate(24.157 37.02)"><path class="f" d="M44.727,63.135c1.7-1.585,3.158-1.379,3.421-.778s-.086.864-.086.864l-3.8,3.37S43.434,64.348,44.727,63.135Z" transform="translate(-39.767 -61.912)"/><path class="g" d="M60.593,96.624l.441.36a.03.03,0,0,0,.023.011,6.937,6.937,0,0,0,.938.086,2.658,2.658,0,0,1,.646.074.052.052,0,0,0,.063-.034l.177-.578v-.006a9.466,9.466,0,0,1,.778-2.414c.521-.95,1.144-2.042,1.922-2.042s1.207.521,1.379,1.728c.16,1.116.246,2.6.257,2.82a.045.045,0,0,1-.017.04.74.74,0,0,0-.24.847l.16.566a.05.05,0,0,0,.051.034h2.185a.081.081,0,0,0,.034-.011c.12-.109.933-.881.933-1.281,0-.429-.521-3.8-.429-4.577s-.172-1.207.257-1.293.864-.429.95-1.728-.429-2.42-.172-3.192a.873.873,0,0,1,.99-.612.047.047,0,0,0,.057-.04l.069-.349a.054.054,0,0,0-.023-.057l-.618-.343a.054.054,0,0,1,.017-.1l1.093-.195a.05.05,0,0,0,.006-.1l-.709-.177a.051.051,0,0,1-.023-.086l1.173-1.018a.051.051,0,0,0-.006-.08l-.5-.36a.055.055,0,0,1-.006-.08l.715-.715a.052.052,0,0,0,.017-.04,27.3,27.3,0,0,0-.515-3.518c-.177-.538-.481-.372-.652-.217a.049.049,0,0,1-.08-.051l.212-.921a.038.038,0,0,0-.006-.034,7.967,7.967,0,0,0-2.752-2.66c-1.985-1.207-3.278-2.071-4.228-1.9l-.772.143a.051.051,0,0,1-.046-.086c.309-.3,1.018-1.093.469-1.779-.692-.864-4.314-1.9-6.3-1.814a36.305,36.305,0,0,0-3.936.423.044.044,0,0,1-.051-.029,3.134,3.134,0,0,0-1.1-1.264,6.082,6.082,0,0,1-.841-.418.052.052,0,0,1-.023-.046,3.555,3.555,0,0,0-.606-2.214,5,5,0,0,0-2.237-1.121h-.011a35.983,35.983,0,0,1-3.787,0H45.9a3.941,3.941,0,0,0-3.1,2.243L41.5,68.665a.006.006,0,0,1-.006.006,9.593,9.593,0,0,0-1.316,2.214c-.807,2.031-.309,4.777-.915,6.419a6.625,6.625,0,0,0,.818,5.818,14.166,14.166,0,0,0,2.3,2.266c1.436,1.264,1.859,4.211,1.876,4.342v.011a5.155,5.155,0,0,0,.343,2.243c.429.778,1.876,1.785,1.962,2.992a2.847,2.847,0,0,1-.658,2,.031.031,0,0,1-.029.017c-.126.017-.847.132-.847.6v.715a.052.052,0,0,0,.063.051l2.86-.532a.031.031,0,0,0,.029-.017A7.845,7.845,0,0,0,49.7,94.661c.172-1.379.086-2.243.606-2.506s1.121.172,1.121.95.875,3.324.549,3.867l-.017.017c-.086.057-.7.463-.7.864a3.084,3.084,0,0,0,.24,1.35,2.253,2.253,0,0,0,2.609.292,1.862,1.862,0,0,0,1.121-1.642s-.086-1.035.257-1.121c.326-.08.114-1.167.086-1.287v-.023a10.158,10.158,0,0,0,.343-2.06,1.352,1.352,0,0,1,0-.95.006.006,0,0,1,.006-.006,14.9,14.9,0,0,0,1.465-2.071c.257-.606,1.9.692,2.592,1.379s1.447.618,1.447,1.047.343,1.945.086,2.374-.257.732-.778,1Z" transform="translate(-37.601 -62.883)"/><g transform="translate(4.947 0.63)"><path class="h" d="M47.154,63.91c.029-.006.263-.069.183-.149-.063-.057-.326.132-.383.172a2.382,2.382,0,0,0-.429.366,2.1,2.1,0,0,0-.538,1.1c-.086-.189-.177-.372-.263-.561a2.244,2.244,0,0,0,1.241-.612c.086-.074.166-.149.252-.223a.612.612,0,0,1,.092-.08c.063-.08.086-.04.074.126-.034-.029-.069-.051-.109-.08a.38.38,0,0,0-.263-.011,1.139,1.139,0,0,0-.372.143,2.289,2.289,0,0,0-.521.418c-.063.069-.114.149-.177.223-.206.223-.057-.023,0-.1a3.519,3.519,0,0,1,.555-.492l.629-.561c.074.309.154.612.229.921a.872.872,0,0,1-.578.126c-.166-.04-.189-.252-.137-.389a1.881,1.881,0,0,1,.481-.658c.366-.36.629.589.309.87A15.38,15.38,0,0,1,46.2,65.517a.542.542,0,0,1-.852-.235c-.412-.835.475-1.722,1.144-2.088a.986.986,0,0,1,1.2.046,1,1,0,0,1,.177,1.11,2.666,2.666,0,0,1-.892.875,2.169,2.169,0,0,1-1.287.486c-.246,0-.309-.389-.263-.561a3.413,3.413,0,0,1,.709-1.379c.263-.3.772-.778,1.213-.721.9.12.492,1.779-.263,1.167-.092-.063-.069-.292.063-.309Z" transform="translate(-45.246 -63.013)"/></g><g transform="translate(6.486 7.391)"><path class="i" d="M49.832,98.8c.521.864.172,2.506-.521,2.763-.561.212-.5.984-.452,1.27a.14.14,0,0,0,.126.114l2.42.063a1.233,1.233,0,0,0,1.173-.767,15.668,15.668,0,0,0,.961-3.009,8.185,8.185,0,0,0,.1-1.419,1.881,1.881,0,0,1,.389-.955l.006-.006a1.616,1.616,0,0,1,.784.309c.446.406.372.967.458,1.5a27.641,27.641,0,0,1,.549,2.889c0,.029.034.069.051.023a2.924,2.924,0,0,0-.006-1.659c-.154-.709-.269-1.4-.372-2.117a2.151,2.151,0,0,0-.721-1.224c.006-.006.006-.011.011-.011A.539.539,0,0,0,55,96.3c.08-.086.086-.063.189-.006a1.391,1.391,0,0,1,.378.275c.114.126.109-.246.074-.3a1.174,1.174,0,0,1-.166-.406.161.161,0,0,0,0-.074c-.006-.017-.011-.034-.017-.057a1.1,1.1,0,0,1,.046-.355c.011-.011.017-.023.029-.034.223.217.446.429.687.624.057.046.063-.149.057-.172-.029-.126-.057-.257-.086-.383a5.116,5.116,0,0,1,.149-1.179,1.985,1.985,0,0,0,.292.9c.023.034.04-.034.034-.046-.017-.395-.063-.789-.046-1.184a4.03,4.03,0,0,1,.1-.641c0-.006.006-.006.006,0a3.716,3.716,0,0,0,.5,1.259c.04.063.08-.034.069-.074a4.192,4.192,0,0,1-.252-2.168.126.126,0,0,1,.114.063l.132.223a.133.133,0,0,0,.246-.057l.1-1.281a.133.133,0,0,1,.257-.034l.154.441a.135.135,0,0,0,.257-.011l.383-1.636a.133.133,0,0,1,.257-.006.135.135,0,0,0,.257.006l.435-1.4a.129.129,0,0,1,.246,0,.129.129,0,0,0,.252-.034l.046-1.156a.138.138,0,0,1,.166-.126l.675.172a.131.131,0,0,0,.16-.154l-.269-1.39a8.225,8.225,0,0,0,.927.755c.023.017.029-.074.017-.086a6.614,6.614,0,0,1-.709-.973c-.046-.069-.092-.16-.143-.257.332.114.915.3.9.092a4.753,4.753,0,0,0-.269-1.4.132.132,0,0,1,.177-.166l.355.16a.132.132,0,0,0,.183-.154l-.28-1.121.051.051a6.065,6.065,0,0,0,.715.606c.023.017.023-.063.011-.074a9.492,9.492,0,0,0-.709-1c-.04-.051-.086-.109-.132-.172a.15.15,0,0,1,.12-.023l.315.1a.132.132,0,0,0,.172-.16l-.32-1.219a.132.132,0,0,1,.229-.12l.137.154a.131.131,0,0,0,.229-.1l-.114-1.161a.13.13,0,0,1,.143-.143c.538.046,2.283.1,2.86-1.138.446-.955-2.712-3.152-3.215-3.5a.131.131,0,0,0-.137-.006l-2.649,1.3c-.029.017-.051.149-.063.183L56.629,86.673a.174.174,0,0,1-.051.074l-8.541,5.721a.118.118,0,0,0-.057.1,9.49,9.49,0,0,0,.435,3.993A15.7,15.7,0,0,0,49.832,98.8Zm6.2-3.77a.812.812,0,0,1-.029-.126c-.011-.046-.017-.1-.029-.149l.04-.057C56.022,94.8,56.028,94.917,56.034,95.025Zm-1.184.051c-.023-.011-.046,0-.074.057a.5.5,0,0,0-.034.057c.023-.074.046-.149.074-.223.011.006.017.011.029.017v.029C54.844,95.025,54.849,95.048,54.849,95.077Z" transform="translate(-47.937 -74.831)"/></g><path class="h" d="M67.569,71.95c1.121-.343,4.663.086,4.663.086a10.845,10.845,0,0,1,3.49.881c1.6.481,4.634,2.54,5.32,4.64l-5.784-1.379L73.7,75.486v1.379l-1.293.606v-.944a.036.036,0,0,0-.069-.011l-.275,1.035L71.2,77.38s-.086-1.47-.692-1.121V75.051a.046.046,0,0,0-.086-.023l-.435.8s-.086-1.121-.778-1.379-1.642.521-1.642.521l-1.379-2.42A4.122,4.122,0,0,1,67.569,71.95Z" transform="translate(-49.262 -66.151)"/><g transform="translate(0 1.006)"><path class="j" d="M38,75.931c.006-.011.143-1.1.137-1.11-.074-.463-.435-1.11-.195-1.751.257-.692.429-1.545.818-2.626.412-1.133,1.133-2.128,1.728-1.985s.767-3.038,1.985-3.885c1.161-.807,3.393-.532,4.142-.692a2.293,2.293,0,0,1,2.071.086c.772.515,2.569,2.054,2.843,3.347.006.011.017.017.023.029a4.158,4.158,0,0,1,1.968,1.716,21.647,21.647,0,0,0,1.373,2.4c.011.006.017.011.029.017a2.885,2.885,0,0,1,1.7.687,2.152,2.152,0,0,1,.509,1.093.04.04,0,0,1-.069.034l-.446-.446a.042.042,0,0,0-.069.046l.458.984a.042.042,0,0,1-.051.057l-.761-.32a.043.043,0,0,0-.046.069l.812.881a.041.041,0,0,1-.04.069l-.984-.263a.041.041,0,0,0-.04.069,3.034,3.034,0,0,1,.641,1.179l.3.892a.043.043,0,0,1-.069.046l-1-.87c-.029-.029-.074.011-.051.046a4.774,4.774,0,0,1,.652,1.527l.074.595a.04.04,0,0,1-.063.04c-.154-.12-.509-.395-.784-.641a.033.033,0,0,0-.051.04,3.014,3.014,0,0,1,.412,1.682.042.042,0,0,1-.074.017l-.572-.761a.042.042,0,0,0-.074.034,4.075,4.075,0,0,1,.206,1.568.04.04,0,0,1-.074.017c-.1-.143-.3-.452-.452-.675a.041.041,0,0,0-.074.034,3.038,3.038,0,0,1,.166,1.333.042.042,0,0,1-.074.017l-.549-.618a.044.044,0,0,0-.074.034,6.96,6.96,0,0,1,0,1.8.04.04,0,0,1-.063.023c-.149-.114-.606-.452-.841-.629a.042.042,0,0,0-.063.051,2.027,2.027,0,0,1,.2,1.322.042.042,0,0,1-.074.011l-.807-1.024a.041.041,0,0,0-.074.029,4.584,4.584,0,0,1-.063,1.894.042.042,0,0,1-.08-.006l-.229-.8a.041.041,0,0,0-.08.011A5.812,5.812,0,0,1,51.766,85a.044.044,0,0,1-.08-.017c-.029-.32-.1-1.19-.143-1.619a.041.041,0,0,0-.08-.006l-.366,1.47v.029a4.294,4.294,0,0,1,.338,1.888l-.063.7a.041.041,0,0,1-.08.006l-.418-1.665c-.011-.034-.063-.034-.069,0-.051.372-.189,1.27-.32,2.071-.12.727-.286.944-.372,1.007a.041.041,0,0,1-.063-.029L49.93,87.5a.04.04,0,0,0-.08,0c-.051.589-.137,1.179-.143,1.825a1.168,1.168,0,0,1-.412,1c0-.006-.235-.1-.235-.109l-.08-1.35a.035.035,0,0,0-.069,0,8.463,8.463,0,0,1-.355,1.911.043.043,0,0,1-.08,0L48.059,89.4a.041.041,0,0,0-.08.017,7.563,7.563,0,0,1,.051,2.14.043.043,0,0,1-.08.006l-.961-2.237a.034.034,0,0,0-.063,0,3.368,3.368,0,0,0-.206,1.745.041.041,0,0,1-.069.04c-.309-.3-1.058-1.093-.99-1.779.006-.034.006-.063.011-.092a4.71,4.71,0,0,0-.212,1.3.04.04,0,0,1-.074.023,4.8,4.8,0,0,1-.669-1.665v-.475a.041.041,0,0,0-.074-.023c-.189.275-.669,1.03-.532,1.447l.172.521a2.345,2.345,0,0,1-.606-1.728c.086-1.03,0-.441,0-.429h0c0,.011-.343,1.413-.515,1.35a15,15,0,0,1-.429-2.1c0-.006-.011-.006-.011,0l-.212.664a1.031,1.031,0,0,0-.046.223,8.68,8.68,0,0,1-.092.892c-.229-.332-.646-1.728-.938-2.237a5.367,5.367,0,0,1-.378-.8.042.042,0,0,0-.08.006,2.206,2.206,0,0,0,.029,1.041l-.481-1.041a.04.04,0,0,0-.074,0l-.252.566a.042.042,0,0,1-.08-.011l-.126-.852-.086-.589a.043.043,0,0,0-.08-.011l-.3.732a.042.042,0,0,1-.08-.011l-.074-1.533a.021.021,0,0,0-.006-.017l-.423-.915a.042.042,0,0,0-.08.017l.051.927a.04.04,0,0,1-.08.011l-.412-1.579a.02.02,0,0,0-.006-.011l-.372-.521a.034.034,0,0,0-.063.017A3.919,3.919,0,0,0,38,83.1a.042.042,0,0,1-.08.023,5.476,5.476,0,0,1-.452-1.7.041.041,0,0,0-.074-.023l-.3.412c-.017.029-.063.011-.063-.023a7.86,7.86,0,0,1,.223-1.968.032.032,0,0,0-.046-.04c-.183.086-.606.332-.606.744,0,0,.08-1.407.492-1.791.006-.006,0-.011-.006-.011l-.412.16c-.029.023-.074-.04-.063-.074l.709-1.665a.034.034,0,0,0-.057-.034l-.423.189A8.349,8.349,0,0,0,38,75.931Z" transform="translate(-36.6 -63.671)"/><path class="k" d="M52.18,111.08l.074.12A.327.327,0,0,1,52.18,111.08Z" transform="translate(-43.267 -83.958)"/><path class="k" d="M39.3,98.57c.006.006.006.017.011.023S39.311,98.581,39.3,98.57Z" transform="translate(-37.755 -78.605)"/><path class="k" d="M39.24,98.44a.739.739,0,0,1,.034.069A.381.381,0,0,1,39.24,98.44Z" transform="translate(-37.73 -78.549)"/></g><path class="l" d="M53.562,78.359a2.838,2.838,0,0,1,1.945,2.071c.389,1.682-1.362,3.947-4.211,6.213a13.9,13.9,0,0,0-4.016,5.441s-2.849-4.405-4.274-5.441-4.142-5.7-1.876-7.317a7.1,7.1,0,0,1,5.309-.841l7.38-.195Z" transform="translate(-38.167 -68.92)"/><path class="h" d="M52.622,75.041s2.454-.418,1.979,1.087c-.452,1.425-3.3.715-3.3.715a3.637,3.637,0,0,1-1.384.687c-.624.086-4.954-.195-4.954-.195s-2.214.606-2.471-.492-1.751-.973-1.425-1.876a1.1,1.1,0,0,1,2.008-.063c.326.841,2.134.389,2.134.389l3.827-.023Z" transform="translate(-38.491 -67.205)"/><path class="f" d="M54.02,72.73a3.439,3.439,0,0,1,1.945.584c.452.389.584.624.257,1.184s-.9,1.47-1.814,1.276-1.619-1.619-1.619-1.619S53.505,72.73,54.02,72.73Z" transform="translate(-43.528 -66.541)"/><path class="f" d="M49.035,73.919s-.709-1.556-1.23-1.425a2.453,2.453,0,0,0-1.362.646A2.839,2.839,0,0,0,45.98,74.2s.143,1.081.789,1.207a1.921,1.921,0,0,0,1.876-.584A2.683,2.683,0,0,0,49.035,73.919Z" transform="translate(-40.614 -66.437)"/><path class="m" d="M56.66,74.857c-.1,0-.646-.063-.646-.063a1.129,1.129,0,0,0-.875-.389.677.677,0,0,0-.584.486s-.521.1-.486.257.549.16.549.16.063.584.584.584.875-.681.875-.681Z" transform="translate(-44.074 -67.256)"/><path class="m" d="M48.12,75.115c0,.16-.389.229-.389.229s-.1.521-.549.486-.584-.584-.584-.584l-.618-.229.709-.229a.641.641,0,0,1,.549-.389c.389,0,.486.521.486.521Z" transform="translate(-40.614 -67.256)"/><path class="m" d="M48.123,80.177s-.074-.206,1.5-.538a14.073,14.073,0,0,1,3.227-.074h.017a.406.406,0,0,1,.3.709c-.406.355-1.076.938-1.339,1.116-.389.257-1.293,1.362-2.071,1.293a1.87,1.87,0,0,1-1.693-.95c-.744-.9-1.035-1.264-1.327-1.327s-.16-1.035.618-.841S48.123,80.177,48.123,80.177Z" transform="translate(-40.875 -69.434)"/><path class="n" d="M52.086,82.086a.376.376,0,0,1,.532.452.674.674,0,0,1-.549.509c-.778.132-1.751.195-1.911-.521,0-.006-.006-.011-.006-.023a.374.374,0,0,1,.572-.395,1.313,1.313,0,0,0,.543.235A1.819,1.819,0,0,0,52.086,82.086Z" transform="translate(-42.395 -70.525)"/><path class="i" d="M48.483,73.649s1.024.452,1.253-.109c.235-.578.246-1.573,1.888-1.058s1.293,1.47,1.293,1.47l1.436-.126a.1.1,0,0,0,.017-.195l-1.018-.286A4.786,4.786,0,0,0,51.2,71.532c-1.207-.343-1.47.835-1.985.864-.818.046-1.207-1.035-1.9-.95s-.778.606-1.379.95c-.32.183-.618.366-.824.5a.093.093,0,0,0,.057.172l.669.046s.612-.973,1.476-.8S48.483,73.649,48.483,73.649Z" transform="translate(-40.222 -65.99)"/><g transform="translate(29.789 14.433)"><path class="i" d="M88.67,87.14Z" transform="translate(-88.67 -87.14)"/></g><g transform="translate(23.549 11.292)"><path class="i" d="M77.784,81.719c-.029,0-.029-.069,0-.069s.029.069,0,.069Z" transform="translate(-77.762 -81.65)"/></g><path class="o" d="M50.332,74.919a1.155,1.155,0,0,1,.973.486,5.947,5.947,0,0,0,.744,1.264c.355.326,1,.257.807,1.133-.154.692-1.264.841-2.071.486s-.807-.257-.807-.257a2.258,2.258,0,0,1-1.293.195c-.778-.1-.938-.709-.646-1.167s1.07-.744,1.23-1.1S49.394,74.885,50.332,74.919Z" transform="translate(-41.436 -67.477)"/><path class="m" d="M50.985,77.19c.521-.006.933.257.852.646s-.595.366-.7.526-.069.195-.332.217-.28-.269-.475-.309-.481-.212-.5-.469S50.178,77.2,50.985,77.19Z" transform="translate(-42.26 -68.45)"/><g transform="translate(10.977 7.617)"><path class="h" d="M56.041,75.583c-.063.023-.1.046-.166.017a.222.222,0,0,1,.011-.36.189.189,0,0,1,.166.017c.114.04.1.286-.011.326Z" transform="translate(-55.788 -75.227)"/></g><g transform="translate(6.413 7.681)"><path class="h" d="M47.976,75.66c-.023,0-.046.006-.063.006-.074.011-.1-.114-.1-.166s.034-.172.114-.16c.023,0,.046.006.063.006.137.017.126.3-.011.315Z" transform="translate(-47.81 -75.339)"/></g><g transform="translate(5.455 9.964)"><path class="h" d="M46.784,79.41a1.041,1.041,0,0,0-.378.395,1.481,1.481,0,0,0-.074.5c-.006.046-.057.1-.1.057-.166-.154-.08-.5.006-.669a.583.583,0,0,1,.538-.36c.034.006.034.069.011.08Z" transform="translate(-46.135 -79.33)"/></g><g transform="translate(11.926 9.827)"><path class="h" d="M57.906,80.2c.063-.217.189-.406.034-.624-.12-.172-.32-.166-.469-.286a.106.106,0,0,1,.006-.143c.263-.2.606.172.681.412.057.183.034.658-.229.687-.023,0-.029-.034-.023-.046Z" transform="translate(-57.446 -79.09)"/></g><g transform="translate(9.846 13.243)"><path class="h" d="M53.81,85.066V85.06c.006,0,.006.006,0,.006Z" transform="translate(-53.81 -85.06)"/></g><path class="i" d="M82.489,109.238a3.134,3.134,0,0,0,1.894,1.974,1.992,1.992,0,0,1,1.31,1.127,14.444,14.444,0,0,1,.338,2.946,1.35,1.35,0,0,1-.011.692c-.023.057-.1.069-.137.114a.584.584,0,0,0-.28.584c.069.452.235.612.492.481a1,1,0,0,1,.532-1.167c.08-.029.074.12.04.154-.217.229-.532.675-.349,1.007.172.315.589.023.87.046a1.053,1.053,0,0,1,.486-1.482c.034-.011.029.046.017.063-.235.252-.755.95-.2,1.253a.635.635,0,0,0,.566-.029c.32-.166.847-.778.8-1.15-.04-.3-.235-.6-.286-.91a3.183,3.183,0,0,1-.011-.961c.006-.046.057-.046.063,0a5.516,5.516,0,0,0,.343,1.487,1.159,1.159,0,0,1,.189.681c-.057.263-.315.463-.481.658-.206.235-.366.532-.658.624a.691.691,0,0,1-.7-.1c-.149.229-.526.263-.784.252a.363.363,0,0,1-.338-.194c-.509.412-.8-.389-.778-.807a1.326,1.326,0,0,1,.24-.692c.338-.521.109-1.293.046-1.9-.063-.629,0-1.55-.509-2.008a5.78,5.78,0,0,0-1.327-.669,2.492,2.492,0,0,1-1.425-2.037C82.42,109.238,82.466,109.169,82.489,109.238Z" transform="translate(-56.212 -82.151)"/><path class="i" d="M61.582,119.674c.069-.023.057.1.034.126a.59.59,0,0,0,.04.852,1.178,1.178,0,0,0,.738.229.947.947,0,0,1-.109-.229,1.159,1.159,0,0,1,.378-1.3c.051-.04.063.063.046.092-.189.3-.492,1.367.257,1.333a.952.952,0,0,0,.3-.154,2.836,2.836,0,0,0,.938-.7c.5-.652.3-1.659.5-2.437a.026.026,0,1,1,.051,0c.023.149.04.309.051.475.309-.235.257-.738.143-1.179a.108.108,0,0,1-.029-.1c-.051-.172-.1-.326-.149-.446-.011-.034.029-.126.057-.069.057.114.12.235.177.36a.671.671,0,0,0,.114-.395,1.63,1.63,0,0,0-.023-.229.077.077,0,0,1-.011-.051,2.431,2.431,0,0,0-.183-.521c-.017-.034.017-.137.051-.074a3.236,3.236,0,0,1,.235.429,1.052,1.052,0,0,0,.149-.664,6.189,6.189,0,0,1,.006-1.03c.006-.023.034-.034.04-.006.051.183.349,1.836-.12,1.951a1.112,1.112,0,0,1,.029.315c-.006.149-.051.423-.195.515a1.745,1.745,0,0,1,.137.87c-.029.223-.166.652-.423.635a3.969,3.969,0,0,1-.177,1.465A2.455,2.455,0,0,1,63.4,120.95a.9.9,0,0,1-.755.143c-.006.006-.011.006-.017.011a1.092,1.092,0,0,1-1.293-.475C61.175,120.315,61.181,119.806,61.582,119.674Z" transform="translate(-47.142 -84.188)"/><g transform="translate(13.643 33.881)"><path class="i" d="M61.284,124.056c-.7.1-.83-.772-.824-1.276a2.219,2.219,0,0,1,.086-.99c.143-.257.486-.326.595-.606.034-.086.114-.046.126.029.04.275-.1.366-.275.549-.5.515-.509,1.882.309,2.105.086.017.057.177-.017.189Z" transform="translate(-60.447 -121.135)"/></g><g transform="translate(26.191 12.034)"><path class="i" d="M82.409,82.949a5.559,5.559,0,0,1,4.016,4.388c.006.04-.046.109-.069.04A6.367,6.367,0,0,0,82.4,83.012c-.029-.011-.017-.074.011-.063Z" transform="translate(-82.381 -82.948)"/></g><g transform="translate(33.798 18.857)"><path class="i" d="M97.436,94.969a1.917,1.917,0,0,1-1.711.875c-.057-.006-.063-.172-.011-.189a7.545,7.545,0,0,0,.933-.269,5.3,5.3,0,0,0,.772-.509c.034-.023.029.074.017.092Z" transform="translate(-95.678 -94.874)"/></g><g transform="translate(33.369 13.977)"><path class="i" d="M96.051,86.41a3.333,3.333,0,0,1-1.064,2c-.051.04-.074-.069-.046-.1a5.528,5.528,0,0,0,1.047-1.934c.017-.063.074-.023.063.034Z" transform="translate(-94.928 -86.344)"/></g><g transform="translate(19.7 26.005)"><path class="i" d="M85.449,112.879a.607.607,0,0,0-.069-.069C85.449,112.782,85.483,112.8,85.449,112.879Z" transform="translate(-77.173 -109.692)"/><path class="i" d="M72.6,107.421c1.121-.3,4.943.812,4.943.812l.532,1.259H78.1a7.049,7.049,0,0,1,1.144,1,3.306,3.306,0,0,0-1.121,1.55c-.28.835-.5,2.963-1.007,3.484s-2.357.183-2.357.183-.5-.086-.646-.864.3-.784.818-1.293a1.907,1.907,0,0,0,.24-1.287l-.435-1.121a17.6,17.6,0,0,1-2.048-1.522c-.692-.646-1.253-.973-1.573-.789S71.478,107.724,72.6,107.421Z" transform="translate(-71.034 -107.369)"/></g><path class="f" d="M55.007,82.365a7.8,7.8,0,0,1-1.974,1.814,2.471,2.471,0,0,1-1.293.195,1.458,1.458,0,0,0,1.39.326,1.773,1.773,0,0,0,1.156-.8.729.729,0,0,1,.343.475V84.8a2.344,2.344,0,0,0,.046-1.035.5.5,0,0,1,.389.343.973.973,0,0,0,.172.389,1.543,1.543,0,0,0,.046-.818l-.132-.257a.371.371,0,0,1,.429.172l.132.257a1.221,1.221,0,0,0-.257-.778,1.085,1.085,0,0,0,.692-.864.724.724,0,0,1,.778-.646S55.991,81,55.007,82.365Z" transform="translate(-43.078 -70.273)"/><g transform="translate(13.427 10.412)"><path class="f" d="M60.087,80.357a1.367,1.367,0,0,1,2.105,1.224c-.011.074-.1.1-.12.023a1.646,1.646,0,0,0-.658-1.076,1.745,1.745,0,0,0-1.3-.086c-.046.011-.051-.063-.023-.086Z" transform="translate(-60.069 -80.112)"/></g><g transform="translate(4.701 10.865)"><path class="f" d="M47.3,83.636c-.28-.286-.578-.549-.875-.818a4.56,4.56,0,0,0-1-.6,1.086,1.086,0,0,1-.584-1.156c.029-.109.16-.24.24-.092.109.195.132.418.257.6a3.029,3.029,0,0,0,.755.618,10.01,10.01,0,0,1,1.219,1.425c.006.006,0,.029-.011.023Z" transform="translate(-44.817 -80.904)"/></g><g transform="translate(14.514 3.676)"><path class="f" d="M65.849,73.505a1.92,1.92,0,0,1-1.047-.933,17.776,17.776,0,0,0-.715-1.733c-.606-.875-2.014-1.15-2.117-2.351,0-.029.023-.206.074-.132.618.864,1.751,1.116,2.306,2.048a9.5,9.5,0,0,1,.543,1.527,5.8,5.8,0,0,0,.961,1.55c0,.006.006.029-.006.023Z" transform="translate(-61.97 -68.338)"/></g><g transform="translate(3.804 3.03)"><path class="f" d="M45.057,72.272a.788.788,0,0,1-1.121-.475c-.074-.166-.109-.355-.189-.515-.1-.206-.263-.338-.378-.532a.845.845,0,0,1-.12-.486c.023-.692.584-1.2.744-1.836.08-.32.051-1.133.475-1.219.046-.011.029.109.023.126a13.61,13.61,0,0,1-.749,2.18,1.23,1.23,0,0,0-.092,1.253c.063.137.16.257.217.4a2.573,2.573,0,0,0,.3.732,1.091,1.091,0,0,0,.887.286c.023.006.017.08,0,.086Z" transform="translate(-43.249 -67.209)"/></g><g transform="translate(4.61 2.471)"><path class="f" d="M44.67,66.946c.195-.212-.006-.36,0-.6,0-.034.017-.1.057-.109.08-.023.132.046.166.109a.432.432,0,0,1,.046.137.628.628,0,0,1-.006.154.667.667,0,0,1-.057.229.814.814,0,0,1-.172.172c-.051.04-.057-.063-.034-.092Z" transform="translate(-44.658 -66.232)"/></g><path class="p" d="M49.489,119.5c.195-.549.755-.7.984-1.23a2.654,2.654,0,0,0-.355-2.552c-.006-.006,0-.017.006-.011a2.489,2.489,0,0,1,.578,2.277,1.782,1.782,0,0,1-.458.892c-.3.275-.692.492-.715.967s.332.481.721.463c0-.006-.006-.017-.006-.023a1.555,1.555,0,0,1,.492-1.3c.029-.023.029.034.023.046a2.7,2.7,0,0,0-.269.566,1.3,1.3,0,0,0-.1.584c.063.217.727.1.99.154a2.238,2.238,0,0,1,.292-1.362c.023-.04.046.023.04.046a2.438,2.438,0,0,0-.195,1.035c.074.389.212.315.492.275.772-.1,1.093-.5,1.287-1.287a20.041,20.041,0,0,0,.841-2.649c0-.029.029-.029.029,0a4.065,4.065,0,0,1-.252,1.356c-.217.618-.378,1.259-.589,1.876-.28.824-1.058.955-1.842.984-.046,0-.069-.057-.074-.092a.257.257,0,0,1-.006-.063,1.613,1.613,0,0,1-.944.063.207.207,0,0,1-.16-.1c-.223.04-.738.149-.892-.051S49.426,119.685,49.489,119.5Z" transform="translate(-42.052 -84.931)"/><path class="p" d="M76.359,116.843a.83.83,0,0,1,.395-.692,1.587,1.587,0,0,0,.595-.921c.04-.16.092-.315.143-.469a1.9,1.9,0,0,1-.572-1.539c.006-.034.046-.069.069-.029a3.932,3.932,0,0,1,.235.721c.092.246.206.486.309.727.011-.029.017-.051.029-.08s.051-.011.051.023a3.215,3.215,0,0,1-.315,1.482,2.7,2.7,0,0,1-.263.3c-.217.263-.515.589-.395.938a1.2,1.2,0,0,0,.538.664,1.083,1.083,0,0,1,.029-1.087c.051-.057.1.006.1.063-.011.32-.183.8.212.95a1.514,1.514,0,0,0,.532.069h.034c-.011-.04-.023-.08-.034-.126a1.162,1.162,0,0,1,.229-1.1c.034-.034.046.046.04.063-.143.389-.257,1.047.286,1.116a.831.831,0,0,0,.984-.624c.143-.515.292-1.024.452-1.533a6.557,6.557,0,0,1,.183-.961A3.389,3.389,0,0,1,81.36,113c.011-.011.011.034.006.046a7.3,7.3,0,0,0-1.384,3.633c-.057.355-.16,1.35-.641,1.407a1.372,1.372,0,0,1-.469.132c-.3.04-.515.074-.652-.029a.65.65,0,0,1-.423.057,1,1,0,0,1-.492-.137C76.64,118.439,76.342,117.329,76.359,116.843Z" transform="translate(-53.613 -83.772)"/><g transform="translate(21.242 9.017)"><path class="i" d="M79.125,78.219c-.006-.017.011-.1.029-.057a2.01,2.01,0,0,1-.057,1.682c-.011.029-.023-.023-.017-.034A2.562,2.562,0,0,0,79.125,78.219Z" transform="translate(-76.018 -77.877)"/><path class="i" d="M74.758,78.07c.011-.034.034.006.029.029a3.625,3.625,0,0,0-.114,1.688c.172-.5.441-1,.612-1.442.011-.023.029.006.023.017-.195.606-.4,1.207-.561,1.819.034.149.074.3.12.452.011.04-.034.137-.063.074a2.949,2.949,0,0,1-.12-.28c-.029.114-.051.229-.08.349-.011.069-.092.074-.1,0a2.217,2.217,0,0,1,.074-.692A3.723,3.723,0,0,1,74.758,78.07Z" transform="translate(-74.06 -77.837)"/><path class="i" d="M75,78c.006,0,.006.011,0,.011S74.991,78,75,78Z" transform="translate(-74.27 -77.813)"/><path class="i" d="M74.119,77.683c.006-.023.034,0,.029.017-.166.635-.212,1.27-.338,1.911-.011.069-.08.04-.08-.017A6.28,6.28,0,0,1,74.119,77.683Z" transform="translate(-73.73 -77.673)"/><path class="i" d="M75.95,79.594c-.206.624-.28,1.3-.5,1.911-.029.08-.109.017-.1-.046a7.57,7.57,0,0,1,.589-1.882C75.944,79.566,75.956,79.583,75.95,79.594Z" transform="translate(-74.422 -78.486)"/><path class="i" d="M77.964,77.845a5.946,5.946,0,0,1,.24,1.31,1.629,1.629,0,0,1-.109.938c-.034.051-.063-.023-.057-.051a5.771,5.771,0,0,0-.12-2.168C77.907,77.845,77.947,77.8,77.964,77.845Z" transform="translate(-75.521 -77.739)"/></g><path class="f" d="M57.71,63.078a1.006,1.006,0,0,1,.114-.069c.286-.28.841-.252,1.436-.011.864.343,1.556.606,1.814,1.728.154.681-.172,2.157-.606,2.243s-.778-1.47-1.728-1.9a2.75,2.75,0,0,1-.955-.887.653.653,0,0,1-.309-.446A.716.716,0,0,1,57.71,63.078Z" transform="translate(-45.53 -62.296)"/><g transform="translate(12.795 1.065)"><path class="h" d="M59.271,63.829c.429-.235,1.041.343,1.281.652a2.414,2.414,0,0,1,.486,1.556c-.006.132-.069.326-.229.332-.355.011-.595-.429-.8-.675-.309-.372-.618-.744-.938-1.1a.454.454,0,0,1,.074-.669c.812-.372,1.487.646,1.482,1.35,0,.143-.126.372-.286.24-.383-.309-.423-1.013-1.081-.881.04-.2.08-.406.12-.606.235.3.481.595.721.892.126.154.509.784.727.784l-.229.332a1.735,1.735,0,0,0-.469-1.264c-.263-.286-.664-.418-.9-.715a.152.152,0,0,1,.034-.223Z" transform="translate(-58.965 -63.775)"/></g></g></g></g></svg>