<svg xmlns="http://www.w3.org/2000/svg" width="128" height="80" viewBox="0 0 128 80"><defs><style>.a,.n{fill:#fff;}.a{opacity:0;}.b{fill:#6fa67e;}.c{fill:#e54d25;}.d{fill:#e06226;}.e{fill:#e55325;}.f{fill:#ed6d23;}.g{fill:#006a5d;}.h{fill:#027a6c;}.i{fill:#bcbf32;}.j{fill:#9d9d36;}.k{fill:#c0ca33;}.l{fill:#f78f1e;}.m{fill:#f9a924;}</style></defs><g transform="translate(-16 -16)"><path class="a" d="M0,0H128V80H0Z" transform="translate(16 16)"/><g transform="translate(25.276 -9.15)"><g transform="translate(19.65 47.658)"><g transform="translate(7.076 31.319)"><path class="b" d="M61.935,100.639l-.045,14.592c-12.4.993-23.855-.888-32.76-5.389l.045-14.592C38.087,99.751,49.544,101.632,61.935,100.639Z" transform="translate(-29.13 -95.25)"/></g><ellipse class="b" cx="35.074" cy="20.676" rx="35.074" ry="20.676"/></g><g transform="translate(21.501 31.082)"><g transform="translate(0)"><g transform="translate(33.141 5.686)"><path class="c" d="M89.93,38.7l-.037,14.592L66.53,66.87l.045-14.592Z" transform="translate(-66.53 -38.7)"/></g><g transform="translate(18.004 2.156)"><path class="c" d="M61.432,51.078,61.387,65.67,46.25,48.562l.037-14.592Z" transform="translate(-46.25 -33.97)"/></g><g transform="translate(18.041)"><path class="c" d="M84.8,36.768,61.445,50.345,46.3,33.238C59.325,29.386,74.417,30.774,84.8,36.768Z" transform="translate(-46.3 -31.082)"/></g><g transform="translate(9.786 19.264)"><path class="d" d="M58.64,56.89,58.6,71.482,35.24,85.06l.045-14.592Z" transform="translate(-35.24 -56.89)"/></g><g transform="translate(0 19.167)"><path class="e" d="M22.13,71.352q.022-7.3.045-14.592c-.015,4.941,3.247,9.9,9.785,13.667l-.045,14.592C25.384,81.25,22.115,76.3,22.13,71.352Z" transform="translate(-22.13 -56.76)"/></g><g transform="translate(0.046 2.156)"><path class="f" d="M40.186,33.97,55.331,51.078,31.976,64.655C18.988,57.161,18.921,45,31.826,37.508A35.937,35.937,0,0,1,40.186,33.97Z" transform="translate(-22.191 -33.97)"/></g><g transform="translate(62.721 19.249)"><path class="g" d="M109.877,56.87q-.022,7.3-.045,14.592A13.353,13.353,0,0,1,106.16,80.2L106.2,65.6A13.353,13.353,0,0,0,109.877,56.87Z" transform="translate(-106.16 -56.87)"/></g><g transform="translate(33.186 5.686)"><path class="h" d="M89.945,38.7c10.39,6,12.823,14.734,6.225,22.288L66.59,52.277Z" transform="translate(-66.59 -38.7)"/></g><g transform="translate(33.141 19.264)"><path class="h" d="M96.155,65.608,96.11,80.2,66.53,71.482l.045-14.592Z" transform="translate(-66.53 -56.89)"/></g><g transform="translate(33.141 19.264)"><path class="i" d="M71.867,75.849l-.045,14.592L66.53,71.482l.045-14.592Z" transform="translate(-66.53 -56.89)"/></g><g transform="translate(38.433 27.982)"><path class="j" d="M97.953,68.57l-.045,14.592C92.952,88.828,84.465,92.41,73.62,93.411l.045-14.592C84.51,77.818,93,74.235,97.953,68.57Z" transform="translate(-73.62 -68.57)"/></g><g transform="translate(33.186 19.271)"><path class="k" d="M96.17,65.611c-4.956,5.665-13.443,9.248-24.288,10.248L66.59,56.9Z" transform="translate(-66.59 -56.9)"/></g><g transform="translate(6.442 44.716)"><path class="l" d="M59.452,96.379l-.045,14.592c-10.838.993-20.862-.888-28.647-5.389L30.8,90.99C38.6,95.491,48.614,97.372,59.452,96.379Z" transform="translate(-30.76 -90.99)"/></g><g transform="translate(6.479 31.139)"><path class="m" d="M54.173,72.8l5.292,18.959c-10.845.993-20.862-.888-28.655-5.389Z" transform="translate(-30.81 -72.8)"/></g></g><g transform="translate(40.687 26.593)"><path class="n" d="M78.573,71.191H77.73V68.019a2.894,2.894,0,0,1-1.09.634v-.761a2.583,2.583,0,0,0,.717-.411,1.586,1.586,0,0,0,.53-.7h.679v4.411Z" transform="translate(-76.64 -66.728)"/><path class="n" d="M82.336,66.79a1.207,1.207,0,0,1,1,.455,3.938,3.938,0,0,1-.007,3.575,1.2,1.2,0,0,1-.993.448,1.252,1.252,0,0,1-1.03-.493,3.986,3.986,0,0,1,.037-3.538A1.2,1.2,0,0,1,82.336,66.79Zm0,.694a.385.385,0,0,0-.269.1.645.645,0,0,0-.187.351,4.646,4.646,0,0,0-.09,1.1,4.8,4.8,0,0,0,.075,1.06.807.807,0,0,0,.194.388.411.411,0,0,0,.269.1.417.417,0,0,0,.276-.1.645.645,0,0,0,.187-.351,4.646,4.646,0,0,0,.09-1.1,4.8,4.8,0,0,0-.075-1.06.807.807,0,0,0-.194-.388A.46.46,0,0,0,82.336,67.484Z" transform="translate(-77.723 -66.73)"/><path class="n" d="M85.49,67.867a1.259,1.259,0,0,1,.261-.873.905.905,0,0,1,.7-.284.927.927,0,0,1,.717.284,1.59,1.59,0,0,1,0,1.747.916.916,0,0,1-.7.284.927.927,0,0,1-.717-.284A1.246,1.246,0,0,1,85.49,67.867Zm.657,0a1.126,1.126,0,0,0,.1.575.234.234,0,0,0,.209.1.251.251,0,0,0,.209-.1,1.751,1.751,0,0,0,0-1.149.24.24,0,0,0-.209-.112.251.251,0,0,0-.209.1A1.251,1.251,0,0,0,86.147,67.867Zm.948,3.478h-.627L88.8,66.71h.6Zm1.358-1.157a1.259,1.259,0,0,1,.261-.873,1.028,1.028,0,0,1,1.418,0,1.259,1.259,0,0,1,.261.873,1.293,1.293,0,0,1-.261.881.905.905,0,0,1-.7.284.927.927,0,0,1-.717-.284A1.293,1.293,0,0,1,88.453,70.188Zm.657,0a1.126,1.126,0,0,0,.1.575.24.24,0,0,0,.209.112.251.251,0,0,0,.209-.1,1.751,1.751,0,0,0,0-1.149.234.234,0,0,0-.209-.1.251.251,0,0,0-.209.1A1.075,1.075,0,0,0,89.11,70.188Z" transform="translate(-78.884 -66.71)"/></g><g transform="translate(17.653 40.969)"><path class="n" d="M47.713,90.451H46.87V87.279a2.894,2.894,0,0,1-1.09.634v-.761a2.583,2.583,0,0,0,.717-.411,1.586,1.586,0,0,0,.53-.7h.679v4.411Z" transform="translate(-45.78 -85.988)"/><path class="n" d="M50.07,89.352l.836-.09a.722.722,0,0,0,.209.448.582.582,0,0,0,.858-.052.983.983,0,0,0,.179-.642.886.886,0,0,0-.179-.6.6.6,0,0,0-.47-.2.855.855,0,0,0-.649.321l-.679-.1.433-2.284h2.224v.784h-1.59l-.134.746a1.234,1.234,0,0,1,.575-.142,1.25,1.25,0,0,1,.948.411,1.461,1.461,0,0,1,.388,1.06,1.6,1.6,0,0,1-.313.97,1.386,1.386,0,0,1-1.187.582,1.487,1.487,0,0,1-.993-.328A1.387,1.387,0,0,1,50.07,89.352Z" transform="translate(-46.868 -86.016)"/><path class="n" d="M54.63,87.127a1.259,1.259,0,0,1,.261-.873.905.905,0,0,1,.7-.284.927.927,0,0,1,.717.284,1.59,1.59,0,0,1,0,1.747.905.905,0,0,1-.7.284A.927.927,0,0,1,54.891,88,1.259,1.259,0,0,1,54.63,87.127Zm.657,0a1.126,1.126,0,0,0,.1.575.234.234,0,0,0,.209.1.251.251,0,0,0,.209-.1,1.751,1.751,0,0,0,0-1.149.24.24,0,0,0-.209-.112.251.251,0,0,0-.209.1A1.16,1.16,0,0,0,55.287,87.127Zm.948,3.478h-.62l2.336-4.628h.6Zm1.358-1.157a1.259,1.259,0,0,1,.261-.873,1.028,1.028,0,0,1,1.418,0,1.259,1.259,0,0,1,.261.873,1.293,1.293,0,0,1-.261.881.905.905,0,0,1-.7.284.927.927,0,0,1-.717-.284A1.256,1.256,0,0,1,57.593,89.448Zm.657,0a1.126,1.126,0,0,0,.1.575.24.24,0,0,0,.209.112.251.251,0,0,0,.209-.1,1.751,1.751,0,0,0,0-1.149.234.234,0,0,0-.209-.1.251.251,0,0,0-.209.1A1.075,1.075,0,0,0,58.25,89.448Z" transform="translate(-48.024 -85.97)"/></g><g transform="translate(29.177 5.88)"><path class="n" d="M64.168,42.66v.784H61.22a1.966,1.966,0,0,1,.291-.843,5.743,5.743,0,0,1,.948-1.052,5.236,5.236,0,0,0,.694-.717.886.886,0,0,0,.172-.515.609.609,0,0,0-.149-.433.647.647,0,0,0-.836.007.81.81,0,0,0-.179.53l-.836-.082a1.4,1.4,0,0,1,.47-1,1.564,1.564,0,0,1,.985-.3,1.44,1.44,0,0,1,1.023.351,1.151,1.151,0,0,1,.373.873,1.626,1.626,0,0,1-.1.567,2.268,2.268,0,0,1-.336.56,6.023,6.023,0,0,1-.552.56c-.269.246-.433.4-.508.485a2.042,2.042,0,0,0-.172.231h1.664Z" transform="translate(-61.22 -38.98)"/><path class="n" d="M67.346,39.03a1.207,1.207,0,0,1,1,.455,2.913,2.913,0,0,1,.425,1.784,2.9,2.9,0,0,1-.433,1.791,1.2,1.2,0,0,1-.993.448,1.253,1.253,0,0,1-1.03-.493,2.9,2.9,0,0,1-.4-1.754,2.873,2.873,0,0,1,.433-1.784A1.2,1.2,0,0,1,67.346,39.03Zm0,.694a.417.417,0,0,0-.276.1.645.645,0,0,0-.187.351,4.645,4.645,0,0,0-.09,1.1,4.8,4.8,0,0,0,.075,1.06.807.807,0,0,0,.194.388.411.411,0,0,0,.269.1.385.385,0,0,0,.269-.1.645.645,0,0,0,.187-.351,4.645,4.645,0,0,0,.09-1.1,4.8,4.8,0,0,0-.075-1.06.807.807,0,0,0-.194-.388A.388.388,0,0,0,67.346,39.724Z" transform="translate(-62.412 -38.978)"/><path class="n" d="M70.5,40.117a1.259,1.259,0,0,1,.261-.873.905.905,0,0,1,.7-.284.927.927,0,0,1,.717.284,1.59,1.59,0,0,1,0,1.747.905.905,0,0,1-.7.284.927.927,0,0,1-.717-.284A1.272,1.272,0,0,1,70.5,40.117Zm.657-.007a1.126,1.126,0,0,0,.1.575.234.234,0,0,0,.209.1.251.251,0,0,0,.209-.1,1.751,1.751,0,0,0,0-1.149.24.24,0,0,0-.209-.112.251.251,0,0,0-.209.1A1.273,1.273,0,0,0,71.157,40.109Zm.948,3.478h-.62l2.336-4.628h.6Zm1.358-1.157a1.259,1.259,0,0,1,.261-.873,1.028,1.028,0,0,1,1.418,0,1.259,1.259,0,0,1,.261.873,1.293,1.293,0,0,1-.261.881.905.905,0,0,1-.7.284.927.927,0,0,1-.717-.284A1.28,1.28,0,0,1,73.463,42.431Zm.657,0a1.126,1.126,0,0,0,.1.575.24.24,0,0,0,.209.112.251.251,0,0,0,.209-.1,1.751,1.751,0,0,0,0-1.149.234.234,0,0,0-.209-.1.251.251,0,0,0-.209.1A1.075,1.075,0,0,0,74.12,42.431Z" transform="translate(-63.573 -38.96)"/></g><g transform="translate(46.867 14.136)"><path class="n" d="M87.868,53.718V54.5H84.92a2.058,2.058,0,0,1,.284-.843,5.744,5.744,0,0,1,.948-1.052,5.238,5.238,0,0,0,.694-.717.886.886,0,0,0,.172-.515.609.609,0,0,0-.149-.433.571.571,0,0,0-.418-.149.557.557,0,0,0-.418.157.81.81,0,0,0-.179.53l-.836-.082a1.4,1.4,0,0,1,.47-1,1.567,1.567,0,0,1,.985-.306,1.44,1.44,0,0,1,1.023.351,1.151,1.151,0,0,1,.373.873,1.625,1.625,0,0,1-.1.567,2.524,2.524,0,0,1-.336.56,6.024,6.024,0,0,1-.552.56c-.269.246-.433.4-.508.485a1.416,1.416,0,0,0-.172.231Z" transform="translate(-84.92 -50.038)"/><path class="n" d="M91.046,50.09a1.207,1.207,0,0,1,1,.455,3.938,3.938,0,0,1-.007,3.575,1.2,1.2,0,0,1-.993.448,1.252,1.252,0,0,1-1.03-.493,3.986,3.986,0,0,1,.037-3.538A1.2,1.2,0,0,1,91.046,50.09Zm0,.7a.385.385,0,0,0-.269.1.645.645,0,0,0-.187.351,4.646,4.646,0,0,0-.09,1.1,4.8,4.8,0,0,0,.075,1.06.807.807,0,0,0,.194.388.411.411,0,0,0,.269.1.385.385,0,0,0,.269-.1.645.645,0,0,0,.187-.351,4.646,4.646,0,0,0,.09-1.1,4.8,4.8,0,0,0-.075-1.06.807.807,0,0,0-.194-.388A.385.385,0,0,0,91.046,50.792Z" transform="translate(-86.112 -50.038)"/><path class="n" d="M94.21,51.177a1.259,1.259,0,0,1,.261-.873.905.905,0,0,1,.7-.284.927.927,0,0,1,.717.284,1.59,1.59,0,0,1,0,1.747.916.916,0,0,1-.7.284.927.927,0,0,1-.717-.284A1.223,1.223,0,0,1,94.21,51.177Zm.649-.007a1.126,1.126,0,0,0,.1.575.234.234,0,0,0,.209.1.251.251,0,0,0,.209-.1,1.751,1.751,0,0,0,0-1.149.24.24,0,0,0-.209-.112.251.251,0,0,0-.209.1A1.273,1.273,0,0,0,94.859,51.169Zm.948,3.478h-.62l2.336-4.628h.6ZM97.166,53.5a1.259,1.259,0,0,1,.261-.873,1.028,1.028,0,0,1,1.418,0,1.259,1.259,0,0,1,.261.873,1.293,1.293,0,0,1-.261.881.916.916,0,0,1-.7.284.927.927,0,0,1-.717-.284A1.293,1.293,0,0,1,97.166,53.5Zm.657-.007a1.126,1.126,0,0,0,.1.575.24.24,0,0,0,.209.112.251.251,0,0,0,.209-.1,1.751,1.751,0,0,0,0-1.149.234.234,0,0,0-.209-.1.251.251,0,0,0-.209.1A1.093,1.093,0,0,0,97.823,53.491Z" transform="translate(-87.276 -50.02)"/></g><g transform="translate(8.36 16.002)"><path class="n" d="M33.33,55.842l.814-.1a.768.768,0,0,0,.209.478.563.563,0,0,0,.411.164.588.588,0,0,0,.44-.194.759.759,0,0,0,.179-.53.713.713,0,0,0-.172-.5.535.535,0,0,0-.418-.187,1.7,1.7,0,0,0-.388.06l.09-.687a.741.741,0,0,0,.522-.149.531.531,0,0,0,.179-.418.456.456,0,0,0-.134-.351.467.467,0,0,0-.351-.134.507.507,0,0,0-.366.149.688.688,0,0,0-.187.44l-.776-.134a1.61,1.61,0,0,1,.246-.634,1.13,1.13,0,0,1,.455-.373,1.542,1.542,0,0,1,.657-.134,1.31,1.31,0,0,1,.993.4,1.011,1.011,0,0,1,.306.731,1.033,1.033,0,0,1-.634.926.981.981,0,0,1,.6.366,1.048,1.048,0,0,1,.224.679,1.305,1.305,0,0,1-.425.985,1.478,1.478,0,0,1-1.052.411,1.429,1.429,0,0,1-.985-.343A1.5,1.5,0,0,1,33.33,55.842Z" transform="translate(-33.33 -52.543)"/><path class="n" d="M39.356,52.6a1.207,1.207,0,0,1,1,.455,3.938,3.938,0,0,1-.007,3.575,1.2,1.2,0,0,1-.993.448,1.253,1.253,0,0,1-1.03-.493,3.986,3.986,0,0,1,.037-3.538A1.207,1.207,0,0,1,39.356,52.6Zm0,.694a.385.385,0,0,0-.269.1.645.645,0,0,0-.187.351,4.646,4.646,0,0,0-.09,1.1,4.8,4.8,0,0,0,.075,1.06.807.807,0,0,0,.194.388.411.411,0,0,0,.269.1.417.417,0,0,0,.276-.1.645.645,0,0,0,.187-.351,4.646,4.646,0,0,0,.09-1.1,4.8,4.8,0,0,0-.075-1.06.807.807,0,0,0-.194-.388A.46.46,0,0,0,39.356,53.294Z" transform="translate(-34.496 -52.54)"/><path class="n" d="M42.52,53.677a1.259,1.259,0,0,1,.261-.873.916.916,0,0,1,.7-.284.927.927,0,0,1,.717.284,1.59,1.59,0,0,1,0,1.747.916.916,0,0,1-.7.284.927.927,0,0,1-.717-.284A1.223,1.223,0,0,1,42.52,53.677Zm.649,0a1.126,1.126,0,0,0,.1.575.234.234,0,0,0,.209.1.251.251,0,0,0,.209-.1,1.751,1.751,0,0,0,0-1.149.24.24,0,0,0-.209-.112.251.251,0,0,0-.209.1A1.251,1.251,0,0,0,43.169,53.677Zm.948,3.478H43.5l2.336-4.628h.6ZM45.476,56a1.259,1.259,0,0,1,.261-.873,1.028,1.028,0,0,1,1.418,0,1.259,1.259,0,0,1,.261.873,1.293,1.293,0,0,1-.261.881.905.905,0,0,1-.7.284.927.927,0,0,1-.717-.284A1.293,1.293,0,0,1,45.476,56Zm.657,0a1.126,1.126,0,0,0,.1.575.24.24,0,0,0,.209.112.251.251,0,0,0,.209-.1,1.751,1.751,0,0,0,0-1.149.234.234,0,0,0-.209-.1.251.251,0,0,0-.209.1A1.158,1.158,0,0,0,46.133,56Z" transform="translate(-35.66 -52.52)"/></g></g></g></g></svg>