<?xml version="1.0" encoding="utf-8"?>
<!-- Generator: Adobe Illustrator 25.1.0, SVG Export Plug-In . SVG Version: 6.00 Build 0)  -->
<svg version="1.1" id="Layer_1" xmlns="http://www.w3.org/2000/svg" xmlns:xlink="http://www.w3.org/1999/xlink" width="128" height="80"
	 viewBox="0 0 133.27 133.27" style="enable-background:new 0 0 133.27 133.27;" xml:space="preserve">
<style type="text/css">
	.st0{fill:#FFF79C;}
	.st1{fill:#50B86B;}
	.st2{fill:#C9DB53;}
	.st3{fill:#008C3C;}
	.st4{fill:#05CE7C;}
	.st5{fill:#05A221;}
</style>
<g>
	<rect y="0" class="st0" width="133.27" height="133.27"/>
	<g>
		<g>
			<g>
				<path class="st1" d="M43.76,51.05h-4.84v10.12h4.84V51.05 M28.79,51.05h-2.94v10.12h2.94V51.05"/>
			</g>
			<g>
				<path class="st2" d="M43.76,29.39H38.7c-5.47,0.01-9.9,4.44-9.9,9.9v11.75h10.12V39.51h4.84V29.39 M23.95,103.88h5.06
					c5.47-0.01,9.9-4.44,9.9-9.9l0-32.79l-10.12,0l0,32.57h-4.84V103.88"/>
			</g>
			<polyline class="st3" points="38.91,51.05 28.79,51.05 28.79,61.17 38.91,61.17 38.91,51.05 			"/>
		</g>
		<g>
			<g>
				<path class="st2" d="M88.98,66.64c-2.17,2.44-5.27,3.84-8.54,3.84s-6.37-1.4-8.54-3.84c-1.87,2.09-2.9,4.79-2.89,7.59v6.37h7.67
					v-6.37c0-2.07,1.68-3.76,3.76-3.76c2.07,0,3.76,1.68,3.76,3.76v6.37h7.67v-6.37C91.88,71.43,90.85,68.72,88.98,66.64"/>
				<path class="st4" d="M91.87,52.67H84.2v6.37c0,2.07-1.68,3.76-3.76,3.76c-2.07,0-3.76-1.68-3.76-3.76v-6.37h-7.67v6.37
					c0,2.8,1.03,5.5,2.89,7.59c2.17-2.44,5.27-3.84,8.54-3.84c3.26,0,6.37,1.4,8.54,3.84c1.87-2.09,2.9-4.79,2.89-7.59L91.87,52.67"
					/>
				<path class="st5" d="M80.45,62.8c-3.26,0-6.37,1.4-8.54,3.84c2.17,2.44,5.27,3.84,8.54,3.84s6.37-1.4,8.54-3.84
					C86.82,64.19,83.71,62.8,80.45,62.8"/>
			</g>
			<g>
				<g>
					<path class="st4" d="M68.12,37.65c-4.42,0-8.58,1.72-11.71,4.85c-3.13,3.13-4.85,7.29-4.85,11.71v24.86
						c0,4.42,1.72,8.58,4.85,11.71c3.13,3.13,7.29,4.85,11.71,4.85v-8.95c-2.03,0-3.94-0.79-5.38-2.23
						c-1.44-1.44-2.23-3.35-2.23-5.38V54.2c0-2.03,0.79-3.94,2.23-5.38c1.44-1.44,3.35-2.23,5.38-2.23L68.12,37.65"/>
				</g>
				<g>
					<path class="st4" d="M92.77,37.65v8.95c2.03,0,3.94,0.79,5.38,2.23c1.44,1.44,2.23,3.35,2.23,5.38v24.86
						c0,2.03-0.79,3.94-2.23,5.38s-3.35,2.23-5.38,2.23v8.95c4.42,0,8.58-1.72,11.71-4.85c3.13-3.13,4.85-7.29,4.85-11.71V54.2
						c0-4.42-1.72-8.58-4.85-11.71C101.35,39.37,97.19,37.65,92.77,37.65"/>
				</g>
			</g>
		</g>
	</g>
</g>
</svg>
