<svg xmlns="http://www.w3.org/2000/svg" width="128" height="80" viewBox="0 0 128 80"><defs><style>.a,.e{fill:#fff;}.a{opacity:0;}.b{fill:#2b7eba;}.c{fill:#eebb8a;}.d{fill:#916744;}.f{fill:#cc8c4f;}.g{fill:#dda06c;}</style></defs><g transform="translate(-16 -16)"><path class="a" d="M0,0H128V80H0Z" transform="translate(16 16)"/><g transform="translate(49.002 25)"><path class="b" d="M0,0H43.988a18,18,0,0,1,18,18V53.988a8,8,0,0,1-8,8H19a19,19,0,0,1-19-19V0A0,0,0,0,1,0,0Z"/><path class="c" d="M0,0H61.988a0,0,0,0,1,0,0V18.159a0,0,0,0,1,0,0H18a18,18,0,0,1-18-18V0A0,0,0,0,1,0,0Z" transform="translate(0 43.834)"/><path class="d" d="M18.208,74.022,7.491,92.585H28.924Z" transform="translate(-4.589 -45.342)"/><g transform="translate(37.776 6.937)"><circle class="e" cx="1.479" cy="1.479" r="1.479" transform="translate(7.336 7.177)"/><g transform="translate(4.678 4.519)"><path class="e" d="M116.106,31.2a4.137,4.137,0,1,1,4.137-4.137.291.291,0,0,1-.582,0,3.559,3.559,0,1,0-3.559,3.559.291.291,0,0,1,.291.291A.284.284,0,0,1,116.106,31.2Z" transform="translate(-111.969 -22.929)"/></g><g transform="translate(2.256 2.097)"><path class="e" d="M111.036,28.551a6.556,6.556,0,1,1,4.637-11.192.288.288,0,1,1-.407.407,5.977,5.977,0,1,0,0,8.452.288.288,0,1,1,.407.407A6.531,6.531,0,0,1,111.036,28.551Z" transform="translate(-104.478 -15.438)"/></g><path class="e" d="M106.316,26.419a8.948,8.948,0,0,1-1.715-.167,8.824,8.824,0,0,1-6.935-10.358.291.291,0,1,1,.57.113,8.246,8.246,0,0,0,6.481,9.678,8.373,8.373,0,0,0,1.6.159,8.238,8.238,0,0,0,1.6-16.318.291.291,0,1,1,.113-.57,8.816,8.816,0,0,1-1.715,17.463Z" transform="translate(-97.498 -8.951)"/></g><path class="f" d="M53.645,47.419l-16.67,28.87H70.31Z" transform="translate(-22.649 -29.046)"/><path class="g" d="M107.9,74.022,97.179,92.585h21.438Z" transform="translate(-59.527 -45.342)"/><g transform="translate(5.372 6.535)"><g transform="translate(11.331)"><path class="e" d="M46.984,24.616a3.875,3.875,0,1,1,3.875-3.875A3.881,3.881,0,0,1,46.984,24.616Zm0-7.056a3.181,3.181,0,1,0,3.181,3.181A3.186,3.186,0,0,0,46.984,17.56Z" transform="translate(-43.109 -16.867)"/></g><g transform="translate(13.298 1.967)"><path class="e" d="M50.094,25.759A1.907,1.907,0,1,1,52,23.852,1.91,1.91,0,0,1,50.094,25.759Zm0-3.121a1.214,1.214,0,1,0,1.214,1.214A1.215,1.215,0,0,0,50.094,22.638Z" transform="translate(-48.187 -21.945)"/></g><g transform="translate(0 7.405)"><path class="e" d="M16.177,40.6a2.312,2.312,0,1,1,2.312-2.312A2.315,2.315,0,0,1,16.177,40.6Zm0-3.935A1.619,1.619,0,1,0,17.8,38.285,1.62,1.62,0,0,0,16.177,36.667Z" transform="translate(-13.866 -35.978)"/></g><circle class="e" cx="0.637" cy="0.637" r="0.637" transform="translate(1.674 9.075)"/><circle class="e" cx="0.609" cy="0.609" r="0.609" transform="translate(13.642 15.842)"/><rect class="e" width="0.833" height="0.521" transform="matrix(0.949, -0.316, 0.316, 0.949, 8.387, 7.066)"/><rect class="e" width="0.833" height="0.521" transform="matrix(0.949, -0.316, 0.316, 0.949, 9.799, 6.593)"/><rect class="e" width="0.833" height="0.521" transform="matrix(0.949, -0.316, 0.316, 0.949, 11.214, 6.121)"/><rect class="e" width="0.833" height="0.521" transform="matrix(0.949, -0.316, 0.316, 0.949, 4.135, 8.481)"/><rect class="e" width="0.833" height="0.521" transform="matrix(0.949, -0.316, 0.316, 0.949, 5.553, 8.01)"/><rect class="e" width="0.833" height="0.521" transform="matrix(0.949, -0.316, 0.316, 0.949, 6.963, 7.54)"/><rect class="e" width="0.791" height="0.521" transform="translate(14.609 10.984) rotate(-84.497)"/><rect class="e" width="0.791" height="0.521" transform="translate(14.748 9.574) rotate(-84.497)"/><rect class="e" width="0.791" height="0.521" transform="translate(14.881 8.163) rotate(-84.497)"/><rect class="e" width="0.791" height="0.521" transform="translate(14.201 15.226) rotate(-84.497)"/><rect class="e" width="0.791" height="0.521" transform="translate(14.34 13.811) rotate(-84.497)"/><rect class="e" width="0.791" height="0.521" transform="translate(14.474 12.404) rotate(-84.497)"/><rect class="e" width="0.521" height="1.079" transform="translate(6.948 12.952) rotate(-62.161)"/><rect class="e" width="0.521" height="1.079" transform="translate(5.234 12.044) rotate(-62.161)"/><rect class="e" width="0.521" height="1.079" transform="translate(3.526 11.142) rotate(-62.161)"/><rect class="e" width="0.521" height="1.079" transform="translate(12.095 15.667) rotate(-62.161)"/><rect class="e" width="0.521" height="1.079" transform="translate(10.378 14.762) rotate(-62.161)"/><rect class="e" width="0.521" height="1.079" transform="translate(8.674 13.863) rotate(-62.161)"/></g><circle class="e" cx="0.609" cy="0.609" r="0.609" transform="translate(30.577 6.475)"/><circle class="e" cx="0.609" cy="0.609" r="0.609" transform="translate(6.698 27.466)"/><circle class="e" cx="0.609" cy="0.609" r="0.609" transform="translate(54.806 26.889)"/><circle class="e" cx="0.609" cy="0.609" r="0.609" transform="translate(8.084 4.856)"/><circle class="e" cx="0.609" cy="0.609" r="0.609" transform="translate(57.062 29.777)"/><circle class="e" cx="0.609" cy="0.609" r="0.609" transform="translate(41.68 27.466)"/><circle class="e" cx="0.609" cy="0.609" r="0.609" transform="translate(5.135 22.954)"/></g></g></svg>