<svg xmlns="http://www.w3.org/2000/svg" width="128" height="80" viewBox="0 0 128 80"><defs><style>.a,.d{fill:#fff;}.a{opacity:0;}.b{fill:#432e59;}.c{fill:#a6cfd5;}.e{fill:#252234;}</style></defs><g transform="translate(-16 -16)"><path class="a" d="M0,0H128V80H0Z" transform="translate(16 16)"/><g transform="translate(41.154 17.154)"><path class="b" d="M17.387,107.527c-1.93.612-4.052,2.035-3.865,4.046.181,1.924,2.332,2.95,4.209,3.434,11.712,3,24.088-.507,36.144.443,3.136.245,6.261.8,9.409.793a15.223,15.223,0,0,0,8.954-2.472,4.334,4.334,0,0,0,1.79-2.279c.42-1.609-.758-3.282-2.262-3.993a10.27,10.27,0,0,0-4.891-.595c-3.69.169-7.38.484-11.047.933a30.613,30.613,0,0,0-4.646.8,20.087,20.087,0,0,1-2.868.735c-3.195.4-6.611-.286-9.747-.839-3.364-.595-6.7-1.329-10.079-1.726a27.663,27.663,0,0,0-9.893.379C18.185,107.288,17.783,107.4,17.387,107.527Z" transform="translate(-5.634 -44.433)"/><g transform="translate(12.277 9.287)"><path class="c" d="M74.2,66.677,59.25,75.048,47.591,58.83,35.185,75.048,21.06,65.254,37.126,44.4,23.077,24.972l13.082-8.523L47.293,31.174,59.1,15.93l14.125,9.345L57.979,45.23Z" transform="translate(-21.06 -15.93)"/><g transform="translate(4.392 8.14)"><path class="d" d="M35.762,50.837c7.485,2.3,15.647-4.4,14.376-12.248a11.676,11.676,0,0,0-7.852-8.354,10.541,10.541,0,0,0-10.1,2.926,11.307,11.307,0,0,0-3.305,10.511A10.357,10.357,0,0,0,35.762,50.837Z" transform="translate(-28.594 -29.893)"/><path class="e" d="M45.75,51.581c1.6.67,3.212-.839,2.827-2.769a3.254,3.254,0,0,0-1.772-2.151,1.82,1.82,0,0,0-2.07.56,2.8,2.8,0,0,0-.536,2.513A2.89,2.89,0,0,0,45.75,51.581Z" transform="translate(-35.061 -36.834)"/></g><g transform="translate(24.717 7.724)"><path class="d" d="M65.657,45.946c4.862,6.133,15.378,5.247,18.789-1.935,1.306-2.752,1.09-7.934-1.731-11.333a10.536,10.536,0,0,0-9.98-3.317,11.314,11.314,0,0,0-8.686,6.78A10.373,10.373,0,0,0,65.657,45.946Z" transform="translate(-63.459 -29.179)"/><path class="e" d="M77.962,49.582c.939,1.463,3.119,1.131,3.9-.676a3.273,3.273,0,0,0-.233-2.775,1.813,1.813,0,0,0-2.023-.711,2.846,2.846,0,0,0-1.644,4.162Z" transform="translate(-69.345 -35.923)"/></g><path class="e" d="M68.046,72.227a7.92,7.92,0,0,0-3.6-.717c-1.988-.111-3.982-.128-5.975-.1-1.883.035-3.766.117-5.643.216a28.734,28.734,0,0,0-4.955.379c-1.743.414-3.259,2.2-1.865,3.836.286.338.77-.152.484-.484C44.908,73.5,48.307,72.6,49.508,72.5s2.431-.146,3.649-.21c2.32-.122,4.646-.21,6.972-.21,2.046,0,4.623-.239,6.593.361,3.241.991.874,3.69.927,5.847a.344.344,0,0,0,.688,0C68.3,76.215,70.582,73.72,68.046,72.227Z" transform="translate(-31.238 -39.063)"/><path class="e" d="M39.59,27.523a8.432,8.432,0,0,0-8.721,2.5c-.321.361.21.892.53.53a7.677,7.677,0,0,1,7.992-2.309A.375.375,0,0,0,39.59,27.523Z" transform="translate(-25.109 -20.621)"/><path class="e" d="M94.223,31.829a8.751,8.751,0,0,0-8.663-6.22.376.376,0,0,0,0,.752,7.98,7.98,0,0,1,7.94,5.672C93.646,32.488,94.369,32.3,94.223,31.829Z" transform="translate(-47.808 -19.966)"/></g></g></g></svg>