<svg xmlns="http://www.w3.org/2000/svg" width="128" height="80" viewBox="0 0 128 80"><defs><style>.a,.b{fill:#fff;}.a{opacity:0;}.c{fill:#fcd388;}.d{fill:#eb7625;}.e{fill:#2377bd;}.f{fill:#112437;}</style></defs><g transform="translate(-16 -16)"><rect class="a" width="128" height="80" transform="translate(16 16)"/><g transform="translate(42 18)"><g transform="translate(23.702 50.466)"><ellipse class="b" cx="5.505" cy="5.499" rx="5.505" ry="5.499" transform="translate(0 5.777)"/><ellipse class="b" cx="5.505" cy="5.499" rx="5.505" ry="5.499" transform="translate(20.227 6.196)"/><ellipse class="b" cx="9.348" cy="9.337" rx="9.348" ry="9.337" transform="translate(6.406)"/></g><g transform="translate(7.489 5.199)"><path class="c" d="M47.487,11.009,15.86,65.789H79.115Z" transform="translate(-15.86 -11.009)"/><path class="d" d="M80.8,69.578s-7.755,8.985-17.325,8.985S46.15,69.578,46.15,69.578s7.755-8.985,17.325-8.985S80.8,69.578,80.8,69.578Z" transform="translate(-31.847 -37.18)"/><path class="b" d="M80.852,71.826S73.3,80.154,63.981,80.154,47.11,71.826,47.11,71.826,54.662,63.5,63.981,63.5,80.852,71.826,80.852,71.826Z" transform="translate(-32.354 -38.713)"/><circle class="e" cx="7.307" cy="7.307" r="7.307" transform="translate(24.32 25.828)"/><circle class="f" cx="4.977" cy="4.977" r="4.977" transform="translate(26.65 28.158)"/><circle class="b" cx="2.749" cy="2.749" r="2.749" transform="translate(23.515 28.13)"/><circle class="b" cx="1.355" cy="1.355" r="1.355" transform="translate(30.273 31.781)"/></g><g transform="translate(2.489 50.466)"><ellipse class="b" cx="5.505" cy="5.499" rx="5.505" ry="5.499" transform="translate(0 5.777)"/><ellipse class="b" cx="5.505" cy="5.499" rx="5.505" ry="5.499" transform="translate(20.227 6.196)"/><ellipse class="b" cx="9.348" cy="9.337" rx="9.348" ry="9.337" transform="translate(6.406)"/></g><g transform="translate(42.518 50.676)"><ellipse class="b" cx="5.505" cy="5.499" rx="5.505" ry="5.499" transform="translate(0 5.777)"/><ellipse class="b" cx="5.505" cy="5.499" rx="5.505" ry="5.499" transform="translate(20.233 6.196)"/><ellipse class="b" cx="9.348" cy="9.337" rx="9.348" ry="9.337" transform="translate(6.412)"/></g></g></g></svg>