<svg xmlns="http://www.w3.org/2000/svg" width="331" height="230.294" viewBox="0 0 331 230.294"><defs><style>.a{fill:#e6e6e6;}.b{fill:#2f2e41;}.c{fill:#3f3d56;}.d{fill:#fff;}.e{fill:#e02020;}.f{fill:#ffb8b8;}.g{fill:#ff7901;}</style></defs><ellipse class="a" cx="65.95" cy="5.009" rx="65.95" ry="5.009" transform="translate(0 220.276)"/><path class="b" d="M324.272,247.547c11.477-4.882,25.772-1.789,39.733.358.13-2.6,1.7-5.763.055-7.577-2-2.2-1.82-4.518-.614-6.847,3.084-5.954-1.334-12.29-5.8-17.558a9.88,9.88,0,0,0-8.246-3.461l-8.264.59a9.9,9.9,0,0,0-8.788,7.073h0c-1.973,2.684-3.029,5.36-2.364,8.022-2.955,2.02-3.452,4.458-2.124,7.206a4.142,4.142,0,0,1-.051,5.053,23.328,23.328,0,0,0-3.469,6.89Z" transform="translate(-273.862 -196.449)"/><path class="b" d="M640.263,629.833H406.343a7.843,7.843,0,0,1-7.843-7.843h0q127.194-14.782,249.607,0h0A7.843,7.843,0,0,1,640.263,629.833Z" transform="translate(-317.107 -430.748)"/><path class="c" d="M648.107,400.935,398.5,400.473,427.429,351.8l.138-.231V244.291a9.914,9.914,0,0,1,9.916-9.915H607.74a9.914,9.914,0,0,1,9.915,9.916V352.305Z" transform="translate(-317.107 -209.231)"/><path class="d" d="M486.842,250.957a3.233,3.233,0,0,0-3.23,3.23V352a3.233,3.233,0,0,0,3.23,3.23H658.937a3.234,3.234,0,0,0,3.23-3.23V254.186a3.233,3.233,0,0,0-3.23-3.23Z" transform="translate(-366.693 -218.891)"/><path class="b" d="M478.7,531.718a1.388,1.388,0,0,0-1.258.806L468.533,551.9a1.384,1.384,0,0,0,1.257,1.963H657.242a1.384,1.384,0,0,0,1.238-2l-9.689-19.378a1.377,1.377,0,0,0-1.238-.765Z" transform="translate(-357.834 -382.462)"/><circle class="d" cx="2.076" cy="2.076" r="2.076" transform="translate(203.428 26.299)"/><path class="b" d="M646.647,593.619a1.386,1.386,0,0,0-1.336,1.024l-2.236,8.3a1.384,1.384,0,0,0,1.336,1.744h42.522a1.384,1.384,0,0,0,1.307-1.837l-2.875-8.3a1.385,1.385,0,0,0-1.308-.931Z" transform="translate(-459.568 -418.525)"/><path class="b" d="M454.533,337.135v1.845H264.306l.143-.23v-1.615Z" transform="translate(-153.984 -196.414)"/><circle class="e" cx="32.297" cy="32.297" r="32.297" transform="translate(262.946 0)"/><path class="d" d="M902.963,257.532H876.2a1.847,1.847,0,0,1-1.846-1.846V239.538a1.848,1.848,0,0,1,1.846-1.846h26.76a1.847,1.847,0,0,1,1.845,1.846v16.148A1.847,1.847,0,0,1,902.963,257.532ZM876.2,239.538v16.148h26.761V239.538Z" transform="translate(-594.34 -211.163)"/><path class="d" d="M907.548,218.931h-16.61v-7.382c0-5.347,3.493-9.228,8.3-9.228s8.3,3.881,8.3,9.228Zm-14.764-1.846H905.7v-5.537c0-4.346-2.656-7.382-6.459-7.382s-6.459,3.036-6.459,7.382Z" transform="translate(-604 -190.556)"/><circle class="d" cx="1.846" cy="1.846" r="1.846" transform="translate(293.398 34.142)"/><path class="a" d="M667.743,368.359h-133a2.466,2.466,0,0,1-2.463-2.463V332.9a2.466,2.466,0,0,1,2.463-2.463h133a2.466,2.466,0,0,1,2.463,2.463V365.9A2.466,2.466,0,0,1,667.743,368.359Zm-133-36.933a1.479,1.479,0,0,0-1.478,1.478V365.9a1.479,1.479,0,0,0,1.478,1.478h133a1.479,1.479,0,0,0,1.478-1.478V332.9a1.479,1.479,0,0,0-1.478-1.478Z" transform="translate(-395.046 -265.198)"/><circle class="a" cx="10.033" cy="10.033" r="10.033" transform="translate(150.329 72.903)"/><path class="a" d="M640.869,356.805a1.672,1.672,0,0,0,0,3.344H719.7a1.672,1.672,0,0,0,0-3.344Z" transform="translate(-457.336 -280.558)"/><path class="a" d="M640.869,380.842a1.672,1.672,0,0,0,0,3.344H674.79a1.672,1.672,0,0,0,0-3.344Z" transform="translate(-457.336 -294.562)"/><path class="f" d="M432.271,362.455l-24.586,13.071-.311-10.893a72.812,72.812,0,0,0,22.719-7.469l2.571-6.353a4.307,4.307,0,0,1,7.32-1.118h0a4.307,4.307,0,0,1-.379,5.872Z" transform="translate(-322.276 -275.498)"/><path class="b" d="M322.861,540.26h0a4.831,4.831,0,0,1,.613-3.908l5.4-8.289a9.438,9.438,0,0,1,12.245-3.23h0c-2.27,3.864-1.953,7.253.784,10.2a49.1,49.1,0,0,0-11.661,7.949,4.831,4.831,0,0,1-7.382-2.721Z" transform="translate(-272.94 -377.835)"/><path class="b" d="M406.458,486.623h0a9.268,9.268,0,0,1-7.877,4.5l-35.88.272-1.556-9.025,15.872-4.668-13.382-10.27,14.627-17.117,26.568,24.762A9.268,9.268,0,0,1,406.458,486.623Z" transform="translate(-295.344 -335.035)"/><path class="b" d="M329.11,513.6h-8.4c-7.545-51.715-15.224-103.575,7.469-122.931l26.765,4.357-3.423,22.719-14.939,17.117Z" transform="translate(-267.354 -300.284)"/><path class="b" d="M344.975,692.493h0a4.831,4.831,0,0,1-3.908-.613l-9.124-1.226a9.438,9.438,0,0,1-3.231-12.244h0c3.864,2.27,7.253,1.953,10.2-.785,2.081,4.2,5.51,3.946,8.785,7.486a4.831,4.831,0,0,1-2.72,7.382Z" transform="translate(-275.833 -467.467)"/><path class="f" d="M377.452,277.929l-15.561-3.735c2.584-5.29,2.8-11.176,1.556-17.428l10.581-.311A81.261,81.261,0,0,0,377.452,277.929Z" transform="translate(-295.778 -222.094)"/><path class="g" d="M368.751,345.315c-11.328,7.719-19.332.264-25.44-11.238.849-7.038-.526-15.461-3.071-24.613a16.754,16.754,0,0,1,10.229-20.2h0l13.382,5.6c11.363,9.262,13.6,19.3,9.337,29.877Z" transform="translate(-282.8 -241.207)"/><path class="f" d="M292.343,308.732l-12.449,6.536,22.1,13.071,3.075,7.584a4.022,4.022,0,0,1-2.416,5.314h0a4.022,4.022,0,0,1-5.327-3.566l-.311-5.286-28.084-9.268a6.567,6.567,0,0,1-4.121-4.012h0a6.567,6.567,0,0,1,2.464-7.64l22.583-15.493Z" transform="translate(-238.99 -245.117)"/><path class="g" d="M337.689,305.391c-5.192-2.275-9.913.2-15.872,2.179l-.934-16.495c5.917-3.154,11.559-4,16.806-1.556Z" transform="translate(-271.887 -240.531)"/><circle class="f" cx="9.935" cy="9.935" r="9.935" transform="translate(62.077 22.661)"/><path class="b" d="M373.622,236.781c-9.837.963-17.332-.645-22.122-5.226v-3.689h21.288Z" transform="translate(-289.724 -205.438)"/></svg>